<svg width="216" height="144" viewBox="0 0 216 144" fill="none" xmlns="http://www.w3.org/2000/svg">
<path fill-rule="evenodd" clip-rule="evenodd" d="M137.734 23.4822C122.389 7.3847 106.854 13.2869 99.1047 21.1521C91.8639 28.506 94.4043 43.2322 104.538 47.3977C123.143 55.0458 107.984 75.5157 92.1778 63.6746C80.6876 55.0623 72.6528 37.7377 85.0924 19.3681C96.1651 3.0164 126.026 1.69622 137.734 23.4822Z" fill="#04198C"/>
<path fill-rule="evenodd" clip-rule="evenodd" d="M123.708 12.2902C91.5264 5.16559 80.7345 41.6931 102.557 50.6613C117.984 57.0004 106.036 72.92 92.6693 62.9026C87.0299 58.6795 82.6733 52.5683 80.9915 45.6909C76.5753 27.6964 93.0887 -0.608283 123.708 12.2902Z" fill="#2785FF"/>
<path fill-rule="evenodd" clip-rule="evenodd" d="M83.115 30.6421C81.8947 43.695 90.0323 52.5965 101.37 55.3701C113.381 58.3093 104.56 71.2632 93.4354 62.3246C85.9341 56.2972 78.1183 44.0607 83.115 30.6421Z" fill="#66A8FF"/>
<path fill-rule="evenodd" clip-rule="evenodd" d="M81.3699 69.3039C98.3724 83.6415 113.174 76.0923 120.02 67.4333C126.421 59.3353 122.296 44.9717 111.776 41.9337C92.4521 36.3473 105.303 14.3508 122.299 24.4093C134.656 31.7244 144.519 48.0707 134.145 67.6894C124.911 85.1417 95.368 89.6913 81.3699 69.3039Z" fill="#04198C"/>
<path fill-rule="evenodd" clip-rule="evenodd" d="M96.526 78.91C129.29 82.5028 136.055 45.0258 113.39 38.4731C97.3667 33.842 107.518 16.7243 121.897 25.2327C127.959 28.8179 132.954 34.4202 135.376 41.0777C141.716 58.4848 128.366 88.416 96.5311 78.9114L96.526 78.91Z" fill="#2785FF"/>
<path fill-rule="evenodd" clip-rule="evenodd" d="M134.892 56.2689C134.688 43.1643 125.635 35.1928 114.066 33.6643C101.801 32.0464 109.171 18.2108 121.197 25.8885C129.308 31.067 138.407 42.3853 134.892 56.2689Z" fill="#66A8FF"/>
<path d="M23.5732 102.818C23.3686 101.091 22.5391 99.75 21.0845 98.7955C19.63 97.8409 17.8459 97.3636 15.7323 97.3636C14.1868 97.3636 12.8345 97.6136 11.6755 98.1136C10.5277 98.6136 9.63 99.3011 8.98227 100.176C8.34591 101.051 8.02772 102.045 8.02772 103.159C8.02772 104.091 8.24932 104.892 8.6925 105.562C9.14704 106.222 9.72659 106.773 10.4311 107.216C11.1357 107.648 11.8743 108.006 12.647 108.29C13.4198 108.562 14.13 108.784 14.7777 108.955L18.3232 109.909C19.2323 110.148 20.2436 110.477 21.3573 110.898C22.4823 111.318 23.5561 111.892 24.5789 112.619C25.613 113.335 26.4652 114.256 27.1357 115.381C27.8061 116.506 28.1414 117.886 28.1414 119.523C28.1414 121.409 27.647 123.114 26.6584 124.636C25.6811 126.159 24.2493 127.369 22.363 128.267C20.488 129.165 18.2095 129.614 15.5277 129.614C13.0277 129.614 10.863 129.21 9.03341 128.403C7.21522 127.597 5.78341 126.472 4.73795 125.028C3.70386 123.585 3.11863 121.909 2.98227 120H7.34591C7.45954 121.318 7.90272 122.409 8.67545 123.273C9.45954 124.125 10.4482 124.761 11.6414 125.182C12.8459 125.591 14.1414 125.795 15.5277 125.795C17.1414 125.795 18.5902 125.534 19.8743 125.011C21.1584 124.477 22.1755 123.739 22.9255 122.795C23.6755 121.841 24.0505 120.727 24.0505 119.455C24.0505 118.295 23.7266 117.352 23.0789 116.625C22.4311 115.898 21.5789 115.307 20.522 114.852C19.4652 114.398 18.3232 114 17.0959 113.659L12.8005 112.432C10.0732 111.648 7.91409 110.528 6.32318 109.074C4.73227 107.619 3.93682 105.716 3.93682 103.364C3.93682 101.409 4.46522 99.7045 5.52204 98.25C6.59022 96.7841 8.02204 95.6477 9.8175 94.8409C11.6243 94.0227 13.6414 93.6136 15.8686 93.6136C18.1186 93.6136 20.1186 94.017 21.8686 94.8239C23.6186 95.6193 25.005 96.7102 26.0277 98.0966C27.0618 99.483 27.6073 101.057 27.6641 102.818H23.5732ZM35.5635 129H31.1316L43.9498 94.0909H48.3135L61.1316 129H56.6998L46.268 99.6136H45.9953L35.5635 129ZM37.1998 115.364H55.0635V119.114H37.1998V115.364ZM65.6091 129V94.0909H77.4046C80.1319 94.0909 82.3705 94.5568 84.1205 95.4886C85.8705 96.4091 87.166 97.6761 88.0069 99.2898C88.8478 100.903 89.2682 102.739 89.2682 104.795C89.2682 106.852 88.8478 108.676 88.0069 110.267C87.166 111.858 85.8762 113.108 84.1376 114.017C82.3989 114.915 80.1773 115.364 77.4728 115.364H67.9273V111.545H77.3364C79.2001 111.545 80.7001 111.273 81.8364 110.727C82.9841 110.182 83.8137 109.409 84.3251 108.409C84.8478 107.398 85.1091 106.193 85.1091 104.795C85.1091 103.398 84.8478 102.176 84.3251 101.131C83.8023 100.085 82.9671 99.2784 81.8194 98.7102C80.6716 98.1307 79.1546 97.8409 77.2682 97.8409H69.8364V129H65.6091ZM82.041 113.318L90.6319 129H85.7228L77.2682 113.318H82.041ZM124.807 111.545C124.807 115.227 124.142 118.409 122.812 121.091C121.483 123.773 119.659 125.841 117.341 127.295C115.023 128.75 112.375 129.477 109.398 129.477C106.42 129.477 103.773 128.75 101.455 127.295C99.1364 125.841 97.3125 123.773 95.983 121.091C94.6534 118.409 93.9886 115.227 93.9886 111.545C93.9886 107.864 94.6534 104.682 95.983 102C97.3125 99.3182 99.1364 97.25 101.455 95.7955C103.773 94.3409 106.42 93.6136 109.398 93.6136C112.375 93.6136 115.023 94.3409 117.341 95.7955C119.659 97.25 121.483 99.3182 122.812 102C124.142 104.682 124.807 107.864 124.807 111.545ZM120.716 111.545C120.716 108.523 120.21 105.972 119.199 103.892C118.199 101.812 116.841 100.239 115.125 99.1705C113.42 98.1023 111.511 97.5682 109.398 97.5682C107.284 97.5682 105.369 98.1023 103.653 99.1705C101.949 100.239 100.591 101.812 99.5795 103.892C98.5795 105.972 98.0795 108.523 98.0795 111.545C98.0795 114.568 98.5795 117.119 99.5795 119.199C100.591 121.278 101.949 122.852 103.653 123.92C105.369 124.989 107.284 125.523 109.398 125.523C111.511 125.523 113.42 124.989 115.125 123.92C116.841 122.852 118.199 121.278 119.199 119.199C120.21 117.119 120.716 114.568 120.716 111.545ZM130.746 94.0909L141.11 123.477H141.519L151.882 94.0909H156.314L143.496 129H139.132L126.314 94.0909H130.746ZM159.223 129H154.792L167.61 94.0909H171.973L184.792 129H180.36L169.928 99.6136H169.655L159.223 129ZM160.86 115.364H178.723V119.114H160.86V115.364ZM189.269 129V94.0909H201.065C203.792 94.0909 206.031 94.5568 207.781 95.4886C209.531 96.4091 210.826 97.6761 211.667 99.2898C212.508 100.903 212.928 102.739 212.928 104.795C212.928 106.852 212.508 108.676 211.667 110.267C210.826 111.858 209.536 113.108 207.798 114.017C206.059 114.915 203.837 115.364 201.133 115.364H191.587V111.545H200.996C202.86 111.545 204.36 111.273 205.496 110.727C206.644 110.182 207.474 109.409 207.985 108.409C208.508 107.398 208.769 106.193 208.769 104.795C208.769 103.398 208.508 102.176 207.985 101.131C207.462 100.085 206.627 99.2784 205.479 98.7102C204.332 98.1307 202.815 97.8409 200.928 97.8409H193.496V129H189.269ZM205.701 113.318L214.292 129H209.383L200.928 113.318H205.701Z" fill="#0B0940"/>
</svg>
