<?xml version="1.0" encoding="UTF-8"?>
<svg id="Layer_2" data-name="Layer 2" xmlns="http://www.w3.org/2000/svg" xmlns:xlink="http://www.w3.org/1999/xlink" viewBox="0 0 296.96 130.71">
  <defs>
    <style>
      .cls-1 {
        fill: url(#linear-gradient-2);
      }

      .cls-2 {
        fill: url(#linear-gradient-4);
      }

      .cls-3 {
        fill: url(#linear-gradient-3);
      }

      .cls-4 {
        fill: url(#linear-gradient-5);
      }

      .cls-5 {
        fill: url(#linear-gradient);
      }
    </style>
    <linearGradient id="linear-gradient" x1="86.2" y1="14.76" x2="198.8" y2="127.36" gradientUnits="userSpaceOnUse">
      <stop offset="0" stop-color="#006fc0"/>
      <stop offset=".51" stop-color="#00acf3"/>
      <stop offset="1" stop-color="#006fc0"/>
    </linearGradient>
    <linearGradient id="linear-gradient-2" x1="22.57" y1="41.88" x2="22.57" y2="41.88" xlink:href="#linear-gradient"/>
    <linearGradient id="linear-gradient-3" x1="1.62" y1="29.65" x2="77.41" y2="105.44" xlink:href="#linear-gradient"/>
    <linearGradient id="linear-gradient-4" x1="62.72" y1="104" x2="83.71" y2="125" xlink:href="#linear-gradient"/>
    <linearGradient id="linear-gradient-5" x1="212.22" y1="65.36" x2="296.96" y2="65.36" xlink:href="#linear-gradient"/>
  </defs>
  <g id="Layer_1-2" data-name="Layer 1">
    <g>
      <path class="cls-5" d="M121.42,98.06l-.07,5.42h48.5c14.59,0,26.42,11.83,26.42,26.42h-101.69l.43-32.12c.01-7,1.39-13.8,4.1-20.21,2.63-6.21,6.39-11.79,11.17-16.58.4-.4.81-.79,1.21-1.17,4.51-4.23,9.67-7.59,15.36-10,6.44-2.73,13.28-4.1,20.31-4.1h15.82c5.19,0,9.66-3.98,9.92-9.16.28-5.54-4.15-10.14-9.63-10.14h-18.49s-31.91.04-31.91.04c-6.59,0-11.94-5.34-11.95-11.93V.05s62.34-.05,62.34-.05c4.86,0,9.58.95,14.04,2.84.88.37,1.74.78,2.58,1.21,3.27,1.7,6.25,3.88,8.88,6.51,3.31,3.31,5.91,7.16,7.72,11.46,1.88,4.45,2.84,9.18,2.84,14.04s-.96,9.59-2.84,14.05c-1.82,4.29-4.41,8.15-7.72,11.46-3.31,3.31-7.16,5.91-11.46,7.72-4.45,1.88-9.18,2.84-14.04,2.84h-16.1c-7.99,0-15.13,3.65-19.86,9.37-3.67,4.45-5.89,10.16-5.89,16.38v.18Z"/>
      <g>
        <polygon class="cls-1" points="22.57 41.88 22.57 41.88 22.57 41.88 22.57 41.88"/>
        <path class="cls-3" d="M52.99,15.05v114.82h-23.06V35.39l-7.35,6.49-7,6.4L0,31.28,29.54,4.22c1.24-1.14,2.68-2.02,4.22-2.62,1.54-.6,3.19-.92,4.88-.92,3.96,0,7.55,1.61,10.15,4.21,2.6,2.6,4.21,6.19,4.21,10.15Z"/>
      </g>
      <circle class="cls-2" cx="73.21" cy="114.5" r="14.85"/>
      <path class="cls-4" d="M232.23,56.15c-6.41,0-11.34-1.82-14.81-5.46-3.47-3.64-5.2-8.75-5.2-15.34v-14.54c0-6.58,1.73-11.69,5.2-15.34,3.47-3.64,8.4-5.46,14.81-5.46s11.27,1.84,14.76,5.51c3.5,3.67,5.24,8.83,5.24,15.47v14.37c0,6.58-1.75,11.69-5.24,15.34-3.5,3.64-8.42,5.46-14.76,5.46ZM215.4,129.39L279.48,1.23h12.08l-63.99,128.16h-12.16ZM232.23,45.57c5.7,0,8.55-3.11,8.55-9.34v-16.48c0-6.11-2.85-9.17-8.55-9.17s-8.64,3.08-8.64,9.25v16.39c0,6.23,2.88,9.34,8.64,9.34ZM276.95,130.71c-6.41,0-11.34-1.82-14.81-5.46-3.47-3.64-5.2-8.75-5.2-15.34v-14.54c0-6.58,1.73-11.69,5.2-15.34,3.47-3.64,8.4-5.46,14.81-5.46s11.27,1.84,14.76,5.51c3.5,3.67,5.24,8.83,5.24,15.47v14.37c0,6.58-1.75,11.69-5.24,15.34-3.5,3.64-8.42,5.46-14.76,5.46ZM276.95,120.14c5.7,0,8.55-3.11,8.55-9.34v-16.48c0-6.11-2.85-9.17-8.55-9.17s-8.64,3.08-8.64,9.25v16.39c0,6.23,2.88,9.34,8.64,9.34Z"/>
    </g>
  </g>
</svg>