<svg xmlns="http://www.w3.org/2000/svg" xmlns:xlink="http://www.w3.org/1999/xlink" id="Layer_2" data-name="Layer 2" viewBox="0 0 843.84 361.54">
  <defs>
    <path id="reuse-0" d="M236.09 314.91c0 25.76-20.86 46.64-46.64 46.64s-46.64-20.88-46.64-46.64 20.86-46.66 46.64-46.66 46.64 20.88 46.64 46.66Z" class="cls-2"/>
  </defs>
  <defs>
    <linearGradient id="linear-gradient" x1="62.32" x2="62.32" y1="113.74" y2="113.74" gradientUnits="userSpaceOnUse">
      <stop offset="0" stop-color="#006fc0"/>
      <stop offset=".51" stop-color="#00acf3"/>
      <stop offset="1" stop-color="#006fc0"/>
    </linearGradient>
    <linearGradient xlink:href="#linear-gradient" id="linear-gradient-2" x1="4.49" x2="211.7" y1="79.98" y2="287.19"/>
    <linearGradient xlink:href="#linear-gradient" id="linear-gradient-3" x1="213.42" x2="519.48" y1="43.58" y2="349.65"/>
    <linearGradient id="linear-gradient-4" x1="156.46" x2="222.44" y1="281.91" y2="347.89" gradientUnits="userSpaceOnUse">
      <stop offset="0" stop-color="#006fc0"/>
      <stop offset="1" stop-color="#006fc0"/>
    </linearGradient>
    <linearGradient xlink:href="#linear-gradient" id="linear-gradient-5" x1="556.25" x2="839.24" y1="40.97" y2="323.96"/>
    <style>
      .cls-2{fill:url(#linear-gradient-4)}
    </style>
  </defs>
  <g id="Layer_1-2" data-name="Layer 1">
    <path d="M62.32 113.74z" style="fill:url(#linear-gradient)"/>
    <path d="M146.32 39.65v229.17c-12.31 11.52-20.02 27.92-20.02 46.09 0 16.02 6 30.66 15.87 41.81H82.63V95.83l-20.31 17.93L43 131.45 0 84.47 81.57 9.76C85 6.62 88.96 4.18 93.22 2.53 97.48.88 102.03 0 106.69 0c10.93 0 20.84 4.44 28.02 11.61 7.17 7.17 11.61 17.08 11.61 28.03Z" style="fill:url(#linear-gradient-2)"/>
    <path d="m308.98 270.18-.2 14.73H440.6c39.65 0 71.81 32.14 71.81 71.81H236.73c9.87-11.15 15.87-25.8 15.87-41.81s-5.85-30.31-15.48-41.41l.06-4.07c.04-19.03 3.78-37.5 11.15-54.93 7.14-16.88 17.36-32.05 30.36-45.06 1.1-1.08 2.2-2.15 3.3-3.19a141.543 141.543 0 0 1 41.76-27.17c17.5-7.41 36.09-11.16 55.21-11.16h42.99c14.11 0 26.25-10.82 26.95-24.9.75-15.06-11.28-27.56-26.18-27.56l-50.25.04-86.73.07c-17.93.02-32.46-14.51-32.47-32.42l-.04-39.37 169.49-.13c13.21 0 26.05 2.59 38.16 7.72 2.39 1.01 4.73 2.11 7.01 3.28a97.704 97.704 0 0 1 24.14 17.7 97.645 97.645 0 0 1 20.99 31.15c5.12 12.11 7.72 24.95 7.72 38.16s-2.61 26.07-7.72 38.18c-4.94 11.67-12 22.14-20.99 31.15a97.645 97.645 0 0 1-31.15 20.99c-12.11 5.12-24.95 7.72-38.16 7.72h-43.76c-21.7 0-41.12 9.93-53.98 25.47-9.98 12.11-16 27.61-16 44.51v.48Z" style="fill:url(#linear-gradient-3)"/>
    <path xmlns="http://www.w3.org/2000/svg" class="cls-2" d="M236.09,314.91c0,25.76-20.86,46.64-46.64,46.64s-46.64-20.88-46.64-46.64,20.86-46.66,46.64-46.66,46.64,20.88,46.64,46.66Z" fill="#006fc0" />
    <path d="M617.71 193.17c-23.16 0-39.9-7.11-50.22-21.34C557.16 157.6 552 138.49 552 114.49V88.12c0-24.83 5.02-43.94 15.07-57.34 10.04-13.39 26.92-20.09 50.64-20.09s40.6 6.42 50.64 19.25c10.04 12.84 15.07 31.53 15.07 56.08v29.72c0 24.27-5.09 43.25-15.28 56.92-10.19 13.67-27 20.51-50.43 20.51Zm0-33.9c7.25 0 12.62-2.02 16.11-6.07 3.49-4.04 5.86-9.42 7.11-16.11 1.26-6.7 1.88-13.81 1.88-21.34V86.03c0-11.44-1.47-21.2-4.4-29.3-2.93-8.09-9.84-12.14-20.72-12.14s-17.72 4.12-20.51 12.34c-2.79 8.23-4.19 18.07-4.19 29.51v29.72c0 7.53.63 14.58 1.88 21.13 1.26 6.56 3.62 11.86 7.11 15.9 3.49 4.05 8.72 6.07 15.7 6.07Zm14.15 192.94 93.33-339.43h38.5L670.78 352.2h-38.92Zm146.27 2.09c-23.16 0-39.83-7.04-50.02-21.13-10.19-14.09-15.28-33.27-15.28-57.55v-26.37c0-24.55 4.95-43.59 14.86-57.13 9.9-13.53 26.71-20.3 50.43-20.3s40.94 6.49 50.85 19.46c9.9 12.98 14.86 31.74 14.86 56.29v29.3c0 24.56-5.09 43.6-15.28 57.13-10.19 13.54-26.99 20.3-50.43 20.3Zm0-33.9c7.25 0 12.69-2.02 16.32-6.07 3.62-4.04 6-9.42 7.11-16.11 1.11-6.7 1.67-13.67 1.67-20.93v-30.13c0-11.44-1.47-21.2-4.4-29.3-2.93-8.09-9.83-12.14-20.72-12.14s-17.72 4.12-20.51 12.35c-2.79 8.23-4.19 18.07-4.19 29.51v29.72c0 7.53.63 14.58 1.88 21.14 1.26 6.56 3.62 11.86 7.11 15.9 3.48 4.05 8.72 6.07 15.7 6.07Z" style="fill:url(#linear-gradient-5)"/>
  </g>
</svg>