<svg width="19" height="23" viewBox="0 0 19 23" fill="none" xmlns="http://www.w3.org/2000/svg">
<path d="M12.6649 16.2816H18.2058C18.2058 16.2816 17.8905 21.9291 9.55961 22.1245C9.55961 22.1245 2.17997 22.6349 0.913367 16.2816H6.45428V17.5386H12.6649V16.2816H12.6649ZM9.56781 4.59804C8.47762 4.59804 7.56488 5.52811 7.33978 6.76649H11.8009C11.5759 5.52811 10.6573 4.59804 9.56781 4.59804ZM3.09711 8.21747V2.60111C3.09711 1.64418 3.87528 0.865662 4.83182 0.865662H14.3149C15.2714 0.865662 16.0496 1.64418 16.0496 2.60111V8.21742C16.0496 9.17426 15.2714 9.95282 14.3149 9.95282H12.2523L9.86757 13.2216C9.79589 13.3197 9.68187 13.3776 9.56039 13.3776C9.56 13.3776 9.55961 13.3776 9.55961 13.3776C9.43812 13.3776 9.32377 13.3189 9.25243 13.2201L6.88558 9.95277H4.83182C3.87528 9.95282 3.09711 9.1743 3.09711 8.21747ZM5.45546 7.35936C5.45546 7.6848 5.71664 7.9515 6.04755 7.9515H13.0992C13.4302 7.9515 13.6913 7.6848 13.6913 7.35936C13.6913 7.03324 13.4301 6.76654 13.0992 6.76654H12.9918C12.773 5.08915 11.6179 3.75038 10.1544 3.4726L10.1481 2.85673C10.1481 2.52909 9.88138 2.28695 9.5496 2.26981C9.22425 2.26981 8.96268 2.54247 8.96268 2.86859L8.96937 3.4726C7.51073 3.76229 6.36776 5.09584 6.14266 6.76654H6.0476C5.71664 6.76649 5.45546 7.03324 5.45546 7.35936ZM6.30795 15.2356C6.708 15.2356 7.03221 14.9414 7.03221 14.5789V12.2038C7.03221 11.816 6.708 11.5018 6.30795 11.5018H1.0538C0.703846 11.5018 0.403748 11.7447 0.341297 12.0783C0.331336 12.1302 0.108826 13.2327 0.388855 14.6561C0.390369 14.6643 0.392224 14.671 0.393738 14.6791C0.446814 14.9934 0.746961 15.2356 1.10951 15.2356H6.30795ZM18.0276 11.5018H12.7738C12.4235 11.5018 12.1237 11.7448 12.061 12.0783C12.0513 12.1303 11.8284 13.2327 12.1089 14.6561C12.1104 14.6643 12.1119 14.671 12.1137 14.6792C12.1665 14.9934 12.467 15.2357 12.8296 15.2357H18.0276C18.4276 15.2357 18.7519 14.9414 18.7519 14.5789V12.2038C18.7519 11.816 18.4276 11.5018 18.0276 11.5018Z" fill="#1E1E1E" fill-opacity="0.5"/>
</svg>
