<svg width="85" height="85" viewBox="0 0 85 85" fill="none" xmlns="http://www.w3.org/2000/svg">
<g filter="url(#filter0_d_69_96)">
<circle cx="42.5" cy="38.5" r="38.5" fill="#1E1E1E"/>
<circle cx="42.5" cy="38.5" r="37.5" stroke="#F2CB05" stroke-width="2"/>
</g>
<path d="M40.6618 23.7586H29.2003C28.8436 23.7586 28.5015 23.9003 28.2493 24.1525C27.9971 24.4047 27.8555 24.7468 27.8555 25.1035V36.7586C27.8555 37.1153 27.9971 37.4574 28.2493 37.7096C28.5015 37.9618 28.8436 38.1035 29.2003 38.1035H40.6618C41.0185 38.1035 41.3605 37.9618 41.6127 37.7096C41.8649 37.4574 42.0066 37.1153 42.0066 36.7586V25.1035C42.0066 24.7468 41.8649 24.4047 41.6127 24.1525C41.3605 23.9003 41.0185 23.7586 40.6618 23.7586ZM39.317 35.4138H30.5451V26.4483H39.317V35.4138ZM36.7241 29.1379H33.1379V32.7241H36.7241V29.1379ZM22.3793 34.5172C22.8549 34.5172 23.311 34.3283 23.6472 33.9921C23.9835 33.6558 24.1724 33.1997 24.1724 32.7241V21.9655C24.1729 21.4901 24.362 21.0343 24.6981 20.6981C25.0343 20.362 25.4901 20.1729 25.9655 20.1724H36.7241C37.1997 20.1724 37.6558 19.9835 37.9921 19.6472C38.3283 19.311 38.5172 18.8549 38.5172 18.3793C38.5172 17.9038 38.3283 17.4477 37.9921 17.1114C37.6558 16.7751 37.1997 16.5862 36.7241 16.5862H25.9655C24.5393 16.5876 23.1719 17.1548 22.1633 18.1633C21.1548 19.1719 20.5876 20.5393 20.5862 21.9655V32.7241C20.5862 33.1997 20.7751 33.6558 21.1114 33.9921C21.4477 34.3283 21.9038 34.5172 22.3793 34.5172ZM40.6618 39.8966H29.2003C28.8436 39.8966 28.5015 40.0382 28.2493 40.2904C27.9971 40.5427 27.8555 40.8847 27.8555 41.2414V52.8966C27.8555 53.2532 27.9971 53.5953 28.2493 53.8475C28.5015 54.0997 28.8436 54.2414 29.2003 54.2414H40.6618C41.0185 54.2414 41.3605 54.0997 41.6127 53.8475C41.8649 53.5953 42.0066 53.2532 42.0066 52.8966V41.2414C42.0066 40.8847 41.8649 40.5427 41.6127 40.2904C41.3605 40.0382 41.0185 39.8966 40.6618 39.8966ZM39.317 51.5517H30.5451V42.5862H39.317V51.5517ZM36.7241 45.2759H33.1379V48.8621H36.7241V45.2759ZM36.7241 57.8276H25.9655C25.4901 57.8271 25.0343 57.638 24.6981 57.3019C24.362 56.9657 24.1729 56.5099 24.1724 56.0345V45.2759C24.1724 44.8003 23.9835 44.3442 23.6472 44.0079C23.311 43.6717 22.8549 43.4828 22.3793 43.4828C21.9038 43.4828 21.4477 43.6717 21.1114 44.0079C20.7751 44.3442 20.5862 44.8003 20.5862 45.2759V56.0345C20.5876 57.4607 21.1548 58.8282 22.1633 59.8367C23.1719 60.8452 24.5393 61.4124 25.9655 61.4138H36.7241C37.1997 61.4138 37.6558 61.2249 37.9921 60.8886C38.3283 60.5523 38.5172 60.0963 38.5172 59.6207C38.5172 59.1451 38.3283 58.689 37.9921 58.3528C37.6558 58.0165 37.1997 57.8276 36.7241 57.8276ZM63.6207 43.4828C63.1451 43.4828 62.689 43.6717 62.3528 44.0079C62.0165 44.3442 61.8276 44.8003 61.8276 45.2759V56.0345C61.8271 56.5099 61.638 56.9657 61.3019 57.3019C60.9657 57.638 60.5099 57.8271 60.0345 57.8276H49.2759C48.8003 57.8276 48.3442 58.0165 48.0079 58.3528C47.6717 58.689 47.4828 59.1451 47.4828 59.6207C47.4828 60.0963 47.6717 60.5523 48.0079 60.8886C48.3442 61.2249 48.8003 61.4138 49.2759 61.4138H60.0345C61.4607 61.4124 62.8282 60.8452 63.8367 59.8367C64.8452 58.8282 65.4124 57.4607 65.4138 56.0345V45.2759C65.4138 44.8003 65.2249 44.3442 64.8886 44.0079C64.5523 43.6717 64.0963 43.4828 63.6207 43.4828ZM48.3793 49.7586H44.7931V53.3448H48.3793V49.7586ZM44.7931 44.3686H48.3793V40.7824H44.7931V44.3686ZM60.0345 16.5862H49.2759C48.8003 16.5862 48.3442 16.7751 48.0079 17.1114C47.6717 17.4477 47.4828 17.9038 47.4828 18.3793C47.4828 18.8549 47.6717 19.311 48.0079 19.6472C48.3442 19.9835 48.8003 20.1724 49.2759 20.1724H60.0345C60.5099 20.1729 60.9657 20.362 61.3019 20.6981C61.638 21.0343 61.8271 21.4901 61.8276 21.9655V32.7241C61.8276 33.1997 62.0165 33.6558 62.3528 33.9921C62.689 34.3283 63.1451 34.5172 63.6207 34.5172C64.0963 34.5172 64.5523 34.3283 64.8886 33.9921C65.2249 33.6558 65.4138 33.1997 65.4138 32.7241V21.9655C65.4124 20.5393 64.8452 19.1719 63.8367 18.1633C62.8282 17.1548 61.4607 16.5876 60.0345 16.5862ZM49.2759 32.7241H52.8621V29.1379H49.2759V32.7241ZM52.8621 48.8621V45.2759H49.2759V48.8621H52.8621ZM56.7997 38.1035C57.1564 38.1035 57.4985 37.9618 57.7507 37.7096C58.0029 37.4574 58.1446 37.1153 58.1446 36.7586V25.1035C58.1446 24.7468 58.0029 24.4047 57.7507 24.1525C57.4985 23.9003 57.1564 23.7586 56.7997 23.7586H45.3382C44.9815 23.7586 44.6395 23.9003 44.3873 24.1525C44.1351 24.4047 43.9934 24.7468 43.9934 25.1035V36.7586C43.9934 37.1153 44.1351 37.4574 44.3873 37.7096C44.6395 37.9618 44.9815 38.1035 45.3382 38.1035H56.7997ZM46.683 26.4483H55.4549V35.4138H46.683V26.4483ZM57.3448 40.7824H53.7586V44.3686H57.3448V40.7824ZM53.7586 53.3448H57.3448V49.7586H53.7586V53.3448Z" fill="#F2CB05"/>
<defs>
<filter id="filter0_d_69_96" x="0" y="0" width="85" height="85" filterUnits="userSpaceOnUse" color-interpolation-filters="sRGB">
<feFlood flood-opacity="0" result="BackgroundImageFix"/>
<feColorMatrix in="SourceAlpha" type="matrix" values="0 0 0 0 0 0 0 0 0 0 0 0 0 0 0 0 0 0 127 0" result="hardAlpha"/>
<feOffset dy="4"/>
<feGaussianBlur stdDeviation="2"/>
<feComposite in2="hardAlpha" operator="out"/>
<feColorMatrix type="matrix" values="0 0 0 0 0 0 0 0 0 0 0 0 0 0 0 0 0 0 0.25 0"/>
<feBlend mode="normal" in2="BackgroundImageFix" result="effect1_dropShadow_69_96"/>
<feBlend mode="normal" in="SourceGraphic" in2="effect1_dropShadow_69_96" result="shape"/>
</filter>
</defs>
</svg>
