<svg width="29" height="29" viewBox="0 0 29 29" fill="none" xmlns="http://www.w3.org/2000/svg">
<g clip-path="url(#clip0_599_4363)">
<path d="M6.28335 1.25261e-05H22.7167C23.5423 -0.00163694 24.3601 0.15976 25.1232 0.474943C25.8862 0.790126 26.5796 1.25289 27.1633 1.83668C27.7471 2.42047 28.2099 3.11379 28.5251 3.87687C28.8403 4.63994 29.0017 5.45774 29 6.28335V22.7167C29.0017 23.5423 28.8403 24.3601 28.5251 25.1232C28.2099 25.8862 27.7471 26.5796 27.1633 27.1633C26.5796 27.7471 25.8862 28.2099 25.1232 28.5251C24.3601 28.8403 23.5423 29.0017 22.7167 29H6.28335C5.45774 29.0017 4.63994 28.8403 3.87687 28.5251C3.11379 28.2099 2.42047 27.7471 1.83668 27.1633C1.25289 26.5796 0.790126 25.8862 0.474943 25.1232C0.15976 24.3601 -0.00163694 23.5423 1.25261e-05 22.7167V6.28335C-0.00163758 5.45774 0.159759 4.63994 0.474942 3.87687C0.790125 3.11379 1.25289 2.42047 1.83668 1.83668C2.42047 1.25289 3.11379 0.790125 3.87687 0.474942C4.63994 0.159759 5.45774 -0.00163758 6.28335 1.25261e-05Z" fill="url(#paint0_linear_599_4363)"/>
<path fill-rule="evenodd" clip-rule="evenodd" d="M8.48254 8.70011C9.90837 8.70011 10.2467 7.54011 10.4159 7.27428C10.5869 6.9759 10.833 6.72746 11.1298 6.55364C11.4265 6.37982 11.7636 6.28667 12.1075 6.28345H16.9409C17.2884 6.2832 17.6295 6.37753 17.9275 6.55634C18.2255 6.73514 18.4692 6.99168 18.6325 7.29845C18.7775 7.56428 19.0917 8.70011 20.5417 8.70011H23.7075C24.0918 8.70124 24.4599 8.85437 24.7316 9.12605C25.0033 9.39774 25.1564 9.7659 25.1575 10.1501V20.5418C25.1564 20.926 25.0033 21.2942 24.7316 21.5658C24.4599 21.8375 24.0918 21.9907 23.7075 21.9918H5.34087C4.95665 21.9907 4.58849 21.8375 4.31681 21.5658C4.04512 21.2942 3.89199 20.926 3.89087 20.5418V10.1501C3.89199 9.7659 4.04512 9.39774 4.31681 9.12605C4.58849 8.85437 4.95665 8.70124 5.34087 8.70011H8.48254ZM14.5 19.5751C15.3843 19.5751 16.2487 19.3129 16.9839 18.8216C17.7191 18.3304 18.2922 17.6321 18.6305 16.8152C18.9689 15.9983 19.0575 15.0993 18.885 14.2321C18.7125 13.3648 18.2866 12.5682 17.6614 11.9429C17.0361 11.3177 16.2395 10.8919 15.3723 10.7194C14.505 10.5468 13.6061 10.6354 12.7891 10.9738C11.9722 11.3122 11.2739 11.8852 10.7827 12.6204C10.2914 13.3556 10.0292 14.22 10.0292 15.1043C10.0306 16.2896 10.5021 17.4259 11.3402 18.2641C12.1784 19.1022 13.3147 19.5737 14.5 19.5751ZM14.5 18.8501C13.7592 18.8501 13.035 18.6304 12.419 18.2188C11.803 17.8072 11.3228 17.2222 11.0393 16.5378C10.7558 15.8533 10.6816 15.1001 10.8262 14.3735C10.9707 13.6469 11.3275 12.9794 11.8513 12.4556C12.3752 11.9317 13.0426 11.575 13.7693 11.4304C14.4959 11.2859 15.249 11.3601 15.9335 11.6436C16.618 11.9271 17.203 12.4072 17.6146 13.0232C18.0262 13.6392 18.2459 14.3634 18.2459 15.1043C18.2475 15.5966 18.1517 16.0845 17.964 16.5397C17.7763 16.9948 17.5005 17.4084 17.1523 17.7566C16.8042 18.1047 16.3906 18.3806 15.9354 18.5683C15.4802 18.7559 14.9924 18.8517 14.5 18.8501ZM6.28337 7.25011H7.97504C8.00728 7.24817 8.03957 7.25308 8.06977 7.26454C8.09998 7.276 8.1274 7.29373 8.15024 7.31657C8.17309 7.33941 8.19082 7.36684 8.20228 7.39704C8.21373 7.42725 8.21865 7.45954 8.2167 7.49178V8.21678H6.0417V7.49178C6.03976 7.45954 6.04467 7.42725 6.05613 7.39704C6.06759 7.36684 6.08532 7.33941 6.10816 7.31657C6.131 7.29373 6.15843 7.276 6.18863 7.26454C6.21884 7.25309 6.25113 7.24817 6.28337 7.25011Z" fill="#2E2E2F"/>
<path d="M19.8167 11.4066C20.1103 11.4066 20.3484 11.1686 20.3484 10.8749C20.3484 10.5813 20.1103 10.3433 19.8167 10.3433C19.5231 10.3433 19.285 10.5813 19.285 10.8749C19.285 11.1686 19.5231 11.4066 19.8167 11.4066Z" fill="#FFCC00"/>
</g>
<defs>
<linearGradient id="paint0_linear_599_4363" x1="14.5" y1="29" x2="14.5" y2="1.38283e-05" gradientUnits="userSpaceOnUse">
<stop stop-color="#8E8E93"/>
<stop offset="1" stop-color="#E5E5EA"/>
</linearGradient>
<clipPath id="clip0_599_4363">
<rect width="29" height="29" fill="white"/>
</clipPath>
</defs>
</svg>
