    <svg width="63" height="63" viewBox="0 0 63 63" fill="none" xmlns="http://www.w3.org/2000/svg">
<circle cx="31.5" cy="31.5" r="30.5" fill="#32269E" stroke="white" stroke-width="2"/>
<path d="M26.7875 25.5573L31.4275 18L36.14 25.5573L46 27.1383L39.0037 33.3676L40.49 42L31.4275 38.1423L22.51 42L23.96 33.3676L17 27.1383L26.7875 25.5573Z" fill="white"/>
<path d="M40.1485 12.9766L41.825 13.5949C43.1824 14.0955 44.2524 15.1654 44.7528 16.5226L45.3712 18.1993C45.3945 18.2623 45.4546 18.3042 45.5217 18.3042C45.5889 18.3042 45.649 18.2623 45.6723 18.1993L46.2907 16.5227C46.7912 15.1654 47.8612 14.0955 49.2185 13.5949L50.8951 12.9766C50.9581 12.9534 51 12.8933 51 12.8261C51 12.7589 50.9581 12.6988 50.8951 12.6755L49.2184 12.0571C47.8611 11.5565 46.7912 10.4866 46.2907 9.12933L45.6723 7.45257C45.649 7.38954 45.5889 7.34768 45.5217 7.34768C45.4546 7.34768 45.3945 7.38954 45.3712 7.45257L44.7528 9.12933C44.2523 10.4866 43.1824 11.5566 41.8251 12.0571L40.1484 12.6755C40.0853 12.6988 40.0435 12.7589 40.0435 12.8261C40.0435 12.8933 40.0854 12.9534 40.1485 12.9766Z" fill="#FF5000"/>
<path d="M36.1978 19.5751L37.2757 19.9726C38.1482 20.2944 38.836 20.9822 39.1578 21.8547L39.5553 22.9325C39.5703 22.973 39.609 23 39.6521 23C39.6953 23 39.7339 22.973 39.7489 22.9325L40.1463 21.8548C40.4681 20.9822 41.156 20.2944 42.0285 19.9726L43.1063 19.5751C43.1468 19.5602 43.1738 19.5216 43.1738 19.4784C43.1738 19.4352 43.1468 19.3965 43.1063 19.3816L42.0284 18.9842C41.156 18.6623 40.4681 17.9745 40.1463 17.102L39.7489 16.024C39.7339 15.9835 39.6953 15.9565 39.6521 15.9565C39.609 15.9565 39.5703 15.9835 39.5553 16.024L39.1578 17.102C38.836 17.9746 38.1483 18.6623 37.2757 18.9841L36.1978 19.3816C36.1573 19.3965 36.1303 19.4352 36.1303 19.4784C36.1303 19.5216 36.1573 19.5602 36.1978 19.5751Z" fill="#FF5000"/>
<path d="M33.0525 10.543L33.8909 10.8081C34.5696 11.0226 35.1045 11.4811 35.3547 12.0627L35.664 12.7812C35.6756 12.8082 35.7057 12.8262 35.7392 12.8262C35.7728 12.8262 35.8029 12.8082 35.8145 12.7812L36.1238 12.0627C36.374 11.481 36.9089 11.0225 37.5875 10.8081L38.4258 10.543C38.4573 10.5331 38.4783 10.5073 38.4783 10.4785C38.4783 10.4497 38.4573 10.4239 38.4258 10.414L37.5876 10.1489C36.9088 9.93435 36.3739 9.47575 36.1237 8.89404L35.8144 8.17546C35.8028 8.14846 35.7727 8.13052 35.7391 8.13052C35.7056 8.13052 35.6755 8.14846 35.6639 8.17546L35.3546 8.89404C35.1044 9.47575 34.5695 9.93435 33.8907 10.1489L33.0524 10.414C33.0209 10.4239 33 10.4497 33 10.4785C33 10.5073 33.0209 10.5331 33.0525 10.543Z" fill="#FF5000"/>
</svg>
