<svg width="31" height="31" viewBox="0 0 31 31" fill="none" xmlns="http://www.w3.org/2000/svg">
<path fill-rule="evenodd" clip-rule="evenodd" d="M23.25 11.625C22.1805 11.625 21.3125 12.493 21.3125 13.5625C21.3125 14.632 22.1805 15.5 23.25 15.5C24.3195 15.5 25.1875 14.632 25.1875 13.5625C25.1875 12.493 24.3195 11.625 23.25 11.625ZM15.5 25.1875C14.3685 25.1875 13.2757 25.0557 12.2256 24.832L7.66475 27.5735L7.72579 23.0795C4.22957 20.9773 1.9375 17.5014 1.9375 13.5625C1.9375 7.14259 8.00963 1.9375 15.5 1.9375C22.9904 1.9375 29.0625 7.14259 29.0625 13.5625C29.0625 19.9834 22.9904 25.1875 15.5 25.1875ZM15.5 0C6.94012 0 0 6.07309 0 13.5625C0 17.8434 2.27172 21.6554 5.8125 24.1403V31L12.6025 26.8799C13.5422 27.0349 14.509 27.125 15.5 27.125C24.0599 27.125 31 21.0529 31 13.5625C31 6.07309 24.0599 0 15.5 0ZM7.75 11.625C6.6805 11.625 5.8125 12.493 5.8125 13.5625C5.8125 14.632 6.6805 15.5 7.75 15.5C8.8195 15.5 9.6875 14.632 9.6875 13.5625C9.6875 12.493 8.8195 11.625 7.75 11.625ZM15.5 11.625C14.4305 11.625 13.5625 12.493 13.5625 13.5625C13.5625 14.632 14.4305 15.5 15.5 15.5C16.5695 15.5 17.4375 14.632 17.4375 13.5625C17.4375 12.493 16.5695 11.625 15.5 11.625Z" fill="#32269E"/>
</svg>
