<svg width="18" height="18" viewBox="0 0 18 18" fill="none" xmlns="http://www.w3.org/2000/svg">
<path d="M4.51043 6.49905C4.45753 6.13431 4.34442 5.70015 4.2091 5.18072L3.80353 3.62371L3.79639 3.59627C4.32906 3.08286 4.93747 2.64765 5.60317 2.30908L6.82735 3.23756C7.24701 3.55587 7.59983 3.8235 7.91221 4.00819C8.07578 4.1049 8.24048 4.18659 8.41231 4.24502V6.51146C8.31998 6.55447 8.23148 6.60853 8.14876 6.67353L6.69952 7.81237C6.64546 7.8549 6.5953 7.90087 6.54919 7.94992L4.54057 7.08016C4.55272 6.89027 4.53925 6.69774 4.51043 6.49905Z" fill="#1C274C"/>
<path d="M3.03395 7.65211C2.8127 7.84269 2.50121 8.05531 2.03284 8.37339L1.50488 8.73204C1.5585 7.20401 2.06868 5.79229 2.90303 4.62939L3.11276 5.43459C3.25786 5.99166 3.35432 6.36517 3.39719 6.66071C3.43807 6.94255 3.42059 7.09748 3.37459 7.22217C3.32896 7.34586 3.24367 7.47139 3.03395 7.65211Z" fill="#1C274C"/>
<path d="M3.97576 12.6637C4.4967 12.6637 4.93586 12.6637 5.29463 12.7059C5.48384 12.7281 5.66455 12.7633 5.8369 12.8214L6.89867 11.4321C6.85998 11.3571 6.82781 11.2779 6.80293 11.195L6.23371 9.30022C6.20551 9.20632 6.18765 9.11107 6.17964 9.0159L4.13472 8.13037C4.02799 8.2644 3.90444 8.38672 3.76807 8.50425C3.49204 8.74207 3.12622 8.99047 2.69085 9.2862L1.57227 10.0459C1.70322 10.9855 2.00806 11.8693 2.45318 12.6637H3.97576Z" fill="#1C274C"/>
<path d="M8.84384 7.55799C8.88441 7.52619 8.93016 7.51172 8.97479 7.51172C9.01941 7.51172 9.06516 7.52619 9.10574 7.55799L10.555 8.69687C10.5936 8.72724 10.623 8.77029 10.6384 8.82137C10.6532 8.87087 10.6539 8.92479 10.6384 8.97647L10.0691 10.8713C10.0535 10.9235 10.024 10.9649 9.98834 10.9937C9.94889 11.0256 9.90246 11.0421 9.85476 11.0421H8.09481C8.04711 11.0421 8.00069 11.0256 7.96124 10.9937C7.92554 10.9649 7.89606 10.9235 7.88039 10.8713L7.31121 8.97647C7.29568 8.92479 7.29633 8.87087 7.3112 8.82137C7.32656 8.77029 7.35598 8.72724 7.39463 8.69687L8.84384 7.55799Z" fill="#1C274C"/>
<path d="M10.0319 4.03181C10.3482 3.85407 10.7066 3.59433 11.1328 3.28544L12.4384 2.33936C13.0869 2.67645 13.68 3.10571 14.2003 3.6098L13.7911 5.18094C13.6558 5.70038 13.5427 6.13453 13.4898 6.49926C13.4611 6.69689 13.4476 6.88842 13.4594 7.07732L11.4027 7.95246C11.356 7.90251 11.305 7.85571 11.2501 7.81251L9.8009 6.67367C9.71818 6.60867 9.62968 6.55461 9.53735 6.5116V4.25418C9.70663 4.19975 9.86968 4.123 10.0319 4.03181Z" fill="#1C274C"/>
<path d="M8.48476 3.03987C8.23486 2.89211 7.93358 2.6647 7.48173 2.32198L6.81982 1.81996C7.50713 1.61187 8.23621 1.5 8.99138 1.5C9.76583 1.5 10.5128 1.61765 11.2155 1.83606L10.4985 2.35565C10.0395 2.68826 9.73358 2.90889 9.48068 3.05102C9.24031 3.1861 9.10043 3.21895 8.98103 3.21762C8.86163 3.2163 8.72236 3.18032 8.48476 3.03987Z" fill="#1C274C"/>
<path d="M14.232 8.50435C14.508 8.74218 14.8738 8.99058 15.3092 9.2863L16.4119 10.0353C16.2818 10.9788 15.9763 11.8664 15.5295 12.6638H14.1359C13.6149 12.6638 13.1758 12.6638 12.817 12.7059C12.6199 12.729 12.432 12.7662 12.2532 12.8289L11.061 11.4119C11.0952 11.343 11.1239 11.2705 11.1465 11.1951L11.7158 9.30025C11.7437 9.20733 11.7615 9.11298 11.7696 9.01878L13.8633 8.12793C13.9704 8.263 14.0947 8.38608 14.232 8.50435Z" fill="#1C274C"/>
<path d="M11.1063 13.9701C10.9551 14.3048 10.8168 14.7313 10.6516 15.2412L10.2794 16.3898C9.86095 16.4624 9.4306 16.5002 8.9914 16.5002C8.59975 16.5002 8.21508 16.4702 7.83963 16.4121L7.46021 15.2412C7.29499 14.7313 7.15678 14.3048 7.00545 13.9701C6.92817 13.7993 6.84223 13.6398 6.73877 13.4945L7.7815 12.1301C7.88238 12.1546 7.98738 12.1675 8.09485 12.1675H9.8548C9.97008 12.1675 10.0826 12.1526 10.1902 12.1245L11.3593 13.514C11.262 13.654 11.1802 13.8068 11.1063 13.9701Z" fill="#1C274C"/>
<path d="M6.39966 15.6176C6.22233 15.0704 6.10283 14.7042 5.98047 14.4337C5.86364 14.1753 5.7674 14.0592 5.66668 13.9845C5.56729 13.9109 5.43366 13.8552 5.16357 13.8235C4.87813 13.79 4.50544 13.7891 3.94374 13.7891H3.22583C4.0943 14.836 5.24181 15.6425 6.55413 16.0943L6.39966 15.6176Z" fill="#1C274C"/>
<path d="M12.9482 13.8235C13.2337 13.79 13.6064 13.7891 14.168 13.7891H14.757C13.9208 14.797 12.826 15.5822 11.5745 16.0424L11.7122 15.6176C11.8895 15.0704 12.0089 14.7042 12.1313 14.4337C12.2482 14.1753 12.3444 14.0592 12.4451 13.9845C12.5445 13.9109 12.6782 13.8552 12.9482 13.8235Z" fill="#1C274C"/>
<path d="M14.603 6.66059C14.6459 6.36506 14.7424 5.99154 14.8875 5.43448L15.0926 4.64697C15.9173 5.80343 16.4221 7.20422 16.4777 8.71985L15.9674 8.37327C15.4991 8.0552 15.1876 7.84257 14.9663 7.652C14.7566 7.47128 14.6713 7.34574 14.6257 7.22206C14.5796 7.09736 14.5622 6.94244 14.603 6.66059Z" fill="#1C274C"/>
</svg>
