<svg width="19" height="19" viewBox="0 0 19 19" fill="none" xmlns="http://www.w3.org/2000/svg">
<path d="M18.5 9.5C18.5 10.7188 18.2617 11.8828 17.7852 12.9922C17.3086 14.1016 16.668 15.0586 15.8633 15.8633C15.0586 16.668 14.1016 17.3086 12.9922 17.7852C11.8828 18.2617 10.7188 18.5 9.5 18.5C8.15625 18.5 6.87891 18.2168 5.66797 17.6504C4.45703 17.084 3.42578 16.2852 2.57422 15.2539C2.51953 15.1758 2.49414 15.0879 2.49805 14.9902C2.50195 14.8926 2.53516 14.8125 2.59766 14.75L4.20312 13.1328C4.28125 13.0625 4.37891 13.0273 4.49609 13.0273C4.62109 13.043 4.71094 13.0898 4.76562 13.168C5.33594 13.9102 6.03516 14.4844 6.86328 14.8906C7.69141 15.2969 8.57031 15.5 9.5 15.5C10.3125 15.5 11.0879 15.3418 11.8262 15.0254C12.5645 14.709 13.2031 14.2812 13.7422 13.7422C14.2812 13.2031 14.709 12.5645 15.0254 11.8262C15.3418 11.0879 15.5 10.3125 15.5 9.5C15.5 8.6875 15.3418 7.91211 15.0254 7.17383C14.709 6.43555 14.2812 5.79688 13.7422 5.25781C13.2031 4.71875 12.5645 4.29102 11.8262 3.97461C11.0879 3.6582 10.3125 3.5 9.5 3.5C8.73438 3.5 8 3.63867 7.29688 3.91602C6.59375 4.19336 5.96875 4.58984 5.42188 5.10547L7.02734 6.72266C7.26953 6.95703 7.32422 7.22656 7.19141 7.53125C7.05859 7.84375 6.82812 8 6.5 8H1.25C1.04688 8 0.871094 7.92578 0.722656 7.77734C0.574219 7.62891 0.5 7.45312 0.5 7.25V2C0.5 1.67188 0.65625 1.44141 0.96875 1.30859C1.27344 1.17578 1.54297 1.23047 1.77734 1.47266L3.30078 2.98438C4.13672 2.19531 5.0918 1.58398 6.16602 1.15039C7.24023 0.716797 8.35156 0.5 9.5 0.5C10.7188 0.5 11.8828 0.738281 12.9922 1.21484C14.1016 1.69141 15.0586 2.33203 15.8633 3.13672C16.668 3.94141 17.3086 4.89844 17.7852 6.00781C18.2617 7.11719 18.5 8.28125 18.5 9.5ZM11 6.125V11.375C11 11.4844 10.9648 11.5742 10.8945 11.6445C10.8242 11.7148 10.7344 11.75 10.625 11.75H6.875C6.76562 11.75 6.67578 11.7148 6.60547 11.6445C6.53516 11.5742 6.5 11.4844 6.5 11.375V10.625C6.5 10.5156 6.53516 10.4258 6.60547 10.3555C6.67578 10.2852 6.76562 10.25 6.875 10.25H9.5V6.125C9.5 6.01562 9.53516 5.92578 9.60547 5.85547C9.67578 5.78516 9.76562 5.75 9.875 5.75H10.625C10.7344 5.75 10.8242 5.78516 10.8945 5.85547C10.9648 5.92578 11 6.01562 11 6.125Z" fill="#04198C" fill-opacity="1"/>
</svg>
