<svg width="26" height="26" viewBox="0 0 26 26" fill="none" xmlns="http://www.w3.org/2000/svg">
<path d="M15.2432 0C15.4398 6.19509e-06 15.6313 0.0624071 15.7902 0.178216C15.9491 0.294025 16.0671 0.457266 16.1272 0.644429L17.1487 3.81829C17.5777 4.02814 17.9881 4.264 18.3799 4.52957L21.6411 3.82757C21.8334 3.78652 22.0337 3.80756 22.2133 3.88766C22.3928 3.96776 22.5423 4.10278 22.6402 4.27329L25.2142 8.72857C25.3125 8.89898 25.3542 9.09619 25.3331 9.29179C25.3121 9.48738 25.2295 9.67124 25.0972 9.81686L22.8594 12.2869C22.892 12.7605 22.892 13.2358 22.8594 13.7094L25.0972 16.1831C25.2295 16.3288 25.3121 16.5126 25.3331 16.7082C25.3542 16.9038 25.3125 17.101 25.2142 17.2714L22.6402 21.7286C22.5421 21.8987 22.3924 22.0334 22.2129 22.1131C22.0334 22.1929 21.8332 22.2136 21.6411 22.1724L18.3799 21.4704C17.9899 21.7341 17.5777 21.9719 17.1505 22.1817L16.1272 25.3556C16.0671 25.5427 15.9491 25.706 15.7902 25.8218C15.6313 25.9376 15.4398 26 15.2432 26H10.0952C9.89863 26 9.70711 25.9376 9.54825 25.8218C9.38939 25.706 9.27138 25.5427 9.21122 25.3556L8.19165 22.1836C7.7638 21.9744 7.35112 21.7354 6.95665 21.4686L3.69736 22.1724C3.50508 22.2135 3.30473 22.1924 3.12518 22.1123C2.94562 22.0322 2.79612 21.8972 2.69822 21.7267L0.124216 17.2714C0.025926 17.101 -0.0157067 16.9038 0.00532117 16.7082C0.0263491 16.5126 0.108951 16.3288 0.241216 16.1831L2.47907 13.7094C2.44666 13.237 2.44666 12.763 2.47907 12.2906L0.241216 9.81686C0.108951 9.67124 0.0263491 9.48738 0.00532117 9.29179C-0.0157067 9.09619 0.025926 8.89898 0.124216 8.72857L2.69822 4.27143C2.79639 4.10127 2.94601 3.96662 3.12554 3.88687C3.30508 3.80711 3.50528 3.78635 3.69736 3.82757L6.95665 4.53143C7.35036 4.26586 7.76265 4.02629 8.19165 3.81643L9.21308 0.644429C9.27304 0.457869 9.39049 0.29506 9.5486 0.179307C9.70672 0.0635541 9.89741 0.000790525 10.0934 0H15.2414H15.2432ZM14.5635 1.85714H10.7749L9.72008 5.13871L9.00879 5.486C8.65913 5.65711 8.32158 5.85195 7.99851 6.06914L7.34108 6.51486L3.9685 5.78686L2.07422 9.07028L4.38636 11.6294L4.33065 12.4169C4.30396 12.8052 4.30396 13.1948 4.33065 13.5831L4.38636 14.3706L2.0705 16.9297L3.96665 20.2131L7.33922 19.487L7.99665 19.9309C8.31972 20.1481 8.65727 20.3429 9.00694 20.514L9.71822 20.8613L10.7749 24.1429H14.5672L15.6258 20.8594L16.3352 20.514C16.6845 20.3433 17.0215 20.1484 17.3437 19.9309L17.9992 19.487L21.3737 20.2131L23.2679 16.9297L20.9539 14.3706L21.0097 13.5831C21.0364 13.1942 21.0364 12.8039 21.0097 12.415L20.9539 11.6276L23.2698 9.07028L21.3737 5.78686L17.9992 6.51114L17.3437 6.06914C17.0215 5.85151 16.6845 5.65666 16.3352 5.486L15.6258 5.14057L14.5654 1.85714H14.5635ZM12.6692 7.42857C14.1469 7.42857 15.564 8.01556 16.6088 9.0604C17.6537 10.1053 18.2407 11.5224 18.2407 13C18.2407 14.4776 17.6537 15.8947 16.6088 16.9396C15.564 17.9844 14.1469 18.5714 12.6692 18.5714C11.1916 18.5714 9.77447 17.9844 8.72963 16.9396C7.68478 15.8947 7.09779 14.4776 7.09779 13C7.09779 11.5224 7.68478 10.1053 8.72963 9.0604C9.77447 8.01556 11.1916 7.42857 12.6692 7.42857ZM12.6692 9.28571C11.6841 9.28571 10.7394 9.67704 10.0428 10.3736C9.34626 11.0702 8.95494 12.0149 8.95494 13C8.95494 13.9851 9.34626 14.9298 10.0428 15.6264C10.7394 16.323 11.6841 16.7143 12.6692 16.7143C13.6543 16.7143 14.5991 16.323 15.2956 15.6264C15.9922 14.9298 16.3835 13.9851 16.3835 13C16.3835 12.0149 15.9922 11.0702 15.2956 10.3736C14.5991 9.67704 13.6543 9.28571 12.6692 9.28571Z" fill="black"/>
</svg>
