<svg width="22" height="22" viewBox="0 0 22 22" fill="none" xmlns="http://www.w3.org/2000/svg">
<path d="M18.8795 22C13.55 22 8.22049 22 2.89098 22C2.85186 21.9868 2.81387 21.9685 2.77418 21.9605C1.39758 21.6975 0.510839 20.8851 0.107157 19.5324C0.0629336 19.3835 0.0351521 19.2299 0 19.0781C0 14.4232 0 9.76823 0 5.11328C0.0136073 5.07432 0.0323171 5.03594 0.0396877 4.99583C0.289154 3.65234 1.0625 2.77005 2.34045 2.33807C2.51791 2.27792 2.70615 2.25042 2.90005 2.20573C2.90005 1.95307 2.89154 1.71016 2.90175 1.46839C2.92896 0.831302 3.22662 0.372969 3.8072 0.111719C3.90925 0.0658852 4.01868 0.0372393 4.1247 0.000572602C4.28062 0.000572602 4.43654 0.000572602 4.59245 0.000572602C5.55913 0.370104 5.8069 0.737344 5.8069 1.79839C5.8069 1.92443 5.8069 2.05104 5.8069 2.18167C6.30357 2.18167 6.77302 2.18167 7.26401 2.18167C7.26401 1.9101 7.25381 1.65401 7.26628 1.39849C7.29406 0.828438 7.57188 0.414219 8.07138 0.154687C8.19497 0.0905207 8.33162 0.0509893 8.46202 0.000572602C8.61794 0.000572602 8.77385 0.000572602 8.92977 0.000572602C10.0813 0.296198 10.2497 1.17161 10.151 2.18167C10.659 2.18167 11.1279 2.18167 11.6115 2.18167C11.6115 1.92385 11.603 1.68151 11.6132 1.43974C11.637 0.873125 11.8956 0.444583 12.3894 0.173594C12.53 0.0962499 12.691 0.0567188 12.8424 0C12.9983 0 13.1543 0 13.3102 0C14.2774 0.286458 14.5751 0.949323 14.5127 1.80526C14.5036 1.93016 14.5116 2.05677 14.5116 2.1788C15.0139 2.1788 15.4834 2.1788 15.9778 2.1788C15.9778 1.8826 15.9568 1.60245 15.9823 1.3263C16.0367 0.730468 16.3633 0.327708 16.9031 0.0962496C16.9926 0.0578642 17.0879 0.0315104 17.1803 0C17.3362 0 17.4921 0 17.6481 0C17.6662 0.0103125 17.6832 0.0252083 17.7031 0.0303645C18.4741 0.242917 18.8704 0.764844 18.8733 1.57495C18.8738 1.7875 18.8733 2.00005 18.8733 2.19255C18.9045 2.21547 18.909 2.22234 18.9152 2.22349C18.943 2.22922 18.9708 2.23266 18.9986 2.23781C20.3179 2.48818 21.1945 3.25646 21.6276 4.53807C21.6905 4.72484 21.7251 4.92135 21.7728 5.11328C21.7728 9.76823 21.7728 14.4232 21.7728 19.0781C21.7597 19.1177 21.741 19.156 21.7336 19.1961C21.4734 20.5872 20.67 21.4838 19.3303 21.8906C19.1811 21.9353 19.0292 21.9639 18.8795 22ZM0.72402 6.60974C0.72402 6.70255 0.72402 6.77302 0.72402 6.84292C0.72402 10.7674 0.723453 14.6919 0.724587 18.6164C0.725154 20.1506 1.83471 21.2672 3.35929 21.2678C8.37697 21.269 13.3947 21.269 18.4123 21.2678C19.9363 21.2678 21.0465 20.1506 21.047 18.6164C21.0482 14.6919 21.0476 10.7674 21.0476 6.84292C21.0476 6.76729 21.0476 6.69167 21.0476 6.60974C14.2615 6.60974 7.50838 6.60974 0.72402 6.60974ZM14.5104 2.9425C14.5104 3.15448 14.5133 3.34698 14.5093 3.53891C14.5065 3.67469 14.5104 3.81333 14.4855 3.94568C14.346 4.68474 13.69 5.18031 12.9382 5.12302C12.2125 5.06745 11.6376 4.46245 11.6121 3.7188C11.6036 3.46328 11.611 3.20776 11.611 2.94536C11.1154 2.94536 10.6454 2.94536 10.1607 2.94536C10.1607 3.03073 10.1641 3.10177 10.1601 3.17224C10.1442 3.46443 10.1652 3.76521 10.1017 4.04651C9.94181 4.75406 9.26711 5.19464 8.52268 5.11729C7.84402 5.04682 7.29293 4.44812 7.26514 3.74172C7.25494 3.47932 7.26344 3.21635 7.26344 2.94708C6.76338 2.94708 6.29393 2.94708 5.78706 2.94708C5.78706 3.26333 5.80974 3.56526 5.78252 3.86203C5.72299 4.51458 5.16679 5.05656 4.52442 5.11901C3.63201 5.20495 2.92046 4.56443 2.89948 3.65292C2.89438 3.42833 2.89891 3.20318 2.89891 2.97458C1.51834 3.17682 0.53125 4.51115 0.746699 5.85292C7.50781 5.85292 14.2706 5.85292 21.0317 5.85292C21.1695 4.41146 20.1994 3.11667 18.871 2.97974C18.871 3.20203 18.8744 3.42318 18.8704 3.64318C18.8631 4.06198 18.7281 4.43323 18.4214 4.72083C17.9826 5.13276 17.4655 5.24391 16.9059 5.0325C16.3537 4.82396 16.0362 4.40286 15.98 3.80818C15.9534 3.5263 15.9755 3.23984 15.9755 2.94365C15.4732 2.9425 15.0082 2.9425 14.5104 2.9425ZM13.7842 2.57411C13.7842 2.22406 13.7842 1.87401 13.7842 1.52396C13.7842 1.50964 13.7842 1.49531 13.7836 1.48099C13.7723 1.05188 13.4723 0.737343 13.0698 0.73276C12.6644 0.728177 12.3395 1.05302 12.3356 1.48615C12.3293 2.20802 12.3287 2.92932 12.3356 3.6512C12.3395 4.08833 12.6593 4.40172 13.0737 4.39542C13.4797 4.38911 13.7762 4.07974 13.7819 3.64661C13.7881 3.28911 13.7842 2.93161 13.7842 2.57411ZM7.98633 2.5787C7.98633 2.9362 7.98236 3.29313 7.98747 3.65063C7.9937 4.0826 8.29306 4.39141 8.69958 4.39542C9.11403 4.39943 9.4304 4.08604 9.43437 3.64719C9.44117 2.92531 9.44117 2.20401 9.43437 1.48214C9.4304 1.04901 9.10213 0.725886 8.69618 0.733334C8.29476 0.740209 7.9937 1.05589 7.98803 1.48615C7.98236 1.84995 7.98633 2.21432 7.98633 2.5787ZM5.07778 2.57583C5.07778 2.22578 5.08175 1.87573 5.07664 1.52568C5.06984 1.05818 4.77899 0.739063 4.36226 0.733334C3.94157 0.727604 3.62804 1.05932 3.6252 1.52797C3.62067 2.2212 3.62067 2.91385 3.6252 3.60708C3.62804 4.07115 3.92456 4.39083 4.34299 4.39542C4.77332 4.40057 5.07041 4.08318 5.07608 3.60479C5.08118 3.26162 5.07778 2.91844 5.07778 2.57583ZM16.6921 2.55063C16.6921 2.88635 16.6921 3.22208 16.6921 3.55781C16.6921 3.57214 16.6921 3.58646 16.6921 3.60078C16.7007 4.08031 16.9926 4.39828 17.4224 4.39542C17.8488 4.39198 18.1425 4.06885 18.1447 3.58932C18.1481 2.90354 18.1493 2.21776 18.1442 1.53141C18.1408 1.0599 17.8323 0.729323 17.4105 0.73276C16.9943 0.736198 16.6995 1.05646 16.6933 1.52167C16.6887 1.86427 16.6927 2.20745 16.6921 2.55063Z" fill="white"/>
<path d="M4.35254 13.9304C4.35594 10.2861 7.28434 7.33212 10.888 7.33727C14.4951 7.34243 17.4235 10.3027 17.4189 13.9378C17.4144 17.5776 14.4809 20.5378 10.8818 20.535C7.28151 20.5327 4.34914 17.5661 4.35254 13.9304ZM11.4085 14.0616C11.3762 13.947 11.3614 13.8926 11.3455 13.8387C11.0467 12.8281 11.4703 11.7751 12.3791 11.2675C13.2789 10.765 14.4026 10.9747 15.0802 11.7705C15.7435 12.5502 15.777 13.6978 15.1516 14.5257C15.0734 14.6294 15.0541 14.713 15.0949 14.8345C15.3608 15.6268 15.2304 16.3498 14.7309 17.019C13.8493 18.2003 12.7091 18.9297 11.2339 19.0442C9.46434 19.1812 8.50276 18.5229 7.87002 17.2298C7.84507 17.1788 7.82126 17.1256 7.78951 17.0786C7.60014 16.7956 7.42268 16.5022 7.21347 16.2352C6.95606 15.907 6.72134 15.5712 6.61588 15.1593C6.43615 14.4569 6.86989 13.9069 7.58597 13.9281C7.72601 13.9321 7.86548 13.9407 8.05542 13.9493C7.96697 13.8714 7.91027 13.8227 7.85528 13.7728C7.23161 13.2062 6.91581 12.4981 6.8903 11.6525C6.88123 11.3523 6.87329 11.0515 6.8421 10.753C6.81546 10.5032 6.74629 10.262 6.528 10.0999C4.712 12.0633 4.40697 15.6658 6.77577 18.0777C9.10715 20.4513 12.975 20.3539 15.1856 17.8766C17.4201 15.373 17.1349 11.5093 14.5484 9.38889C11.9936 7.29488 8.65981 7.96175 7.06095 9.57337C7.3915 9.89993 7.53551 10.313 7.57406 10.7662C7.60071 11.0796 7.60411 11.3947 7.61715 11.7092C7.63586 12.1555 7.76173 12.56 8.0832 12.9335C8.09851 12.8189 8.10985 12.7433 8.11892 12.6677C8.20397 11.9481 8.61388 11.5482 9.32543 11.4915C9.86859 11.4485 10.3454 11.7275 10.4769 12.1778C10.5166 12.3136 10.52 12.4597 10.5427 12.6007C10.6368 13.1827 10.9124 13.6565 11.4085 14.0616ZM14.4219 15.1547C13.8357 15.4601 13.2375 15.4211 12.636 15.3386C11.0774 15.1249 10.0126 14.0559 9.79375 12.4901C9.78524 12.4299 9.76767 12.3566 9.72741 12.3171C9.51763 12.112 8.98298 12.2432 8.90871 12.5245C8.85428 12.7301 8.79928 12.9467 8.80779 13.1558C8.86335 14.4489 9.46207 15.4228 10.5489 16.0972C10.5671 16.1086 10.5869 16.1161 10.6056 16.127C10.8687 16.2776 10.9504 16.4782 10.8319 16.6833C10.7168 16.8826 10.5002 16.9113 10.2371 16.7577C9.48135 16.316 8.90644 15.6996 8.50219 14.9181C8.46647 14.8494 8.40184 14.7577 8.3389 14.7474C8.0815 14.7056 7.81956 14.6712 7.55932 14.6718C7.30702 14.6723 7.22878 14.7818 7.33197 15.0161C7.44536 15.2733 7.60921 15.5099 7.76343 15.7471C7.98398 16.0863 8.22041 16.4151 8.43982 16.7549C8.5827 16.976 8.69383 17.2184 8.84181 17.4355C9.11735 17.84 9.50062 18.0944 9.97121 18.221C11.5939 18.657 13.4961 17.8125 14.3306 16.2971C14.533 15.9327 14.5444 15.5701 14.4219 15.1547ZM13.428 14.6614C14.2286 14.6603 14.8766 14.0083 14.8783 13.2028C14.88 12.4013 14.2269 11.7367 13.4337 11.7327C12.6258 11.7287 11.9749 12.3887 11.9788 13.2074C11.9834 14.0203 12.6229 14.6626 13.428 14.6614Z" fill="white"/>
</svg>
