<svg width="24" height="26" viewBox="0 0 24 26" fill="none" xmlns="http://www.w3.org/2000/svg">
<path d="M23.3777 20.1118C23.2412 20.1118 23.1496 20.1118 23.0573 20.1118C20.4984 20.1118 17.9395 20.1144 15.3813 20.1067C15.1845 20.1061 15.0807 20.1653 14.9826 20.3354C13.9455 22.1351 12.8988 23.9297 11.8546 25.7249C11.8084 25.8045 11.7597 25.8828 11.6892 26C11.627 25.8994 11.5796 25.8255 11.5354 25.7497C10.4867 23.9468 9.4361 22.1446 8.39448 20.3379C8.29769 20.1698 8.19705 20.1061 7.9977 20.1067C5.43885 20.1144 2.87999 20.1118 0.32178 20.1118C0.229477 20.1118 0.137173 20.1118 0 20.1118C0.0576896 20.0042 0.0974313 19.9246 0.14166 19.8482C1.42365 17.6416 2.70372 15.4337 3.99276 13.2315C4.09724 13.0525 4.08699 12.9277 3.98635 12.7551C2.70308 10.5593 1.42686 8.35844 0.149993 6.15882C0.104483 6.08049 0.0640997 5.99961 0.000641133 5.88179C0.126276 5.88179 0.216016 5.88179 0.305755 5.88179C2.87294 5.88179 5.44013 5.87988 8.00732 5.88625C8.19385 5.88689 8.29256 5.82957 8.3855 5.66846C9.42776 3.86176 10.479 2.06016 11.5277 0.257281C11.5732 0.179588 11.6225 0.103804 11.6866 0C11.7507 0.10253 11.8007 0.177677 11.8456 0.255371C12.8949 2.05825 13.9455 3.85985 14.9878 5.66654C15.0801 5.82575 15.1762 5.88753 15.3647 5.88689C17.9319 5.87988 20.499 5.88243 23.0662 5.88243C23.156 5.88243 23.2463 5.88243 23.3726 5.88243C23.3111 5.9977 23.2713 6.07921 23.2265 6.15691C21.949 8.35653 20.6747 10.5574 19.3888 12.752C19.2786 12.9405 19.2876 13.0672 19.3946 13.2506C20.6798 15.4458 21.9547 17.6467 23.2322 19.8463C23.2745 19.9176 23.3124 19.9921 23.3777 20.1118ZM11.6995 6.64408C10.7783 6.64408 9.85723 6.64918 8.93612 6.63963C8.75792 6.63772 8.66434 6.69758 8.5778 6.84723C7.43234 8.8297 6.2824 10.809 5.12796 12.7857C5.04143 12.9341 5.03053 13.0423 5.1222 13.1984C6.28304 15.1815 7.43683 17.169 8.58549 19.1585C8.66947 19.3031 8.75985 19.3527 8.92586 19.3521C10.7681 19.3457 12.6109 19.3457 14.4532 19.3521C14.6218 19.3527 14.7096 19.2986 14.7923 19.156C15.9416 17.1665 17.096 15.1796 18.2549 13.1952C18.3376 13.0532 18.3459 12.9519 18.26 12.8048C17.096 10.8141 15.9377 8.81951 14.7839 6.8224C14.7057 6.68675 14.6192 6.63835 14.4628 6.63963C13.5417 6.6479 12.6206 6.64408 11.6995 6.64408ZM7.80476 6.66255C5.62858 6.66255 3.49663 6.66255 1.32878 6.66255C2.41143 8.52529 3.47676 10.3581 4.56581 12.2329C5.65614 10.3581 6.72276 8.52402 7.80476 6.66255ZM18.81 12.2336C19.9029 10.3524 20.9689 8.51765 22.0496 6.65746C19.8721 6.65746 17.7402 6.65746 15.5679 6.65746C16.6499 8.51828 17.7165 10.3524 18.81 12.2336ZM1.32943 19.3285C3.50945 19.3285 5.6414 19.3285 7.80412 19.3285C6.72084 17.4664 5.65422 15.6317 4.56581 13.7594C3.47548 15.6362 2.41014 17.4696 1.32943 19.3285ZM22.0502 19.3355C20.9625 17.4639 19.8971 15.6317 18.8094 13.7601C17.7165 15.6406 16.6499 17.4741 15.5679 19.3355C17.7396 19.3355 19.8721 19.3355 22.0502 19.3355ZM9.15149 5.86906C10.8617 5.86906 12.5206 5.86906 14.225 5.86906C13.3744 4.40625 12.5411 2.97274 11.6873 1.50484C10.829 2.98165 10.0002 4.40816 9.15149 5.86906ZM9.15021 20.1227C10.0034 21.5906 10.8347 23.0203 11.6886 24.4888C12.5462 23.012 13.3776 21.5816 14.2256 20.1227C12.5193 20.1227 10.8597 20.1227 9.15021 20.1227Z" fill="white"/>
<path d="M2.77802 13.3009C2.54791 13.5334 2.38189 13.7008 2.18062 13.904C2.02101 13.7155 1.86461 13.5308 1.6832 13.3168C1.48257 13.548 1.32809 13.7263 1.15438 13.9263C0.958238 13.6977 0.800552 13.5142 0.612741 13.2952C0.755683 13.1805 0.94734 13.0277 1.18451 12.8386C0.939007 12.6329 0.752478 12.4768 0.567871 12.3221C0.774913 12.1094 0.943495 11.9355 1.1531 11.7209C1.31079 11.9158 1.4595 12.0998 1.64154 12.3246C1.83512 12.0909 1.9896 11.9037 2.15946 11.698C2.36907 11.9362 2.52483 12.1139 2.71008 12.3246C2.5556 12.4425 2.36202 12.5902 2.14023 12.7602C2.39727 12.9787 2.58188 13.1347 2.77802 13.3009Z" fill="white"/>
<path d="M17.0935 4.48584C16.9614 4.33682 16.8044 4.15915 16.6044 3.93307C16.4288 4.15214 16.2762 4.34383 16.1205 4.53742C15.9012 4.32408 15.7282 4.15469 15.5243 3.95663C15.7153 3.7987 15.8974 3.6484 16.1333 3.4529C15.8891 3.26949 15.6936 3.12302 15.4775 2.96126C15.7301 2.73837 15.9121 2.57789 16.1339 2.38174C16.2583 2.53586 16.4115 2.72627 16.5884 2.94598C16.7961 2.71544 16.9582 2.53522 17.1185 2.35754C17.3281 2.56324 17.5012 2.73328 17.7018 2.93006C17.5223 3.08353 17.3422 3.23765 17.123 3.42488C17.3512 3.60446 17.5422 3.75476 17.7595 3.92543C17.5044 4.14004 17.3191 4.29606 17.0935 4.48584Z" fill="white"/>
<path d="M6.11084 4.52218C5.88392 4.31011 5.71085 4.14899 5.51343 3.96431C5.70124 3.80319 5.88072 3.64908 6.08007 3.47841C5.87559 3.26634 5.70765 3.09121 5.52689 2.90335C5.71021 2.73331 5.88777 2.56901 6.09673 2.37477C6.24288 2.54545 6.40121 2.73013 6.60312 2.96575C6.80119 2.72949 6.95823 2.54162 7.11912 2.34866C7.32168 2.55118 7.48833 2.71739 7.69345 2.92245C7.50308 3.0772 7.31527 3.23004 7.08258 3.41918C7.32488 3.62679 7.50949 3.78409 7.6973 3.9452C7.48192 4.14517 7.30886 4.30565 7.09989 4.49925C6.96913 4.33495 6.81721 4.1439 6.64414 3.92674C6.42813 4.1681 6.2666 4.34832 6.11084 4.52218Z" fill="white"/>
<path d="M22.4574 12.9086C22.7017 13.1264 22.8779 13.2837 23.0427 13.4308C22.8657 13.6104 22.701 13.7773 22.5081 13.9734C22.3696 13.7976 22.2196 13.606 22.0222 13.355C21.8055 13.6276 21.653 13.818 21.4915 14.0212C21.2742 13.7996 21.1062 13.6276 20.921 13.4385C21.0972 13.2831 21.2735 13.1271 21.5004 12.9265C21.2588 12.7431 21.0652 12.5953 20.8838 12.4578C21.1145 12.2259 21.2851 12.0546 21.5036 11.8349C21.6389 12.0062 21.7908 12.1986 21.9684 12.4227C22.1664 12.1903 22.3196 12.0107 22.4741 11.8298C22.6811 12.0464 22.8484 12.2215 23.0433 12.4246C22.8856 12.5546 22.6972 12.7106 22.4574 12.9086Z" fill="white"/>
<path d="M17.1147 21.5536C17.3224 21.76 17.4897 21.9262 17.6923 22.1268C17.516 22.2631 17.3224 22.4133 17.0904 22.5936C17.3404 22.8101 17.5243 22.9687 17.6942 23.1158C17.4936 23.3183 17.3275 23.4851 17.1275 23.687C16.9974 23.5163 16.85 23.3221 16.659 23.0706C16.4391 23.3431 16.2859 23.5329 16.134 23.7214C15.9231 23.5042 15.7597 23.3361 15.5738 23.1444C15.7174 22.9948 15.8847 22.8209 16.1007 22.5961C15.902 22.4439 15.7084 22.2955 15.509 22.1427C15.7366 21.9255 15.9065 21.7631 16.1218 21.5574C16.2564 21.7332 16.4051 21.9274 16.5846 22.1618C16.8026 21.9115 16.9622 21.7294 17.1147 21.5536Z" fill="white"/>
<path d="M6.61646 23.084C6.39019 23.3393 6.23443 23.5157 6.08764 23.6813C5.9056 23.496 5.74086 23.3285 5.54343 23.1273C5.70432 23.0037 5.8979 22.8547 6.12418 22.6815C5.87162 22.4624 5.68894 22.3038 5.51074 22.1491C5.72227 21.9377 5.89213 21.7676 6.09725 21.5632C6.24468 21.7396 6.3998 21.9262 6.58954 22.1535C6.78632 21.9185 6.93824 21.7371 7.1049 21.5384C7.30104 21.7536 7.46322 21.9313 7.65744 22.144C7.49591 22.2726 7.30425 22.4248 7.07541 22.6076C7.32027 22.8101 7.50232 22.961 7.69782 23.1228C7.47603 23.3183 7.29527 23.4775 7.07798 23.6692C6.9626 23.5234 6.81132 23.3317 6.61646 23.084Z" fill="white"/>
<path d="M6.51587 12.6774C7.37801 11.4592 8.36899 10.402 9.71123 9.72508C11.1868 8.98126 12.6085 9.15257 13.9751 10.0136C15.0129 10.667 15.8385 11.5388 16.5404 12.531C16.5846 12.594 16.6019 12.7328 16.5628 12.7889C15.7315 13.9683 14.7463 14.9872 13.4329 15.6432C12.0938 16.3119 10.7721 16.2373 9.47791 15.5094C8.2504 14.8185 7.3184 13.8231 6.51587 12.6774ZM15.7097 12.6762C14.9655 11.7381 14.1405 10.9191 13.0662 10.3842C12.1156 9.9104 11.1515 9.88875 10.1881 10.3422C9.10806 10.851 8.27668 11.6566 7.54787 12.5762C7.51069 12.6233 7.53569 12.7666 7.58184 12.8252C8.15233 13.5505 8.80871 14.1886 9.59008 14.6886C10.3715 15.1885 11.2182 15.4986 12.1547 15.2719C12.6181 15.1598 13.079 14.9694 13.4912 14.7306C14.3758 14.2173 15.0783 13.492 15.7097 12.6762Z" fill="white"/>
<path d="M4.67013 8.13235C4.67013 8.38199 4.67013 8.60934 4.67013 8.85516C4.42142 8.85516 4.18041 8.85516 3.92529 8.85516C3.92529 8.61253 3.92529 8.37945 3.92529 8.13235C4.17785 8.13235 4.42463 8.13235 4.67013 8.13235Z" fill="white"/>
<path d="M18.5122 8.12473C18.7616 8.12473 18.9955 8.12473 19.2436 8.12473C19.2436 8.37182 19.2436 8.60426 19.2436 8.85517C19.0026 8.85517 18.7686 8.85517 18.5122 8.85517C18.5122 8.62273 18.5122 8.38392 18.5122 8.12473Z" fill="white"/>
<path d="M4.66503 18.0033C4.40992 18.0033 4.17595 18.0033 3.92725 18.0033C3.92725 17.7575 3.92725 17.5257 3.92725 17.2741C4.17147 17.2741 4.4112 17.2741 4.66503 17.2741C4.66503 17.5129 4.66503 17.746 4.66503 18.0033Z" fill="white"/>
<path d="M19.2442 17.2709C19.2442 17.5193 19.2442 17.7511 19.2442 18.0001C19 18.0001 18.7667 18.0001 18.5122 18.0001C18.5122 17.7625 18.5122 17.525 18.5122 17.2709C18.7526 17.2709 18.9917 17.2709 19.2442 17.2709Z" fill="white"/>
<path d="M11.9655 4.65971C11.6944 4.65971 11.461 4.65971 11.2136 4.65971C11.2136 4.41261 11.2136 4.18081 11.2136 3.91588C11.4284 3.91588 11.6303 3.90697 11.8296 3.92225C11.8777 3.92607 11.9553 4.00631 11.9591 4.05599C11.9745 4.24767 11.9655 4.44127 11.9655 4.65971Z" fill="white"/>
<path d="M11.2156 22.1828C11.2156 21.9395 11.2156 21.7001 11.2156 21.453C11.4662 21.453 11.7002 21.453 11.9508 21.453C11.9508 21.6982 11.9508 21.9313 11.9508 22.1828C11.7111 22.1828 11.4701 22.1828 11.2156 22.1828Z" fill="white"/>
<path d="M11.5799 10.4001C12.835 10.3963 13.8734 11.4184 13.8856 12.6692C13.8978 13.9091 12.8215 14.979 11.5767 14.9656C10.3197 14.9516 9.28452 13.9186 9.28516 12.6787C9.28516 11.4331 10.3223 10.4033 11.5799 10.4001ZM10.0518 12.6685C10.0454 13.4964 10.7338 14.1899 11.5735 14.2027C12.3991 14.2148 13.1081 13.5193 13.117 12.6895C13.126 11.8591 12.4363 11.1669 11.5947 11.1618C10.7518 11.1567 10.0582 11.8336 10.0518 12.6685Z" fill="white"/>
</svg>
