<svg width="19" height="26" viewBox="0 0 19 26" fill="none" xmlns="http://www.w3.org/2000/svg">
<path d="M0.250567 25.3032C0.0688768 25.1885 -0.000651328 25.0297 4.59327e-06 24.809C0.00459604 17.9432 0.00394096 11.0775 0.00394096 4.21236C0.00394096 4.17942 0.00328468 4.14647 0.00459652 4.11353C0.0150913 3.87435 0.14562 3.73136 0.35945 3.72346C0.581807 3.71555 0.739228 3.86512 0.74054 4.11155C0.745787 4.91805 0.742507 5.7252 0.743163 6.5317C0.743163 6.61011 0.743163 6.68852 0.743163 6.74453C1.24822 6.42496 1.7441 6.1133 2.23801 5.79702C2.28261 5.76869 2.32196 5.71796 2.34295 5.66854C2.96149 4.25256 4.05228 3.29319 5.31821 2.4755C6.02398 2.01954 6.66613 1.46276 7.33714 0.951455C7.40076 0.902697 7.46307 0.85262 7.49653 0.757738C5.25721 0.757738 3.0179 0.757738 0.74382 0.757738C0.74382 1.11355 0.74382 1.47265 0.74382 1.83109C0.74382 1.93783 0.752346 2.04655 0.73726 2.15198C0.706432 2.3648 0.564753 2.46891 0.360106 2.46298C0.167265 2.45705 0.0164028 2.35228 0.0124673 2.14934C0.000660673 1.54051 -0.00327481 0.931029 0.0196824 0.322203C0.0236179 0.212167 0.170545 0.107401 0.251879 0C6.41754 0 12.5838 0 18.7495 0C18.9469 0.117944 19.0007 0.292553 19.0001 0.519215C18.9955 8.60658 18.9955 16.6946 19.0001 24.782C19.0001 25.0086 18.9456 25.1833 18.7495 25.3019C12.5825 25.3032 6.41688 25.3032 0.250567 25.3032ZM18.2569 12.6773C18.2569 11.1539 18.2602 9.62986 18.2503 8.10648C18.2497 7.98392 18.188 7.83501 18.1054 7.74342C17.6161 7.20049 17.033 6.78142 16.3816 6.45131C16.2531 6.38608 16.1114 6.2688 16.0589 6.14097C15.5748 4.96351 14.7707 4.05818 13.7055 3.39862C12.5333 2.67251 11.4629 1.82582 10.479 0.862504C10.4082 0.79266 10.2816 0.75049 10.1792 0.747855C9.7365 0.735335 9.29375 0.732041 8.85166 0.749173C8.72835 0.753785 8.57945 0.809132 8.4909 0.892813C7.5654 1.77113 6.6025 2.59608 5.50384 3.25696C4.35073 3.95078 3.45146 4.88313 2.93 6.15415C2.87622 6.28527 2.71027 6.39201 2.57187 6.46186C1.91923 6.79131 1.3453 7.22157 0.855982 7.76385C0.793013 7.83369 0.747099 7.949 0.747099 8.04388C0.741196 11.1078 0.741196 14.1717 0.747755 17.2356C0.747755 17.337 0.798917 17.4596 0.867789 17.5354C1.35776 18.077 1.93628 18.5013 2.58499 18.8367C2.72732 18.9105 2.8854 19.035 2.94378 19.1754C3.42588 20.3337 4.21364 21.2344 5.26377 21.8841C6.45033 22.6188 7.53326 23.4754 8.52894 24.4499C8.5906 24.5105 8.69686 24.5547 8.78344 24.5566C9.25899 24.5665 9.73453 24.5665 10.2101 24.5566C10.2973 24.5547 10.4055 24.5158 10.4665 24.4558C11.4708 23.4648 12.5747 22.6089 13.7717 21.8617C14.7976 21.2213 15.5644 20.3337 16.0445 19.2057C16.1022 19.0706 16.2413 18.9421 16.3751 18.8736C17.0238 18.5402 17.6121 18.1271 18.1008 17.5835C18.188 17.4866 18.2503 17.3285 18.251 17.198C18.2602 15.6918 18.2569 14.1842 18.2569 12.6773ZM0.749723 24.5474C3.01265 24.5474 5.25328 24.5474 7.4939 24.5474C7.50571 24.5303 7.51817 24.5138 7.52998 24.4967C7.46635 24.4492 7.40207 24.4025 7.33845 24.3544C6.66744 23.843 6.02136 23.2935 5.31952 22.8283C4.31006 22.1589 3.33799 21.4499 2.74635 20.3687C2.42954 19.7888 2.07009 19.3164 1.46796 19.0258C1.21215 18.9019 1.00094 18.6852 0.749067 18.4961C0.749723 20.5274 0.749723 22.5266 0.749723 24.5474ZM18.2392 6.74914C18.2392 4.76452 18.2392 2.76014 18.2392 0.760374C15.9822 0.760374 13.7429 0.760374 11.4622 0.760374C11.5639 0.855915 11.6354 0.921146 11.7049 0.989013C12.4291 1.6914 13.2719 2.22973 14.1135 2.77332C15.2259 3.49218 16.1061 4.42519 16.6492 5.65404C16.6775 5.71796 16.724 5.78582 16.7811 5.82272C17.2665 6.13636 17.7558 6.44341 18.2392 6.74914ZM11.4668 24.5441C13.7606 24.5441 16.0019 24.5441 18.2438 24.5441C18.2438 22.5305 18.2438 20.5354 18.2438 18.5567C17.7991 18.8466 17.3517 19.1293 16.9156 19.4277C16.7955 19.5101 16.6715 19.6215 16.6092 19.7486C16.3108 20.3601 15.9356 20.9136 15.4719 21.4091C14.8356 22.089 14.0584 22.578 13.2804 23.0688C12.6278 23.482 12.0466 23.9821 11.4668 24.5441Z" fill="white"/>
<path d="M2.46502 2.06105C2.46502 2.27255 2.32137 2.42344 2.11672 2.42608C1.90683 2.42937 1.76581 2.28903 1.76056 2.07225C1.75466 1.84888 1.90748 1.68547 2.11804 1.68943C2.31678 1.69338 2.46502 1.85217 2.46502 2.06105Z" fill="white"/>
<path d="M3.8215 2.42608C3.61489 2.41883 3.48239 2.26992 3.48633 2.05116C3.49026 1.83966 3.63916 1.68745 3.83987 1.68943C4.04845 1.6914 4.19931 1.86074 4.18882 2.08213C4.17832 2.29364 4.02877 2.43399 3.8215 2.42608Z" fill="white"/>
<path d="M2.09842 4.19984C1.89574 4.19326 1.75668 4.03841 1.75996 3.82361C1.76324 3.59893 1.92066 3.44804 2.1358 3.46187C2.33455 3.47505 2.47426 3.63912 2.46442 3.84865C2.45524 4.05686 2.29913 4.20643 2.09842 4.19984Z" fill="white"/>
<path d="M13.8404 16.7408C13.8076 16.9747 13.7807 17.1947 13.7459 17.4128C13.6043 18.2977 13.1576 18.9916 12.423 19.4936C12.0576 19.7434 11.67 19.9608 11.3092 20.2171C10.8087 20.5729 10.3188 20.9459 9.83403 21.3234C9.57822 21.5231 9.4313 21.5613 9.22731 21.3695C8.53924 20.7225 7.73837 20.2395 6.94405 19.7467C6.18252 19.2749 5.56202 18.6839 5.33442 17.7772C5.25046 17.4438 5.20848 17.0999 5.14289 16.7381C4.99596 16.721 4.83395 16.7124 4.67522 16.6821C3.3555 16.433 2.52379 15.6028 2.07646 14.3812C1.54844 12.9395 1.61206 11.5163 2.41491 10.1787C2.9836 9.23124 3.83236 8.69555 4.93758 8.58749C4.99465 8.58222 5.05171 8.57432 5.10812 8.56575C5.12321 8.56312 5.13698 8.55257 5.15928 8.54203C5.19142 8.31932 5.21963 8.09134 5.25702 7.86468C5.39738 7.00745 5.83095 6.33273 6.53672 5.83724C6.85878 5.61123 7.20379 5.41817 7.52388 5.18953C8.08404 4.78958 8.63698 4.37974 9.18402 3.962C9.43064 3.77355 9.55527 3.76828 9.79271 3.94289C10.4795 4.44695 11.1734 4.94047 11.8667 5.43597C12.0137 5.54073 12.1685 5.63364 12.3193 5.73247C13.2087 6.3156 13.6954 7.1412 13.7905 8.2027C13.8004 8.30878 13.8174 8.41486 13.8319 8.52094C13.8332 8.52885 13.8384 8.5361 13.8522 8.56443C13.9834 8.58091 14.1283 8.59342 14.2713 8.61846C15.6645 8.86423 16.5139 9.73662 16.977 11.0281C17.326 12.0006 17.3365 12.9942 17.0734 13.9918C16.9973 14.2804 16.8406 14.3904 16.6012 14.3305C16.3723 14.2732 16.2857 14.0893 16.3591 13.8001C16.609 12.8176 16.5644 11.8543 16.1387 10.9299C15.6468 9.86181 14.8026 9.32019 13.6285 9.30833C13.2009 9.30438 13.1045 9.20291 13.0887 8.76869C13.0795 8.51436 13.0599 8.2587 13.0205 8.00766C12.9169 7.3481 12.583 6.82888 12.0406 6.44408C11.9605 6.38742 11.8805 6.32944 11.7979 6.27541C11.0258 5.76542 10.2532 5.25608 9.49755 4.75795C8.68158 5.29957 7.83479 5.85964 6.99127 6.423C6.2409 6.92377 5.95754 7.66701 5.91425 8.53281C5.90835 8.64811 5.91163 8.76342 5.90638 8.87873C5.89195 9.18117 5.76076 9.29516 5.45838 9.31426C5.14879 9.33337 4.83198 9.3393 4.53485 9.41574C3.78251 9.60945 3.24924 10.1023 2.91866 10.7922C2.31915 12.0421 2.31718 13.3079 2.94949 14.5446C3.44274 15.5099 4.26199 15.981 5.34229 15.9916C5.80537 15.9962 5.89851 16.0904 5.90966 16.5549C5.9254 17.2231 6.00477 17.8846 6.47572 18.3999C6.72694 18.6746 7.03653 18.9039 7.34547 19.1161C8.06042 19.6083 8.79112 20.0774 9.5041 20.5479C10.343 19.9878 11.22 19.4152 12.0832 18.8222C12.804 18.3274 13.0428 17.5822 13.0861 16.7493C13.092 16.634 13.0874 16.5187 13.094 16.4034C13.111 16.1267 13.2356 15.9883 13.5124 15.9955C14.2733 16.0146 14.9509 15.8203 15.5235 15.2931C15.6796 15.1495 15.8947 15.1871 16.0272 15.3419C16.1722 15.5112 16.1604 15.6984 15.982 15.8657C15.4605 16.352 14.8413 16.6261 14.1356 16.7085C14.0391 16.7197 13.9421 16.7296 13.8404 16.7408Z" fill="white"/>
<path d="M9.50035 13.9925C8.36954 13.9925 7.23873 13.9911 6.10793 13.9938C5.92099 13.9944 5.76619 13.9562 5.69207 13.7612C5.60615 13.5339 5.73471 13.2986 5.97412 13.2578C6.05414 13.2439 6.13744 13.2492 6.21943 13.2492C8.40759 13.2486 10.5951 13.2492 12.7832 13.2492C12.8403 13.2492 12.898 13.2466 12.9551 13.2512C13.1991 13.2703 13.3486 13.4238 13.3388 13.6432C13.329 13.8508 13.1807 13.9898 12.942 13.9911C12.1227 13.9951 11.3028 13.9931 10.4836 13.9931C10.1556 13.9925 9.82831 13.9925 9.50035 13.9925Z" fill="white"/>
<path d="M9.52669 11.312C10.649 11.312 11.7713 11.3134 12.8935 11.3107C13.0805 11.3101 13.2346 11.3496 13.3081 11.5446C13.3933 11.7713 13.2635 12.0065 13.0241 12.0467C12.944 12.0606 12.8607 12.0553 12.7787 12.0553C10.5912 12.0559 8.40441 12.0553 6.21691 12.0553C6.15985 12.0553 6.10213 12.0579 6.04506 12.0533C5.8004 12.0355 5.65544 11.8826 5.66725 11.6593C5.6784 11.4458 5.81942 11.314 6.06212 11.3134C7.16013 11.3101 8.25748 11.312 9.35549 11.3114C9.4119 11.312 9.46897 11.312 9.52669 11.312Z" fill="white"/>
<path d="M9.47672 10.1036C9.16581 10.1036 8.8549 10.1082 8.54465 10.1023C8.27507 10.097 8.12355 9.95338 8.13011 9.72408C8.13667 9.50269 8.28032 9.36762 8.54072 9.36498C9.17893 9.35971 9.81648 9.35971 10.4547 9.36498C10.7236 9.36696 10.8758 9.51587 10.8692 9.74451C10.8633 9.96524 10.719 10.097 10.4586 10.1023C10.1313 10.1082 9.80402 10.1036 9.47672 10.1036Z" fill="white"/>
<path d="M9.48537 15.9415C9.17447 15.9415 8.86356 15.9461 8.55331 15.9402C8.27782 15.9349 8.12958 15.7992 8.1309 15.5679C8.13221 15.3386 8.28044 15.2042 8.5579 15.2022C9.18758 15.1982 9.81727 15.1976 10.447 15.2022C10.7211 15.2042 10.8713 15.3432 10.87 15.5725C10.8681 15.8011 10.7178 15.9362 10.443 15.9402C10.1229 15.9454 9.80415 15.9415 9.48537 15.9415Z" fill="white"/>
<path d="M2.46489 21.4657C2.46949 21.6753 2.32584 21.8347 2.12578 21.8433C1.91917 21.8512 1.77027 21.7095 1.76044 21.4954C1.74994 21.2694 1.89556 21.106 2.10807 21.1046C2.30879 21.1033 2.4603 21.2569 2.46489 21.4657Z" fill="white"/>
<path d="M2.46428 23.2316C2.47019 23.4405 2.32785 23.6039 2.12911 23.6151C1.91987 23.6269 1.75917 23.4662 1.75917 23.2441C1.75917 23.0267 1.89626 22.881 2.10418 22.8784C2.31211 22.8751 2.45838 23.0194 2.46428 23.2316Z" fill="white"/>
<path d="M3.82855 22.8784C4.03648 22.8745 4.1821 23.0168 4.188 23.2303C4.19456 23.451 4.04042 23.6184 3.83183 23.6157C3.63112 23.6131 3.48682 23.4589 3.48551 23.2461C3.48485 23.0273 3.62063 22.8817 3.82855 22.8784Z" fill="white"/>
<path d="M15.1695 1.68943C15.3702 1.69338 15.5132 1.84888 15.5125 2.06171C15.5119 2.28903 15.3623 2.43596 15.1426 2.42608C14.9386 2.41685 14.8041 2.26333 14.81 2.04721C14.8166 1.83768 14.9701 1.68481 15.1695 1.68943Z" fill="white"/>
<path d="M17.2389 3.84074C17.2336 4.05489 17.0867 4.20248 16.8827 4.19919C16.6826 4.19655 16.5344 4.04039 16.5337 3.83086C16.5331 3.61144 16.6931 3.45199 16.905 3.46122C17.1083 3.47044 17.2441 3.62462 17.2389 3.84074Z" fill="white"/>
<path d="M17.239 2.06302C17.2377 2.28046 17.0993 2.42476 16.8913 2.42608C16.6755 2.4274 16.5267 2.2686 16.5345 2.04523C16.5417 1.83768 16.6978 1.68415 16.8966 1.68877C17.0966 1.69404 17.2403 1.85086 17.239 2.06302Z" fill="white"/>
<path d="M17.2389 21.4657C17.2428 21.6818 17.1057 21.8354 16.9024 21.8433C16.6912 21.8512 16.5318 21.6904 16.5338 21.471C16.5357 21.2615 16.684 21.1066 16.8853 21.1053C17.0893 21.1033 17.2349 21.2516 17.2389 21.4657Z" fill="white"/>
<path d="M15.1689 23.6151C14.9688 23.619 14.8166 23.4662 14.8101 23.2566C14.8035 23.0405 14.9386 22.8876 15.1433 22.8784C15.3637 22.8685 15.5126 23.0155 15.5126 23.2428C15.5132 23.4563 15.3696 23.6111 15.1689 23.6151Z" fill="white"/>
<path d="M16.8971 22.8778C17.1043 22.8817 17.2408 23.0286 17.2395 23.2467C17.2381 23.4582 17.0912 23.6137 16.8912 23.6151C16.6832 23.617 16.5271 23.4477 16.535 23.2283C16.5422 23.0168 16.6891 22.8738 16.8971 22.8778Z" fill="white"/>
</svg>
