<svg width="34" height="44" viewBox="0 0 34 44" fill="none" xmlns="http://www.w3.org/2000/svg">
<path d="M16.9694 36.1006C16.7405 35.3139 16.5105 34.5272 16.2822 33.74C15.481 30.9789 14.6777 28.2183 13.8838 25.455C13.8238 25.2472 13.711 25.1644 13.5155 25.1083C10.0427 24.1072 6.57159 23.0994 3.09993 22.0922C3.0327 22.0728 2.96882 22.0433 2.82715 21.99C3.35215 21.8339 3.80493 21.6961 4.25993 21.5644C7.35882 20.6661 10.4577 19.7661 13.5594 18.8767C13.7777 18.8139 13.8383 18.6806 13.8916 18.495C14.891 15.0406 15.8944 11.5872 16.8972 8.13389C16.9199 8.055 16.9483 7.97722 17.0027 7.81C17.0572 7.98166 17.0899 8.07777 17.1183 8.175C18.1216 11.6283 19.1255 15.0811 20.1233 18.5361C20.1783 18.7256 20.2694 18.82 20.4622 18.8756C23.9266 19.8744 27.3894 20.8811 30.8522 21.8861C30.9394 21.9117 31.0255 21.9411 31.1972 21.9961C31.036 22.0489 30.9483 22.0806 30.8594 22.1067C27.4149 23.1067 23.9716 24.1094 20.5244 25.0994C20.276 25.1706 20.1738 25.2928 20.1055 25.53C19.1127 28.9767 18.1099 32.4206 17.1088 35.865C17.086 35.9433 17.0577 36.02 17.0322 36.0972C17.011 36.0983 16.9899 36.0994 16.9694 36.1006ZM12.8355 21.9861C12.8316 24.2828 14.6994 26.1606 16.9922 26.1644C19.2888 26.1689 21.1672 24.3006 21.171 22.0078C21.1749 19.71 19.3083 17.8339 17.0138 17.8306C14.7155 17.8267 12.8394 19.6928 12.8355 21.9861Z" fill="#A1A1A1"/>
<path d="M30.7637 25.5344C29.617 30.3078 25.6031 34.5167 20.5442 35.76C20.4092 35.2389 20.2742 34.7172 20.1348 34.1767C20.4859 34.0628 20.8214 33.9678 21.147 33.8456C25.1637 32.3378 27.8125 29.5372 29.0731 25.4356C29.1498 25.1861 29.2281 25.1167 29.487 25.2C29.9059 25.3339 30.3381 25.425 30.7637 25.5344Z" fill="#A1A1A1"/>
<path d="M13.464 8.23333C13.6012 8.76667 13.7335 9.28278 13.874 9.83C11.6601 10.4244 9.74512 11.5139 8.13567 13.1222C6.52512 14.7311 5.42901 16.6433 4.83623 18.8678C4.28901 18.7272 3.76678 18.5928 3.24512 18.4589C4.36401 13.7511 8.34067 9.50444 13.464 8.23333Z" fill="#A1A1A1"/>
<path d="M20.1387 9.80667C20.2737 9.28111 20.4065 8.76444 20.5387 8.24833C25.1331 9.28111 29.5392 13.3294 30.7626 18.4611C30.2409 18.595 29.7181 18.7294 29.1965 18.8633C27.7909 14.2239 24.7903 11.2167 20.1387 9.80667Z" fill="#A1A1A1"/>
<path d="M13.8687 34.1872C13.7326 34.715 13.5999 35.2311 13.4671 35.7461C8.82652 34.6861 4.44429 30.6222 3.24707 25.5356C3.76207 25.4028 4.27818 25.2694 4.80929 25.1322C6.2054 29.7628 9.21318 32.775 13.8687 34.1872Z" fill="#A1A1A1"/>
<path d="M8.47754 13.4789C8.59754 13.5333 8.65421 13.5567 8.70921 13.5839C10.0553 14.2567 11.4009 14.9322 12.7492 15.5994C12.907 15.6772 12.9681 15.7444 12.9048 15.9333C12.7575 16.3706 12.6503 16.8206 12.5037 17.2578C12.4703 17.3572 12.3587 17.4678 12.2587 17.5011C11.8125 17.65 11.3548 17.7656 10.9064 17.9089C10.7575 17.9567 10.6925 17.9172 10.6275 17.7867C9.92532 16.3733 9.21865 14.9617 8.47754 13.4789Z" fill="#A1A1A1"/>
<path d="M25.4965 13.5456C24.7632 15.0111 24.0299 16.4772 23.2899 17.9561C22.7282 17.7944 22.1876 17.6422 21.651 17.4789C21.5937 17.4617 21.5332 17.3861 21.5143 17.3256C21.3654 16.8406 21.2215 16.3539 21.091 15.8633C21.0749 15.8033 21.1249 15.6811 21.1776 15.6544C22.601 14.9328 24.0287 14.22 25.456 13.5061C25.4699 13.5194 25.4832 13.5322 25.4965 13.5456Z" fill="#A1A1A1"/>
<path d="M8.50195 30.4856C8.54251 30.3978 8.56973 30.3339 8.60029 30.2717C9.26862 28.9333 9.9414 27.5978 10.602 26.2556C10.6903 26.0761 10.772 26.0378 10.9608 26.1006C11.3897 26.2433 11.8308 26.35 12.2592 26.4939C12.3586 26.5272 12.4697 26.6389 12.5031 26.7383C12.652 27.1844 12.767 27.6417 12.9108 28.09C12.9575 28.2356 12.9297 28.3061 12.7964 28.3722C11.3986 29.0656 10.0031 29.7639 8.6064 30.4594C8.58584 30.4706 8.55973 30.4717 8.50195 30.4856Z" fill="#A1A1A1"/>
<path d="M23.2905 26.0394C24.0305 27.5183 24.7639 28.9844 25.5244 30.5039C25.4027 30.4517 25.3305 30.4244 25.2622 30.39C23.9327 29.7261 22.6061 29.0561 21.2716 28.4017C21.0777 28.3067 21.0477 28.2161 21.1122 28.0217C21.2544 27.5928 21.3672 27.1544 21.5027 26.7233C21.5272 26.645 21.5866 26.5389 21.6527 26.5183C22.1883 26.3511 22.7294 26.2011 23.2905 26.0394Z" fill="#A1A1A1"/>
<path d="M12.8355 21.9861C12.8393 19.6928 14.7155 17.8267 17.0138 17.8306C19.3082 17.8344 21.1749 19.71 21.171 22.0078C21.1671 24.3006 19.2893 26.1689 16.9921 26.1644C14.6993 26.1606 12.8316 24.2828 12.8355 21.9861ZM17.0032 19.4978C15.6343 19.4978 14.5093 20.6167 14.5032 21.9839C14.4977 23.3656 15.6238 24.4978 17.0038 24.4972C18.3738 24.4967 19.4977 23.3794 19.5032 22.0111C19.5088 20.6278 18.3849 19.4978 17.0032 19.4978Z" fill="white"/>
<path d="M17.0034 19.4978C18.3851 19.4978 19.5096 20.6278 19.5034 22.0111C19.4979 23.3794 18.374 24.4967 17.004 24.4972C15.624 24.4978 14.4979 23.3656 14.5034 21.9839C14.5095 20.6167 15.634 19.4978 17.0034 19.4978ZM17.8251 21.1839C17.2623 21.1839 16.7229 21.1839 16.1923 21.1839C16.1923 21.7433 16.1923 22.2828 16.1923 22.8156C16.7479 22.8156 17.2807 22.8156 17.8251 22.8156C17.8251 22.2683 17.8251 21.7356 17.8251 21.1839Z" fill="#A1A1A1"/>
<path d="M17.8252 21.1839C17.8252 21.7356 17.8252 22.2683 17.8252 22.8156C17.2807 22.8156 16.7479 22.8156 16.1924 22.8156C16.1924 22.2828 16.1924 21.7433 16.1924 21.1839C16.7229 21.1839 17.2624 21.1839 17.8252 21.1839Z" fill="white"/>
</svg>
