<svg width="20" height="13" viewBox="0 0 20 13" fill="none" xmlns="http://www.w3.org/2000/svg">
<path d="M19.4439 6.23675C19.4155 6.17256 18.7273 4.64587 17.1974 3.11594C15.1588 1.07737 12.584 0 9.74999 0C6.91599 0 4.34118 1.07737 2.30262 3.11594C0.77268 4.64587 0.0812422 6.175 0.0560547 6.23675C0.0190967 6.31988 0 6.40984 0 6.50081C0 6.59179 0.0190967 6.68175 0.0560547 6.76487C0.0844922 6.82906 0.77268 8.35494 2.30262 9.88488C4.34118 11.9226 6.91599 13 9.74999 13C12.584 13 15.1588 11.9226 17.1974 9.88488C18.7273 8.35494 19.4155 6.82906 19.4439 6.76487C19.4809 6.68175 19.5 6.59179 19.5 6.50081C19.5 6.40984 19.4809 6.31988 19.4439 6.23675ZM9.74999 11.7C7.24912 11.7 5.0643 10.7908 3.25568 8.99844C2.51358 8.26044 1.88222 7.4189 1.38124 6.5C1.88208 5.58101 2.51346 4.73946 3.25568 4.00156C5.0643 2.20919 7.24912 1.3 9.74999 1.3C12.2509 1.3 14.4357 2.20919 16.2443 4.00156C16.9879 4.73928 17.6206 5.58083 18.1228 6.5C17.537 7.59362 14.9849 11.7 9.74999 11.7ZM9.74999 2.6C8.97865 2.6 8.22462 2.82873 7.58327 3.25727C6.94192 3.68581 6.44204 4.2949 6.14686 5.00753C5.85168 5.72017 5.77445 6.50433 5.92493 7.26085C6.07541 8.01738 6.44685 8.71229 6.99228 9.25772C7.5377 9.80314 8.23261 10.1746 8.98914 10.3251C9.74567 10.4755 10.5298 10.3983 11.2425 10.1031C11.9551 9.80795 12.5642 9.30808 12.9927 8.66672C13.4213 8.02537 13.65 7.27135 13.65 6.5C13.6489 5.46599 13.2377 4.47463 12.5065 3.74347C11.7754 3.01231 10.784 2.60108 9.74999 2.6ZM9.74999 9.1C9.23576 9.1 8.73308 8.94751 8.30551 8.66182C7.87794 8.37613 7.54469 7.97006 7.34791 7.49498C7.15112 7.01989 7.09963 6.49712 7.19995 5.99276C7.30027 5.48841 7.5479 5.02514 7.91151 4.66152C8.27513 4.29791 8.73841 4.05028 9.24276 3.94996C9.74711 3.84964 10.2699 3.90112 10.745 4.09791C11.2201 4.2947 11.6261 4.62795 11.9118 5.05552C12.1975 5.48309 12.35 5.98577 12.35 6.5C12.35 7.18956 12.0761 7.85088 11.5885 8.33848C11.1009 8.82607 10.4396 9.1 9.74999 9.1Z" fill="#A1A1A1"/>
</svg>
