<svg width="16" height="23" viewBox="0 0 16 23" fill="none" xmlns="http://www.w3.org/2000/svg">
<path d="M7.89296 22.6731C8.33516 22.6725 8.77217 22.5778 9.17493 22.3952C9.57768 22.2127 9.93693 21.9464 10.2288 21.6142L15.2119 16.0082C15.7601 15.3923 16.0417 14.5842 15.995 13.761C15.9483 12.9378 15.5771 12.1668 14.9627 11.6168C14.4079 11.1667 13.7151 10.9211 13.0006 10.9211C12.2862 10.9211 11.5934 11.1667 11.0385 11.6168V3.11444C11.0385 2.28844 10.7104 1.49627 10.1263 0.912198C9.54227 0.328128 8.7501 0 7.9241 0C7.0981 0 6.30593 0.328128 5.72186 0.912198C5.13779 1.49627 4.80966 2.28844 4.80966 3.11444V11.43C4.18715 11.0261 3.44087 10.8577 2.70523 10.9552C1.96959 11.0527 1.29294 11.4097 0.797143 11.9618C0.301345 12.5139 0.0189888 13.225 0.000923723 13.9668C-0.0171414 14.7087 0.230273 15.4326 0.698608 16.0082L5.68171 21.6142C5.97008 21.9425 6.32431 22.2064 6.72137 22.3889C7.11844 22.5713 7.54945 22.6682 7.98639 22.6731" fill="#F94060"/>
</svg>
