<svg width="58" height="71" viewBox="0 0 58 71" fill="none" xmlns="http://www.w3.org/2000/svg">
<path d="M40.8147 14.8685L37.2288 16.1737L35.69 11.3997C32.8631 2.59662 23.8531 -2.07804 15.5742 0.894163C7.29535 3.86637 2.88784 13.5207 5.71478 22.3238L7.25357 27.0978L3.65377 28.4101C2.28109 28.9525 1.16639 30.013 0.541353 31.371C-0.0836795 32.7291 -0.170965 34.2804 0.297648 35.7023L10.2755 66.765C10.4826 67.4689 10.8265 68.1232 11.2867 68.6891C11.7469 69.2549 12.3141 69.7208 12.9545 70.0589C13.595 70.397 14.2956 70.6006 15.0147 70.6574C15.7339 70.7143 16.4569 70.6233 17.1409 70.3898L54.3018 56.8482C55.6926 56.3067 56.8231 55.2369 57.4555 53.8637C58.088 52.4904 58.173 50.9209 57.6927 49.4851L47.708 18.4224C47.4955 17.7204 47.1464 17.0693 46.6814 16.5078C46.2165 15.9463 45.6454 15.486 45.002 15.1543C44.3587 14.8226 43.6563 14.6264 42.9369 14.5773C42.2175 14.5282 41.4957 14.6272 40.8147 14.8685ZM12.4897 19.834C11.7274 17.545 11.8643 15.0444 12.8715 12.8559C13.8787 10.6675 15.6782 8.96105 17.8929 8.09413C18.9865 7.71295 20.1442 7.56009 21.2971 7.64468C22.4499 7.72927 23.5742 8.04957 24.6029 8.58648C25.6316 9.12338 26.5436 9.86589 27.2845 10.7697C28.0254 11.6735 28.5799 12.7201 28.9151 13.847L30.447 18.621L14.0215 24.608L12.4897 19.834ZM33.3783 47.3996L35.9267 55.3302C35.9736 55.4892 35.9585 55.6605 35.8845 55.8084C35.8106 55.9564 35.6836 56.0696 35.5299 56.1247L31.9579 57.4228C31.8158 57.4629 31.6639 57.4455 31.5341 57.3741C31.4043 57.3027 31.3066 57.1829 31.2616 57.0397L28.6923 49.1446C27.2756 49.066 25.9163 48.5483 24.7963 47.6609C23.6764 46.7734 22.8493 45.5586 22.4257 44.1791C21.8201 42.3553 21.9306 40.3635 22.734 38.6208C23.5374 36.8781 24.9714 35.5196 26.7357 34.8298C27.6069 34.5266 28.5291 34.4051 29.4473 34.4727C30.3655 34.5402 31.2609 34.7954 32.0802 35.223C32.8996 35.6507 33.626 36.2419 34.2163 36.9617C34.8065 37.6814 35.2485 38.5148 35.5159 39.4122C35.9639 40.8136 36.001 42.3177 35.6225 43.7401C35.2441 45.1626 34.4666 46.4418 33.3853 47.4209L33.3783 47.3996Z" fill="#E13437"/>
<path d="M37.0688 16.0886C37.0688 16.1879 30.4192 18.7345 22.1473 21.7634C13.8754 24.7924 7.12832 27.2255 7.0935 27.1545C7.05869 27.0836 13.7431 24.5157 22.0219 21.4797C30.3008 18.4436 37.0339 15.9964 37.0688 16.0886Z" fill="#263238"/>
<path d="M44.9644 17.3938C44.9951 17.4554 45.0207 17.5194 45.041 17.5853C45.0967 17.7272 45.1594 17.9117 45.2429 18.1386C45.4239 18.6565 45.6746 19.3729 45.9879 20.2667L48.6617 28.1973C49.7758 31.5597 51.1057 35.5463 52.5818 39.9726C53.2781 42.1929 54.0997 44.5054 54.8656 46.9385C55.2756 48.1923 55.4527 49.513 55.3878 50.8329C55.3288 51.5193 55.1371 52.1871 54.8238 52.7978C54.4892 53.4065 54.0424 53.9436 53.5079 54.3797C52.4321 55.1797 51.2381 55.7999 49.9707 56.2169L46.3848 57.5292L39.596 60.0049L28.1003 64.1759L20.3367 66.9566L18.2478 67.6659L17.6907 67.8504C17.6312 67.8773 17.5677 67.8941 17.5028 67.9C17.5028 67.9 17.5585 67.9 17.6768 67.8149L18.2199 67.595L20.3088 66.7934L28.0306 63.8992L39.5055 59.6431L46.2804 57.1462L49.8663 55.8268C51.0976 55.4267 52.257 54.8253 53.299 54.0463C53.7963 53.6416 54.2124 53.1431 54.5244 52.5779C54.8193 52.0131 54.9971 51.3926 55.0467 50.7549C55.1108 49.4831 54.9407 48.2104 54.5453 47.0024C53.7933 44.5906 52.9996 42.2568 52.2824 40.0365C50.8341 35.603 49.4972 31.6022 48.4389 28.2399C47.3805 24.8775 46.4893 22.1749 45.8765 20.2738C45.5841 19.3446 45.3613 18.621 45.1802 18.0961L45.0131 17.5286C44.9921 17.4856 44.9758 17.4404 44.9644 17.3938Z" fill="#263238"/>
<path d="M25.357 7.61182C25.357 7.61182 24.9879 7.42738 24.3056 7.14364C23.3329 6.76291 22.3043 6.55188 21.2628 6.51941C19.7191 6.46548 18.1828 6.76105 16.7648 7.38482C15.0403 8.16155 13.5658 9.41788 12.5104 11.0096C11.448 12.5968 10.878 14.4725 10.8742 16.3937C10.8887 17.9682 11.1231 19.5327 11.5704 21.0399C11.9325 22.331 12.3085 23.3595 12.5592 24.076C12.707 24.4399 12.8281 24.8145 12.9212 25.1968C12.7235 24.8565 12.5579 24.4979 12.4269 24.1256C12.1414 23.4163 11.7306 22.409 11.3267 21.1109C10.831 19.5878 10.5611 17.9979 10.526 16.3937C10.5074 14.3999 11.0908 12.4486 12.1971 10.8039C13.2893 9.15403 14.8241 7.85884 16.6185 7.0727C18.0808 6.44551 19.665 6.16885 21.2489 6.26404C22.3129 6.31928 23.3582 6.57168 24.3334 7.00886C24.5942 7.13141 24.8455 7.27368 25.0854 7.43448C25.1845 7.47881 25.2761 7.53864 25.357 7.61182Z" fill="#263238"/>
<path d="M25.6773 35.3689C25.7884 35.3003 25.9049 35.241 26.0254 35.1916C26.374 35.0314 26.735 34.9009 27.1047 34.8014C27.6915 34.625 28.2969 34.5202 28.9081 34.4893C29.7394 34.4438 30.571 34.5718 31.352 34.8653C33.1345 35.5037 34.7708 37.3551 35.5785 39.8308C35.9658 41.1593 35.9658 42.5739 35.5785 43.9025C35.149 45.3444 34.3792 46.6572 33.3365 47.7259L33.3782 47.5344C34.3043 50.1236 35.3139 52.9326 36.3584 55.8622L36.421 56.0396L36.247 56.1034L34.6524 56.6425L31.171 57.8272L30.9969 57.8839L30.9412 57.7066C29.9873 54.7698 28.9429 52.0317 28.1561 49.3433L28.3092 49.4638C26.948 49.3487 25.6502 48.8281 24.5771 47.9671C23.6063 47.2054 22.8103 46.237 22.2446 45.1297C21.7341 44.1477 21.48 43.0485 21.5065 41.9376C21.5387 40.8022 21.817 39.6882 22.3214 38.6752C22.8257 37.6622 23.5437 36.7754 24.424 36.0783C24.7863 35.7787 25.1928 35.5392 25.6285 35.3689C25.2352 35.6067 24.8541 35.8647 24.4866 36.1421C23.5197 36.9755 22.7789 38.0477 22.3351 39.2562C21.9542 40.1675 21.776 41.1534 21.8133 42.1431C21.8506 43.1328 22.1025 44.1019 22.5509 44.9807C23.1072 46.046 23.8841 46.9754 24.8278 47.7046C25.8514 48.5231 27.0889 49.0165 28.3858 49.1234H28.5042L28.539 49.2298C29.3049 51.8686 30.3563 54.628 31.3242 57.5789L31.0944 57.4654L34.5758 56.2808L36.1634 55.7346L36.052 55.9757C35.0145 53.0461 34.0119 50.23 33.0928 47.6408V47.5344L33.1763 47.4493C34.1886 46.4249 34.9433 45.1668 35.3766 43.7819C35.7459 42.511 35.7459 41.1584 35.3766 39.8875C34.6176 37.5041 33.051 35.6952 31.352 35.0568C30.6 34.7614 29.7971 34.6239 28.9916 34.6525C28.3902 34.6665 27.7922 34.7498 27.2091 34.9008C26.1716 35.1632 25.6842 35.4044 25.6773 35.3689Z" fill="#263238"/>
</svg>
