<svg width="15" height="9" viewBox="0 0 15 9" fill="none" xmlns="http://www.w3.org/2000/svg">
<path d="M0.290461 0.291676C0.198389 0.383515 0.12534 0.492616 0.0754978 0.612731C0.0256557 0.732845 0 0.861612 0 0.991658C0 1.1217 0.0256557 1.25047 0.0754978 1.37059C0.12534 1.4907 0.198389 1.5998 0.290461 1.69164L6.94228 8.34346C7.01545 8.41679 7.10237 8.47496 7.19805 8.51465C7.29373 8.55434 7.39631 8.57477 7.49989 8.57477C7.60348 8.57477 7.70605 8.55434 7.80174 8.51465C7.89742 8.47496 7.98434 8.41679 8.05751 8.34346L14.7093 1.69164C15.0969 1.30408 15.0969 0.679237 14.7093 0.291676C14.3218 -0.0958862 13.6969 -0.0958862 13.3094 0.291676L7.50385 6.09719L1.69043 0.283767C1.30287 -0.0958853 0.678023 -0.0958862 0.290461 0.291676Z" fill="#A6A6A6"/>
</svg>
