<svg width="20" height="20" viewBox="0 0 20 20" fill="none" xmlns="http://www.w3.org/2000/svg">
<path d="M6.5231 19.999C4.34873 19.999 2.17437 19.999 0 19.999C0 13.3326 0 6.66632 0 0C3.21598 0 6.43196 0 9.64794 0C9.3292 0.10364 8.99641 0.177074 8.6959 0.319254C8.31363 0.500495 7.93032 0.621323 7.5043 0.643717C6.47102 0.698923 5.67262 1.17338 5.12057 2.05094C4.91902 2.37175 4.65392 2.61966 4.33675 2.82433C3.46701 3.3868 3.00557 4.18832 2.96339 5.22577C2.9488 5.58877 2.86443 5.93094 2.69361 6.25332C2.19416 7.19702 2.18999 8.14437 2.68736 9.08963C2.86339 9.42451 2.94828 9.77866 2.96495 10.1547C3.01026 11.1682 3.46649 11.9499 4.30498 12.5171C4.48727 12.6405 4.6534 12.7874 4.82631 12.9238C4.94974 13.0212 4.96328 13.1196 4.89037 13.2727C4.18624 14.7576 3.49305 16.2476 2.79413 17.735C2.71548 17.9022 2.69673 18.061 2.81964 18.2095C2.93526 18.349 3.08578 18.3709 3.26129 18.335C3.87896 18.21 4.49872 18.0965 5.11692 17.973C5.24244 17.948 5.31431 17.9699 5.37889 18.0928C5.65335 18.6162 5.93511 19.1365 6.22676 19.6505C6.30176 19.7813 6.42362 19.8839 6.5231 19.999Z" fill="white"/>
<path d="M10.3508 0C13.5668 0 16.7828 0 19.9988 0C19.9988 6.66632 19.9988 13.3326 19.9988 19.999C17.8374 19.999 15.6761 19.999 13.5147 19.999C13.6137 19.8917 13.7366 19.7984 13.8069 19.675C14.097 19.1667 14.3777 18.6532 14.6464 18.1334C14.7287 17.9746 14.8193 17.947 14.9829 17.9814C15.5938 18.109 16.2073 18.2225 16.8198 18.3428C16.9807 18.3746 17.1197 18.3391 17.225 18.2136C17.3369 18.0803 17.339 17.9293 17.2697 17.7741C17.2484 17.7267 17.2265 17.6798 17.2041 17.6324C16.5151 16.1611 15.8276 14.6888 15.1329 13.2196C15.0683 13.0827 15.0756 12.991 15.1917 12.9025C15.3672 12.7686 15.537 12.6269 15.7183 12.5014C16.5375 11.9343 16.9869 11.1604 17.0328 10.162C17.05 9.77866 17.1385 9.41982 17.3166 9.07817C17.8036 8.14541 17.8041 7.20744 17.3156 6.27519C17.1369 5.93354 17.0494 5.57471 17.0323 5.1914C16.9875 4.20082 16.5505 3.41805 15.7292 2.86912C15.3527 2.61757 15.0516 2.31655 14.8022 1.94C14.2985 1.18067 13.5788 0.759336 12.6715 0.653091C12.3502 0.615593 12.0122 0.605176 11.7169 0.49112C11.2643 0.317691 10.8341 0.0885371 10.3508 0Z" fill="white"/>
<path d="M10.3515 0C10.8348 0.0885371 11.265 0.317692 11.717 0.492162C12.0123 0.606219 12.3503 0.616634 12.6717 0.654132C13.5789 0.760377 14.2992 1.18171 14.8023 1.94105C15.0523 2.31759 15.3528 2.61913 15.7293 2.87016C16.5507 3.41857 16.9876 4.20134 17.0324 5.19244C17.0496 5.57575 17.1371 5.93459 17.3157 6.27624C17.8042 7.20848 17.8037 8.14697 17.3168 9.07922C17.1381 9.42086 17.0501 9.7797 17.0329 10.163C16.9876 11.1614 16.5376 11.9353 15.7184 12.5025C15.5372 12.628 15.3674 12.7696 15.1919 12.9035C15.0757 12.992 15.0684 13.0837 15.133 13.2207C15.8278 14.6893 16.5152 16.1617 17.2043 17.6335C17.2261 17.6803 17.2485 17.7277 17.2699 17.7751C17.3392 17.9303 17.3371 18.0813 17.2251 18.2147C17.1194 18.3402 16.9803 18.3751 16.8199 18.3438C16.2074 18.223 15.5939 18.11 14.983 17.9824C14.8195 17.948 14.7289 17.9756 14.6466 18.1345C14.3784 18.6542 14.0971 19.1677 13.807 19.6761C13.7367 19.7995 13.6138 19.8927 13.5149 20C13.4368 20 13.3586 20 13.2805 20C13.181 19.8771 13.0529 19.7682 12.9873 19.6297C12.3155 18.2152 11.6525 16.7965 10.9921 15.3768C10.9358 15.2555 10.8879 15.2185 10.7457 15.2575C10.2739 15.3872 9.79319 15.3997 9.31874 15.2711C9.16822 15.2305 9.10937 15.2596 9.04375 15.4008C8.38858 16.8158 7.72767 18.2282 7.05792 19.6365C6.9923 19.774 6.85897 19.8792 6.75689 19.9995C6.67877 19.9995 6.60065 19.9995 6.52253 19.9995C6.42305 19.8844 6.30119 19.7818 6.22723 19.6521C5.93506 19.1381 5.65382 18.6178 5.37936 18.0944C5.31478 17.9709 5.24291 17.9491 5.11739 17.9746C4.49972 18.0985 3.87944 18.2116 3.26176 18.3365C3.08625 18.372 2.93626 18.3501 2.82012 18.211C2.69669 18.0626 2.71596 17.9038 2.7946 17.7366C3.49352 16.2492 4.18619 14.7591 4.89084 13.2743C4.96376 13.1207 4.95022 13.0228 4.82678 12.9254C4.65388 12.7889 4.48774 12.642 4.30546 12.5186C3.46696 11.9515 3.01021 11.1697 2.96542 10.1562C2.94876 9.7797 2.86387 9.42555 2.68783 9.09119C2.19046 8.14593 2.19463 7.19806 2.69408 6.25488C2.86491 5.9325 2.94928 5.59033 2.96386 5.22733C3.00552 4.18936 3.46748 3.38784 4.33722 2.82589C4.6544 2.6207 4.91949 2.37331 5.12104 2.0525C5.67309 1.17494 6.47149 0.700485 7.50477 0.64528C7.93027 0.622364 8.31358 0.501537 8.69637 0.320817C8.99688 0.178637 9.33019 0.105724 9.64841 0.00156235C9.88277 -6.354e-08 10.1171 0 10.3515 0ZM10.0046 14.5732C10.3853 14.5789 10.7358 14.4722 11.0676 14.2925C11.4811 14.0691 11.9217 13.9545 12.3925 13.9394C13.1779 13.9139 13.7914 13.5722 14.2096 12.903C14.47 12.4863 14.8049 12.1509 15.2205 11.8905C15.8809 11.476 16.2293 10.877 16.2564 10.0953C16.2731 9.61981 16.3835 9.16931 16.6105 8.74954C16.9959 8.03552 16.9965 7.32149 16.6105 6.60747C16.3871 6.19343 16.2725 5.7497 16.258 5.28097C16.233 4.4831 15.8799 3.87532 15.2049 3.45555C14.7997 3.20348 14.4716 2.87641 14.2211 2.47018C13.8149 1.81241 13.2217 1.45461 12.4519 1.42284C11.9196 1.40097 11.4332 1.25775 10.9619 1.01609C10.3234 0.688506 9.6682 0.691111 9.03073 1.01974C8.56565 1.25983 8.08495 1.40045 7.55945 1.4218C6.7897 1.45253 6.1939 1.80511 5.78611 2.46237C5.52727 2.87954 5.18874 3.21181 4.77314 3.47326C4.11953 3.88365 3.77371 4.47789 3.74559 5.25233C3.72788 5.74085 3.60966 6.20072 3.37738 6.63403C3.00604 7.32826 3.00552 8.02927 3.37738 8.72402C3.61278 9.16358 3.72736 9.63023 3.74663 10.1255C3.77632 10.876 4.10963 11.4614 4.74033 11.8629C5.18302 12.1447 5.53821 12.5009 5.81944 12.9436C6.2215 13.5769 6.81366 13.9071 7.55893 13.9363C8.07036 13.9566 8.54586 14.0784 8.99427 14.3232C9.30728 14.494 9.64528 14.5794 10.0046 14.5732ZM11.6144 14.8669C12.2285 16.1768 12.8212 17.4413 13.4279 18.736C13.4841 18.6386 13.5201 18.5782 13.5539 18.5167C13.7623 18.1345 13.969 17.7517 14.1789 17.3704C14.3013 17.1486 14.4325 17.0882 14.6763 17.1345C15.0143 17.1986 15.3523 17.2652 15.6903 17.3293C15.8647 17.3621 16.0397 17.3918 16.2465 17.4283C15.6674 16.1924 15.1044 14.9919 14.5367 13.7811C13.9013 14.4097 13.1915 14.7185 12.2691 14.7336C12.0608 14.7367 11.854 14.8159 11.6144 14.8669ZM5.49862 13.8092C4.93042 15.0227 4.3742 16.2106 3.8008 17.4345C4.3565 17.3283 4.86532 17.2304 5.37467 17.134C5.61008 17.0892 5.74288 17.1481 5.8611 17.3553C5.96735 17.5418 6.06786 17.7308 6.17046 17.9194C6.31525 18.1845 6.46003 18.4496 6.6194 18.7428C7.22666 17.446 7.81777 16.1835 8.42764 14.8815C8.17192 14.8258 7.94745 14.7393 7.72038 14.7346C6.86939 14.7149 6.13036 14.4425 5.49862 13.8092Z" fill="black"/>
<path d="M6.75708 19.9989C6.85916 19.8786 6.99248 19.7734 7.05811 19.6359C7.72786 18.2277 8.38877 16.8153 9.04394 15.4002C9.10956 15.2591 9.16789 15.2294 9.31893 15.2705C9.79338 15.3992 10.2741 15.3867 10.7459 15.257C10.8881 15.2179 10.9355 15.2549 10.9923 15.3763C11.6527 16.796 12.3156 18.2147 12.9875 19.6292C13.0531 19.7677 13.1817 19.8766 13.2807 19.9995C11.1058 19.9989 8.93145 19.9989 6.75708 19.9989Z" fill="white"/>
<path d="M10.0039 14.5732C9.64456 14.5789 9.30656 14.4935 8.99251 14.3222C8.5441 14.0774 8.06912 13.9555 7.55717 13.9352C6.8119 13.9055 6.21922 13.5753 5.81768 12.9426C5.53644 12.4994 5.18125 12.1436 4.73857 11.8619C4.10787 11.4598 3.77404 10.8744 3.74487 10.1245C3.7256 9.62919 3.6105 9.16255 3.37562 8.72299C3.00376 8.02875 3.00429 7.32775 3.37562 6.63299C3.60738 6.19968 3.7256 5.73981 3.74383 5.2513C3.77195 4.47686 4.11777 3.88262 4.77138 3.47222C5.18698 3.2113 5.52551 2.87902 5.78435 2.46134C6.19214 1.80408 6.78794 1.45201 7.55769 1.42077C8.08319 1.39941 8.56389 1.25879 9.02897 1.0187C9.66644 0.689554 10.3216 0.68747 10.9601 1.01506C11.4314 1.25671 11.9179 1.39993 12.4501 1.42181C13.2199 1.45358 13.8131 1.81137 14.2193 2.46915C14.4704 2.87538 14.7979 3.20192 15.2031 3.45451C15.8786 3.8748 16.2317 4.48206 16.2562 5.27994C16.2708 5.74866 16.3854 6.19291 16.6088 6.60643C16.9947 7.32046 16.9947 8.03448 16.6088 8.74851C16.3817 9.1688 16.2708 9.6193 16.2546 10.0943C16.2276 10.876 15.8797 11.4749 15.2188 11.8895C14.8031 12.1504 14.4683 12.4853 14.2079 12.9019C13.7902 13.5712 13.1762 13.9128 12.3908 13.9383C11.92 13.9534 11.4788 14.068 11.0658 14.2914C10.7351 14.4722 10.3846 14.5795 10.0039 14.5732ZM4.19381 7.68606C4.21776 7.97094 4.22558 8.25843 4.26828 8.54071C4.7318 11.5833 7.4603 13.7139 10.5398 13.4446C13.2954 13.2035 15.5536 10.9729 15.7635 8.20114C15.939 5.88303 15.0167 4.05917 13.0741 2.77538C12.7204 2.54154 12.3116 2.38686 11.9194 2.21656C11.6705 2.10875 11.4481 2.20875 11.37 2.42332C11.2898 2.64414 11.3955 2.841 11.6491 2.941C11.6794 2.95298 11.7101 2.96391 11.7403 2.97537C13.9443 3.80397 15.2672 5.99865 14.9667 8.32822C14.6058 11.1322 11.9799 13.0837 9.18834 12.6233C7.13219 12.2843 5.46145 10.6744 5.08178 8.6657C4.68388 6.56216 5.58696 4.49196 7.39468 3.40191C7.70404 3.21546 8.04777 3.08474 8.37796 2.93423C8.60035 2.83267 8.70086 2.6431 8.63107 2.43321C8.56285 2.22906 8.35348 2.13062 8.12225 2.19573C8.07225 2.20979 8.02433 2.23114 7.9759 2.24937C5.70883 3.08839 4.19745 5.26952 4.19381 7.68606ZM8.69409 6.821C8.56754 6.87256 8.4514 6.91423 8.34046 6.96683C8.22328 7.02256 8.10506 7.07984 7.99725 7.1512C7.01345 7.80168 6.55983 8.72247 6.5916 9.89637C6.60358 10.3297 6.70149 10.4385 7.13376 10.4385C9.01387 10.4385 10.894 10.4385 12.7741 10.4385C13.4006 10.4385 13.4673 10.3708 13.4589 9.74325C13.4412 8.38759 12.7158 7.34389 11.4591 6.86475C11.4257 6.85225 11.3945 6.83298 11.3538 6.81267C11.5554 6.51529 11.6747 6.20385 11.6783 5.85491C11.6804 5.65336 11.683 5.45129 11.6773 5.24973C11.6559 4.45759 11.0325 3.76179 10.2659 3.66961C9.41541 3.56753 8.6342 4.04615 8.44254 4.85027C8.28317 5.51899 8.27797 6.19395 8.69409 6.821ZM9.98517 2.65924C10.2065 2.66601 10.3857 2.49623 10.3883 2.27749C10.3904 2.07125 10.2195 1.89105 10.0128 1.88272C9.80185 1.87387 9.61227 2.05563 9.60967 2.26968C9.60759 2.48009 9.77424 2.65299 9.98517 2.65924Z" fill="white"/>
<path d="M11.614 14.8669C11.8536 14.8159 12.0603 14.7367 12.2687 14.7336C13.191 14.719 13.9009 14.4096 14.5363 13.781C15.1039 14.9914 15.6669 16.1924 16.2461 17.4282C16.0393 17.3918 15.8643 17.3621 15.6898 17.3293C15.3518 17.2652 15.0138 17.1986 14.6758 17.1345C14.4321 17.0882 14.3009 17.1481 14.1785 17.3704C13.9681 17.7517 13.7618 18.135 13.5535 18.5167C13.5196 18.5787 13.4832 18.6386 13.4275 18.736C12.8207 17.4413 12.228 16.1767 11.614 14.8669Z" fill="white"/>
<path d="M5.49833 13.8092C6.13007 14.4425 6.86909 14.7149 7.72061 14.7341C7.94716 14.7393 8.17215 14.8258 8.42787 14.881C7.818 16.183 7.22689 17.4454 6.61963 18.7422C6.45974 18.4496 6.31548 18.1839 6.17069 17.9189C6.0681 17.7308 5.96758 17.5413 5.86134 17.3548C5.74311 17.1475 5.61031 17.0887 5.3749 17.1335C4.86555 17.2303 4.35673 17.3277 3.80103 17.434C4.37391 16.2101 4.93013 15.0227 5.49833 13.8092Z" fill="white"/>
<path d="M4.19409 7.68604C4.19774 5.26897 5.70912 3.08836 7.97619 2.24882C8.02514 2.23059 8.07253 2.20976 8.12253 2.19517C8.35377 2.12955 8.56313 2.22851 8.63136 2.43266C8.70167 2.64307 8.60115 2.83212 8.37825 2.93368C8.04754 3.08419 7.70432 3.21491 7.39497 3.40136C5.58725 4.49141 4.68417 6.56161 5.08207 8.66515C5.46225 10.6739 7.13248 12.2837 9.18862 12.6228C11.9807 13.0831 14.606 11.1317 14.967 8.32767C15.267 5.9981 13.9441 3.80342 11.7406 2.97482C11.7104 2.96336 11.6796 2.95243 11.6494 2.94045C11.3958 2.84045 11.2901 2.64359 11.3703 2.42277C11.4484 2.2082 11.6708 2.1082 11.9197 2.21601C12.3124 2.38579 12.7207 2.54099 13.0744 2.77483C15.017 4.0581 15.9393 5.88248 15.7638 8.20059C15.5539 10.9723 13.2957 13.2029 10.5401 13.4441C7.46059 13.7138 4.73208 11.5827 4.26857 8.54016C4.22586 8.2584 4.21805 7.97092 4.19409 7.68604Z" fill="black"/>
<path d="M8.69416 6.82098C8.27803 6.19393 8.28376 5.51844 8.44313 4.85077C8.63478 4.04664 9.41599 3.56802 10.2665 3.6701C11.0331 3.76228 11.6565 4.45808 11.6779 5.25023C11.6836 5.45178 11.681 5.65333 11.6789 5.8554C11.6753 6.20434 11.556 6.51578 11.3544 6.81317C11.3951 6.83348 11.4263 6.85223 11.4596 6.86525C12.7163 7.34439 13.4418 8.38808 13.4595 9.74374C13.4679 10.3713 13.4012 10.439 12.7747 10.439C10.8946 10.439 9.01445 10.439 7.13434 10.439C6.70259 10.439 6.60416 10.3302 6.59218 9.89686C6.55989 8.72348 7.01404 7.80218 7.99784 7.15169C8.10565 7.08034 8.22387 7.02305 8.34105 6.96732C8.45146 6.91472 8.5676 6.87306 8.69416 6.82098ZM7.39162 9.63958C9.15715 9.63958 10.9091 9.63958 12.6611 9.63958C12.6778 8.33184 11.4315 7.37355 10.4165 7.50844C10.4165 7.66208 10.4243 7.81832 10.4149 7.97352C10.3998 8.21778 10.2399 8.36986 10.017 8.36621C9.79514 8.36256 9.64619 8.2058 9.63838 7.9579C9.63369 7.80374 9.63734 7.64958 9.63734 7.49959C8.51656 7.35637 7.30933 8.5162 7.39162 9.63958ZM10.8883 5.5575C10.8914 5.5575 10.8946 5.5575 10.8977 5.5575C10.8977 5.46688 10.9003 5.37574 10.8972 5.28512C10.8826 4.83046 10.5456 4.47631 10.0915 4.43621C9.65452 4.39767 9.24152 4.69088 9.17694 5.13304C9.13632 5.41168 9.13632 5.70489 9.17486 5.98404C9.23423 6.41527 9.6113 6.69911 10.0436 6.69078C10.4633 6.68244 10.819 6.38298 10.8847 5.96581C10.906 5.83301 10.8883 5.69395 10.8883 5.5575Z" fill="black"/>
<path d="M9.98563 2.65922C9.77418 2.65297 9.60804 2.48006 9.61013 2.26913C9.61221 2.0556 9.80231 1.87332 10.0132 1.88218C10.22 1.89103 10.3908 2.07071 10.3887 2.27695C10.3866 2.49621 10.2075 2.66599 9.98563 2.65922Z" fill="black"/>
<path d="M7.39192 9.6396C7.30964 8.5157 8.51686 7.35587 9.63764 7.49961C9.63764 7.6496 9.63347 7.80428 9.63868 7.95792C9.64649 8.2053 9.79544 8.36259 10.0173 8.36623C10.2397 8.36988 10.4001 8.21728 10.4152 7.97354C10.4246 7.81834 10.4168 7.6621 10.4168 7.50846C11.4318 7.37358 12.6781 8.33238 12.6614 9.6396C10.9094 9.6396 9.15798 9.6396 7.39192 9.6396Z" fill="white"/>
<path d="M10.8888 5.55752C10.8888 5.69345 10.9065 5.83251 10.8857 5.96531C10.8201 6.38248 10.4643 6.68194 10.0446 6.69028C9.6123 6.69913 9.23524 6.41477 9.17587 5.98354C9.13733 5.70439 9.13733 5.41118 9.17795 5.13255C9.24253 4.69038 9.65553 4.39717 10.0925 4.43571C10.5466 4.47581 10.8836 4.82996 10.8982 5.28462C10.9013 5.37524 10.8987 5.46638 10.8987 5.557C10.895 5.55752 10.8919 5.55752 10.8888 5.55752Z" fill="white"/>
</svg>
