<svg width="26" height="26" viewBox="0 0 26 26" fill="none" xmlns="http://www.w3.org/2000/svg">
<path d="M13.1527 25.9993C13.0511 25.9993 12.9495 25.9993 12.8479 25.9993C12.1903 25.6017 11.5441 25.1886 11.0043 24.6332C10.9223 24.5492 10.839 24.5702 10.7483 24.5864C8.8965 24.9197 7.42673 24.3162 6.33964 22.7828C6.26785 22.6818 6.19673 22.6419 6.07346 22.6392C5.41105 22.6256 4.76354 22.5111 4.12212 22.3472C3.86474 22.2815 3.71777 22.1359 3.65207 21.8779C3.48816 21.2364 3.37369 20.5889 3.36015 19.9265C3.35744 19.8033 3.32018 19.7294 3.21927 19.6583C1.68515 18.5726 1.08099 17.1035 1.41423 15.2517C1.43048 15.1616 1.4508 15.0776 1.36682 14.9957C0.811421 14.4559 0.39555 13.8111 0 13.152C0 13.0505 0 12.9489 0 12.8473C0.39555 12.1882 0.810065 11.5428 1.36614 11.0029C1.45013 10.9217 1.42981 10.837 1.41355 10.7469C1.08099 8.89582 1.68109 7.42537 3.21791 6.33964C3.30596 6.27733 3.35811 6.21773 3.35947 6.09784C3.36895 5.42663 3.48545 4.77099 3.65139 4.12145C3.71709 3.86407 3.86271 3.71777 4.12077 3.65139C4.76218 3.48748 5.40969 3.37301 6.0721 3.35947C6.19402 3.35676 6.26785 3.31951 6.34032 3.21791C7.42605 1.68448 8.89514 1.08031 10.7476 1.41355C10.8377 1.42981 10.9217 1.45013 11.0036 1.36614C11.5434 0.810065 12.1896 0.396905 12.8479 0C12.9495 0 13.0511 0 13.1527 0C13.8124 0.394196 14.4572 0.810065 14.9964 1.36614C15.0776 1.45013 15.1616 1.43048 15.2524 1.41423C17.1035 1.08167 18.5739 1.68244 19.659 3.21791C19.7301 3.31883 19.8039 3.35744 19.9265 3.35947C20.5889 3.37301 21.2364 3.48748 21.8779 3.65139C22.1359 3.71709 22.2815 3.86339 22.3479 4.12077C22.5118 4.76218 22.6256 5.40969 22.6398 6.0721C22.6425 6.19537 22.6805 6.26785 22.7814 6.33964C24.3162 7.42537 24.9183 8.89514 24.5851 10.7469C24.5688 10.8377 24.5499 10.9217 24.6338 11.0029C25.1892 11.5428 25.6044 12.1882 26 12.8473C26 12.9489 26 13.0505 26 13.152C25.6044 13.8111 25.1886 14.4552 24.6338 14.9964C24.5411 15.0871 24.5715 15.1806 24.5912 15.2768C24.9447 16.9822 24.2512 18.6857 22.8037 19.6481C22.6954 19.7199 22.6412 19.7884 22.6392 19.9279C22.629 20.5991 22.5091 21.2554 22.3425 21.9036C22.2815 22.1393 22.1386 22.2815 21.9022 22.3425C21.2534 22.5091 20.5977 22.6283 19.9265 22.6398C19.8026 22.6419 19.7315 22.6832 19.6603 22.7834C18.5739 24.3169 17.1042 24.9203 15.2524 24.5864C15.1616 24.5702 15.0783 24.5492 14.9964 24.6332C14.4566 25.1892 13.8124 25.6044 13.1527 25.9993ZM10.4624 4.73712C10.5485 4.72019 10.6135 4.70393 10.6799 4.69581C10.9142 4.66804 11.1458 4.81366 11.2176 5.03108C11.2921 5.25662 11.2055 5.50723 11.0009 5.62711C10.9217 5.67317 10.8316 5.70229 10.7435 5.73006C7.13548 6.86862 4.93625 10.3737 5.47675 14.1247C6.06059 18.1764 9.86912 21.0719 13.935 20.5557C18.1093 20.0254 21.1098 16.225 20.5463 12.0589C20.129 8.97371 18.3633 6.89978 15.4597 5.7917C15.3262 5.7409 15.1833 5.7111 15.0539 5.65217C14.8115 5.54177 14.7051 5.2871 14.783 5.03785C14.8541 4.81027 15.0919 4.66465 15.3404 4.69987C15.4028 4.70867 15.4644 4.72222 15.543 4.73712C15.5206 4.46552 15.4746 4.22575 15.4122 3.99005C15.0675 2.69706 14.1822 1.84635 13.0985 1.15482C13.0024 1.09318 12.9428 1.13517 12.8716 1.18055C12.2973 1.54563 11.769 1.96556 11.3436 2.50199C10.8241 3.15356 10.5322 3.89387 10.4624 4.73712ZM8.96355 20.6255C7.40912 19.7782 6.21976 18.5875 5.37989 17.0493C5.35009 17.0717 5.33519 17.0798 5.32503 17.092C5.29184 17.1306 5.25933 17.1699 5.22885 17.2098C4.27926 18.4595 4.22169 19.8527 4.56102 21.313C4.58811 21.4302 4.6633 21.4295 4.74186 21.4471C5.29591 21.5751 5.8574 21.651 6.42634 21.6225C7.37254 21.5751 8.21851 21.2649 8.96355 20.6255ZM20.6275 17.033C19.7748 18.599 18.5814 19.7816 17.0364 20.6289C17.117 20.6939 17.1685 20.7373 17.222 20.7779C18.4656 21.716 19.8507 21.7756 21.3028 21.4403C21.4125 21.4146 21.4261 21.3543 21.4471 21.269C21.5345 20.9147 21.5853 20.5551 21.613 20.1927C21.7011 19.0237 21.4105 17.9684 20.6275 17.033ZM20.6309 8.95949C20.6987 8.87685 20.7549 8.81386 20.8043 8.74681C21.7228 7.50326 21.7729 6.12493 21.4396 4.68361C21.4085 4.54951 21.313 4.55899 21.2331 4.54206C20.6946 4.42759 20.1507 4.34834 19.598 4.37408C18.643 4.41878 17.7896 4.72899 17.0378 5.37312C18.5929 6.22111 19.7856 7.40844 20.6309 8.95949ZM5.36973 8.96152C5.79712 8.1799 6.30239 7.49717 6.91129 6.89097C7.51681 6.28749 8.20293 5.7917 8.95813 5.3738C8.91817 5.33587 8.90124 5.3169 8.8816 5.30132C7.6157 4.28332 6.18522 4.21017 4.6782 4.56305C4.57457 4.58744 4.57457 4.65313 4.5556 4.72493C4.46484 5.07781 4.4154 5.43814 4.38763 5.8005C4.29958 6.97022 4.58676 8.02615 5.36973 8.96152ZM10.4875 21.2561C10.4767 21.2852 10.4652 21.3008 10.4658 21.3157C10.4665 21.3577 10.4699 21.4004 10.4753 21.4417C10.6826 23.0056 11.6281 24.0412 12.9055 24.8404C12.9699 24.8804 13.0186 24.8912 13.0877 24.8472C14.0996 24.2024 14.9517 23.4208 15.3391 22.2382C15.442 21.9232 15.5247 21.6042 15.5287 21.2513C13.83 21.7539 12.1564 21.7519 10.4875 21.2561ZM4.75202 10.4469C4.54206 10.4821 4.36799 10.5038 4.19663 10.5403C2.80814 10.8356 1.89444 11.7446 1.1643 12.892C1.10876 12.9793 1.12095 13.0396 1.17175 13.1189C1.58559 13.763 2.06106 14.3522 2.69164 14.7993C3.30258 15.2321 3.98124 15.4766 4.75202 15.5382C4.24743 13.8436 4.24607 12.1699 4.75202 10.4469ZM21.2595 15.5504C21.4613 15.5165 21.6354 15.4928 21.8074 15.4569C23.1979 15.163 24.1076 14.2493 24.8377 13.1033C24.8851 13.0295 24.8878 12.9746 24.8397 12.8987C24.3318 12.0961 23.7269 11.389 22.8769 10.9298C22.3777 10.6602 21.844 10.5017 21.2669 10.4638C21.76 12.9062 21.76 13.0836 21.2595 15.5504ZM2.34553 10.2064C2.98492 9.82916 3.64055 9.58058 4.3497 9.48779C4.47297 9.47153 4.42556 9.40516 4.38289 9.34826C3.95076 8.77052 3.65816 8.12639 3.48003 7.39286C2.62865 8.15484 2.26087 9.06989 2.34553 10.2064ZM18.6139 3.48138C17.8424 2.63339 16.9328 2.25613 15.7942 2.34621C16.1681 2.98017 16.412 3.62836 16.5108 4.32802C16.5386 4.52445 16.6389 4.38966 16.6951 4.34902C17.262 3.93857 17.8851 3.65274 18.6139 3.48138ZM3.48342 18.6092C3.64259 17.9305 3.90064 17.3487 4.26639 16.8143C4.44994 16.5461 4.44994 16.54 4.12348 16.4777C3.499 16.3584 2.91651 16.1309 2.34621 15.7922C2.26019 16.9301 2.62933 17.8445 3.48342 18.6092ZM18.6098 22.5166C18.0253 22.3784 17.52 22.1738 17.0507 21.8846C16.8867 21.7837 16.7255 21.6774 16.5637 21.5731C16.4546 21.7485 16.4695 21.9558 16.4228 22.1468C16.2941 22.6723 16.078 23.1607 15.7983 23.6545C16.9328 23.7384 17.8465 23.3693 18.6098 22.5166ZM7.38948 3.48274C7.97806 3.61752 8.4935 3.83155 8.97439 4.12686C9.13085 4.22304 9.2846 4.32532 9.43902 4.42488C9.53859 4.26368 9.51353 4.072 9.56636 3.89929C9.5711 3.88303 9.57855 3.86745 9.58261 3.8512C9.70047 3.32289 9.92262 2.83658 10.2037 2.34418C9.0665 2.25951 8.15416 2.63204 7.38948 3.48274ZM7.39083 22.5166C8.15823 23.3686 9.07057 23.7384 10.2091 23.6531C9.82848 23.0185 9.58532 22.3696 9.49118 21.6692C9.46815 21.4972 9.38687 21.5893 9.32388 21.6354C8.75291 22.054 8.12233 22.3439 7.39083 22.5166ZM22.52 7.39286C22.3784 7.96587 22.1779 8.47859 21.8853 8.95204C21.7844 9.11594 21.6781 9.27714 21.5744 9.43902C21.7505 9.54468 21.9571 9.53317 22.1481 9.57855C22.6751 9.70453 23.1614 9.92398 23.6551 10.201C23.7384 9.06582 23.3693 8.15213 22.52 7.39286ZM23.6551 15.7956C23.0144 16.1688 22.3608 16.4208 21.651 16.5122C21.529 16.5278 21.5744 16.5942 21.6178 16.651C22.0492 17.2295 22.3418 17.8736 22.52 18.6078C23.3679 17.8458 23.7391 16.9328 23.6551 15.7956Z" fill="white"/>
<path d="M13.2688 13.2383C13.6773 12.8278 14.1107 12.5928 14.6309 12.5122C15.674 12.3503 16.7468 13.069 17.0117 14.1215C17.2826 15.1964 16.6866 16.3458 15.6801 16.6905C15.3895 16.7901 15.1084 16.677 15.0028 16.4169C14.8924 16.1439 15.0122 15.8859 15.3191 15.7396C16.0485 15.3908 16.289 14.6051 15.8514 13.9962C15.4491 13.4361 14.6729 13.3392 14.1588 13.8004C13.8696 14.0599 13.6075 14.3491 13.3278 14.6193C13.2465 14.6979 13.2539 14.7643 13.2858 14.8652C13.787 16.463 12.7893 17.9734 11.1279 18.0973C10.2656 18.1617 9.5653 17.8054 9.03835 17.122C8.85006 16.8775 8.88867 16.5761 9.11015 16.3986C9.33231 16.2212 9.63777 16.2442 9.82674 16.4955C10.2148 17.0116 10.884 17.2209 11.476 17.0068C12.238 16.7319 12.622 15.8405 12.2949 15.1151C12.2481 15.0115 12.2122 14.9559 12.0734 14.9952C11.8025 15.0718 11.5742 14.9505 11.4726 14.7114C11.367 14.4629 11.4469 14.2177 11.7097 14.066C12.0429 13.8729 12.2441 13.6061 12.2508 13.2132C12.259 12.7818 11.9698 12.3964 11.5627 12.2894C11.1292 12.1756 10.6707 12.3761 10.4682 12.7703C10.4336 12.8373 10.4113 12.9111 10.3781 12.9789C10.2514 13.2369 10.0035 13.3439 9.74818 13.2539C9.48673 13.1617 9.36211 12.9064 9.43864 12.6192C9.63439 11.8843 10.3158 11.3364 11.1475 11.2456C11.9047 11.163 12.6864 11.5951 13.0508 12.2975C13.1923 12.5732 13.2668 12.8644 13.2688 13.2383Z" fill="white"/>
<path d="M14.8641 11.1738C13.2921 11.1785 12.1461 10.2011 11.9124 8.82145C11.8589 8.50515 12.0194 8.24912 12.3093 8.18816C12.5863 8.12991 12.8356 8.31685 12.9054 8.63451C13.1241 9.62948 13.8326 10.2045 14.7863 10.1537C15.1981 10.132 15.5496 9.96137 15.8598 9.69315C16.0779 9.50486 16.3102 9.47844 16.5093 9.60375C16.8046 9.78933 16.8317 10.1713 16.5561 10.4274C16.0257 10.9204 15.3938 11.1656 14.8641 11.1738Z" fill="white"/>
<path d="M14.6717 8.89677C14.3899 8.90219 14.1698 8.69764 14.159 8.41994C14.1481 8.13073 14.3649 7.89435 14.648 7.8869C14.923 7.87945 15.1689 8.12057 15.1689 8.39624C15.1689 8.66716 14.946 8.89135 14.6717 8.89677Z" fill="white"/>
<path d="M13.5065 4.89502C13.497 5.17814 13.2552 5.39826 12.9708 5.38268C12.6985 5.36778 12.4844 5.13479 12.4933 4.86183C12.5021 4.59294 12.7357 4.36807 13.0039 4.37078C13.2844 4.37281 13.516 4.61461 13.5065 4.89502Z" fill="white"/>
</svg>
