<svg width="293" height="53" viewBox="0 0 293 53" fill="none" xmlns="http://www.w3.org/2000/svg">
<rect x="130.752" width="162.248" height="52.4919" fill="#E73035"/>
<rect width="130.752" height="52.4919" fill="#FDB916"/>
<path d="M283.009 42.9919H276.984V27.9309C276.984 27.5175 276.903 27.1262 276.741 26.7571C276.593 26.3879 276.379 26.0631 276.098 25.7825C275.818 25.502 275.493 25.2879 275.124 25.1402C274.755 24.9778 274.363 24.8966 273.95 24.8966C273.536 24.8966 273.145 24.9778 272.776 25.1402C272.422 25.2879 272.104 25.502 271.824 25.7825C271.558 26.0631 271.344 26.3879 271.181 26.7571C271.034 27.1262 270.96 27.5175 270.96 27.9309V42.9919H264.913V27.9309C264.913 27.5175 264.832 27.1262 264.67 26.7571C264.522 26.3879 264.308 26.0631 264.027 25.7825C263.747 25.502 263.422 25.2879 263.053 25.1402C262.684 24.9778 262.292 24.8966 261.879 24.8966C261.465 24.8966 261.074 24.9778 260.705 25.1402C260.351 25.2879 260.033 25.502 259.753 25.7825C259.487 26.0631 259.273 26.3879 259.11 26.7571C258.963 27.1262 258.889 27.5175 258.889 27.9309V42.9919H252.842V19.2709H254.304L255.943 21.0871C256.785 20.3783 257.708 19.832 258.712 19.4481C259.731 19.0494 260.786 18.8501 261.879 18.8501C262.986 18.8501 264.064 19.0568 265.113 19.4702C266.176 19.8837 267.106 20.5998 267.903 21.6186C268.272 21.1166 268.693 20.6884 269.166 20.334C269.638 19.9796 270.133 19.6917 270.65 19.4702C271.181 19.2487 271.728 19.0937 272.289 19.0051C272.85 18.9017 273.403 18.8501 273.95 18.8501C275.205 18.8501 276.379 19.0863 277.471 19.5588C278.579 20.0313 279.539 20.681 280.351 21.5079C281.178 22.32 281.827 23.2798 282.3 24.3872C282.772 25.4946 283.009 26.6758 283.009 27.9309V42.9919Z" fill="white"/>
<path d="M248.214 42.9919H246.753L244.405 39.7361C243.829 40.2529 243.216 40.7402 242.567 41.1979C241.932 41.6409 241.26 42.0321 240.551 42.3718C239.842 42.6966 239.111 42.955 238.358 43.147C237.62 43.3389 236.867 43.4349 236.099 43.4349C234.431 43.4349 232.858 43.1543 231.382 42.5932C229.92 42.0321 228.635 41.22 227.528 40.1569C226.435 39.079 225.571 37.7649 224.936 36.2145C224.301 34.6641 223.984 32.8996 223.984 30.921C223.984 29.0753 224.301 27.3846 224.936 25.849C225.571 24.2986 226.435 22.9697 227.528 21.8623C228.635 20.7549 229.92 19.8985 231.382 19.2931C232.858 18.6729 234.431 18.3629 236.099 18.3629C236.867 18.3629 237.627 18.4588 238.38 18.6508C239.134 18.8427 239.864 19.1085 240.573 19.4481C241.282 19.7877 241.954 20.1864 242.589 20.6441C243.238 21.1019 243.844 21.5965 244.405 22.1281L246.753 19.3152H248.214V42.9919ZM242.124 30.921C242.124 30.0941 241.961 29.2968 241.636 28.529C241.326 27.7464 240.898 27.0598 240.352 26.4692C239.805 25.8638 239.163 25.3839 238.425 25.0295C237.701 24.6604 236.926 24.4758 236.099 24.4758C235.272 24.4758 234.49 24.6161 233.751 24.8966C233.028 25.1772 232.393 25.5906 231.847 26.137C231.315 26.6833 230.894 27.3625 230.584 28.1746C230.274 28.972 230.119 29.8874 230.119 30.921C230.119 31.9546 230.274 32.8775 230.584 33.6896C230.894 34.4869 231.315 35.1587 231.847 35.7051C232.393 36.2514 233.028 36.6648 233.751 36.9454C234.49 37.2259 235.272 37.3662 236.099 37.3662C236.926 37.3662 237.701 37.189 238.425 36.8346C239.163 36.4655 239.805 35.9856 240.352 35.395C240.898 34.7896 241.326 34.103 241.636 33.3352C241.961 32.5526 242.124 31.7479 242.124 30.921Z" fill="white"/>
<path d="M220.615 42.9919H214.524V9.83571H220.615V42.9919Z" fill="white"/>
<path d="M211.182 30.921C211.182 32.6929 210.865 34.3466 210.23 35.8823C209.595 37.4031 208.731 38.7246 207.638 39.8468C206.546 40.9543 205.261 41.8328 203.785 42.4825C202.323 43.1174 200.75 43.4349 199.067 43.4349C197.399 43.4349 195.826 43.1174 194.349 42.4825C192.888 41.8328 191.603 40.9543 190.496 39.8468C189.403 38.7246 188.539 37.4031 187.904 35.8823C187.269 34.3466 186.952 32.6929 186.952 30.921C186.952 29.1196 187.269 27.4511 187.904 25.9155C188.539 24.3798 189.403 23.0583 190.496 21.9509C191.603 20.8287 192.888 19.9502 194.349 19.3152C195.826 18.6803 197.399 18.3629 199.067 18.3629C200.75 18.3629 202.323 18.6655 203.785 19.2709C205.261 19.8616 206.546 20.7106 207.638 21.818C208.731 22.9107 209.595 24.2322 210.23 25.7826C210.865 27.3182 211.182 29.031 211.182 30.921ZM205.091 30.921C205.091 29.9465 204.929 29.0679 204.604 28.2854C204.294 27.488 203.866 26.8088 203.32 26.2477C202.773 25.6718 202.131 25.2363 201.393 24.9409C200.669 24.6309 199.894 24.4758 199.067 24.4758C198.24 24.4758 197.458 24.6309 196.719 24.9409C195.996 25.2363 195.361 25.6718 194.815 26.2477C194.283 26.8088 193.862 27.488 193.552 28.2854C193.242 29.0679 193.087 29.9465 193.087 30.921C193.087 31.8365 193.242 32.6855 193.552 33.4681C193.862 34.2507 194.283 34.9299 194.815 35.5057C195.361 36.0816 195.996 36.5393 196.719 36.8789C197.458 37.2038 198.24 37.3662 199.067 37.3662C199.894 37.3662 200.669 37.2112 201.393 36.9011C202.131 36.591 202.773 36.1554 203.32 35.5943C203.866 35.0332 204.294 34.354 204.604 33.5567C204.929 32.7593 205.091 31.8808 205.091 30.921Z" fill="white"/>
<path d="M184.913 30.921C184.913 32.6929 184.596 34.3466 183.961 35.8823C183.326 37.4031 182.462 38.7246 181.369 39.8468C180.277 40.9543 178.992 41.8328 177.516 42.4825C176.054 43.1174 174.481 43.4349 172.798 43.4349C171.13 43.4349 169.557 43.1174 168.08 42.4825C166.619 41.8328 165.334 40.9543 164.227 39.8468C163.134 38.7246 162.27 37.4031 161.635 35.8823C161 34.3466 160.683 32.6929 160.683 30.921C160.683 29.1196 161 27.4511 161.635 25.9155C162.27 24.3798 163.134 23.0583 164.227 21.9509C165.334 20.8287 166.619 19.9502 168.08 19.3152C169.557 18.6803 171.13 18.3629 172.798 18.3629C174.481 18.3629 176.054 18.6655 177.516 19.2709C178.992 19.8616 180.277 20.7106 181.369 21.818C182.462 22.9107 183.326 24.2322 183.961 25.7826C184.596 27.3182 184.913 29.031 184.913 30.921ZM178.822 30.921C178.822 29.9465 178.66 29.0679 178.335 28.2854C178.025 27.488 177.597 26.8088 177.051 26.2477C176.504 25.6718 175.862 25.2363 175.124 24.9409C174.4 24.6309 173.625 24.4758 172.798 24.4758C171.971 24.4758 171.189 24.6309 170.45 24.9409C169.727 25.2363 169.092 25.6718 168.546 26.2477C168.014 26.8088 167.593 27.488 167.283 28.2854C166.973 29.0679 166.818 29.9465 166.818 30.921C166.818 31.8365 166.973 32.6855 167.283 33.4681C167.593 34.2507 168.014 34.9299 168.546 35.5057C169.092 36.0816 169.727 36.5393 170.45 36.8789C171.189 37.2038 171.971 37.3662 172.798 37.3662C173.625 37.3662 174.4 37.2112 175.124 36.9011C175.862 36.591 176.504 36.1554 177.051 35.5943C177.597 35.0332 178.025 34.354 178.335 33.5567C178.66 32.7593 178.822 31.8808 178.822 30.921Z" fill="white"/>
<path d="M144.381 42.9919H138.29V9.83571H144.381V30.7438L153.395 19.3152H160.35L152.487 29.1934L160.35 42.9919H153.395L148.589 34.3762L144.381 39.9576V42.9919Z" fill="white"/>
<path d="M125.403 30.921C125.403 32.6929 125.086 34.3466 124.451 35.8823C123.816 37.4031 122.952 38.7246 121.859 39.8468C120.767 40.9543 119.482 41.8328 118.005 42.4825C116.544 43.1174 114.971 43.4349 113.288 43.4349C111.619 43.4349 110.047 43.1174 108.57 42.4825C107.108 41.8328 105.824 40.9543 104.716 39.8468C103.624 38.7246 102.76 37.4031 102.125 35.8823C101.49 34.3466 101.173 32.6929 101.173 30.921C101.173 29.1196 101.49 27.4511 102.125 25.9155C102.76 24.3798 103.624 23.0583 104.716 21.9509C105.824 20.8287 107.108 19.9502 108.57 19.3152C110.047 18.6803 111.619 18.3629 113.288 18.3629C114.971 18.3629 116.544 18.6655 118.005 19.2709C119.482 19.8616 120.767 20.7106 121.859 21.818C122.952 22.9107 123.816 24.2322 124.451 25.7826C125.086 27.3182 125.403 29.031 125.403 30.921ZM119.312 30.921C119.312 29.9465 119.15 29.0679 118.825 28.2854C118.515 27.488 118.087 26.8088 117.54 26.2477C116.994 25.6718 116.352 25.2363 115.613 24.9409C114.89 24.6309 114.115 24.4758 113.288 24.4758C112.461 24.4758 111.678 24.6309 110.94 24.9409C110.217 25.2363 109.582 25.6718 109.035 26.2477C108.504 26.8088 108.083 27.488 107.773 28.2854C107.463 29.0679 107.308 29.9465 107.308 30.921C107.308 31.8365 107.463 32.6855 107.773 33.4681C108.083 34.2507 108.504 34.9299 109.035 35.5057C109.582 36.0816 110.217 36.5393 110.94 36.8789C111.678 37.2038 112.461 37.3662 113.288 37.3662C114.115 37.3662 114.89 37.2112 115.613 36.9011C116.352 36.591 116.994 36.1554 117.54 35.5943C118.087 35.0332 118.515 34.354 118.825 33.5567C119.15 32.7593 119.312 31.8808 119.312 30.921Z" fill="white"/>
<path d="M90.1885 42.9918H84.1419V19.2709H85.6037L87.5971 22.0837C88.5716 21.1978 89.6791 20.5186 90.9194 20.0461C92.1597 19.5588 93.4443 19.3152 94.7732 19.3152H100.111V25.3395H94.7732C94.1383 25.3395 93.5403 25.4577 92.9792 25.6939C92.4181 25.9302 91.9308 26.255 91.5174 26.6685C91.1039 27.0819 90.7791 27.5692 90.5428 28.1302C90.3066 28.6913 90.1885 29.2893 90.1885 29.9243V42.9918Z" fill="white"/>
<path d="M76.1431 42.9919C74.6813 42.9919 73.3081 42.7188 72.0235 42.1724C70.7389 41.6113 69.6093 40.8509 68.6348 39.8911C67.675 38.9166 66.9146 37.787 66.3535 36.5024C65.8072 35.2178 65.534 33.8446 65.534 32.3828V25.3396H62.5883V19.3152H65.534V9.83571H71.5584V19.3152H80.7278V25.3396H71.5584V32.3828C71.5584 33.0177 71.6765 33.6157 71.9128 34.1768C72.149 34.7232 72.4739 35.2031 72.8873 35.6165C73.3007 36.0299 73.788 36.3622 74.3491 36.6132C74.9102 36.8494 75.5082 36.9675 76.1431 36.9675H80.7278V42.9919H76.1431Z" fill="white"/>
<path d="M53.4846 42.9918H39.664V36.9675H53.4846C53.8981 36.9675 54.2524 36.8198 54.5477 36.5245C54.8431 36.2292 54.9907 35.8748 54.9907 35.4614C54.9907 35.0332 54.8431 34.7526 54.5477 34.6197C54.2524 34.4868 53.8981 34.4204 53.4846 34.4204H47.1945C46.1461 34.4204 45.1642 34.2211 44.2487 33.8224C43.3333 33.4237 42.5359 32.8848 41.8567 32.2055C41.1775 31.5116 40.6385 30.7068 40.2399 29.7914C39.8559 28.8759 39.664 27.894 39.664 26.8456C39.664 25.7973 39.8559 24.8153 40.2399 23.8999C40.6385 22.9844 41.1775 22.1871 41.8567 21.5078C42.5359 20.8286 43.3333 20.2971 44.2487 19.9132C45.1642 19.5145 46.1461 19.3152 47.1945 19.3152H59.4426V25.3395H47.1945C46.781 25.3395 46.4267 25.4872 46.1313 25.7825C45.836 26.0778 45.6884 26.4322 45.6884 26.8456C45.6884 27.2738 45.836 27.643 46.1313 27.953C46.4267 28.2484 46.781 28.396 47.1945 28.396H53.4846C54.5182 28.396 55.4927 28.5732 56.4082 28.9276C57.3237 29.2672 58.121 29.7471 58.8002 30.3672C59.4795 30.9874 60.0184 31.733 60.4171 32.6042C60.8158 33.4754 61.0151 34.4278 61.0151 35.4614C61.0151 36.5097 60.8158 37.4916 60.4171 38.4071C60.0184 39.3078 59.4795 40.1052 58.8002 40.7991C58.121 41.4784 57.3237 42.0173 56.4082 42.416C55.4927 42.7999 54.5182 42.9918 53.4846 42.9918Z" fill="white"/>
<path d="M29.2347 30.3008V23.9442C29.2347 23.073 29.0648 22.2535 28.7252 21.4857C28.4004 20.7031 27.95 20.0239 27.3742 19.448C26.7983 18.8722 26.1191 18.4218 25.3365 18.097C24.5687 17.7574 23.7492 17.5876 22.878 17.5876C22.0069 17.5876 21.18 17.7574 20.3974 18.097C19.6296 18.4218 18.9578 18.8722 18.3819 19.448C17.8061 20.0239 17.3483 20.7031 17.0087 21.4857C16.6839 22.2535 16.5214 23.073 16.5214 23.9442V30.3008H29.2347ZM35.5913 42.9918H29.2347V36.6352H16.5214V42.9918H10.187V23.9442C10.187 22.1871 10.5192 20.5407 11.1837 19.0051C11.8481 17.4547 12.7488 16.1036 13.8858 14.9519C15.0375 13.8002 16.3812 12.8921 17.9168 12.2276C19.4672 11.5632 21.1209 11.231 22.878 11.231C24.6352 11.231 26.2815 11.5632 27.8171 12.2276C29.3675 12.8921 30.7186 13.8002 31.8703 14.9519C33.022 16.1036 33.9301 17.4547 34.5946 19.0051C35.259 20.5407 35.5913 22.1871 35.5913 23.9442V42.9918Z" fill="white"/>
</svg>
