<svg width="72" height="13" viewBox="0 0 72 13" fill="none" xmlns="http://www.w3.org/2000/svg">
<path d="M70.4509 12.4374C70.5917 12.4198 70.7314 12.3937 70.8692 12.3593C71.0639 12.2961 71.2431 12.1912 71.3947 12.0515C71.5462 11.9118 71.6666 11.7406 71.7477 11.5495C71.8575 11.2628 71.9005 10.954 71.8732 10.6474C71.8732 10.3065 71.8732 9.93712 71.8732 9.52515C71.8732 8.7012 71.8732 7.7636 71.8732 6.68394V2.17352C71.9065 1.84697 71.8356 1.51819 71.671 1.23592C71.499 0.946435 71.2285 0.731538 70.911 0.632169C70.5638 0.569035 70.2101 0.549948 69.8582 0.575343H59.8253L1.71221 0.355151C1.39963 0.355903 1.09795 0.472263 0.863268 0.682611C0.628582 0.892958 0.476856 1.18298 0.436305 1.49874C0.436305 2.17353 0.436305 2.91934 0.436305 3.62965C0.436305 5.05025 0.436305 6.47086 0.436305 7.89146C0.436305 8.60176 0.436305 9.31207 0.436305 10.0224C0.410333 10.3543 0.42438 10.6883 0.478136 11.0168C0.565188 11.3048 0.744359 11.5549 0.987102 11.7271C1.24465 11.8936 1.54718 11.9731 1.85166 11.9544H2.82079H4.83575L20.2652 12.0325L46.3899 12.1959L64.0016 12.338L68.7915 12.3948H70.0395H70.4579H70.0395H68.7915H64.0016H46.3899L20.2512 12.3664L4.8218 12.3095H1.78891C1.41179 12.3323 1.03757 12.2301 0.722167 12.0183C0.404914 11.7944 0.173378 11.4657 0.0667807 11.0878C0.00429016 10.7269 -0.0144439 10.3595 0.011002 9.99395C0.011002 9.28365 0.011002 8.57335 0.011002 7.86304C0.011002 6.44244 0.011002 5.02183 0.011002 3.60123C0.011002 2.89093 0.011002 2.18062 0.011002 1.47032C0.0618762 1.06416 0.256305 0.690822 0.557895 0.420181C0.859484 0.149541 1.24756 0.000161708 1.64947 0L59.7625 0.326733L69.7955 0.404867C70.1691 0.381518 70.5441 0.407783 70.911 0.483001C71.2733 0.603581 71.5788 0.856642 71.7686 1.1933C71.949 1.50616 72.0271 1.86932 71.9917 2.23035C71.9917 2.56419 71.9917 2.89093 71.9917 3.21767C71.9917 4.50332 71.9917 5.68242 71.9917 6.76918C71.9917 7.85594 71.9917 8.77224 71.9917 9.61039C71.9917 10.0153 71.9917 10.3917 71.9917 10.7398C72.0171 11.0574 71.9668 11.3766 71.8453 11.6703C71.7548 11.8663 71.6239 12.0401 71.4614 12.1798C71.299 12.3195 71.1089 12.4219 70.9041 12.48C70.7517 12.4928 70.5983 12.4784 70.4509 12.4374Z" fill="#E0E0E0"/>
</svg>
