<svg width="20" height="20" viewBox="0 0 20 20" fill="none" xmlns="http://www.w3.org/2000/svg">
<path d="M15 4.375V3.125H5V4.375H8.4375C9.12732 4.37703 9.79222 4.63306 10.3052 5.0942C10.8183 5.55535 11.1435 6.1893 11.2188 6.875H5V8.125H11.2188C11.1435 8.8107 10.8183 9.44465 10.3052 9.9058C9.79222 10.3669 9.12732 10.623 8.4375 10.625H5V12.0906L11.0106 17.5L11.8469 16.5712L6.62875 11.875H8.4375C9.46006 11.8735 10.4445 11.4867 11.1945 10.7917C11.9446 10.0967 12.4051 9.14448 12.4844 8.125H15V6.875H12.4844C12.4127 5.93652 12.0159 5.05243 11.3625 4.375H15Z" fill="black"/>
</svg>
