<svg width="28" height="22" viewBox="0 0 28 22" fill="none" xmlns="http://www.w3.org/2000/svg">
<path d="M20.9485 5.90086e-05C21.9741 2.38389 22.3898 4.91549 22.7787 7.45377C22.7073 7.47475 22.636 7.49596 22.5645 7.51717C22.5131 7.36869 22.4525 7.22297 22.4117 7.07127C22.1171 5.97832 21.8201 4.88596 21.5382 3.78938C21.4367 3.39486 21.1975 3.19852 20.8553 3.00533C20.3528 2.72162 19.878 2.35588 19.4615 1.94795C19.1958 1.68779 18.9684 1.52906 18.5914 1.53322C16.0816 1.56076 13.5715 1.5634 11.0617 1.58736C10.8944 1.58912 10.6874 1.65322 10.569 1.76695C10.1123 2.20547 9.68433 2.67598 9.12145 3.26437C10.6061 7.01672 11.3525 11.1066 11.0321 15.4545C10.3193 14.9808 9.76754 14.606 9.73474 13.6136C9.57081 8.65295 8.09652 4.16678 5.01652 0.306446C4.94719 0.21961 4.91276 0.102773 4.86195 0H20.9484L20.9485 5.90086e-05ZM2.29927 1.91285C3.01412 1.91285 3.72931 1.90113 4.44353 1.92293C4.58523 1.92715 4.78348 2.02066 4.85433 2.13855C6.99023 5.70047 8.65544 9.44139 8.87114 13.7215C8.87216 13.7385 8.85523 13.7563 8.79426 13.8806C7.51777 9.35174 5.215 5.51725 2.2531 2.08043C2.26856 2.02465 2.28386 1.96875 2.29933 1.91285H2.29927ZM0 5.02899C1.02121 4.99043 1.88492 4.95176 2.74874 4.93512C2.83573 4.93336 2.93842 5.05283 3.01124 5.13686C4.69621 7.08228 6.22537 9.1377 7.16794 11.5959C7.34729 12.0635 7.47002 12.5545 7.61894 13.0347C5.66656 9.84574 2.94982 7.46115 0 5.02893V5.02899ZM10.9784 21.1874C9.20122 18.2538 7.48949 15.4282 5.7776 12.6026L5.84037 12.519C5.98387 12.6389 9.03677 15.1798 10.4079 16.3453C10.7898 16.6699 11.0784 16.6641 11.4757 16.3292C16.1377 12.3984 21.3398 9.42322 26.8634 7.02398C27.1582 6.89596 27.464 6.79453 27.7657 6.6832C27.8326 6.65859 27.9034 6.64488 28 6.6702C21.5858 10.5366 15.4665 14.7701 10.9784 21.1874Z" fill="#616161" fill-opacity="0.9"/>
</svg>
