<svg width="40" height="40" viewBox="0 0 40 40" fill="none" xmlns="http://www.w3.org/2000/svg">
<path fill-rule="evenodd" clip-rule="evenodd" d="M16.5665 21.0767L12.8199 19.8283C8.89819 18.5217 6.93652 17.8683 6.93652 16.6667C6.93652 15.4667 8.89819 14.8117 12.8199 13.505L27.0082 8.775C29.7682 7.855 31.1482 7.395 31.8765 8.12333C32.6049 8.85166 32.1449 10.2317 31.2265 12.99L26.4949 27.18C25.1882 31.1017 24.5349 33.0633 23.3332 33.0633C22.1332 33.0633 21.4782 31.1017 20.1715 27.18L18.9215 23.435L26.1782 16.1783C26.4818 15.864 26.6498 15.443 26.646 15.006C26.6422 14.569 26.4669 14.151 26.1579 13.842C25.8489 13.533 25.4309 13.3577 24.9939 13.3539C24.5569 13.3501 24.1359 13.5181 23.8215 13.8217L16.5665 21.0767Z" fill="#E73035"/>
</svg>
