<svg width="72" height="13" viewBox="0 0 72 13" fill="none" xmlns="http://www.w3.org/2000/svg">
<path d="M70.7499 12.5169C70.8908 12.5024 71.0291 12.469 71.1613 12.4175C71.3543 12.3406 71.5221 12.2098 71.6455 12.0402C71.7688 11.8706 71.8427 11.6689 71.8586 11.4585C71.8586 10.329 71.8586 8.68088 71.8586 6.56397C71.8586 5.50551 71.8586 4.31918 71.8586 3.01209C71.8586 2.69242 71.8586 2.35854 71.8586 2.02467C71.9041 1.70069 71.8349 1.37082 71.6634 1.09408C71.5674 0.961384 71.4425 0.853188 71.2985 0.777997C71.1546 0.702806 70.9954 0.66267 70.8336 0.660746H69.7458H59.67L1.34877 0.440532C1.19949 0.437947 1.05181 0.472114 0.918271 0.540135C0.784734 0.608157 0.669294 0.708026 0.581756 0.83124C0.413371 1.1091 0.348995 1.43951 0.400454 1.76183C0.400454 2.47221 0.400454 3.18258 0.400454 3.89296C0.400454 5.31371 0.400454 6.73446 0.400454 8.15521C0.400454 8.86559 0.400454 9.57596 0.400454 10.2863C0.371528 10.6172 0.371528 10.95 0.400454 11.2809C0.437085 11.4227 0.505172 11.5541 0.599461 11.6649C0.69375 11.7758 0.811729 11.8631 0.944339 11.9202C1.08173 11.9759 1.22884 12.0025 1.37667 11.9983H4.92586L20.4127 12.0836L46.6307 12.247L64.307 12.389L69.1113 12.4459H70.3595C70.6453 12.4459 70.7848 12.4459 70.7848 12.4459H70.3595H69.1113H64.307H46.6307L20.4127 12.3606L4.92586 12.2967H1.37667C1.18134 12.3047 0.986527 12.2709 0.804883 12.1972C0.621279 12.1174 0.457997 11.9959 0.327487 11.842C0.196976 11.6882 0.102685 11.5059 0.0518096 11.3093C0.0114453 11.1228 -0.0026403 10.9315 0.00997401 10.741V10.2153C0.00997401 9.50492 0.00997401 8.79454 0.00997401 8.08417C0.00997401 6.66342 0.00997401 5.24267 0.00997401 3.82192C0.00997401 3.11154 0.00997401 2.40116 0.00997401 1.69079C-0.00332467 1.5016 -0.00332467 1.31168 0.00997401 1.12249C0.0361026 0.913522 0.115431 0.715156 0.240081 0.547084C0.360369 0.37561 0.519574 0.236313 0.704124 0.141069C0.888675 0.0458256 1.0931 -0.00253242 1.29996 0.000102159L59.6212 0.326869L69.697 0.397911H70.7848C70.9765 0.398062 71.1652 0.445269 71.3352 0.535539C71.5051 0.62581 71.6512 0.756482 71.761 0.916482C71.9576 1.22533 72.0369 1.59659 71.9842 1.96073C71.9842 2.29461 71.9842 2.62849 71.9842 2.94816C71.9842 4.24104 71.9842 5.42737 71.9842 6.50003C71.9842 8.63116 71.9353 10.265 71.9214 11.4016C71.9043 11.6202 71.8264 11.8292 71.6967 12.0041C71.567 12.179 71.3909 12.3126 71.1892 12.389C71.0573 12.4724 70.9052 12.5166 70.7499 12.5169Z" fill="#E0E0E0"/>
</svg>
