<svg width="16" height="16" viewBox="0 0 16 16" fill="none" xmlns="http://www.w3.org/2000/svg">
<path d="M15.4043 3.28227L12.6643 0.542245C12.3067 0.206338 11.8381 0.0135996 11.3476 0.000692763C10.8572 -0.0122141 10.3791 0.155611 10.0043 0.472244L1.00421 9.47231C0.680974 9.79828 0.479711 10.2255 0.434206 10.6823L0.00420298 14.8524C-0.00926816 14.9988 0.00973736 15.1465 0.0598646 15.2847C0.109992 15.423 0.190006 15.5485 0.294205 15.6524C0.387646 15.745 0.498463 15.8184 0.620301 15.8681C0.74214 15.9179 0.872603 15.9431 1.00421 15.9424H1.09421L5.26424 15.5624C5.72104 15.5169 6.14829 15.3156 6.47425 14.9924L15.4743 5.99229C15.8236 5.62325 16.0124 5.13079 15.9993 4.62281C15.9862 4.11483 15.7722 3.63278 15.4043 3.28227ZM5.08424 13.5623L2.08422 13.8423L2.35422 10.8423L8.00426 5.26228L10.7043 7.9623L5.08424 13.5623ZM12.0043 6.62229L9.32427 3.94227L11.2743 1.94226L14.0043 4.67228L12.0043 6.62229Z" fill="black"/>
</svg>
