<svg width="100" height="112" viewBox="0 0 100 112" fill="none" xmlns="http://www.w3.org/2000/svg">
<path d="M49.742 95.973C71.8334 95.973 89.742 78.0644 89.742 55.973C89.742 33.8816 71.8334 15.973 49.742 15.973C27.6506 15.973 9.742 33.8816 9.742 55.973C9.742 78.0644 27.6506 95.973 49.742 95.973Z" fill="#FFF0ED"/>
<path d="M23.242 38.624C23.3686 38.6649 23.5046 38.6667 23.6323 38.6293C23.76 38.5918 23.8735 38.5168 23.958 38.414C29.732 31.339 30.37 28.389 29.372 25C29.1131 24.2209 28.6791 23.5115 28.1032 22.9264C27.5273 22.3414 26.8249 21.8961 26.05 21.625C21.994 20.115 20.55 24.391 19.874 25.825C18.935 25.232 15.097 22.042 12.408 25.625C11.902 26.2717 11.5512 27.0258 11.3826 27.8294C11.2139 28.6329 11.2318 29.4645 11.435 30.26C12.427 33.656 14.561 35.792 23.242 38.624Z" fill="#E04122"/>
<path d="M13.207 28.35C15.107 25.811 17.591 26.669 19.207 27.597C19.3904 27.7049 19.5938 27.7745 19.8049 27.8016C20.016 27.8286 20.2303 27.8126 20.435 27.7544C20.6397 27.6963 20.8305 27.5973 20.9959 27.4633C21.1612 27.3293 21.2977 27.1632 21.397 26.975C22.286 25.257 23.859 23.234 26.844 24.346C28.0369 24.7798 29.0471 25.6059 29.709 26.689C29.6484 26.1169 29.5356 25.5516 29.372 25C29.1133 24.2208 28.6791 23.5114 28.103 22.9265C27.5269 22.3415 26.8242 21.8966 26.049 21.626C21.994 20.115 20.549 24.391 19.875 25.826C18.935 25.233 15.097 22.043 12.408 25.626C11.9019 26.2726 11.5509 27.0268 11.3822 27.8303C11.2136 28.6339 11.2316 29.4655 11.435 30.261C11.5941 30.8147 11.8036 31.3526 12.061 31.868C12.0334 30.5994 12.4374 29.359 13.207 28.35Z" fill="#FF6242"/>
<path d="M23.242 38.624C23.3686 38.6649 23.5046 38.6667 23.6323 38.6293C23.76 38.5918 23.8735 38.5168 23.958 38.414C29.732 31.339 30.37 28.389 29.372 25C29.1131 24.2209 28.6791 23.5115 28.1032 22.9264C27.5273 22.3414 26.8249 21.8961 26.05 21.625C21.994 20.115 20.55 24.391 19.874 25.825C18.935 25.232 15.097 22.042 12.408 25.625C11.902 26.2717 11.5512 27.0258 11.3826 27.8294C11.2139 28.6329 11.2318 29.4645 11.435 30.26C12.427 33.656 14.561 35.792 23.242 38.624Z" stroke="#45413C" stroke-linecap="round" stroke-linejoin="round"/>
<path d="M75.986 35.263C76.0357 35.3599 76.1134 35.4395 76.209 35.4916C76.3046 35.5437 76.4136 35.5658 76.522 35.555C83.959 34.802 86.036 33.465 87.422 30.924C87.7232 30.3233 87.8827 29.6615 87.8881 28.9896C87.8935 28.3176 87.7446 27.6534 87.453 27.048C85.98 23.826 82.666 25.462 81.446 25.906C81.246 25.018 80.871 20.95 77.239 21.47C76.5718 21.5514 75.9322 21.7849 75.3694 22.1524C74.8066 22.52 74.3357 23.0118 73.993 23.59C72.6 26.127 72.6 28.6 75.986 35.263Z" fill="#E04122"/>
<path d="M76.125 23.507C78.696 23.139 79.635 25.072 80.035 26.547C80.0788 26.7155 80.1564 26.8735 80.263 27.0112C80.3695 27.149 80.5029 27.2637 80.6551 27.3485C80.8072 27.4332 80.975 27.4863 81.1482 27.5044C81.3214 27.5226 81.4966 27.5054 81.663 27.454C83.172 26.975 85.253 26.714 86.338 29.085C86.7769 30.0269 86.8827 31.09 86.638 32.1C86.9339 31.733 87.195 31.3393 87.418 30.924C87.7194 30.3233 87.8788 29.6615 87.884 28.9895C87.8892 28.3175 87.74 27.6532 87.448 27.048C85.976 23.826 82.662 25.462 81.443 25.906C81.243 25.018 80.867 20.95 77.235 21.47C76.5676 21.551 75.9279 21.7844 75.3651 22.152C74.8022 22.5195 74.3314 23.0115 73.989 23.59C73.7606 24.0024 73.5705 24.4349 73.421 24.882C74.1404 24.1304 75.0938 23.6456 76.125 23.507Z" fill="#FF6242"/>
<path d="M75.986 35.263C76.0357 35.3599 76.1134 35.4395 76.209 35.4916C76.3046 35.5437 76.4136 35.5658 76.522 35.555C83.959 34.802 86.036 33.465 87.422 30.924C87.7232 30.3233 87.8827 29.6615 87.8881 28.9896C87.8935 28.3176 87.7446 27.6534 87.453 27.048C85.98 23.826 82.666 25.462 81.446 25.906C81.246 25.018 80.871 20.95 77.239 21.47C76.5718 21.5514 75.9322 21.7849 75.3694 22.1524C74.8066 22.52 74.3357 23.0118 73.993 23.59C72.6 26.127 72.6 28.6 75.986 35.263Z" stroke="#45413C" stroke-linecap="round" stroke-linejoin="round"/>
<path d="M57.242 19.889C57.2953 19.9345 57.3611 19.9626 57.4308 19.9698C57.5004 19.9769 57.5706 19.9627 57.632 19.929C61.851 17.629 62.748 16.319 62.932 14.468C62.9604 14.0377 62.8897 13.6066 62.7253 13.2078C62.561 12.8091 62.3074 12.4534 61.984 12.168C60.308 10.627 58.752 12.422 58.14 12.989C57.8 12.513 56.564 10.196 54.54 11.409C54.165 11.6238 53.8442 11.9217 53.6024 12.2799C53.3606 12.638 53.2041 13.0469 53.145 13.475C52.958 15.321 53.574 16.785 57.242 19.889Z" fill="#E04122"/>
<path d="M54.392 12.89C55.824 12.031 56.862 12.942 57.467 13.716C57.535 13.805 57.6204 13.8792 57.7179 13.9343C57.8154 13.9894 57.923 14.0242 58.0343 14.0365C58.1456 14.0488 58.2583 14.0385 58.3655 14.0061C58.4727 13.9737 58.5722 13.9199 58.658 13.848C59.433 13.187 60.601 12.514 61.834 13.648C62.3298 14.0963 62.6582 14.7002 62.765 15.36C62.8489 15.0686 62.9055 14.7699 62.934 14.468C62.9624 14.0377 62.8917 13.6066 62.7274 13.2078C62.563 12.8091 62.3094 12.4534 61.986 12.168C60.31 10.627 58.754 12.422 58.143 12.989C57.802 12.513 56.566 10.196 54.543 11.409C54.1679 11.6237 53.8471 11.9216 53.6052 12.2798C53.3634 12.6379 53.2069 13.0469 53.148 13.475C53.1155 13.7763 53.1108 14.0799 53.134 14.382C53.3717 13.7562 53.8154 13.23 54.392 12.89Z" fill="#FF6242"/>
<path d="M57.242 19.889C57.2953 19.9345 57.3611 19.9626 57.4308 19.9698C57.5004 19.9769 57.5706 19.9627 57.632 19.929C61.851 17.629 62.748 16.319 62.932 14.468C62.9604 14.0377 62.8897 13.6066 62.7253 13.2078C62.561 12.8091 62.3074 12.4534 61.984 12.168C60.308 10.627 58.752 12.422 58.14 12.989C57.8 12.513 56.564 10.196 54.54 11.409C54.165 11.6238 53.8442 11.9217 53.6024 12.2799C53.3606 12.638 53.2041 13.0469 53.145 13.475C52.958 15.321 53.574 16.785 57.242 19.889Z" stroke="#45413C" stroke-linecap="round" stroke-linejoin="round"/>
<path opacity="0.15" d="M42.593 91.746C49.2756 91.746 54.693 91.0073 54.693 90.096C54.693 89.1847 49.2756 88.446 42.593 88.446C35.9103 88.446 30.493 89.1847 30.493 90.096C30.493 91.0073 35.9103 91.746 42.593 91.746Z" fill="#45413C"/>
<path d="M42.593 47.746C36.918 47.857 31.593 52.028 31.593 59.296H35.443V67.546H49.743V59.3H53.593C53.593 52.028 48.268 47.857 42.593 47.746Z" fill="#F0F0F0"/>
<path d="M35.443 67.546V88.446H40.722L41.322 74.805C41.3172 74.6356 41.3465 74.4669 41.4081 74.309C41.4696 74.151 41.5622 74.007 41.6804 73.8855C41.7985 73.7639 41.9399 73.6673 42.096 73.6014C42.2522 73.5354 42.42 73.5014 42.5895 73.5014C42.759 73.5014 42.9268 73.5354 43.0829 73.6014C43.2391 73.6673 43.3804 73.7639 43.4986 73.8855C43.6168 74.007 43.7094 74.151 43.7709 74.309C43.8325 74.4669 43.8618 74.6356 43.857 74.805L44.457 88.446H49.737V67.546H35.443Z" fill="#00B8F0" stroke="#45413C" stroke-linecap="round" stroke-linejoin="round"/>
<path d="M49.743 67.546H35.443V70.846H49.743V67.546Z" fill="#009FD9"/>
<path d="M35.443 67.546V88.446H40.722L41.322 74.805C41.3172 74.6356 41.3465 74.4669 41.4081 74.309C41.4696 74.151 41.5622 74.007 41.6804 73.8855C41.7985 73.7639 41.9399 73.6673 42.096 73.6014C42.2522 73.5354 42.42 73.5014 42.5895 73.5014C42.759 73.5014 42.9268 73.5354 43.0829 73.6014C43.2391 73.6673 43.3804 73.7639 43.4986 73.8855C43.6168 74.007 43.7094 74.151 43.7709 74.309C43.8325 74.4669 43.8618 74.6356 43.857 74.805L44.457 88.446H49.737V67.546H35.443Z" stroke="#45413C" stroke-linecap="round" stroke-linejoin="round"/>
<path d="M51.668 73.046C51.1574 73.046 50.6678 72.8432 50.3068 72.4822C49.9458 72.1212 49.743 71.6316 49.743 71.121V59.3H53.593V71.121C53.593 71.3738 53.5432 71.6241 53.4464 71.8577C53.3497 72.0912 53.2079 72.3034 53.0292 72.4822C52.8504 72.6609 52.6382 72.8027 52.4046 72.8995C52.1711 72.9962 51.9208 73.046 51.668 73.046Z" fill="#FFCEBF" stroke="#45413C" stroke-linecap="round" stroke-linejoin="round"/>
<path d="M33.518 73.046C33.0075 73.046 32.5178 72.8432 32.1568 72.4822C31.7958 72.1212 31.593 71.6316 31.593 71.121V59.3H35.443V71.121C35.443 71.3738 35.3932 71.6241 35.2965 71.8577C35.1997 72.0912 35.058 72.3034 34.8792 72.4822C34.7004 72.6609 34.4882 72.8027 34.2547 72.8995C34.0211 72.9962 33.7708 73.046 33.518 73.046Z" fill="#FFCEBF" stroke="#45413C" stroke-linecap="round" stroke-linejoin="round"/>
<path d="M42.593 51.046C45.0256 51.0471 47.3884 51.8589 49.3081 53.3529C51.2277 54.847 52.5947 56.9382 53.193 59.296H53.593C53.593 52.028 48.268 47.857 42.593 47.746C36.918 47.857 31.593 52.028 31.593 59.296H32C32.5977 56.9392 33.9636 54.8487 35.8819 53.3546C37.8002 51.8606 40.1616 51.0483 42.593 51.046Z" fill="white"/>
<path d="M42.593 47.746C36.918 47.857 31.593 52.028 31.593 59.296H35.443V67.546H49.743V59.3H53.593C53.593 52.028 48.268 47.857 42.593 47.746Z" stroke="#45413C" stroke-linecap="round" stroke-linejoin="round"/>
<path d="M49.743 59.296V55.663" stroke="#45413C" stroke-linecap="round" stroke-linejoin="round"/>
<path d="M35.443 59.296V55.663" stroke="#45413C" stroke-linecap="round" stroke-linejoin="round"/>
<path d="M39.293 48.285V48.3C39.3512 49.1355 39.7242 49.9178 40.3366 50.4891C40.9491 51.0604 41.7554 51.3781 42.593 51.3781C43.4305 51.3781 44.2369 51.0604 44.8493 50.4891C45.4618 49.9178 45.8348 49.1355 45.893 48.3V48.289C44.8243 47.9529 43.713 47.7714 42.593 47.75C41.4731 47.7702 40.3619 47.9503 39.293 48.285Z" fill="#FFCEBF" stroke="#45413C" stroke-linecap="round" stroke-linejoin="round"/>
<path d="M35.471 89.546C35.2821 89.5473 35.0961 89.4999 34.9309 89.4084C34.7656 89.3168 34.6267 89.1843 34.5276 89.0236C34.4284 88.8628 34.3723 88.6792 34.3647 88.4905C34.357 88.3018 34.3981 88.1143 34.484 87.946C34.7699 87.4303 35.1887 87.0006 35.697 86.7016C36.2052 86.4027 36.7843 86.2454 37.374 86.246H37.924C38.5135 86.2455 39.0923 86.4029 39.6004 86.7019C40.1085 87.0009 40.5272 87.4305 40.813 87.946C40.8988 88.1143 40.9399 88.3018 40.9323 88.4905C40.9247 88.6792 40.8686 88.8628 40.7694 89.0236C40.6702 89.1843 40.5313 89.3168 40.3661 89.4084C40.2009 89.4999 40.0149 89.5473 39.826 89.546H35.471Z" fill="#8CA4B8" stroke="#45413C" stroke-linecap="round" stroke-linejoin="round"/>
<path d="M45.359 89.546C45.1701 89.5473 44.9841 89.4999 44.8189 89.4084C44.6536 89.3168 44.5147 89.1843 44.4156 89.0236C44.3164 88.8628 44.2603 88.6792 44.2527 88.4905C44.245 88.3018 44.2861 88.1143 44.372 87.946C44.6579 87.4303 45.0767 87.0006 45.585 86.7016C46.0932 86.4027 46.6723 86.2454 47.262 86.246H47.812C48.4015 86.2455 48.9803 86.4029 49.4884 86.7019C49.9965 87.0009 50.4152 87.4305 50.701 87.946C50.7868 88.1143 50.8279 88.3018 50.8203 88.4905C50.8127 88.6792 50.7566 88.8628 50.6574 89.0236C50.5582 89.1843 50.4194 89.3168 50.2541 89.4084C50.0889 89.4999 49.9029 89.5473 49.714 89.546H45.359Z" fill="#8CA4B8" stroke="#45413C" stroke-linecap="round" stroke-linejoin="round"/>
<path d="M51.321 40.384C51.3727 40.0751 51.3159 39.7578 51.1603 39.486C51.0046 39.2142 50.7596 39.0047 50.467 38.893L50.62 38.026C50.9239 36.3021 50.5306 34.5281 49.5265 33.0942C48.5224 31.6603 46.9899 30.6839 45.266 30.38C43.5421 30.0761 41.768 30.4694 40.3341 31.4735C38.9002 32.4775 37.9239 34.0101 37.62 35.734L37.467 36.601C37.1401 36.6035 36.8253 36.7249 36.5813 36.9423C36.3372 37.1598 36.1806 37.4586 36.1406 37.7831C36.1005 38.1075 36.1799 38.4354 36.3637 38.7057C36.5476 38.9759 36.8235 39.1701 37.14 39.252C37.185 40.7691 37.7515 42.2243 38.744 43.3725C39.7366 44.5206 41.0945 45.2917 42.5891 45.5556C44.0837 45.8196 45.6237 45.5604 46.9495 44.8217C48.2753 44.083 49.306 42.9099 49.868 41.5C50.2056 41.5282 50.5417 41.4295 50.8104 41.2231C51.0791 41.0167 51.2611 40.7175 51.321 40.384Z" fill="#FFCEBF" stroke="#45413C" stroke-linecap="round" stroke-linejoin="round"/>
<path d="M40.075 40.063C40.5306 40.063 40.9 39.6937 40.9 39.238C40.9 38.7824 40.5306 38.413 40.075 38.413C39.6194 38.413 39.25 38.7824 39.25 39.238C39.25 39.6937 39.6194 40.063 40.075 40.063Z" fill="#FFB59E"/>
<path d="M47.116 41.305C47.5717 41.305 47.941 40.9357 47.941 40.48C47.941 40.0244 47.5717 39.655 47.116 39.655C46.6604 39.655 46.291 40.0244 46.291 40.48C46.291 40.9357 46.6604 41.305 47.116 41.305Z" fill="#FFB59E"/>
<path d="M44.886 42.041C44.3552 42.3098 43.7515 42.3993 43.1655 42.296C42.5796 42.1927 42.0429 41.9021 41.636 41.468" stroke="#45413C" stroke-linecap="round" stroke-linejoin="round"/>
<path d="M41.539 36.438C41.3332 36.4389 41.1352 36.5168 40.9838 36.6562C40.8325 36.7957 40.7387 36.9867 40.7209 37.1917C40.7031 37.3967 40.7626 37.601 40.8877 37.7644C41.0128 37.9278 41.1944 38.0386 41.397 38.075C41.4445 38.0838 41.4927 38.0881 41.541 38.088C41.7478 38.0884 41.9472 38.0112 42.0998 37.8716C42.2523 37.732 42.3469 37.5403 42.3647 37.3342C42.3826 37.1282 42.3224 36.923 42.1962 36.7593C42.0699 36.5955 41.8868 36.4851 41.683 36.45C41.6354 36.442 41.5873 36.438 41.539 36.438Z" fill="#45413C"/>
<path d="M46.414 37.3C46.2071 37.2993 46.0076 37.3763 45.8548 37.5158C45.7021 37.6553 45.6073 37.8472 45.5893 38.0532C45.5713 38.2593 45.6314 38.4646 45.7577 38.6285C45.8839 38.7924 46.0671 38.9028 46.271 38.938C46.3186 38.9459 46.3668 38.9499 46.415 38.95C46.6209 38.9493 46.8191 38.8716 46.9706 38.7323C47.1222 38.5929 47.2161 38.4019 47.234 38.1968C47.2519 37.9917 47.1925 37.7873 47.0674 37.6238C46.9424 37.4602 46.7606 37.3494 46.558 37.313C46.5105 37.3043 46.4623 37.3 46.414 37.3Z" fill="#45413C"/>
<path d="M52.368 41.509C52.061 39.436 52.179 38.685 52.746 35.473C52.9505 34.3425 52.818 33.1768 52.365 32.1209C51.9121 31.0651 51.1587 30.1658 50.1985 29.5348C49.2384 28.9039 48.1139 28.5692 46.965 28.5725C45.8161 28.5757 44.6936 28.9167 43.737 29.553C42.3006 29.2999 40.8225 29.6276 39.6277 30.4642C38.4329 31.3008 37.6194 32.5777 37.366 34.014L36.888 36.722C38.988 37.093 39.723 35.799 43.26 32.261C43.7759 33.6428 44.7558 34.8026 46.032 35.542C50.225 37.442 43.544 38.442 48.9 43.16C48.1613 44.0847 47.1887 44.7949 46.083 45.217C46.1138 46.8683 46.6429 48.4717 47.601 49.817C48.492 50.717 48.692 52.131 48.392 53.83L50.534 50.376C52.1748 47.7303 52.8246 44.5886 52.368 41.509Z" fill="#FFDF3D"/>
<path d="M52.459 37.1L52.436 37.232H52.444C52.524 36.732 52.625 36.16 52.744 35.474C52.9484 34.3435 52.816 33.1777 52.363 32.1219C51.9101 31.0661 51.1566 30.1667 50.1965 29.5358C49.2364 28.9049 48.1119 28.5702 46.963 28.5734C45.8141 28.5767 44.6915 28.9177 43.735 29.554C42.2986 29.3008 40.8204 29.6286 39.6257 30.4652C38.4309 31.3018 37.6174 32.5786 37.364 34.015L37.077 35.64C37.2023 34.9286 37.4666 34.2489 37.8546 33.6396C38.2427 33.0303 38.747 32.5035 39.3387 32.0891C39.9304 31.6748 40.598 31.3811 41.3032 31.2247C42.0085 31.0684 42.7376 31.0525 43.449 31.178C44.4057 30.5411 45.5286 30.1998 46.6779 30.1964C47.8272 30.1931 48.9521 30.5279 49.9126 31.1591C50.873 31.7904 51.6265 32.6902 52.0793 33.7466C52.5321 34.8029 52.6641 35.9691 52.459 37.1Z" fill="#FFEF9E"/>
<path d="M52.368 41.509C52.061 39.436 52.179 38.685 52.746 35.473C52.9505 34.3425 52.818 33.1768 52.365 32.1209C51.9121 31.0651 51.1587 30.1658 50.1985 29.5348C49.2384 28.9039 48.1139 28.5692 46.965 28.5725C45.8161 28.5757 44.6936 28.9167 43.737 29.553C42.3006 29.2999 40.8225 29.6276 39.6277 30.4642C38.4329 31.3008 37.6194 32.5777 37.366 34.014L36.888 36.722C38.988 37.093 39.723 35.799 43.26 32.261C43.7759 33.6428 44.7558 34.8026 46.032 35.542C50.225 37.442 43.544 38.442 48.9 43.16C48.1613 44.0847 47.1887 44.7949 46.083 45.217C46.1138 46.8683 46.6429 48.4717 47.601 49.817C48.492 50.717 48.692 52.131 48.392 53.83L50.534 50.376C52.1748 47.7303 52.8246 44.5886 52.368 41.509Z" stroke="#45413C" stroke-linecap="round" stroke-linejoin="round"/>
<path d="M43.26 32.261L43.737 29.553" stroke="#45413C" stroke-linecap="round" stroke-linejoin="round"/>
<path d="M65.507 52.15L64.861 41.439C64.5518 42.9241 63.7406 44.2573 62.5638 45.2144C61.3869 46.1715 59.9164 46.694 58.3995 46.694C56.8826 46.694 55.412 46.1715 54.2352 45.2144C53.0583 44.2573 52.2471 42.9241 51.938 41.439L51.292 52.15C51.2864 52.2979 51.3108 52.4454 51.3636 52.5836C51.4164 52.7218 51.4966 52.848 51.5993 52.9545C51.702 53.061 51.8251 53.1457 51.9613 53.2036C52.0975 53.2614 52.244 53.2911 52.392 53.291H64.408C64.5558 53.291 64.7022 53.2611 64.8383 53.2033C64.9744 53.1454 65.0974 53.0606 65.2 52.9541C65.3026 52.8476 65.3826 52.7215 65.4354 52.5833C65.4881 52.4452 65.5125 52.2978 65.507 52.15Z" fill="#FFDF3D" stroke="#45413C" stroke-linecap="round" stroke-linejoin="round"/>
<path d="M65.879 38.323C65.795 38.0222 65.61 37.7594 65.355 37.5791C65.1 37.3988 64.7906 37.3119 64.479 37.333L64.251 36.483C64.0266 35.6458 63.6395 34.8609 63.1119 34.1733C62.5842 33.4856 61.9262 32.9086 61.1755 32.4753C60.4249 32.0419 59.5962 31.7606 58.7368 31.6475C57.8774 31.5344 57.0042 31.5917 56.167 31.816C55.3297 32.0404 54.5449 32.4275 53.8572 32.9551C53.1696 33.4828 52.5926 34.1408 52.1592 34.8915C51.7258 35.6421 51.4446 36.4708 51.3315 37.3302C51.2183 38.1895 51.2756 39.0628 51.5 39.9L51.727 40.751C51.4323 40.8919 51.1989 41.1349 51.0701 41.435C50.9413 41.7351 50.9259 42.0718 51.0268 42.3824C51.1276 42.693 51.3379 42.9564 51.6185 43.1235C51.8991 43.2907 52.2308 43.3502 52.552 43.291C53.2351 44.6451 54.3638 45.7226 55.7481 46.3422C57.1325 46.9618 58.6879 47.0857 60.1529 46.6931C61.6178 46.3005 62.9029 45.4154 63.7919 44.1866C64.6808 42.9577 65.1195 41.4603 65.034 39.946C65.3512 39.8287 65.6134 39.5975 65.7696 39.2975C65.9258 38.9976 65.9648 38.6502 65.879 38.323Z" fill="#FFCEBF" stroke="#45413C" stroke-linecap="round" stroke-linejoin="round"/>
<path d="M55.7 38.8C55.6277 38.7999 55.5557 38.8096 55.486 38.829C55.2926 38.8807 55.1246 39.001 55.0133 39.1674C54.902 39.3338 54.855 39.5349 54.8811 39.7334C54.9072 39.9319 55.0045 40.1141 55.155 40.2461C55.3055 40.3782 55.4988 40.451 55.699 40.451C55.8259 40.4517 55.9513 40.4231 56.0653 40.3673C56.1794 40.3116 56.279 40.2303 56.3564 40.1297C56.4338 40.0291 56.487 39.912 56.5117 39.7875C56.5365 39.6631 56.5321 39.5345 56.499 39.412C56.4521 39.2359 56.3481 39.0803 56.2034 38.9695C56.0586 38.8588 55.8822 38.7992 55.7 38.8Z" fill="#45413C"/>
<path d="M60.476 37.522C60.4037 37.522 60.3317 37.5317 60.262 37.551C60.0607 37.606 59.8879 37.7354 59.7785 37.9131C59.6691 38.0907 59.6313 38.3033 59.6729 38.5078C59.7145 38.7123 59.8322 38.8933 60.0023 39.0141C60.1724 39.135 60.3821 39.1866 60.5888 39.1586C60.7956 39.1306 60.9839 39.025 61.1157 38.8632C61.2475 38.7015 61.3128 38.4957 61.2985 38.2875C61.2841 38.0794 61.1912 37.8845 61.0384 37.7423C60.8857 37.6002 60.6847 37.5214 60.476 37.522Z" fill="#45413C"/>
<path d="M55.201 42.863C55.6566 42.863 56.026 42.4936 56.026 42.038C56.026 41.5824 55.6566 41.213 55.201 41.213C54.7453 41.213 54.376 41.5824 54.376 42.038C54.376 42.4936 54.7453 42.863 55.201 42.863Z" fill="#FFB59E"/>
<path d="M62.108 41.013C62.5636 41.013 62.933 40.6437 62.933 40.188C62.933 39.7324 62.5636 39.363 62.108 39.363C61.6523 39.363 61.283 39.7324 61.283 40.188C61.283 40.6437 61.6523 41.013 62.108 41.013Z" fill="#FFB59E"/>
<path d="M57.572 43.448C58.1283 43.6362 58.7279 43.6556 59.2952 43.5036C59.8626 43.3516 60.3722 43.0351 60.76 42.594" stroke="#45413C" stroke-linecap="round" stroke-linejoin="round"/>
<path d="M58.987 29.922C58.7951 29.9814 58.6246 30.0951 58.4959 30.2493C58.3673 30.4035 58.286 30.5916 58.262 30.791C58.6272 31.0988 58.8982 31.5032 59.044 31.958C59.2968 32.7401 59.3256 33.5774 59.127 34.375C59.333 35.146 62.302 36.921 63.905 37.561C63.9948 37.5961 64.0924 37.6067 64.1877 37.5917C64.283 37.5767 64.3726 37.5366 64.4473 37.4755C64.522 37.4145 64.5791 37.3346 64.6128 37.2442C64.6465 37.1538 64.6555 37.0561 64.639 36.961L64 33.106C63.9119 32.5513 63.7069 32.0217 63.3986 31.5523C63.0903 31.0829 62.6857 30.6845 62.2116 30.3833C61.7375 30.0822 61.2049 29.8854 60.6489 29.8059C60.093 29.7263 59.5264 29.7659 58.987 29.922Z" fill="#FFDF3D"/>
<path d="M58.987 29.922C58.7951 29.9813 58.6244 30.0949 58.4958 30.2491C58.3671 30.4034 58.2859 30.5916 58.262 30.791C58.6272 31.0988 58.8982 31.5032 59.044 31.958C59.081 32.077 59.113 32.194 59.144 32.311C59.2822 32.1726 59.4547 32.0735 59.644 32.024C60.5101 31.7942 61.4287 31.8661 62.2485 32.2278C63.0684 32.5894 63.7407 33.2194 64.155 34.014L64 33.106C63.9119 32.5513 63.7069 32.0217 63.3986 31.5523C63.0903 31.0829 62.6857 30.6845 62.2116 30.3833C61.7375 30.0822 61.2049 29.8854 60.6489 29.8059C60.093 29.7263 59.5264 29.7659 58.987 29.922Z" fill="#FFEF9E"/>
<path d="M58.987 29.922C58.7951 29.9814 58.6246 30.0951 58.4959 30.2493C58.3673 30.4035 58.286 30.5916 58.262 30.791C58.6272 31.0988 58.8982 31.5032 59.044 31.958C59.2968 32.7401 59.3256 33.5774 59.127 34.375C59.333 35.146 62.302 36.921 63.905 37.561C63.9948 37.5961 64.0924 37.6067 64.1877 37.5917C64.283 37.5767 64.3726 37.5366 64.4473 37.4755C64.522 37.4145 64.5791 37.3346 64.6128 37.2442C64.6465 37.1538 64.6555 37.0561 64.639 36.961L64 33.106C63.9119 32.5513 63.7069 32.0217 63.3986 31.5523C63.0903 31.0829 62.6857 30.6845 62.2116 30.3833C61.7375 30.0822 61.2049 29.8854 60.6489 29.8059C60.093 29.7263 59.5264 29.7659 58.987 29.922Z" stroke="#45413C" stroke-linecap="round" stroke-linejoin="round"/>
<path d="M55.736 30.222C56.4046 30.0382 57.118 30.1153 57.732 30.4376C58.3459 30.7599 58.8145 31.3033 59.043 31.958C60.763 37.371 51.607 41.608 49.954 39.743C49.227 38.924 49.234 37.385 50.564 37.204C50.6113 37.1956 50.6562 37.1769 50.6953 37.149C50.7345 37.1212 50.767 37.085 50.7904 37.0431C50.8139 37.0012 50.8277 36.9546 50.8309 36.9066C50.8341 36.8587 50.8266 36.8107 50.809 36.766C49.822 33.877 52.191 31.173 55.736 30.222Z" fill="#FFDF3D"/>
<path d="M55.863 31.76C56.5316 31.5759 57.2451 31.6527 57.8593 31.9748C58.4734 32.2969 58.9423 32.8403 59.171 33.495C59.195 33.573 59.217 33.65 59.237 33.726C59.2934 33.1297 59.2278 32.5281 59.044 31.958C58.8153 31.3031 58.3463 30.7595 57.7319 30.4374C57.1175 30.1153 56.4037 30.0386 55.735 30.223C52.285 31.147 49.95 33.733 50.735 36.534C50.989 34.363 53.058 32.512 55.863 31.76Z" fill="#FFEF9E"/>
<path d="M55.736 30.222C56.4046 30.0382 57.118 30.1153 57.732 30.4376C58.3459 30.7599 58.8145 31.3033 59.043 31.958C60.763 37.371 51.607 41.608 49.954 39.743C49.227 38.924 49.234 37.385 50.564 37.204C50.6113 37.1956 50.6562 37.1769 50.6953 37.149C50.7345 37.1212 50.767 37.085 50.7904 37.0431C50.8139 37.0012 50.8277 36.9546 50.8309 36.9066C50.8341 36.8587 50.8266 36.8107 50.809 36.766C49.822 33.877 52.191 31.173 55.736 30.222Z" stroke="#45413C" stroke-linecap="round" stroke-linejoin="round"/>
<path opacity="0.15" d="M59.649 91.746C66.3317 91.746 71.749 91.0073 71.749 90.096C71.749 89.1847 66.3317 88.446 59.649 88.446C52.9664 88.446 47.549 89.1847 47.549 90.096C47.549 91.0073 52.9664 91.746 59.649 91.746Z" fill="#45413C"/>
<path d="M59.649 48.846C57.0233 48.846 54.5052 49.889 52.6486 51.7457C50.792 53.6023 49.749 56.1204 49.749 58.746V59.846H53.6V69.2H65.7V59.85H69.55V58.75C69.5505 57.4495 69.2948 56.1616 68.7974 54.96C68.3001 53.7583 67.5708 52.6664 66.6514 51.7467C65.7319 50.827 64.6403 50.0974 63.4388 49.5997C62.2373 49.102 60.9495 48.8459 59.649 48.846Z" fill="#F0F0F0"/>
<path d="M55.294 80.196L55.799 89.546H63.499L64.005 80.196H55.294Z" fill="#FFCEBF"/>
<path d="M63.856 82.946L64.005 80.196H55.294L55.443 82.946H63.856Z" fill="#FFB59E"/>
<path d="M55.294 80.196L55.799 89.546H63.499L64.005 80.196H55.294Z" stroke="#45413C" stroke-linecap="round" stroke-linejoin="round"/>
<path d="M64.063 80.2C64.3448 80.2004 64.616 80.0927 64.8207 79.899C65.0253 79.7053 65.1479 79.4404 65.163 79.159L65.7 69.2H53.6L54.139 79.159C54.1541 79.4404 54.2766 79.7053 54.4813 79.899C54.686 80.0927 54.9572 80.2004 55.239 80.2H64.063Z" fill="#FF6196"/>
<path d="M65.551 71.946L65.699 69.196H53.599L53.748 71.946H65.551Z" fill="#E0366F"/>
<path d="M64.063 80.2C64.3448 80.2004 64.616 80.0927 64.8207 79.899C65.0253 79.7053 65.1479 79.4404 65.163 79.159L65.7 69.2H53.6L54.139 79.159C54.1541 79.4404 54.2766 79.7053 54.4813 79.899C54.686 80.0927 54.9572 80.2004 55.239 80.2H64.063Z" stroke="#45413C" stroke-linecap="round" stroke-linejoin="round"/>
<path d="M65.405 89.546C65.5981 89.5461 65.7878 89.4953 65.9551 89.3988C66.1224 89.3023 66.2613 89.1634 66.3579 88.9962C66.4545 88.829 66.5053 88.6392 66.5054 88.4461C66.5054 88.253 66.4546 88.0633 66.358 87.896C66.0683 87.3942 65.6515 86.9775 65.1496 86.6879C64.6477 86.3982 64.0784 86.2458 63.499 86.246H62.949C62.0738 86.246 61.2344 86.5937 60.6155 87.2126C59.9967 87.8314 59.649 88.6708 59.649 89.546H65.405Z" fill="#FF6196" stroke="#45413C" stroke-linecap="round" stroke-linejoin="round"/>
<path d="M59.649 89.546C59.649 88.6708 59.3013 87.8314 58.6824 87.2126C58.0636 86.5937 57.2242 86.246 56.349 86.246H55.8C55.2207 86.246 54.6516 86.3985 54.1499 86.6881C53.6482 86.9778 53.2316 87.3944 52.942 87.896C52.8454 88.0633 52.7946 88.253 52.7946 88.4461C52.7946 88.6392 52.8455 88.829 52.9421 88.9962C53.0387 89.1634 53.1776 89.3023 53.3449 89.3988C53.5121 89.4953 53.7019 89.5461 53.895 89.546H59.649Z" fill="#FF6196" stroke="#45413C" stroke-linecap="round" stroke-linejoin="round"/>
<path d="M59.649 80.196V89.546" stroke="#45413C" stroke-linecap="round" stroke-linejoin="round"/>
<path d="M59.649 48.846C57.0233 48.846 54.5052 49.889 52.6486 51.7457C50.792 53.6023 49.749 56.1204 49.749 58.746V59.846H50C50.4968 57.6568 51.7229 55.7015 53.4771 54.3007C55.2314 52.9 57.4096 52.137 59.6545 52.137C61.8993 52.137 64.0775 52.9 65.8318 54.3007C67.586 55.7015 68.8121 57.6568 69.309 59.846H69.554V58.746C69.554 57.4455 69.2977 56.1577 68.7999 54.9563C68.3021 53.7548 67.5724 52.6632 66.6525 51.7439C65.7327 50.8245 64.6408 50.0954 63.4391 49.5982C62.2374 49.1009 60.9495 48.8454 59.649 48.846Z" fill="white"/>
<path d="M59.649 48.846C57.0233 48.846 54.5052 49.889 52.6486 51.7457C50.792 53.6023 49.749 56.1204 49.749 58.746V59.846H53.6V69.2H65.7V59.85H69.55V58.75C69.5505 57.4495 69.2948 56.1616 68.7974 54.96C68.3001 53.7583 67.5708 52.6664 66.6514 51.7467C65.7319 50.827 64.6403 50.0974 63.4388 49.5997C62.2373 49.102 60.9495 48.8459 59.649 48.846Z" stroke="#45413C" stroke-linecap="round" stroke-linejoin="round"/>
<path d="M56.252 49.444V49.457C56.518 50.1426 56.985 50.7317 57.5918 51.147C58.1985 51.5624 58.9167 51.7847 59.652 51.7847C60.3873 51.7847 61.1055 51.5624 61.7122 51.147C62.319 50.7317 62.786 50.1426 63.052 49.457V49.444C60.8572 48.6467 58.4518 48.6467 56.257 49.444H56.252Z" fill="#FFCEBF" stroke="#45413C" stroke-linecap="round" stroke-linejoin="round"/>
<path d="M58.917 53.623C58.7094 53.7256 58.5342 53.8835 58.4106 54.0794C58.2871 54.2753 58.2201 54.5015 58.217 54.733C58.217 54.979 58.291 55.222 58.282 55.467C58.2759 55.6167 58.2389 55.7635 58.1732 55.8981C58.1075 56.0327 58.0145 56.1523 57.9002 56.2491C57.7859 56.3459 57.6527 56.4179 57.5091 56.4606C57.3655 56.5033 57.2146 56.5157 57.066 56.497" stroke="#45413C" stroke-linecap="round" stroke-linejoin="round"/>
<path d="M59.649 52.685C59.649 52.671 59.641 52.252 59.633 52.239C59.406 51.844 58.581 51.894 57.792 52.349C57.003 52.804 56.548 53.494 56.776 53.889C57.004 54.284 57.828 54.234 58.617 53.778C59.0774 53.5445 59.4423 53.1581 59.649 52.685Z" stroke="#45413C" stroke-linecap="round" stroke-linejoin="round"/>
<path d="M60.382 53.623C60.5896 53.7256 60.7648 53.8835 60.8883 54.0794C61.0118 54.2753 61.0788 54.5015 61.082 54.733C61.082 54.979 61.008 55.222 61.017 55.467C61.023 55.6167 61.06 55.7635 61.1258 55.8981C61.1915 56.0327 61.2844 56.1523 61.3987 56.2491C61.5131 56.3459 61.6462 56.4179 61.7898 56.4606C61.9334 56.5033 62.0843 56.5157 62.233 56.497" stroke="#45413C" stroke-linecap="round" stroke-linejoin="round"/>
<path d="M59.649 52.685C59.649 52.671 59.658 52.252 59.666 52.239C59.893 51.844 60.718 51.894 61.507 52.349C62.296 52.804 62.751 53.494 62.523 53.889C62.295 54.284 61.471 54.234 60.682 53.778C60.2213 53.5445 59.8562 53.1581 59.649 52.685Z" stroke="#45413C" stroke-linecap="round" stroke-linejoin="round"/>
<path d="M53.599 59.846V57.646" stroke="#45413C" stroke-linecap="round" stroke-linejoin="round"/>
<path d="M65.699 59.846V57.646" stroke="#45413C" stroke-linecap="round" stroke-linejoin="round"/>
<path d="M49.749 59.846V72.221C49.749 72.7316 49.9518 73.2212 50.3128 73.5822C50.6738 73.9432 51.1634 74.146 51.674 74.146C52.1845 74.146 52.6741 73.9432 53.0351 73.5822C53.3961 73.2212 53.599 72.7316 53.599 72.221V59.846H49.749Z" fill="#FFCEBF" stroke="#45413C" stroke-linecap="round" stroke-linejoin="round"/>
<path d="M65.7 59.846V72.221C65.7 72.7316 65.9028 73.2212 66.2638 73.5822C66.6248 73.9432 67.1145 74.146 67.625 74.146C68.1356 74.146 68.6252 73.9432 68.9862 73.5822C69.3472 73.2212 69.55 72.7316 69.55 72.221V59.846H65.7Z" fill="#FFCEBF" stroke="#45413C" stroke-linecap="round" stroke-linejoin="round"/>
<path d="M52.937 74.791C52.8211 74.9371 52.6614 75.0421 52.4814 75.0905C52.3013 75.1389 52.1105 75.1282 51.937 75.06L50.074 74.314C49.5612 74.1086 49.1511 73.7078 48.9337 73.2C48.7164 72.6922 48.7096 72.1188 48.915 71.606L49.302 70.638C49.4037 70.384 49.5545 70.1525 49.7457 69.9568C49.9369 69.761 50.1648 69.6049 50.4164 69.4973C50.6679 69.3896 50.9383 69.3326 51.2119 69.3295C51.4855 69.3263 51.757 69.3772 52.011 69.479L53.874 70.225C54.048 70.2948 54.1947 70.419 54.2922 70.579C54.3897 70.7391 54.4328 70.9264 54.415 71.113C54.2864 72.4557 53.7732 73.7327 52.937 74.791Z" fill="#FFCEBF" stroke="#45413C" stroke-linecap="round" stroke-linejoin="round"/>
</svg>
