<svg width="36" height="42" viewBox="0 0 36 42" fill="none" xmlns="http://www.w3.org/2000/svg">
<path d="M17.9587 4.88335e-05H17.6306L16.6812 0.0711735C16.1674 0.102622 15.6565 0.171554 15.1524 0.277429C14.8259 0.324138 14.502 0.388226 14.182 0.469446L13.1 0.775269C11.2582 1.3509 9.52059 2.22762 7.95495 3.37116C5.88639 4.9008 4.15911 6.85924 2.88673 9.11768C2.13887 10.4196 1.54373 11.8064 1.11355 13.2498C0.66152 14.8185 0.401261 16.4381 0.338659 18.0717C0.297054 18.9299 0.311045 19.79 0.380544 20.6463C0.380544 21.0801 0.499221 21.514 0.555069 21.9549C0.602043 22.3994 0.683747 22.8394 0.799404 23.2706C1.42715 26.1245 2.70087 28.7895 4.51896 31.0529C6.33705 33.3163 8.64919 35.1155 11.2709 36.307C13.1684 37.1411 15.2022 37.6067 17.2676 37.6796C19.4008 37.7991 21.5362 37.4873 23.5505 36.7622L24.1649 36.5275H24.2486L24.3185 36.5701L33.1215 41.1218L32.8632 41.3494C31.9208 38.3766 31.0133 35.4962 30.1336 32.7296V32.623L30.2104 32.5447C32.3459 30.3535 33.9312 27.6698 34.8319 24.7215C35.6476 22.026 35.8857 19.1835 35.53 16.3862C35.2136 13.9002 34.429 11.4998 33.2193 9.31682C32.1765 7.44161 30.8313 5.75861 29.2401 4.33839C27.9273 3.21428 26.4742 2.27205 24.9188 1.53625C23.7419 1.01912 22.5162 0.625919 21.2608 0.36277L19.8646 0.128071L18.8523 0.0498383L18.238 0.00716781H18.0286C18.0982 -0.000700344 18.1684 -0.000700344 18.238 0.00716781H18.8593L19.8715 0.0498383L21.2677 0.256082C22.5388 0.499969 23.7812 0.878988 24.9747 1.3869C26.5568 2.11396 28.036 3.05402 29.3727 4.18193C30.9932 5.59584 32.3669 7.27912 33.4357 9.16035C34.6797 11.3668 35.4884 13.7997 35.8162 16.3222C36.2014 19.1627 35.98 22.0545 35.167 24.7997C34.2604 27.8094 32.6506 30.5501 30.4757 32.7865L30.5176 32.6016C31.3972 35.3682 32.3117 38.2486 33.2611 41.2143L33.3938 41.6481L32.9959 41.4419L24.1928 36.8973H24.3464L23.7181 37.132C21.6649 37.868 19.4901 38.187 17.3165 38.0708C15.2066 37.9889 13.1303 37.5065 11.1941 36.6484C7.50098 35.037 4.42829 32.2364 2.44692 28.6758C1.53514 27.0313 0.86927 25.2575 0.471295 23.4129C0.362313 22.9705 0.280708 22.5215 0.226961 22.0687C0.171112 21.6206 0.0803606 21.1797 0.0594176 20.7387C-0.129518 18.2082 0.133018 15.6637 0.834311 13.2284C1.27521 11.7652 1.88693 10.3612 2.65636 9.04656C3.9591 6.7676 5.72235 4.79671 7.82929 3.26448C9.42071 2.11802 11.1875 1.24805 13.0581 0.689917L14.1541 0.40544C14.4767 0.32921 14.8029 0.269865 15.1314 0.227639C15.6408 0.131553 16.1565 0.0744932 16.6742 0.0569464L17.6306 0.0213949C17.7394 0.00647327 17.849 -0.000666256 17.9587 4.88335e-05Z" fill="#E13437"/>
<path d="M21.938 16.5853H20.6465L17.8541 12.5884V9.96401C17.8541 9.96401 15.8576 9.83599 16.0949 13.2711C16.3323 16.7062 16.0949 15.8314 16.0949 15.8314C16.0949 15.8314 11.8574 15.8314 11.5084 16.2226C11.1593 16.6138 11.1384 20.7814 11.0895 23.107C11.0628 23.6677 11.2207 24.2213 11.5381 24.6801C11.8556 25.1388 12.3145 25.4763 12.8418 25.6389C12.9896 25.6806 13.1422 25.7022 13.2955 25.7029C14.3566 25.7029 19.753 24.8282 19.753 24.8282H21.9799L21.938 16.5853Z" fill="#E13437"/>
<path d="M25.6307 15.8812L24.8348 24.8709H22.6288V16.0662L25.6307 15.8812Z" fill="#E13437"/>
</svg>
