<svg width="26" height="26" viewBox="0 0 26 26" fill="none" xmlns="http://www.w3.org/2000/svg">
<path d="M20.4189 13L24.375 6.5H16.4621L13 0.8125L9.53834 6.5H1.625L5.58147 13L1.625 19.5H9.53834L13 25.1875L16.4621 19.5H24.375L20.4189 13ZM20.6054 8.53125L19.1644 10.9395L17.6987 8.53125H20.6054ZM17.9323 13L15.26 17.4688H10.7408L8.06853 13L10.7408 8.53125H15.2596L17.9323 13ZM13 4.75353L14.0449 6.5H11.9559L13 4.75353ZM5.39622 8.53125H8.30131L6.83597 10.9387L5.39622 8.53125ZM5.39622 17.4688L6.83597 15.0613L8.30172 17.4688H5.39622ZM13 21.2465L11.9559 19.5H14.0453L13 21.2465ZM19.1644 15.0605L20.6054 17.4688H17.6991L19.1644 15.0605Z" fill="#A1A1A1"/>
<path d="M13 14.7412C13.9421 14.7412 14.7059 13.9616 14.7059 13C14.7059 12.0383 13.9421 11.2588 13 11.2588C12.0579 11.2588 11.2942 12.0383 11.2942 13C11.2942 13.9616 12.0579 14.7412 13 14.7412Z" fill="#A1A1A1"/>
</svg>
