<svg width="295" height="260" viewBox="0 0 295 260" fill="none" xmlns="http://www.w3.org/2000/svg">
<path d="M295 198.489H181.83V131.77H295V198.489ZM182.52 197.785H294.31V132.474H182.52V197.785Z" fill="#E0E0E0"/>
<path d="M271.653 167.345H196.987V169.575H271.653V167.345Z" fill="#F0F0F0"/>
<path d="M276.798 175.661H196.987V178.095H276.798V175.661Z" fill="#F0F0F0"/>
<path d="M276.798 184.074H196.987V186.508H276.798V184.074Z" fill="#F0F0F0"/>
<path d="M223.082 155.266H196.987V161.056H223.082V155.266Z" fill="#F0F0F0"/>
<path d="M294.655 132.122H182.195V142.744H294.655V132.122Z" fill="#E0E0E0"/>
<path d="M286.002 141.155C285.857 141.014 287.307 139.234 289.234 137.18C291.16 135.126 292.852 133.571 292.99 133.705C293.128 133.838 291.685 135.625 289.759 137.686C287.832 139.748 286.14 141.295 286.002 141.155Z" fill="white"/>
<path d="M293.005 141.155C292.866 141.295 291.182 139.748 289.248 137.686C287.315 135.625 285.871 133.845 286.016 133.705C286.161 133.564 287.839 135.112 289.773 137.18C291.706 139.248 293.136 141.014 293.005 141.155Z" fill="white"/>
<path d="M155.741 0H43.2822V66.0222H155.741V0Z" fill="white"/>
<path d="M132.747 35.2306H58.0801V37.4606H132.747V35.2306Z" fill="#F0F0F0"/>
<path d="M137.891 43.5458H58.0801V45.9798H137.891V43.5458Z" fill="#F0F0F0"/>
<path d="M137.891 51.9595H58.0801V54.3935H137.891V51.9595Z" fill="#F0F0F0"/>
<path d="M84.1751 23.1517H58.0801V28.9414H84.1751V23.1517Z" fill="#F0F0F0"/>
<path d="M155.741 0H43.2822V10.6226H155.741V0Z" fill="#E0E0E0"/>
<path d="M146.709 8.98353C146.564 8.84987 148.014 7.06301 149.941 5.00883C151.867 2.95465 153.559 1.39995 153.697 1.54064C153.835 1.68134 152.392 3.46116 150.466 5.51534C148.539 7.56952 146.847 9.11016 146.709 8.98353Z" fill="white"/>
<path d="M153.697 8.9835C153.559 9.1242 151.874 7.57653 149.941 5.51531C148.007 3.4541 146.564 1.68132 146.709 1.54062C146.854 1.39992 148.532 2.94759 150.466 5.0088C152.399 7.07002 153.842 8.84984 153.697 8.9835Z" fill="white"/>
<path d="M113.15 122.646H0V55.9201H113.15V122.646ZM0.690527 121.942H112.459V56.6236H0.690527V121.942Z" fill="#E0E0E0"/>
<path d="M89.8097 91.5024H15.1431V93.7325H89.8097V91.5024Z" fill="#F0F0F0"/>
<path d="M94.9542 99.8177H15.1431V102.252H94.9542V99.8177Z" fill="#F0F0F0"/>
<path d="M94.9542 108.231H15.1431V110.665H94.9542V108.231Z" fill="#F0F0F0"/>
<path d="M41.2381 79.4236H15.1431V85.2133H41.2381V79.4236Z" fill="#F0F0F0"/>
<path d="M112.804 56.2719H0.345215V66.8945H112.804V56.2719Z" fill="#E0E0E0"/>
<path d="M243.735 137.933H110.947V259.045H243.735V137.933Z" fill="white"/>
<path d="M117.624 99.7825H13.6035V209.885H117.624V99.7825Z" fill="white"/>
<path d="M117.624 99.7825H13.6035V111.777H117.624V99.7825Z" fill="#E0E0E0"/>
<path d="M22.1935 105.657C22.1746 106.092 22.0307 106.511 21.7797 106.864C21.5287 107.216 21.1817 107.486 20.7817 107.639C20.3817 107.792 19.9463 107.822 19.5296 107.726C19.1129 107.629 18.7332 107.41 18.4376 107.096C18.142 106.781 17.9436 106.385 17.8669 105.957C17.7903 105.529 17.8388 105.087 18.0064 104.686C18.174 104.286 18.4534 103.944 18.8098 103.704C19.1663 103.464 19.5841 103.336 20.0115 103.335C20.6025 103.35 21.1637 103.602 21.5725 104.037C21.9814 104.472 22.2047 105.055 22.1935 105.657Z" fill="white"/>
<path d="M31.0529 105.657C31.0353 106.094 30.8919 106.516 30.6406 106.87C30.3893 107.225 30.0412 107.497 29.6396 107.651C29.238 107.806 28.8006 107.837 28.3819 107.74C27.9632 107.643 27.5817 107.423 27.2847 107.107C26.9878 106.792 26.7886 106.394 26.7119 105.963C26.6353 105.533 26.6845 105.089 26.8536 104.687C27.0226 104.285 27.304 103.942 27.6626 103.702C28.0213 103.462 28.4415 103.334 28.8708 103.335C29.4618 103.35 30.023 103.602 30.4319 104.037C30.8407 104.472 31.064 105.054 31.0529 105.657Z" fill="white"/>
<path d="M39.9122 105.657C39.8946 106.094 39.7513 106.516 39.5 106.87C39.2487 107.225 38.9006 107.497 38.499 107.651C38.0974 107.806 37.66 107.837 37.2413 107.74C36.8226 107.643 36.441 107.423 36.1441 107.107C35.8472 106.792 35.648 106.394 35.5713 105.963C35.4947 105.533 35.5439 105.089 35.7129 104.687C35.882 104.285 36.1634 103.942 36.522 103.702C36.8807 103.462 37.3008 103.334 37.7302 103.335C38.3212 103.35 38.8824 103.602 39.2912 104.037C39.7001 104.472 39.9234 105.054 39.9122 105.657Z" fill="white"/>
<path d="M280.147 24.0803H147.358V158.911H280.147V24.0803Z" fill="white"/>
<path d="M280.147 24.0803H147.358V39.8736H280.147V24.0803Z" fill="#E0E0E0"/>
<path d="M158.669 31.8187C158.645 32.3929 158.456 32.9471 158.125 33.4126C157.794 33.878 157.336 34.2343 156.808 34.437C156.281 34.6397 155.706 34.6801 155.156 34.553C154.606 34.4259 154.104 34.137 153.714 33.7221C153.324 33.3073 153.061 32.7847 152.96 32.2194C152.859 31.6541 152.922 31.0709 153.144 30.5422C153.365 30.0135 153.733 29.5626 154.204 29.2455C154.674 28.9284 155.226 28.7591 155.79 28.7585C156.57 28.777 157.31 29.1094 157.85 29.6829C158.39 30.2564 158.684 31.0244 158.669 31.8187Z" fill="white"/>
<path d="M169.49 29.7504C169.873 30.174 170.125 30.7029 170.215 31.2713C170.304 31.8397 170.228 32.4225 169.995 32.947C169.762 33.4716 169.383 33.9147 168.904 34.2211C168.426 34.5275 167.869 34.6838 167.305 34.6703C166.74 34.6569 166.191 34.4744 165.727 34.1456C165.263 33.8167 164.905 33.3561 164.696 32.8211C164.487 32.286 164.437 31.7003 164.553 31.1367C164.669 30.5732 164.945 30.0568 165.347 29.6519C165.91 29.1064 166.662 28.8104 167.438 28.8288C168.215 28.8473 168.953 29.1787 169.49 29.7504Z" fill="white"/>
<path d="M181.995 31.8187C181.971 32.3929 181.781 32.9471 181.451 33.4126C181.12 33.878 180.662 34.2343 180.134 34.437C179.606 34.6397 179.032 34.6801 178.481 34.553C177.931 34.4259 177.43 34.137 177.04 33.7221C176.649 33.3073 176.387 32.7847 176.286 32.2194C176.184 31.6541 176.248 31.0709 176.469 30.5422C176.69 30.0135 177.059 29.5626 177.529 29.2455C178 28.9284 178.551 28.7591 179.116 28.7585C179.895 28.777 180.636 29.1094 181.176 29.6829C181.715 30.2564 182.01 31.0244 181.995 31.8187Z" fill="white"/>
</svg>
