<svg width="30" height="30" viewBox="0 0 30 30" fill="none" xmlns="http://www.w3.org/2000/svg">
<path d="M0.000781378 14.8235C0.163273 14.5704 0.396074 14.4829 0.692153 14.4938C1.10073 14.5087 1.5093 14.4923 1.91865 14.4993C2.27332 14.5055 2.48972 14.6938 2.49909 14.9836C2.50925 15.2844 2.28426 15.4906 1.91865 15.4977C1.51008 15.5055 1.10073 15.4891 0.692153 15.5031C0.396074 15.5133 0.162492 15.4266 0 15.1735C0.000781211 15.0579 0.000781378 14.9407 0.000781378 14.8235Z" fill="white"/>
<path d="M30 15.1751C29.8383 15.4305 29.6032 15.5141 29.3079 15.5047C28.8993 15.4907 28.4899 15.5071 28.0814 15.4993C27.7181 15.4922 27.49 15.2829 27.5001 14.9845C27.5095 14.6954 27.729 14.5064 28.0814 14.5001C28.4899 14.4931 28.8993 14.5087 29.3079 14.4946C29.6032 14.4845 29.8383 14.5689 29.9992 14.8243C30 14.9407 30 15.0579 30 15.1751Z" fill="white"/>
<path d="M14.824 29.9985C14.5701 29.8368 14.4842 29.6024 14.4943 29.3064C14.5084 28.8978 14.4928 28.4884 14.4998 28.0799C14.5068 27.715 14.7139 27.4885 15.0138 27.4986C15.3029 27.508 15.4927 27.7268 15.499 28.0791C15.5068 28.4877 15.4904 28.897 15.5044 29.3056C15.5146 29.6009 15.4287 29.8352 15.1748 29.9977C15.0584 29.9985 14.9412 29.9985 14.824 29.9985Z" fill="white"/>
<path d="M15.1757 0C15.4304 0.161711 15.5155 0.396074 15.5054 0.691372C15.4913 1.09995 15.5077 1.5093 15.4999 1.91787C15.4929 2.28192 15.2843 2.50925 14.9859 2.49909C14.6968 2.48972 14.5078 2.27098 14.5015 1.91787C14.4945 1.5093 14.5101 1.09995 14.4961 0.691372C14.4859 0.395293 14.571 0.161711 14.8257 0C14.9413 0 15.0585 0 15.1757 0Z" fill="white"/>
<path d="M15.0192 5.99572C17.2355 5.99572 19.451 6.00197 21.6673 5.99025C22.0907 5.9879 22.368 6.12227 22.5993 6.49491C23.6547 8.19326 24.7382 9.87443 25.8116 11.5611C26.0741 11.9743 26.0686 12.0813 25.7639 12.4727C22.379 16.8249 18.9932 21.1778 15.6082 25.5299C15.5543 25.5994 15.502 25.6697 15.4465 25.7377C15.1606 26.0861 14.8278 26.0861 14.5473 25.7283C13.963 24.983 13.3841 24.2346 12.8029 23.487C9.95146 19.82 7.10004 16.153 4.24862 12.4852C3.92207 12.0649 3.91817 11.9821 4.20878 11.5259C5.28685 9.83068 6.37273 8.13936 7.4383 6.43632C7.64064 6.1129 7.88906 5.99025 8.25388 5.99181C10.5092 5.99884 12.7638 5.99572 15.0192 5.99572ZM12.1568 12.5134C13.1021 16.0226 14.0395 19.5044 14.977 22.9863C15.1176 22.6902 15.202 22.4027 15.2809 22.1137C15.698 20.6012 16.1136 19.088 16.53 17.5748C16.5402 17.5373 16.5542 17.5006 16.566 17.4631C16.6722 17.1256 16.9003 16.9756 17.1956 17.0499C17.4761 17.1202 17.6151 17.3897 17.5237 17.7248C17.1831 18.9755 16.8363 20.2247 16.4918 21.4738C16.3222 22.0894 16.1535 22.705 15.9847 23.3214C16.0027 23.33 16.0207 23.3386 16.0386 23.3472C18.8377 19.7482 21.636 16.1499 24.4648 12.5126C24.3695 12.5016 24.3335 12.4946 24.2976 12.4946C22.5594 12.4938 20.822 12.497 19.0838 12.4884C18.894 12.4876 18.858 12.586 18.8221 12.7258C18.6213 13.5094 18.4213 14.293 18.2143 15.0757C18.126 15.4101 17.8682 15.5765 17.5886 15.4976C17.2995 15.4156 17.1636 15.157 17.2456 14.8234C17.3245 14.5015 17.4159 14.1828 17.4987 13.8617C17.612 13.4211 17.7229 12.9797 17.8417 12.5118C15.9355 12.5134 14.0684 12.5134 12.1568 12.5134ZM13.9919 23.3862C14.0083 23.3784 14.0247 23.3706 14.0419 23.3636C13.0685 19.7474 12.0943 16.1311 11.1217 12.518C9.26321 12.518 7.42502 12.518 5.5384 12.518C8.37575 16.1663 11.1834 19.7763 13.9919 23.3862ZM11.5006 11.0673C12.3724 9.69631 13.2138 8.3745 14.0739 7.02301C12.3459 7.02301 10.6585 7.02301 8.92729 7.02301C9.79131 8.38153 10.6319 9.70256 11.5006 11.0673ZM15.9238 7.01988C16.7902 8.37997 17.6331 9.70491 18.5002 11.0666C19.3705 9.69866 20.2103 8.37841 21.0743 7.01988C19.344 7.01988 17.6636 7.01988 15.9238 7.01988ZM24.5773 11.4822C23.7031 10.1088 22.8594 8.78386 21.9985 7.43158C21.1314 8.79558 20.2877 10.1221 19.4229 11.4822C21.1595 11.4822 22.8414 11.4822 24.5773 11.4822ZM12.431 11.4673C14.1622 11.4673 15.8465 11.4673 17.569 11.4673C16.7066 10.1127 15.8676 8.7948 15.0004 7.43236C14.1333 8.79402 13.2943 10.1127 12.431 11.4673ZM7.99999 7.4308C7.13597 8.78933 6.28914 10.1213 5.42903 11.4743C7.16644 11.4743 8.84682 11.4743 10.5725 11.4743C9.70537 10.1119 8.86089 8.78464 7.99999 7.4308Z" fill="white"/>
<path d="M24.1428 6.33951C24.0288 6.25513 23.8366 6.1817 23.778 6.04889C23.7139 5.90515 23.703 5.64423 23.7928 5.54189C24.1702 5.11066 24.5803 4.70599 25.0053 4.32007C25.192 4.15055 25.4342 4.20289 25.6138 4.38023C25.7935 4.55834 25.8498 4.80208 25.681 4.98801C25.2889 5.42002 24.8639 5.82156 24.4444 6.22701C24.3873 6.28248 24.2842 6.28873 24.1428 6.33951Z" fill="white"/>
<path d="M4.70446 4.16379C4.88336 4.27237 5.02241 4.32784 5.12319 4.42315C5.45676 4.73798 5.7794 5.06374 6.0997 5.39185C6.34422 5.64262 6.36141 5.93479 6.15751 6.14494C5.95127 6.35821 5.65441 6.34961 5.40598 6.109C5.06303 5.77621 4.72633 5.43638 4.39197 5.09499C4.23573 4.93562 4.15839 4.72938 4.28651 4.5372C4.38338 4.38956 4.55447 4.29269 4.70446 4.16379Z" fill="white"/>
<path d="M5.84996 23.6551C5.97574 23.7574 6.1726 23.8418 6.22963 23.9832C6.28822 24.1269 6.27494 24.3832 6.18042 24.4918C5.8234 24.9027 5.42967 25.2847 5.02969 25.6558C4.83361 25.837 4.54612 25.794 4.37035 25.6065C4.20083 25.4261 4.1688 25.155 4.34379 24.9675C4.71643 24.5683 5.10781 24.1871 5.50076 23.809C5.57107 23.741 5.6906 23.723 5.84996 23.6551Z" fill="white"/>
<path d="M25.7844 25.3049C25.6961 25.4182 25.6149 25.615 25.4751 25.6752C25.3329 25.7361 25.0743 25.7299 24.9673 25.6377C24.5571 25.2823 24.1775 24.8893 23.8056 24.4924C23.6376 24.3128 23.6712 24.0237 23.8423 23.855C24.0243 23.6753 24.2673 23.6206 24.4501 23.7839C24.8766 24.1643 25.2704 24.5831 25.6688 24.994C25.7243 25.0495 25.7305 25.1518 25.7844 25.3049Z" fill="white"/>
</svg>
