<svg width="62" height="67" viewBox="0 0 62 67" fill="none" xmlns="http://www.w3.org/2000/svg">
<path d="M45.2157 5.01757C45.2157 5.01757 43.9525 0 31 0C10.9485 0 0 12.6768 0 29.3714V66.4286H31C22.0454 66.4286 7.04918 53.5171 7.04918 42.811C7.04918 42.811 2.21429 41.5854 2.21429 34.4897C2.21429 28.8721 5.86011 27.9078 5.86011 27.9078C18.9277 27.9078 43.1786 11.0714 43.1786 11.0714C43.1786 11.0714 48.2604 25.9359 56.0259 27.9078C56.0259 27.9078 59.7857 28.5953 59.7857 34.4897C59.7857 41.5843 54.7692 42.811 54.7692 42.811C54.7017 53.5171 39.959 66.4286 31 66.4286H62V29.3714C62 4.55589 45.2157 5.01757 45.2157 5.01757Z" fill="#600D87"/>
<path d="M31.0003 49.8215C35.6281 49.8193 37.9421 46.5 35.6281 46.5H26.3713C24.0574 46.5 26.3702 49.8215 31.0003 49.8215ZM49.2681 34.875C49.2644 33.6748 48.8231 32.5171 48.027 31.6189C48.8773 31.7418 49.7154 31.8846 50.5336 31.9887C51.23 32.1924 51.9198 32.4105 52.584 32.6652C52.7003 33.0604 52.697 33.6339 52.573 34.1875C52.4162 34.893 52.1954 35.5826 51.9131 36.2479C51.6242 36.9348 51.2956 37.6043 50.9289 38.2529C50.7429 38.5795 50.5524 38.9017 50.3365 39.2084C50.1162 39.5073 49.9125 39.8439 49.577 40.0255C50.3277 39.7719 50.848 39.1243 51.3717 38.5685C51.8755 37.9761 52.3449 37.3484 52.7446 36.6719C53.1443 35.9955 53.5163 35.2902 53.7587 34.4986C53.958 33.7845 54.1783 32.9674 53.875 32.0396C54.8282 31.878 55.704 31.5093 56.4635 30.7963C51.4813 32.9608 39.026 22.8459 36.5349 38.016C37.4173 35.7763 38.4591 34.2595 39.5995 33.2409C39.4094 33.765 39.3094 34.3175 39.3039 34.875C39.3039 36.1964 39.8288 37.4636 40.7631 38.398C41.6974 39.3323 42.9647 39.8572 44.286 39.8572C45.6073 39.8572 46.8746 39.3323 47.8089 38.398C48.7432 37.4636 49.2681 36.1964 49.2681 34.875ZM22.6967 34.875C22.6967 34.2993 22.5805 33.7546 22.3978 33.242C23.5393 34.2606 24.58 35.7763 25.4646 38.0171C22.9735 22.8459 10.5182 32.9619 5.53601 30.7974C6.29551 31.5115 7.17126 31.8791 8.12451 32.0408C7.82005 32.9685 8.04258 33.7856 8.24076 34.4997C8.48322 35.2913 8.85301 35.9966 9.25269 36.673C9.65609 37.3427 10.1153 37.9772 10.6255 38.5696C11.1514 39.1254 11.6718 39.7741 12.4224 40.0266C12.0848 39.845 11.8844 39.5073 11.6629 39.2095C11.4496 38.9012 11.2519 38.5823 11.0706 38.254C10.7028 37.6059 10.3741 36.9364 10.0864 36.249C9.80439 35.5834 9.58281 34.8939 9.4243 34.1886C9.30362 33.635 9.29697 33.0615 9.41544 32.6663C10.0821 32.4127 10.7596 32.1884 11.4459 31.9943C12.2674 31.888 13.1155 31.7451 13.9691 31.62C13.176 32.5193 12.7366 33.676 12.7324 34.875C12.7324 35.5293 12.8613 36.1772 13.1117 36.7816C13.3621 37.3861 13.729 37.9353 14.1917 38.398C14.6543 38.8606 15.2035 39.2276 15.808 39.4779C16.4125 39.7283 17.0603 39.8572 17.7146 39.8572C18.3688 39.8572 19.0167 39.7283 19.6212 39.4779C20.2256 39.2276 20.7749 38.8606 21.2375 38.398C21.7001 37.9353 22.0671 37.3861 22.3175 36.7816C22.5679 36.1772 22.6967 35.5293 22.6967 34.875ZM35.368 53.2702C32.1074 52.0358 31.0003 53.9965 31.0003 53.9965C31.0003 53.9965 29.8932 52.0358 26.6326 53.2702C24.0851 54.2345 19.9145 53.6633 19.9289 53.6677C26.5717 63.1061 35.4289 63.1061 42.0717 53.6677C42.0872 53.6644 37.9155 54.2345 35.368 53.2702Z" fill="#600D87"/>
</svg>
