<svg width="22" height="22" viewBox="0 0 22 22" fill="none" xmlns="http://www.w3.org/2000/svg">
<g clip-path="url(#clip0_1_10895)">
<path d="M19.5555 9.16668H18.9444V5.50001C18.9444 5.33794 18.88 5.1825 18.7654 5.06789C18.6508 4.95329 18.4954 4.8889 18.3333 4.8889H3.66663C3.52192 4.89126 3.38108 4.84219 3.26917 4.75043C3.15726 4.65866 3.08155 4.53015 3.05552 4.38779V4.16779C3.08155 4.02543 3.15726 3.89692 3.26917 3.80516C3.38108 3.71339 3.52192 3.66432 3.66663 3.66668H18.0766C18.2387 3.66668 18.3941 3.6023 18.5088 3.48769C18.6234 3.37308 18.6877 3.21765 18.6877 3.05557C18.6877 2.89349 18.6234 2.73805 18.5088 2.62345C18.3941 2.50884 18.2387 2.44446 18.0766 2.44446H3.66663C3.1804 2.44446 2.71408 2.63761 2.37027 2.98143C2.02645 3.32525 1.8333 3.79156 1.8333 4.27779C1.82901 4.35106 1.82901 4.42452 1.8333 4.49779V17.0683C1.83569 17.3974 1.90288 17.7227 2.03102 18.0258C2.15915 18.3289 2.34573 18.6037 2.5801 18.8347C2.81447 19.0657 3.09203 19.2482 3.39694 19.3719C3.70186 19.4956 4.02815 19.558 4.35718 19.5556H18.3333C18.4954 19.5556 18.6508 19.4912 18.7654 19.3766C18.88 19.262 18.9444 19.1065 18.9444 18.9445V15.2778H19.5555C19.7176 15.2778 19.873 15.2134 19.9876 15.0988C20.1022 14.9842 20.1666 14.8288 20.1666 14.6667V9.77779C20.1666 9.61571 20.1022 9.46028 19.9876 9.34567C19.873 9.23106 19.7176 9.16668 19.5555 9.16668ZM17.7222 18.3333H4.35718C4.01729 18.3366 3.68984 18.2056 3.44607 17.9687C3.20231 17.7318 3.06195 17.4082 3.05552 17.0683V6.03779C3.25388 6.09528 3.46029 6.12005 3.66663 6.11112H17.7222V9.16668H13.4444C12.634 9.16668 11.8568 9.4886 11.2838 10.0616C10.7108 10.6347 10.3889 11.4119 10.3889 12.2222C10.3889 13.0326 10.7108 13.8098 11.2838 14.3828C11.8568 14.9559 12.634 15.2778 13.4444 15.2778H17.7222V18.3333ZM18.9444 14.0556H13.4444C12.9582 14.0556 12.4919 13.8624 12.148 13.5186C11.8042 13.1748 11.6111 12.7085 11.6111 12.2222C11.6111 11.736 11.8042 11.2697 12.148 10.9259C12.4919 10.5821 12.9582 10.3889 13.4444 10.3889H18.9444V14.0556Z" fill="black"/>
<path d="M14.0617 13.1389C14.5679 13.1389 14.9784 12.7285 14.9784 12.2222C14.9784 11.7159 14.5679 11.3055 14.0617 11.3055C13.5554 11.3055 13.145 11.7159 13.145 12.2222C13.145 12.7285 13.5554 13.1389 14.0617 13.1389Z" fill="black"/>
</g>
<defs>
<clipPath id="clip0_1_10895">
<rect width="22" height="22" fill="white"/>
</clipPath>
</defs>
</svg>
