<svg width="11" height="15" viewBox="0 0 11 15" fill="none" xmlns="http://www.w3.org/2000/svg">
<path d="M5.5 0.5C2.76319 0.5 0.5 2.61917 0.5 5.28125C0.5 6.78095 1.31146 8.63761 2.20029 10.2426C3.1025 11.8718 4.14152 13.3399 4.69869 14.0927C4.79063 14.2184 4.91086 14.3207 5.04966 14.3913L5.27646 13.9457L5.04966 14.3913C5.18917 14.4623 5.34347 14.4994 5.5 14.4994C5.65652 14.4994 5.81083 14.4623 5.95034 14.3913L5.72354 13.9457L5.95034 14.3913C6.08911 14.3207 6.20931 14.2184 6.30124 14.0928C6.85842 13.3403 7.89747 11.8727 8.7997 10.2437C9.68857 8.6388 10.5 6.78202 10.5 5.28125C10.5 2.61917 8.23681 0.5 5.5 0.5Z" stroke="black" stroke-linecap="round" stroke-linejoin="round"/>
<path d="M5.5 7.5C6.60457 7.5 7.5 6.60457 7.5 5.5C7.5 4.39543 6.60457 3.5 5.5 3.5C4.39543 3.5 3.5 4.39543 3.5 5.5C3.5 6.60457 4.39543 7.5 5.5 7.5Z" stroke="black" stroke-linecap="round" stroke-linejoin="round"/>
</svg>
