<svg width="100" height="208" viewBox="0 0 100 208" fill="none" xmlns="http://www.w3.org/2000/svg">
<path d="M84.1338 207.61L14.9869 207.286C10.9937 207.264 7.17253 205.628 4.36255 202.737C1.55256 199.847 -0.0164391 195.938 0.000129908 191.87L0.733892 15.2753C0.742053 13.2598 1.14003 11.2657 1.90508 9.40702C2.67014 7.54832 3.78727 5.86145 5.19261 4.44284C6.59795 3.02423 8.26394 1.90168 10.0954 1.13939C11.9268 0.377091 13.8877 -0.0100137 15.866 0.000196845L85.006 0.324598C88.9992 0.345126 92.8211 1.97944 95.6324 4.86861C98.4437 7.75777 100.014 11.6656 99.9997 15.7337L99.266 192.321C99.2578 194.337 98.8599 196.332 98.095 198.192C97.3302 200.051 96.2132 201.739 94.8081 203.159C93.4029 204.578 91.7371 205.702 89.9056 206.466C88.0741 207.23 86.1128 207.619 84.1338 207.61Z" fill="#455A64"/>
</svg>
