<svg width="24" height="22" viewBox="0 0 24 22" fill="none" xmlns="http://www.w3.org/2000/svg">
<path d="M3.18995 21.811L3.21941 21.8051C5.91577 21.2702 7.56305 20.5645 8.32922 20.177C9.45725 20.4778 10.6199 20.6294 11.7873 20.6278C18.2969 20.6278 23.5747 16.0101 23.5747 10.3139C23.5747 4.61769 18.2969 0 11.7873 0C5.27778 0 0 4.61769 0 10.3139C0 12.9071 1.09475 15.2793 2.90263 17.0916C2.77615 18.2558 2.51711 19.4017 2.13056 20.507L2.12614 20.5232C2.01629 20.8398 1.89639 21.1528 1.76663 21.4618C1.65023 21.7358 1.87566 22.0423 2.16887 21.9952C2.5102 21.9393 2.85061 21.8779 3.18995 21.811ZM4.36868 17.2316C4.38932 17.0159 4.36212 16.7983 4.28903 16.5943C4.21594 16.3903 4.09875 16.2049 3.94581 16.0514C2.38399 14.4837 1.47342 12.4769 1.47342 10.3139C1.47342 5.61077 5.89956 1.47342 11.7873 1.47342C17.6751 1.47342 22.1012 5.61077 22.1012 10.3139C22.1012 15.0185 17.6751 19.1544 11.7873 19.1544C10.7487 19.1559 9.7144 19.0212 8.71084 18.7536C8.36013 18.6597 7.98708 18.6985 7.66324 18.8627C7.09303 19.1515 5.8362 19.7025 3.78226 20.1784C4.06881 19.2165 4.26513 18.23 4.36868 17.2316Z" fill="#157B11"/>
</svg>
