<svg width="80" height="80" viewBox="0 0 80 80" fill="none" xmlns="http://www.w3.org/2000/svg">
<path d="M39.9057 80C61.9449 80 79.8113 62.0914 79.8113 40C79.8113 17.9086 61.9449 0 39.9057 0C17.8664 0 0 17.9086 0 40C0 62.0914 17.8664 80 39.9057 80Z" fill="#FFF0ED"/>
<path d="M12.6638 48.2819C14.1805 48.2819 15.4122 49.5149 15.4122 51.0368C15.4122 52.5587 14.1805 53.7918 12.6638 53.7918C11.1454 53.7918 9.91382 52.5587 9.91382 51.0368C9.91382 49.5149 11.1454 48.2819 12.6638 48.2819Z" fill="#FFD15C"/>
<path d="M10.5295 52.684C10.5295 51.1621 11.761 49.9291 13.2795 49.9291C14.1369 49.9291 14.903 50.3236 15.4072 50.9412C15.3566 49.464 14.1481 48.2819 12.6635 48.2819C11.1452 48.2819 9.91357 49.5149 9.91357 51.0368C9.91357 51.6982 10.1466 52.3047 10.5342 52.7795C10.5333 52.7474 10.5295 52.7162 10.5295 52.684Z" fill="#EDBD51"/>
<path d="M56.6446 57.9257C58.1614 57.9257 59.393 59.1587 59.393 60.6806C59.393 62.2025 58.1614 63.4355 56.6446 63.4355C55.1263 63.4355 53.8947 62.2025 53.8947 60.6806C53.8947 59.1587 55.1263 57.9257 56.6446 57.9257Z" fill="#D30045"/>
<path d="M54.5014 62.2516C54.5014 60.7297 55.733 59.4967 57.2513 59.4967C58.1122 59.4967 58.8806 59.8945 59.3847 60.5164C59.2994 59.0714 58.106 57.9257 56.6446 57.9257C55.1263 57.9257 53.8947 59.1587 53.8947 60.6806C53.8947 61.3384 54.1255 61.9419 54.5097 62.4155C54.5064 62.361 54.5014 62.3069 54.5014 62.2516Z" fill="#BF0448"/>
<path d="M40.1509 9.70703C41.6692 9.70703 42.8993 10.9416 42.8993 12.4636C42.8993 13.984 41.6692 15.2184 40.1509 15.2184C38.6324 15.2184 37.4025 13.984 37.4025 12.4636C37.4025 10.9416 38.6326 9.70703 40.1509 9.70703Z" fill="#EF3E5C"/>
<path d="M37.9333 14.0092C37.9333 12.4873 39.1635 11.2528 40.6819 11.2528C41.5914 11.2528 42.395 11.6977 42.8952 12.38C42.8506 10.897 41.641 9.70703 40.1509 9.70703C38.6324 9.70703 37.4025 10.9416 37.4025 12.4636C37.4025 13.0733 37.6025 13.6351 37.9374 14.0916C37.9368 14.064 37.9333 14.0371 37.9333 14.0092Z" fill="#E42A53"/>
<path d="M29.8866 42.7753C28.4199 40.0888 26.9546 38.7461 24.0228 38.7461C22.7927 38.7461 21.6504 39.0943 20.7071 39.6888C18.2727 36.6755 16.7863 33.5009 16.7863 29.7396C16.7863 24.0046 21.8629 19.3509 28.1211 19.3509C33.7893 19.3509 36.6226 21.9477 39.4575 27.1428C42.2909 21.9477 45.1242 19.3509 50.7925 19.3509C57.0644 19.3509 62.1409 24.0046 62.1409 29.7396C62.1409 40.1283 50.7925 46.0441 39.4574 56.4343C38.1757 55.2591 36.8954 54.1431 35.6305 53.0712C39.0586 50.2069 41.6174 47.6678 41.6174 44.1193C41.6174 41.153 38.9917 38.7461 35.749 38.7461C32.8172 38.7461 31.352 40.0888 29.8866 42.7753Z" fill="#EF3E5C"/>
<path d="M19.289 31.5457C19.289 25.8107 24.3656 21.157 30.6237 21.157C32.7694 21.157 34.5082 21.5298 35.9953 22.2741C33.9991 20.3262 31.5919 19.3508 28.1211 19.3508C21.8628 19.3508 16.7863 24.0045 16.7863 29.7395C16.7863 33.5007 18.2727 36.6754 20.7071 39.6886C20.9852 39.5135 21.2823 39.3625 21.592 39.2328C20.1338 36.8823 19.289 34.3807 19.289 31.5457Z" fill="#E42A53"/>
<path d="M24.0228 38.7462C26.9546 38.7462 28.4199 40.0888 29.8866 42.7753C31.3518 40.0888 32.817 38.7462 35.749 38.7462C38.9919 38.7462 41.6174 41.1531 41.6174 44.1193C41.6174 47.6679 39.0586 50.2069 35.6305 53.0713C33.868 54.543 31.8765 56.0998 29.8864 57.9258C24.0227 52.5528 18.1602 49.4923 18.1602 44.1193C18.1602 42.2812 19.1688 40.6589 20.7068 39.6888C21.6506 39.0943 22.7927 38.7462 24.0228 38.7462Z" fill="#D30045"/>
<path d="M20.9667 44.7487C20.9667 42.9106 21.9754 41.2884 23.5134 40.3182C24.4568 39.7239 25.599 39.3756 26.8291 39.3756C26.8529 39.3756 26.8747 39.3776 26.8984 39.3777C26.1075 38.9589 25.1808 38.7462 24.023 38.7462C22.7929 38.7462 21.6506 39.0943 20.7073 39.6888C19.1693 40.6589 18.1606 42.2812 18.1606 44.1193C18.1606 49.4923 24.023 52.5528 29.8869 57.9258C30.2338 57.6074 30.5802 57.3002 30.9261 56.9972C25.7071 52.5426 20.9667 49.58 20.9667 44.7487Z" fill="#BF0448"/>
<path d="M52.5196 38.021C52.3612 38.021 52.2015 37.9716 52.0651 37.8689C51.7301 37.617 51.6621 37.1405 51.9134 36.8047C55.6925 31.7543 53.3181 26.7869 53.2152 26.5779C53.0301 26.202 53.1828 25.7461 53.5572 25.5597C53.9324 25.373 54.3857 25.5249 54.5725 25.8995C54.6934 26.1415 57.4822 31.8963 53.1269 37.7169C52.9779 37.9161 52.7501 38.021 52.5196 38.021Z" fill="#E42A53"/>
<path d="M42.8993 64.1957H15.4121C14.9933 64.1957 14.6537 63.8554 14.6537 63.4355C14.6537 63.0156 14.9933 62.6753 15.4121 62.6753H42.8993C43.3182 62.6753 43.6577 63.0156 43.6577 63.4355C43.6577 63.8554 43.3182 64.1957 42.8993 64.1957Z" fill="#EF3E5C"/>
<path d="M69.0136 69.707H36.028C35.6093 69.707 35.2697 69.3668 35.2697 68.9468C35.2697 68.5269 35.6093 68.1866 36.028 68.1866H69.0136C69.4326 68.1866 69.772 68.5269 69.772 68.9468C69.772 69.3668 69.4326 69.707 69.0136 69.707Z" fill="#EF3E5C"/>
</svg>
