<svg width="3" height="4" viewBox="0 0 3 4" fill="none" xmlns="http://www.w3.org/2000/svg">
<path d="M2.99661 1.63469C3.01094 1.84384 2.98287 2.05377 2.91416 2.2514C2.84544 2.44903 2.73755 2.63014 2.59718 2.78347C2.45682 2.9368 2.28698 3.05907 2.09825 3.14266C1.90951 3.22626 1.70592 3.26938 1.50012 3.26938C1.29432 3.26938 1.09071 3.22626 0.90198 3.14266C0.713246 3.05907 0.543428 2.9368 0.403063 2.78347C0.262699 2.63014 0.154806 2.44903 0.0860904 2.2514C0.0173747 2.05377 -0.0106887 1.84384 0.00364139 1.63469C-0.0106887 1.42554 0.0173747 1.21562 0.0860904 1.01799C0.154806 0.820356 0.262699 0.639239 0.403063 0.485911C0.543428 0.332583 0.713246 0.210338 0.90198 0.126742C1.09071 0.0431451 1.29432 0 1.50012 0C1.70592 0 1.90951 0.0431451 2.09825 0.126742C2.28698 0.210338 2.45682 0.332583 2.59718 0.485911C2.73755 0.639239 2.84544 0.820356 2.91416 1.01799C2.98287 1.21562 3.01094 1.42554 2.99661 1.63469Z" fill="#FF725E"/>
</svg>
