<svg width="58" height="101" viewBox="0 0 58 101" fill="none" xmlns="http://www.w3.org/2000/svg">
<path d="M12.7611 75.2531C2.04884 67.6315 -0.377878 53.483 0.0450651 40.7615C0.1144 38.6424 -0.114397 36.3962 0.877093 34.5384C1.86858 32.6807 4.18436 31.4022 6.04947 32.2922C7.59564 33.0339 8.2682 34.8704 9.13489 36.3891C10.2913 38.4118 11.986 40.06 14.023 41.1429C15.3473 41.8493 16.9905 42.2731 18.301 41.5385C20.1037 40.5284 20.3117 38.0067 20.2978 35.8876C20.2978 31.9461 20.2747 28.0093 20.2285 24.0772C20.1039 21.9658 20.3146 19.8477 20.8525 17.8047C21.4973 15.7986 22.9325 13.9409 24.8947 13.3758C26.8569 12.8107 29.3044 13.9762 29.7481 16.0388C29.8245 16.9124 29.8454 17.7901 29.8105 18.6665C29.866 19.5494 30.2682 20.5171 31.0794 20.7856C31.8906 21.054 32.7365 20.4394 33.3605 19.8178C35.496 17.6987 36.952 14.9369 38.3041 12.2103C39.6561 9.48377 40.9804 6.67951 42.9218 4.35558C44.8632 2.03165 47.5464 0.188047 50.5486 0.0114561C53.5508 -0.165134 56.6778 1.71379 57.4267 4.68051C58.1755 7.64723 56.4768 10.6775 54.6533 13.0862C51.9016 16.6616 48.658 19.8138 45.0226 22.4455C44.313 22.8402 43.7467 23.4568 43.4071 24.2043C42.9565 25.6171 44.2669 27.0298 45.6328 27.4748C47.1789 27.9975 48.8569 27.835 50.4862 28.0328C52.1156 28.2306 53.849 28.9511 54.466 30.5051C55.3119 32.6665 53.537 34.9269 51.7967 36.4103C48.3022 39.377 44.3342 41.7112 40.0652 43.3114C38.5398 43.8765 36.9382 44.378 35.704 45.4658C34.4699 46.5536 33.7349 48.4537 34.4768 49.9442C35.2187 51.4346 37.1254 51.9079 38.727 51.6041C40.3287 51.3004 41.75 50.4245 43.2754 49.8382C46.1251 48.7434 49.7998 48.9411 51.5956 51.4487C52.1519 52.3125 52.5041 53.296 52.6244 54.3218C52.7447 55.3477 52.6299 56.388 52.2889 57.361C51.595 59.2974 50.527 61.0723 49.1481 62.581C44.6069 68.1085 38.7066 72.3084 32.0501 74.7516C25.4425 77.0826 19.3202 77.7183 12.7542 75.2672" fill="#E13437"/>
<path d="M54.3761 1.75617C54.3761 1.75617 54.3137 1.82681 54.175 1.95395L53.5579 2.51197C53.0171 3.00643 52.2198 3.72692 51.2144 4.68051C48.364 7.3768 45.7171 10.2882 43.2964 13.39C41.7502 15.3466 40.1486 17.5645 38.4429 19.9732C36.7373 22.3819 34.9762 24.9814 33.2289 27.7432C31.3662 30.6557 29.6603 33.6692 28.1189 36.7705C27.3147 38.3881 26.6075 40.0763 25.8794 41.7998L23.7301 47.0622C20.8969 53.6907 18.4293 60.4753 16.339 67.3842C14.6552 73.0371 13.4945 78.8381 12.8722 84.7113C12.469 88.6749 12.404 92.6667 12.6781 96.6417C12.789 98.0545 12.893 99.1352 12.9901 99.8698C13.0317 100.223 13.0594 100.506 13.0871 100.71V101C13.0573 100.908 13.0364 100.813 13.0247 100.717C12.9901 100.513 12.9485 100.237 12.893 99.8839C12.7682 99.1776 12.6365 98.0615 12.5117 96.6488C12.1771 92.6664 12.2004 88.6612 12.581 84.683C13.1647 78.7847 14.3 72.9567 15.9715 67.2783C18.0443 60.35 20.5051 53.5483 23.3418 46.9068L25.5466 41.6656C26.2746 39.9492 26.9888 38.2468 27.8 36.6222C29.3521 33.5115 31.0719 30.4907 32.9516 27.5737C34.7266 24.7482 36.5154 22.1912 38.2002 19.8037C39.8851 17.4162 41.5145 15.1841 43.0537 13.2346C45.4991 10.141 48.1815 7.24996 51.0757 4.58868C52.1019 3.64922 52.9201 2.94286 53.4747 2.46959L54.1195 1.93982C54.1986 1.86971 54.2846 1.80816 54.3761 1.75617Z" fill="#263238"/>
<path d="M27.8898 36.608C27.792 36.317 27.7246 36.0164 27.6888 35.711C27.5778 35.1247 27.453 34.2982 27.3074 33.2246C27.0093 31.1055 26.7042 28.2023 26.3783 24.9884C26.0525 21.7744 25.685 18.8642 25.3799 16.7663C25.2204 15.7209 25.0818 14.8804 24.9847 14.2941C24.909 13.994 24.8694 13.6856 24.8668 13.3758C24.9862 13.6588 25.0723 13.9552 25.1234 14.2588C25.2759 14.838 25.4493 15.6715 25.6434 16.724C26.0386 18.843 26.4269 21.725 26.7527 24.946C27.0786 28.167 27.356 30.9925 27.5709 33.1892C27.6749 34.1782 27.765 35.0187 27.8344 35.6898C27.8882 35.9926 27.9069 36.3008 27.8898 36.608Z" fill="#263238"/>
<path d="M54.57 31.5364C54.2326 31.6112 53.889 31.6538 53.5438 31.6635C52.8505 31.7271 51.8659 31.8119 50.6456 31.9531C48.205 32.2215 44.8492 32.716 41.1675 33.4223C37.4858 34.1287 34.1786 34.9269 31.8004 35.5414C30.6148 35.8522 29.6579 36.1348 29.027 36.3255C28.6901 36.4474 28.3415 36.5327 27.987 36.5798C28.3074 36.4156 28.6415 36.2809 28.9854 36.1772C29.6371 35.9441 30.5801 35.6191 31.7588 35.273C34.1231 34.5666 37.4304 33.7261 41.1259 33.0056C44.2564 32.3958 47.4152 31.9478 50.5901 31.6635C51.8174 31.5576 52.8089 31.5152 53.5022 31.501C53.8584 31.4764 54.2161 31.4882 54.57 31.5364Z" fill="#263238"/>
<path d="M16.3109 66.7838C16.237 66.6816 16.1764 66.57 16.1306 66.4518L15.673 65.47C15.2778 64.6153 14.7439 63.3509 14.106 61.804C12.8164 58.696 11.1732 54.3448 9.42593 49.5133C7.67869 44.6818 6.07012 40.3306 4.84982 37.1873C4.25354 35.6615 3.76128 34.4113 3.39381 33.4789L3.00551 32.4688C2.9517 32.3523 2.91436 32.2286 2.8946 32.1015C2.96852 32.2037 3.0291 32.3153 3.07485 32.4335L3.53246 33.4153C3.92074 34.27 4.46156 35.5344 5.09944 37.0813C6.38907 40.1893 8.03231 44.5405 9.77955 49.372C11.5268 54.2035 13.1354 58.5547 14.3557 61.698C14.9519 63.2238 15.4442 64.474 15.8048 65.4064C15.9642 65.809 16.096 66.1128 16.2 66.4165C16.2538 66.533 16.2911 66.6567 16.3109 66.7838Z" fill="#263238"/>
<path d="M51.7274 55.15C51.6163 55.215 51.4975 55.2648 51.3738 55.2984L50.3476 55.6515L46.555 56.9018C43.3517 57.9614 38.9282 59.473 34.0747 61.14C29.2213 62.807 24.7769 64.2903 21.5528 65.2793C19.9442 65.7808 18.6338 66.1622 17.7255 66.4165L16.6786 66.692C16.5568 66.7314 16.4313 66.7574 16.3042 66.7697C16.4152 66.7048 16.534 66.6549 16.6578 66.6213L17.6839 66.2682L21.4765 65.0179C24.6798 63.9584 29.1034 62.4467 33.9568 60.7797C38.8103 59.1127 43.2477 57.6294 46.4718 56.6404C48.0873 56.1389 49.3908 55.7575 50.306 55.5032L51.353 55.2277C51.4747 55.1883 51.6002 55.1623 51.7274 55.15Z" fill="#263238"/>
</svg>
