<svg width="23" height="25" viewBox="0 0 23 25" fill="none" xmlns="http://www.w3.org/2000/svg">
<path d="M18.5012 22.0002C18.899 22.0002 19.2806 21.8421 19.5619 21.5608C19.8432 21.2795 20.0012 20.898 20.0012 20.5002C20.0012 20.1024 19.8432 19.7208 19.5619 19.4395C19.2806 19.1582 18.899 19.0002 18.5012 19.0002C18.1034 19.0002 17.7219 19.1582 17.4406 19.4395C17.1593 19.7208 17.0012 20.1024 17.0012 20.5002C17.0012 20.898 17.1593 21.2795 17.4406 21.5608C17.7219 21.8421 18.1034 22.0002 18.5012 22.0002ZM8.50122 22.0002C8.89905 22.0002 9.28058 21.8421 9.56188 21.5608C9.84319 21.2795 10.0012 20.898 10.0012 20.5002C10.0012 20.1024 9.84319 19.7208 9.56188 19.4395C9.28058 19.1582 8.89905 19.0002 8.50122 19.0002C8.1034 19.0002 7.72187 19.1582 7.44056 19.4395C7.15926 19.7208 7.00122 20.1024 7.00122 20.5002C7.00122 20.898 7.15926 21.2795 7.44056 21.5608C7.72187 21.8421 8.1034 22.0002 8.50122 22.0002Z" fill="white" stroke="black" stroke-width="2" stroke-linecap="round" stroke-linejoin="round"/>
<path d="M4 4H21L19 15H6L4 4ZM4 4C3.833 3.333 3 2 1 2L4 4ZM19 15H4.23C2.446 15 1.5 15.781 1.5 17C1.5 18.219 2.446 19 4.23 19H18.5" fill="white"/>
<path d="M4 4H21L19 15M4 4L6 15H19M4 4C3.833 3.333 3 2 1 2M19 15H4.23C2.446 15 1.5 15.781 1.5 17C1.5 18.219 2.446 19 4.23 19H18.5" stroke="black" stroke-width="2" stroke-linecap="round" stroke-linejoin="round"/>
</svg>
