<svg width="28" height="26" viewBox="0 0 28 26" fill="none" xmlns="http://www.w3.org/2000/svg">
<path d="M8.7065 12.1892C8.7065 12.651 8.52304 13.0939 8.19648 13.4205C7.86992 13.747 7.42701 13.9305 6.96519 13.9305C6.50336 13.9305 6.06045 13.747 5.73389 13.4205C5.40734 13.0939 5.22388 12.651 5.22388 12.1892C5.22388 11.7274 5.40734 11.2845 5.73389 10.9579C6.06045 10.6313 6.50336 10.4479 6.96519 10.4479C7.42701 10.4479 7.86992 10.6313 8.19648 10.9579C8.52304 11.2845 8.7065 11.7274 8.7065 12.1892ZM15.6717 12.1892C15.6717 12.651 15.4883 13.0939 15.1617 13.4205C14.8352 13.747 14.3923 13.9305 13.9304 13.9305C13.4686 13.9305 13.0257 13.747 12.6991 13.4205C12.3726 13.0939 12.1891 12.651 12.1891 12.1892C12.1891 11.7274 12.3726 11.2845 12.6991 10.9579C13.0257 10.6313 13.4686 10.4479 13.9304 10.4479C14.3923 10.4479 14.8352 10.6313 15.1617 10.9579C15.4883 11.2845 15.6717 11.7274 15.6717 12.1892ZM20.8957 13.9305C21.3575 13.9305 21.8004 13.747 22.127 13.4205C22.4535 13.0939 22.637 12.651 22.637 12.1892C22.637 11.7274 22.4535 11.2845 22.127 10.9579C21.8004 10.6313 21.3575 10.4479 20.8957 10.4479C20.4338 10.4479 19.9909 10.6313 19.6644 10.9579C19.3378 11.2845 19.1544 11.7274 19.1544 12.1892C19.1544 12.651 19.3378 13.0939 19.6644 13.4205C19.9909 13.747 20.4338 13.9305 20.8957 13.9305Z" fill="#A1A1A1"/>
<path d="M3.76994 25.7766L3.80476 25.7697C6.99136 25.1376 8.93815 24.3035 9.84363 23.8455C11.1768 24.2011 12.5508 24.3802 13.9305 24.3783C21.6236 24.3783 27.861 18.9211 27.861 12.1892C27.861 5.45727 21.6236 0 13.9305 0C6.23737 0 0 5.45727 0 12.1892C0 15.2539 1.29379 18.0574 3.43038 20.1992C3.2809 21.575 2.97477 22.9292 2.51793 24.2356L2.51271 24.2547C2.38288 24.6289 2.24119 24.9988 2.08783 25.3639C1.95027 25.6878 2.21669 26.05 2.56321 25.9943C2.9666 25.9283 3.3689 25.8557 3.76994 25.7766ZM5.16298 20.3646C5.18738 20.1097 5.15524 19.8525 5.06885 19.6114C4.98247 19.3703 4.84397 19.1513 4.66323 18.9698C2.81744 17.1171 1.74131 14.7454 1.74131 12.1892C1.74131 6.63091 6.97221 1.74131 13.9305 1.74131C20.8888 1.74131 26.1197 6.63091 26.1197 12.1892C26.1197 17.7492 20.8888 22.637 13.9305 22.637C12.703 22.6388 11.4807 22.4796 10.2946 22.1634C9.88016 22.0523 9.43927 22.0982 9.05655 22.2923C8.38267 22.6336 6.89733 23.2848 4.46994 23.8472C4.80859 22.7104 5.0406 21.5445 5.16298 20.3646Z" fill="#A1A1A1"/>
</svg>
