<svg width="8" height="12" viewBox="0 0 8 12" fill="none" xmlns="http://www.w3.org/2000/svg">
<path d="M8 1V0H0V1H2.75C3.30185 1.00162 3.83378 1.20645 4.2442 1.57536C4.65462 1.94428 4.91478 2.45144 4.975 3H0V4H4.975C4.91478 4.54856 4.65462 5.05572 4.2442 5.42464C3.83378 5.79355 3.30185 5.99838 2.75 6H0V7.1725L4.8085 11.5L5.4775 10.757L1.303 7H2.75C3.56805 6.99881 4.35559 6.68936 4.95563 6.13334C5.55567 5.57732 5.92411 4.81559 5.9875 4H8V3H5.9875C5.93013 2.24922 5.61274 1.54195 5.09 1H8Z" fill="#727272"/>
</svg>
