<svg width="99" height="196" viewBox="0 0 99 196" fill="none" xmlns="http://www.w3.org/2000/svg">
<path d="M33.6494 192.713V186.693L23.0549 186.615L22.9651 195.719L23.6216 195.768C26.5449 195.958 38.4939 196.24 40.4566 195.62C42.6405 194.93 33.6494 192.713 33.6494 192.713Z" fill="#FF725E"/>
<path d="M40.7056 195.057C40.7056 195.156 36.7387 195.24 31.8527 195.24C26.9666 195.24 22.9998 195.156 22.9998 195.057C22.9998 194.959 26.9666 194.874 31.8527 194.874C36.7387 194.874 40.7056 194.959 40.7056 195.057Z" fill="#263238"/>
<path d="M33.8357 193.945C33.7459 193.895 33.8357 193.579 34.0499 193.241C34.2642 192.903 34.5544 192.762 34.6235 192.832C34.6927 192.903 34.5475 193.17 34.3402 193.459C34.1329 193.748 33.9255 193.994 33.8357 193.945Z" fill="#263238"/>
<path d="M34.5131 194.339C34.4163 194.339 34.4647 193.945 34.672 193.572C34.8794 193.198 35.1558 192.973 35.2318 193.029C35.3078 193.086 35.1834 193.403 34.9899 193.734C34.7964 194.064 34.6029 194.374 34.5131 194.339Z" fill="#263238"/>
<path d="M26.1922 195.029C26.1507 195.029 25.9918 194.902 25.7637 194.635C25.4853 194.291 25.1752 193.975 24.8377 193.691C24.5057 193.421 24.1103 193.244 23.6905 193.177C23.3656 193.135 23.1583 193.177 23.1376 193.135C23.1168 193.093 23.3173 192.945 23.6974 192.917C24.199 192.906 24.6883 193.076 25.0795 193.396C25.4461 193.7 25.7552 194.07 25.9918 194.487C26.1507 194.797 26.2337 195.001 26.1922 195.029Z" fill="#263238"/>
<path d="M33.8706 192.811C33.919 192.896 33.7393 193.107 33.4352 193.22C33.1312 193.332 32.8616 193.29 32.8478 193.22C32.834 193.149 33.0482 193.001 33.3109 192.903C33.5735 192.804 33.8153 192.727 33.8706 192.811Z" fill="#263238"/>
<path d="M33.7045 192.227C33.7045 192.332 33.4281 192.417 33.0687 192.424C32.7093 192.431 32.426 192.347 32.4329 192.248C32.4398 192.149 32.7232 192.058 33.0687 192.051C33.4143 192.044 33.6907 192.128 33.7045 192.227Z" fill="#263238"/>
<path d="M59.7381 192.713V186.693L49.1437 186.615L49.0538 195.628L49.7103 195.677C52.6337 195.867 64.5896 196.24 66.5454 195.62C68.7292 194.93 59.7381 192.713 59.7381 192.713Z" fill="#FF725E"/>
<path d="M66.7942 195.071C66.7942 195.17 62.8343 195.254 57.9413 195.254C53.0484 195.254 49.0953 195.17 49.0953 195.071C49.0953 194.973 53.0553 194.888 57.9413 194.888C62.8274 194.888 66.7942 194.973 66.7942 195.071Z" fill="#263238"/>
<path d="M59.9244 193.945C59.8415 193.895 59.9244 193.579 60.1387 193.241C60.3529 192.903 60.6432 192.762 60.7123 192.832C60.7814 192.903 60.6362 193.17 60.4289 193.459C60.2216 193.748 60.0143 193.994 59.9244 193.945Z" fill="#263238"/>
<path d="M60.6019 194.339C60.5121 194.339 60.5536 193.945 60.7678 193.572C60.982 193.198 61.2516 192.973 61.3276 193.029C61.4036 193.086 61.2723 193.403 61.0788 193.734C60.8853 194.064 60.6987 194.374 60.6019 194.339Z" fill="#263238"/>
<path d="M52.2809 195.029C52.2395 195.029 52.0874 194.902 51.8525 194.635C51.5741 194.291 51.264 193.975 50.9264 193.691C50.5944 193.421 50.199 193.244 49.7792 193.177C49.4613 193.135 49.247 193.177 49.2263 193.135C49.2056 193.093 49.406 192.945 49.7861 192.917C50.2877 192.906 50.7771 193.076 51.1683 193.396C51.5367 193.698 51.8462 194.068 52.0805 194.487C52.2395 194.797 52.3224 195.001 52.2809 195.029Z" fill="#263238"/>
<path d="M59.9594 192.811C60.0077 192.896 59.8281 193.107 59.524 193.22C59.2199 193.332 58.9504 193.29 58.9366 193.22C58.9227 193.149 59.137 193.001 59.3996 192.903C59.6622 192.804 59.9041 192.727 59.9594 192.811Z" fill="#263238"/>
<path d="M59.8074 192.227C59.8074 192.332 59.5309 192.417 59.1716 192.424C58.8122 192.431 58.5357 192.347 58.5427 192.248C58.5496 192.149 58.826 192.058 59.1716 192.051C59.5171 192.044 59.8074 192.128 59.8074 192.227Z" fill="#263238"/>
<path d="M98.7709 13.9512C98.4945 13.6625 97.8103 13.8033 97.8103 13.8033C97.8789 13.398 97.8789 12.9836 97.8103 12.5783C97.6859 12.184 96.8151 12.2614 96.8151 12.2614C96.775 11.9294 96.775 11.5937 96.8151 11.2617C96.822 11.1881 96.8065 11.1141 96.7707 11.0498C96.7348 10.9856 96.6803 10.9342 96.6147 10.9026C96.2027 10.7315 95.7602 10.6499 95.3154 10.6632C94.7833 10.276 96.9395 7.19923 97.7412 6.21355C98.5429 5.22786 98.3977 4.46044 97.6859 4.46044C97.1952 4.46044 94.6796 7.4175 93.9056 8.41023C93.1316 9.40296 91.079 12.1629 91.0099 9.95916C90.9408 7.75545 90.0701 6.09386 89.5241 5.81224C88.9781 5.53061 88.3976 6.19242 88.6948 6.80496C88.9559 7.50085 89.1187 8.23097 89.1785 8.97347C89.2536 9.56493 89.2279 10.1652 89.1025 10.7477C88.8734 11.8316 88.5615 12.8957 88.1695 13.9301H88.1143C88.1143 13.9301 73.0346 28.6661 71.9427 29.7152C70.9683 30.6586 51.3689 28.5957 47.4366 28.1733C46.1003 27.974 44.751 27.8799 43.4006 27.8916C41.6936 27.9691 41.3895 28.2155 39.6894 28.2366C35.396 28.2852 31.1125 28.6689 26.8766 29.3842C24.9585 29.7165 23.1669 30.579 21.6972 31.8776C20.2274 33.1763 19.136 34.8613 18.542 36.7487C14.582 49.3515 5.61166 79.1826 4.02906 95.9393C2.83316 98.1486 1.75354 100.421 0.79475 102.748C-0.317908 105.831 -0.0483825 105.937 0.324807 106.007C1.3338 106.197 2.48101 100.664 2.90949 102.001C3.33797 103.339 0.732554 108.598 1.78992 108.753C3.17211 108.95 4.27095 103.121 4.40225 102.656C4.53356 102.191 5.21774 102.339 5.09335 102.776C4.89293 103.395 2.95096 109.964 4.3055 110.175C5.05188 110.288 5.13481 108.901 5.13481 108.901C5.13481 108.901 6.517 102.614 7.14589 102.741C7.77478 102.867 7.10442 106.578 6.78652 107.817C6.46862 109.056 6.91091 109.683 7.56054 109.38C8.00284 109.169 9.06022 105.402 9.35048 104.177C9.64074 102.952 10.3664 99.5582 11.3408 101.522C12.3153 103.487 13.7942 104.627 14.4024 104.656C14.5394 104.639 14.6686 104.582 14.7733 104.49C14.8779 104.399 14.9533 104.278 14.9898 104.142C15.0262 104.006 15.022 103.863 14.9776 103.73C14.9333 103.597 14.8509 103.48 14.741 103.395C14.2179 102.875 13.7689 102.282 13.4072 101.635C13.0848 101.131 12.8509 100.573 12.7161 99.9876C12.4376 98.8197 12.2755 97.6261 12.2323 96.4251L12.1218 95.721C13.6698 87.9129 18.1273 64.9957 24.5614 50.3583L27.2014 55.8922L28.3486 59.9898L21.3133 77.6829L51.3205 77.2816L46.8422 59.7223L52.2811 41.4167C58.1623 41.5504 73.2627 41.7757 75.7783 40.614C78.9435 39.2059 95.3154 18.1404 95.3154 18.1404C96.3826 17.2955 97.4046 16.3931 98.377 15.4368C98.377 15.4368 99.3722 14.5849 98.7709 13.9512Z" fill="#FFBE9D"/>
<path d="M19.9934 64.6085C20.8642 61.581 25.3355 46.6126 25.3355 46.6126C25.3355 46.6126 27.5332 58.814 26.9527 60.2855C26.4187 61.5453 25.7878 62.76 25.066 63.9185C19.9934 71.7829 20.6569 75.7186 20.6569 75.7186L51.3068 74.7681C51.3759 70.4029 48.8396 60.2503 48.3144 58.631C47.7891 57.0116 49.5376 51.7101 49.5376 51.7101C49.5376 51.7101 52.9931 48.1264 52.8687 46.2817C52.803 44.6248 52.6019 42.9762 52.2674 41.3533L70.9269 42.0574L70.3395 29.173L43.5389 26.4413C42.6059 29.1237 34.1677 27.8071 34.1677 27.8071C25.0591 28.1169 24.4924 29.8208 20.7052 32.8201C16.918 35.8194 10.6498 61.5599 10.6498 61.5599L19.9934 64.6085Z" fill="#FF725E"/>
<path d="M38.1139 61.5599C37.5828 61.6566 37.0418 61.685 36.5037 61.6444C35.5016 61.6444 34.1263 61.574 32.6128 61.4191C31.0993 61.2642 29.731 61.046 28.7566 60.8488C28.2193 60.7783 27.6924 60.6412 27.1878 60.4405C27.7281 60.4407 28.2672 60.4925 28.798 60.5954C29.7794 60.7221 31.1408 60.8981 32.6474 61.053C34.154 61.2079 35.5223 61.3135 36.5106 61.3839C37.0493 61.3909 37.5862 61.4498 38.1139 61.5599Z" fill="#263238"/>
<path d="M40.2146 58.9056C39.6832 59.1708 39.1214 59.3671 38.5421 59.49C35.7849 60.2281 32.9403 60.5717 30.0901 60.5109C29.5003 60.5305 28.9105 60.4737 28.3347 60.3419C28.9168 60.267 29.5035 60.2364 30.0901 60.2504C31.1751 60.2152 32.6679 60.1377 34.3127 59.9406C35.9575 59.7435 37.4226 59.4618 38.4592 59.2365C39.035 59.0799 39.6219 58.9692 40.2146 58.9056Z" fill="#263238"/>
<path d="M50.5255 47.0633C50.5115 47.6 50.4397 48.1336 50.3113 48.6544C50.1316 49.6331 49.8551 50.9708 49.5027 52.4353C49.1502 53.8997 48.8116 55.2515 48.5075 56.1668C48.3852 56.6907 48.2044 57.1986 47.9684 57.6805C48.007 57.1454 48.1043 56.6164 48.2587 56.1034C48.5213 55.0051 48.8185 53.7378 49.1502 52.3508C49.4819 50.9638 49.7998 49.6964 50.0625 48.5981C50.156 48.0695 50.3115 47.5542 50.5255 47.0633Z" fill="#263238"/>
<path d="M20.3179 62.8132C18.7191 62.5616 17.1413 62.1874 15.5978 61.6937C14.0206 61.318 12.473 60.8238 10.9675 60.2152C12.5655 60.4708 14.1431 60.8449 15.6876 61.3346C17.2651 61.709 18.8129 62.2032 20.3179 62.8132Z" fill="#263238"/>
<path d="M52.5988 41.1984C52.3381 41.2441 52.0717 41.2441 51.811 41.1984C51.0891 41.123 50.3803 40.9502 49.7032 40.6845C48.5726 40.2517 47.5434 39.5827 46.6817 38.7206C45.82 37.8585 45.1449 36.8223 44.6996 35.6786C44.2075 34.4204 43.9974 33.0662 44.0846 31.7147C44.1154 30.6 44.4426 29.5147 45.0314 28.5746C45.4455 27.9413 46.064 27.4755 46.7798 27.258C46.9711 27.2042 47.1689 27.1781 47.3673 27.1805C47.5055 27.1805 47.5746 27.1805 47.5746 27.1805C47.5746 27.1805 47.2843 27.1805 46.8213 27.3706C46.1646 27.6178 45.6077 28.0811 45.2387 28.6872C44.2988 30.1939 44.0362 32.9468 45.0383 35.5166C45.5047 36.7283 46.2348 37.8164 47.1738 38.699C47.9431 39.4212 48.8292 40.0024 49.793 40.4169C50.6974 40.7811 51.6383 41.0431 52.5988 41.1984Z" fill="#263238"/>
<path d="M68.7082 41.8039C68.5353 39.6449 68.4799 37.4777 68.5423 35.3124C68.4882 33.149 68.5528 30.9841 68.7358 28.828C68.9088 30.9847 68.9642 33.1495 68.9017 35.3124C68.9598 37.4782 68.8952 39.6457 68.7082 41.8039Z" fill="#263238"/>
<path d="M43.3591 27.2299C43.4351 25.6598 43.594 23.8856 43.594 23.8856C43.594 23.8856 47.4089 23.4561 47.6369 19.4429C47.865 15.4298 47.6369 6.17135 47.6369 6.17135L40.726 2.56655L33.0549 8.71302L34.2367 28.7788L41.272 29.2364C41.8097 29.2516 42.3315 29.0489 42.7227 28.6727C43.114 28.2966 43.3428 27.7777 43.3591 27.2299Z" fill="#FFBE9D"/>
<path d="M44.0434 16.2676C44.0434 16.2676 44.0434 16.3451 43.9812 16.4366C43.9298 16.503 43.8633 16.5556 43.7874 16.59C43.7116 16.6243 43.6287 16.6393 43.5458 16.6337C43.1035 16.6337 42.6751 16.1127 42.523 15.5072C42.4508 15.2137 42.4508 14.9066 42.523 14.6131C42.5372 14.485 42.5826 14.3625 42.655 14.2567C42.7274 14.151 42.8246 14.0654 42.9377 14.0076C43.0306 13.9685 43.135 13.9685 43.2279 14.0076C43.2968 14.0424 43.3527 14.0993 43.3869 14.1695C43.4353 14.2892 43.3869 14.3666 43.3869 14.3596C43.3869 14.3526 43.3869 14.2892 43.3178 14.2188C43.2817 14.1684 43.2285 14.1333 43.1686 14.1203C43.1087 14.1073 43.0461 14.1173 42.993 14.1484C42.9082 14.2006 42.8378 14.2738 42.7882 14.3612C42.7387 14.4486 42.7116 14.5474 42.7096 14.6483C42.6514 14.9101 42.6514 15.182 42.7096 15.4439C42.8478 15.993 43.221 16.4366 43.5527 16.4788C43.6176 16.4878 43.6837 16.483 43.7467 16.4649C43.8097 16.4467 43.8684 16.4155 43.919 16.3732C44.002 16.3169 44.0296 16.2606 44.0434 16.2676Z" fill="#EB996E"/>
<path d="M50.0075 4.0028C49.4753 2.15816 47.5472 1.24287 45.7918 0.73595C43.1173 -0.038519 40.2285 -0.376471 37.6162 0.602176C35.0039 1.58082 31.8663 3.29874 31.8663 6.23468C30.3252 6.10794 29.4406 7.48087 28.8324 9.1847C28.4436 10.2227 28.2106 11.3146 28.1413 12.4234C27.9478 16.2676 26.8904 21.5762 24.444 24.3925C23.0618 25.9625 21.1475 27.0468 20.3596 29.0041C19.6685 30.7009 20.0279 32.7145 19.3852 34.4324C18.8116 35.9461 17.5469 37.0233 16.6208 38.3399C15.6773 39.8335 15.1221 41.5469 15.0073 43.3192C14.8924 45.0915 15.2217 46.8644 15.9643 48.4714C16.7121 50.0372 17.7651 51.4314 19.059 52.5692C20.3529 53.707 21.8606 54.5646 23.4903 55.0896C26.7184 56.0901 30.1608 56.1243 33.4074 55.1881C35.8441 54.5946 38.1171 53.4464 40.0557 51.8298C42.0394 50.1795 43.4019 47.8811 43.912 45.3242C44.4027 42.4517 43.6149 39.5298 43.0274 36.6713C41.1891 27.6382 41.7144 27.1665 44.0364 18.7811C44.0917 18.6332 44.1194 18.4783 44.1608 18.3305C44.2023 18.1826 44.223 18.1122 44.2507 17.9996C44.3166 17.6681 44.3514 17.331 44.3543 16.9928C44.0152 17.1212 43.6471 17.1484 43.2933 17.0711C42.9394 16.9938 42.6147 16.8152 42.3571 16.5562C42.0989 16.2802 41.9189 15.9381 41.8362 15.5662C41.7534 15.1943 41.771 14.8065 41.8871 14.444C42.0502 14.0476 42.2932 13.6904 42.6003 13.3957C42.9075 13.101 43.2719 12.8753 43.6702 12.7332C44.4373 12.4093 45.2597 12.2403 46.013 11.8813C47.6094 11.1068 48.7151 9.50153 49.4684 7.81882C50.0878 6.65256 50.2789 5.29964 50.0075 4.0028Z" fill="#263238"/>
<path d="M44.3197 16.4577C44.4657 16.6775 44.5863 16.9137 44.679 17.1617C44.8864 17.6053 45.1628 18.2319 45.4669 18.9571L45.5222 19.0909H45.377L44.686 19.1542C44.2091 19.1542 43.8083 19.2458 43.3383 19.2387C43.2974 19.2294 43.2595 19.2096 43.2281 19.1813C43.1966 19.153 43.1728 19.117 43.1586 19.0768C43.1381 19.0128 43.1381 18.9437 43.1586 18.8797C43.1746 18.7848 43.1954 18.6908 43.2208 18.598L43.3452 18.0981C43.4077 17.7647 43.5051 17.439 43.6355 17.1265C43.6226 17.4665 43.574 17.804 43.4904 18.1334L43.3936 18.6332C43.3591 18.8022 43.2969 19.0627 43.3936 19.0416C43.7392 19.0416 44.2298 18.9641 44.686 18.936L45.377 18.8726L45.2872 19.0275C44.99 18.3234 44.7412 17.6616 44.5961 17.204C44.4688 16.9702 44.3757 16.7188 44.3197 16.4577Z" fill="#FF725E"/>
<path d="M20.6566 75.7186L51.3066 74.7681L64.6446 127.812L62.1913 188.657H45.9852L47.9686 129.108L36.1164 92.1796L37.9408 191.016L21.562 191.262L19.8411 98.3612C19.7651 95.7773 18.9358 89.9547 19.2468 87.392L20.6566 75.7186Z" fill="#263238"/>
<path d="M40.1942 92.9329C39.6925 92.9651 39.1888 92.9344 38.6945 92.8414C37.7684 92.7288 36.5037 92.5316 35.1146 92.25C33.7256 91.9684 32.4816 91.6445 31.5832 91.384C31.1029 91.2765 30.6383 91.1061 30.201 90.8771C30.201 90.7715 32.4539 91.3206 35.2183 91.8909C37.9827 92.4612 40.208 92.8273 40.1942 92.9329Z" fill="#455A64"/>
<path d="M62.0253 185.32C62.0253 185.419 58.3556 185.503 53.829 185.503C49.3023 185.503 45.6257 185.419 45.6257 185.32C45.6257 185.221 49.2954 185.137 53.829 185.137C58.3625 185.137 62.0253 185.214 62.0253 185.32Z" fill="#455A64"/>
<path d="M37.7956 188.446C37.7956 188.552 34.2295 188.629 29.8342 188.629C25.4389 188.629 21.8797 188.552 21.8797 188.446C21.8797 188.34 25.4458 188.263 29.8342 188.263C34.2226 188.263 37.7956 188.347 37.7956 188.446Z" fill="#455A64"/>
<path d="M35.6809 188.193C35.5842 188.193 35.1557 166.599 34.7203 139.964C34.2849 113.33 34.0292 91.7219 34.119 91.7219C34.2089 91.7219 34.6512 113.308 35.0797 139.957C35.5081 166.606 35.7846 188.193 35.6809 188.193Z" fill="#455A64"/>
<path d="M59.8488 185.32C59.8412 185.224 59.8412 185.127 59.8488 185.031V184.187C59.8488 183.426 59.9041 182.335 59.9455 180.948C60.0423 178.132 60.1805 174.041 60.3533 169.028C60.7265 158.946 61.2517 145.048 61.8253 129.706C61.8253 129.558 61.8253 129.417 61.8253 129.291V129.34C58.1971 114.555 54.9144 101.135 52.5301 91.4263L49.7658 79.943C49.4479 78.5982 49.206 77.5492 49.0332 76.817C48.9503 76.472 48.895 76.2044 48.8466 76.0003C48.8197 75.9086 48.8034 75.8141 48.7982 75.7186C48.8341 75.8074 48.8619 75.8993 48.8812 75.9932C48.9364 76.1903 49.0055 76.4579 49.1023 76.7958C49.2889 77.4999 49.5584 78.5701 49.904 79.9078C50.5951 82.6255 51.5695 86.5401 52.7858 91.3629C55.1908 101.065 58.5081 114.449 62.1847 129.256V129.305C62.1847 129.432 62.1847 129.579 62.1847 129.72C61.5696 145.062 61.0098 158.953 60.6021 169.035C60.3878 174.055 60.2082 178.117 60.0838 180.948C60.0146 182.356 59.9594 183.426 59.9248 184.187C59.9248 184.546 59.8833 184.827 59.8764 185.031C59.8775 185.128 59.8682 185.225 59.8488 185.32Z" fill="#455A64"/>
<path d="M54.5618 128.052C53.3978 128.441 52.1986 128.713 50.982 128.861C49.4892 129.122 48.2176 129.305 47.644 129.333V129.192C47.8306 129.248 47.9274 129.284 47.9274 129.312C47.9274 129.34 47.8099 129.312 47.6164 129.312H47.2017L47.6164 129.185C48.1554 129.023 49.427 128.756 50.9198 128.481C52.117 128.216 53.3369 128.073 54.5618 128.052Z" fill="#455A64"/>
<path d="M54.2785 130.072C53.2005 130.123 52.1203 130.073 51.0511 129.924C49.9715 129.902 48.8961 129.782 47.8375 129.565C49.9973 129.386 52.1714 129.557 54.2785 130.072Z" fill="#455A64"/>
<path opacity="0.2" d="M20.5256 76.8381C20.8886 77.3129 21.3458 77.7045 21.8674 77.9871C22.3889 78.2698 22.9632 78.4372 23.5526 78.4785C24.787 78.6275 26.0356 78.6038 27.2637 78.4081C35.1767 77.5139 43.5597 76.6902 51.3068 74.7681C41.2791 75.3384 30.6846 75.1483 20.6569 75.7186L20.5532 76.5916" fill="black"/>
<g opacity="0.2">
<path d="M30.8573 91.2361L36.5104 113.583L36.1165 92.1796L30.8573 91.2361Z" fill="black"/>
</g>
</svg>
