<svg width="3" height="3" viewBox="0 0 3 3" fill="none" xmlns="http://www.w3.org/2000/svg">
<path d="M2.94077 1.60976C2.91968 1.90265 2.81466 2.18279 2.63873 2.41544C2.4628 2.64809 2.2237 2.823 1.95109 2.91849C1.67848 3.01398 1.38435 3.02584 1.10519 2.9526C0.826021 2.87936 0.574097 2.72426 0.380665 2.5065C0.187234 2.28875 0.0608087 2.01792 0.0170579 1.72764C-0.0266929 1.43736 0.0141551 1.14038 0.134549 0.873539C0.254942 0.606694 0.449586 0.38173 0.694323 0.226539C0.93906 0.0713477 1.22312 -0.00724197 1.51129 0.000524788C1.90949 0.0231291 2.28288 0.204768 2.55049 0.506018C2.81809 0.807268 2.95832 1.20385 2.94077 1.60976Z" fill="#FF725E"/>
</svg>
