<svg width="24" height="22" viewBox="0 0 24 22" fill="none" xmlns="http://www.w3.org/2000/svg">
<path d="M7.367 10.3139C7.367 10.7046 7.21176 11.0794 6.93544 11.3557C6.65913 11.6321 6.28436 11.7873 5.89358 11.7873C5.50281 11.7873 5.12804 11.6321 4.85172 11.3557C4.5754 11.0794 4.42017 10.7046 4.42017 10.3139C4.42017 9.9231 4.5754 9.54833 4.85172 9.27201C5.12804 8.99569 5.50281 8.84045 5.89358 8.84045C6.28436 8.84045 6.65913 8.99569 6.93544 9.27201C7.21176 9.54833 7.367 9.9231 7.367 10.3139ZM13.2607 10.3139C13.2607 10.7046 13.1054 11.0794 12.8291 11.3557C12.5528 11.6321 12.178 11.7873 11.7872 11.7873C11.3965 11.7873 11.0217 11.6321 10.7454 11.3557C10.4691 11.0794 10.3138 10.7046 10.3138 10.3139C10.3138 9.9231 10.4691 9.54833 10.7454 9.27201C11.0217 8.99569 11.3965 8.84045 11.7872 8.84045C12.178 8.84045 12.5528 8.99569 12.8291 9.27201C13.1054 9.54833 13.2607 9.9231 13.2607 10.3139ZM17.6809 11.7873C18.0717 11.7873 18.4465 11.6321 18.7228 11.3557C18.9991 11.0794 19.1543 10.7046 19.1543 10.3139C19.1543 9.9231 18.9991 9.54833 18.7228 9.27201C18.4465 8.99569 18.0717 8.84045 17.6809 8.84045C17.2901 8.84045 16.9154 8.99569 16.6391 9.27201C16.3627 9.54833 16.2075 9.9231 16.2075 10.3139C16.2075 10.7046 16.3627 11.0794 16.6391 11.3557C16.9154 11.6321 17.2901 11.7873 17.6809 11.7873Z" fill="#157B11"/>
<path d="M3.18995 21.811L3.21941 21.8051C5.91577 21.2702 7.56305 20.5645 8.32922 20.177C9.45725 20.4778 10.6199 20.6294 11.7873 20.6278C18.2969 20.6278 23.5747 16.0101 23.5747 10.3139C23.5747 4.61769 18.2969 0 11.7873 0C5.27778 0 0 4.61769 0 10.3139C0 12.9071 1.09475 15.2793 2.90263 17.0916C2.77615 18.2558 2.51711 19.4017 2.13056 20.507L2.12614 20.5232C2.01629 20.8398 1.89639 21.1528 1.76663 21.4618C1.65023 21.7358 1.87566 22.0423 2.16887 21.9952C2.5102 21.9393 2.85061 21.8779 3.18995 21.811ZM4.36868 17.2316C4.38932 17.0159 4.36212 16.7983 4.28903 16.5943C4.21594 16.3903 4.09875 16.2049 3.94581 16.0514C2.38399 14.4837 1.47342 12.4769 1.47342 10.3139C1.47342 5.61077 5.89956 1.47342 11.7873 1.47342C17.6751 1.47342 22.1012 5.61077 22.1012 10.3139C22.1012 15.0185 17.6751 19.1544 11.7873 19.1544C10.7487 19.1559 9.7144 19.0212 8.71084 18.7536C8.36013 18.6597 7.98708 18.6985 7.66324 18.8627C7.09303 19.1515 5.8362 19.7025 3.78226 20.1784C4.06881 19.2165 4.26513 18.23 4.36868 17.2316Z" fill="#157B11"/>
</svg>
