<svg width="110" height="30" viewBox="0 0 110 30" fill="none" xmlns="http://www.w3.org/2000/svg">
<g filter="url(#filter0_d_1_10177)">
<rect x="52" width="58" height="30" rx="10" fill="white"/>
</g>
<path d="M75.7042 10.3825C75.3881 8.29643 76.8601 6.41945 79.1088 5.73072C79.5081 5.60852 79.939 5.64324 80.3135 5.82782C80.688 6.01239 80.9781 6.3329 81.1244 6.72398L81.8455 8.64909C81.9614 8.95875 81.9822 9.296 81.9052 9.61756C81.8281 9.93912 81.6568 10.2303 81.4132 10.4539L79.2681 12.4213C79.1624 12.5185 79.0835 12.6414 79.0393 12.7781C78.9951 12.9148 78.9871 13.0606 79.0159 13.2013L79.035 13.2876L79.0881 13.5042C79.1354 13.6867 79.2067 13.944 79.3071 14.251C79.5063 14.8609 79.8241 15.6807 80.2971 16.4997C80.7701 17.3187 81.321 18.0041 81.7492 18.4812C81.9722 18.7297 82.2053 18.9689 82.4479 19.1982L82.5143 19.2596C82.6216 19.3546 82.7516 19.4202 82.8918 19.45C83.032 19.4798 83.1775 19.4728 83.3142 19.4297L86.0907 18.5559C86.4061 18.4568 86.744 18.4541 87.061 18.5483C87.378 18.6425 87.6596 18.8292 87.8697 19.0845L89.1833 20.6794C89.7309 21.3432 89.6662 22.319 89.0364 22.9057C87.3154 24.5097 84.9489 24.8391 83.3026 23.5147C81.2847 21.8872 79.5835 19.9022 78.284 17.6589C76.9738 15.4171 76.0986 12.949 75.7042 10.3825ZM80.7543 13.31L82.535 11.677C83.0223 11.2299 83.365 10.6475 83.5191 10.0043C83.6731 9.36122 83.6315 8.68674 83.3997 8.0674L82.6777 6.1423C82.3832 5.35576 81.7998 4.71116 81.0465 4.33988C80.2932 3.96861 79.4266 3.89861 78.6234 4.14417C75.8312 4.99968 73.5891 7.50315 74.0637 10.6306C74.4894 13.4038 75.4345 16.0717 76.8493 18.4945C78.2509 20.9136 80.0857 23.0542 82.262 24.8092C84.7306 26.7924 88.0282 26.1161 90.1682 24.1205C90.7806 23.5498 91.1521 22.767 91.2072 21.9317C91.2622 21.0965 90.9966 20.2717 90.4645 19.6255L89.1509 18.0307C88.7306 17.5199 88.1672 17.1463 87.5331 16.958C86.8989 16.7696 86.223 16.775 85.592 16.9735L83.2876 17.6988C83.1845 17.5927 83.0835 17.4845 82.9848 17.3743C82.5112 16.8504 82.0922 16.2796 81.7343 15.6708C81.3858 15.0563 81.1009 14.4079 80.8837 13.7357C80.8377 13.595 80.7945 13.4533 80.7543 13.3108" fill="#157B11"/>
<path d="M7.367 14.1889C7.367 14.5797 7.21176 14.9544 6.93544 15.2307C6.65913 15.5071 6.28436 15.6623 5.89358 15.6623C5.50281 15.6623 5.12804 15.5071 4.85172 15.2307C4.5754 14.9544 4.42017 14.5797 4.42017 14.1889C4.42017 13.7981 4.5754 13.4233 4.85172 13.147C5.12804 12.8707 5.50281 12.7155 5.89358 12.7155C6.28436 12.7155 6.65913 12.8707 6.93544 13.147C7.21176 13.4233 7.367 13.7981 7.367 14.1889ZM13.2607 14.1889C13.2607 14.5797 13.1054 14.9544 12.8291 15.2307C12.5528 15.5071 12.178 15.6623 11.7872 15.6623C11.3965 15.6623 11.0217 15.5071 10.7454 15.2307C10.4691 14.9544 10.3138 14.5797 10.3138 14.1889C10.3138 13.7981 10.4691 13.4233 10.7454 13.147C11.0217 12.8707 11.3965 12.7155 11.7872 12.7155C12.178 12.7155 12.5528 12.8707 12.8291 13.147C13.1054 13.4233 13.2607 13.7981 13.2607 14.1889ZM17.6809 15.6623C18.0717 15.6623 18.4465 15.5071 18.7228 15.2307C18.9991 14.9544 19.1543 14.5797 19.1543 14.1889C19.1543 13.7981 18.9991 13.4233 18.7228 13.147C18.4465 12.8707 18.0717 12.7155 17.6809 12.7155C17.2901 12.7155 16.9154 12.8707 16.6391 13.147C16.3627 13.4233 16.2075 13.7981 16.2075 14.1889C16.2075 14.5797 16.3627 14.9544 16.6391 15.2307C16.9154 15.5071 17.2901 15.6623 17.6809 15.6623Z" fill="#157B11"/>
<path d="M3.18995 25.686L3.21941 25.6801C5.91577 25.1452 7.56305 24.4395 8.32922 24.052C9.45725 24.3528 10.6199 24.5044 11.7873 24.5028C18.2969 24.5028 23.5747 19.8851 23.5747 14.1889C23.5747 8.49269 18.2969 3.875 11.7873 3.875C5.27778 3.875 0 8.49269 0 14.1889C0 16.7821 1.09475 19.1543 2.90263 20.9666C2.77615 22.1308 2.51711 23.2767 2.13056 24.382L2.12614 24.3982C2.01629 24.7148 1.89639 25.0278 1.76663 25.3368C1.65023 25.6108 1.87566 25.9173 2.16887 25.8702C2.5102 25.8143 2.85061 25.7529 3.18995 25.686ZM4.36868 21.1066C4.38932 20.8909 4.36212 20.6733 4.28903 20.4693C4.21594 20.2653 4.09875 20.0799 3.94581 19.9264C2.38399 18.3587 1.47342 16.3519 1.47342 14.1889C1.47342 9.48577 5.89956 5.34842 11.7873 5.34842C17.6751 5.34842 22.1012 9.48577 22.1012 14.1889C22.1012 18.8935 17.6751 23.0294 11.7873 23.0294C10.7487 23.0309 9.7144 22.8962 8.71084 22.6286C8.36013 22.5347 7.98708 22.5735 7.66324 22.7377C7.09303 23.0265 5.8362 23.5775 3.78226 24.0534C4.06881 23.0915 4.26513 22.105 4.36868 21.1066Z" fill="#157B11"/>
<defs>
<filter id="filter0_d_1_10177" x="45" y="-7" width="74" height="46" filterUnits="userSpaceOnUse" color-interpolation-filters="sRGB">
<feFlood flood-opacity="0" result="BackgroundImageFix"/>
<feColorMatrix in="SourceAlpha" type="matrix" values="0 0 0 0 0 0 0 0 0 0 0 0 0 0 0 0 0 0 127 0" result="hardAlpha"/>
<feOffset dx="1" dy="1"/>
<feGaussianBlur stdDeviation="4"/>
<feComposite in2="hardAlpha" operator="out"/>
<feColorMatrix type="matrix" values="0 0 0 0 0 0 0 0 0 0 0 0 0 0 0 0 0 0 0.15 0"/>
<feBlend mode="normal" in2="BackgroundImageFix" result="effect1_dropShadow_1_10177"/>
<feBlend mode="normal" in="SourceGraphic" in2="effect1_dropShadow_1_10177" result="shape"/>
</filter>
</defs>
</svg>
