<svg width="18" height="20" viewBox="0 0 18 20" fill="none" xmlns="http://www.w3.org/2000/svg">
<path d="M5 13V11H2V2H16V11H13V13H16C16.5304 13 17.0391 12.7893 17.4142 12.4142C17.7893 12.0391 18 11.5304 18 11V2C18 1.46956 17.7893 0.960854 17.4142 0.585781C17.0391 0.210709 16.5304 -3.8147e-06 16 -3.8147e-06H2C1.46957 -3.8147e-06 0.960859 0.210709 0.585786 0.585781C0.210714 0.960854 0 1.46956 0 2V11C0 11.5304 0.210714 12.0391 0.585786 12.4142C0.960859 12.7893 1.46957 13 2 13H5ZM9.884 19.531L13.243 16.173C13.4306 15.9854 13.5361 15.7309 13.5361 15.4655C13.5361 15.2001 13.4306 14.9456 13.243 14.758C13.0554 14.5704 12.8009 14.4649 12.5355 14.4649C12.2701 14.4649 12.0156 14.5704 11.828 14.758L10 16.587V7C10 6.73478 9.89464 6.48042 9.70711 6.29289C9.51957 6.10535 9.26522 6 9 6C8.73478 6 8.48043 6.10535 8.29289 6.29289C8.10536 6.48042 8 6.73478 8 7V16.587L6.172 14.758C6.07909 14.6651 5.96879 14.5914 5.8474 14.5411C5.726 14.4908 5.5959 14.4649 5.4645 14.4649C5.33311 14.4649 5.203 14.4908 5.0816 14.5411C4.96021 14.5914 4.84991 14.6651 4.757 14.758C4.66409 14.8509 4.59039 14.9612 4.54011 15.0826C4.48982 15.204 4.46394 15.3341 4.46394 15.4655C4.46394 15.5969 4.48982 15.727 4.54011 15.8484C4.59039 15.9698 4.66409 16.0801 4.757 16.173L8.117 19.531C8.35139 19.7652 8.66917 19.8967 9.0005 19.8967C9.33183 19.8967 9.64961 19.7652 9.884 19.531Z" fill="#E73035"/>
</svg>
