<svg width="25" height="25" viewBox="0 0 25 25" fill="none" xmlns="http://www.w3.org/2000/svg">
<path d="M20.3125 3.125H17.9688V2.34375C17.9688 2.13655 17.8864 1.93784 17.7399 1.79132C17.5934 1.64481 17.3947 1.5625 17.1875 1.5625C16.9803 1.5625 16.7816 1.64481 16.6351 1.79132C16.4886 1.93784 16.4062 2.13655 16.4062 2.34375V3.125H8.59375V2.34375C8.59375 2.13655 8.51144 1.93784 8.36493 1.79132C8.21841 1.64481 8.0197 1.5625 7.8125 1.5625C7.6053 1.5625 7.40659 1.64481 7.26007 1.79132C7.11356 1.93784 7.03125 2.13655 7.03125 2.34375V3.125H4.6875C4.2731 3.125 3.87567 3.28962 3.58265 3.58265C3.28962 3.87567 3.125 4.2731 3.125 4.6875V20.3125C3.125 20.7269 3.28962 21.1243 3.58265 21.4174C3.87567 21.7104 4.2731 21.875 4.6875 21.875H20.3125C20.7269 21.875 21.1243 21.7104 21.4174 21.4174C21.7104 21.1243 21.875 20.7269 21.875 20.3125V4.6875C21.875 4.2731 21.7104 3.87567 21.4174 3.58265C21.1243 3.28962 20.7269 3.125 20.3125 3.125ZM7.03125 4.6875V5.46875C7.03125 5.67595 7.11356 5.87466 7.26007 6.02118C7.40659 6.16769 7.6053 6.25 7.8125 6.25C8.0197 6.25 8.21841 6.16769 8.36493 6.02118C8.51144 5.87466 8.59375 5.67595 8.59375 5.46875V4.6875H16.4062V5.46875C16.4062 5.67595 16.4886 5.87466 16.6351 6.02118C16.7816 6.16769 16.9803 6.25 17.1875 6.25C17.3947 6.25 17.5934 6.16769 17.7399 6.02118C17.8864 5.87466 17.9688 5.67595 17.9688 5.46875V4.6875H20.3125V7.8125H4.6875V4.6875H7.03125ZM20.3125 20.3125H4.6875V9.375H20.3125V20.3125Z" fill="white"/>
<path d="M10.7911 15.4957L10.8265 15.2885L10.6761 15.1418L9.19254 13.6949L11.2429 13.3969L11.4509 13.3667L11.544 13.1782L12.4614 11.3202L13.3788 13.1782L13.4718 13.3667L13.6799 13.3969L15.73 13.6949L14.2457 15.1417L14.0951 15.2885L14.1307 15.4958L14.481 17.5366L12.6475 16.573L12.4614 16.4752L12.2753 16.573L10.4414 17.5368L10.7911 15.4957Z" fill="white" stroke="white" stroke-width="0.8"/>
</svg>
