<svg width="3" height="4" viewBox="0 0 3 4" fill="none" xmlns="http://www.w3.org/2000/svg">
<path d="M2.9961 1.63443C3.01043 1.84355 2.98236 2.05341 2.91366 2.25101C2.84495 2.44861 2.73708 2.62969 2.59674 2.78299C2.4564 2.9363 2.2866 3.05854 2.0979 3.14212C1.9092 3.22571 1.70563 3.26884 1.49987 3.26884C1.2941 3.26884 1.09054 3.22571 0.901836 3.14212C0.713135 3.05854 0.543335 2.9363 0.402994 2.78299C0.262654 2.62969 0.154779 2.44861 0.0860756 2.25101C0.0173717 2.05341 -0.0106868 1.84355 0.00364076 1.63443C-0.0106868 1.42532 0.0173717 1.21543 0.0860756 1.01783C0.154779 0.820238 0.262654 0.639152 0.402994 0.48585C0.543335 0.332548 0.713135 0.210302 0.901836 0.12672C1.09054 0.0431377 1.2941 0 1.49987 0C1.70563 0 1.9092 0.0431377 2.0979 0.12672C2.2866 0.210302 2.4564 0.332548 2.59674 0.48585C2.73708 0.639152 2.84495 0.820238 2.91366 1.01783C2.98236 1.21543 3.01043 1.42532 2.9961 1.63443Z" fill="#FF725E"/>
</svg>
