<svg width="19" height="26" viewBox="0 0 19 26" fill="none" xmlns="http://www.w3.org/2000/svg">
<path d="M4.33441 26C4.01002 25.7143 3.9971 25.5579 4.27252 25.2139C4.69008 24.6926 5.10763 24.1712 5.5211 23.6546C4.96142 23.1596 4.38677 22.706 3.87809 22.188C3.27964 21.5786 2.71044 20.9361 2.17931 20.2678C1.03954 18.8344 0.971533 17.3056 1.81412 15.6934C2.42277 14.5282 3.18647 13.4801 4.0515 12.4969C4.12427 12.4143 4.1984 12.3331 4.27116 12.2498C4.28136 12.2376 4.28612 12.22 4.36433 12.1347C4.24736 12.0514 4.12903 11.9688 4.01342 11.8842C3.7346 11.6804 3.61763 11.4068 3.67339 11.0663C3.70672 10.8624 3.62103 10.7738 3.42517 10.7067C2.4867 10.3851 1.52442 10.1976 0.533577 10.1617C0.31664 10.1535 0.124864 10.1224 0.0316961 9.89693C-0.0580713 9.67958 0.0575388 9.52724 0.19491 9.37693C0.879046 8.62536 1.64547 7.99432 2.66623 7.7587C2.96138 7.69031 3.26808 7.67474 3.58431 7.63276C3.49454 7.33281 3.39661 7.02068 3.30888 6.70516C3.19668 6.30297 3.36941 6.0775 3.7924 6.10052C4.10455 6.11745 4.41465 6.175 4.72612 6.2163C4.79889 6.22578 4.87097 6.24271 4.89069 6.24609C5.14027 5.57036 5.33341 4.90141 5.62787 4.28052C6.4453 2.55667 7.76189 1.2675 9.33486 0.218698C9.43891 0.149635 9.53819 0.073125 9.6402 0C9.74221 0 9.84422 0 9.94623 0C10.3991 0.324323 10.8697 0.627656 11.3016 0.977709C12.4094 1.8762 13.2839 2.96833 13.9368 4.23516C13.9633 4.28729 13.996 4.33604 14.0334 4.40036C14.3244 4.30151 14.61 4.20063 14.8984 4.10922C15.2704 3.99073 15.4894 4.15052 15.5091 4.53984C15.5424 5.22302 15.4513 5.88927 15.2384 6.53995C15.2187 6.60021 15.2051 6.66318 15.1833 6.74646C16.0531 6.6212 16.8726 6.71464 17.6281 7.1175C17.9688 7.29896 18.2851 7.53661 18.5809 7.78578C18.6883 7.87651 18.7557 8.07828 18.7482 8.22453C18.738 8.41682 18.5619 8.50417 18.368 8.53734C17.3275 8.71813 16.3558 9.07901 15.4608 9.63964C15.4268 9.6613 15.3942 9.68568 15.3826 9.69313C15.5308 9.76625 15.7274 9.80417 15.8165 9.92266C15.9056 10.0405 15.9056 10.2382 15.911 10.402C15.9226 10.7399 15.9906 11.1042 15.8892 11.4102C15.7906 11.7088 15.5098 11.9471 15.318 12.2004C15.8063 12.8213 16.3224 13.4388 16.7944 14.0874C17.4194 14.9466 17.9362 15.8654 18.2259 16.8993C18.4585 17.7294 18.3769 18.5209 17.9974 19.2894C17.4527 20.3924 16.6489 21.297 15.7689 22.1372C15.2241 22.6572 14.6454 23.142 14.0674 23.6559C14.4795 24.1705 14.8977 24.6919 15.3153 25.2126C15.59 25.5558 15.5771 25.7136 15.252 26C11.611 26 7.97271 26 4.33441 26ZM15.0528 10.5808C11.5437 10.5808 8.02235 10.5808 4.51598 10.5808C4.40853 10.9979 4.51666 11.3127 4.84717 11.5761C5.00698 11.7034 5.14095 11.7928 5.35721 11.7867C5.98558 11.7711 6.61531 11.7799 7.24369 11.7812C7.56535 11.7819 7.75101 11.9349 7.74965 12.1889C7.74829 12.4414 7.56059 12.5917 7.23892 12.5924C6.58471 12.5938 5.92982 12.5856 5.2756 12.5998C5.15864 12.6026 5.01446 12.6662 4.93286 12.7502C4.6724 13.0169 4.4269 13.2993 4.19228 13.5877C3.41973 14.537 2.70704 15.5248 2.27928 16.684C2.0841 17.2128 1.91885 17.7701 2.10927 18.3192C2.2786 18.808 2.5037 19.2962 2.79612 19.7214C3.7074 21.0478 4.90021 22.1068 6.17124 23.0811C6.2372 23.1312 6.34193 23.1515 6.4283 23.1522C8.67248 23.1563 10.916 23.1563 13.1602 23.1522C13.2465 23.1522 13.3519 23.1319 13.4172 23.0811C14.6937 22.1007 15.8607 21.0126 16.8202 19.7092C17.6499 18.5819 17.7274 17.4315 17.1086 16.187C16.4761 14.9141 15.6199 13.8084 14.6767 12.7583C14.5645 12.633 14.4482 12.5883 14.2816 12.589C12.5814 12.5944 10.882 12.5924 9.18184 12.5924C9.09684 12.5924 9.00979 12.6005 8.9275 12.5856C8.70785 12.5464 8.57455 12.4116 8.57387 12.1868C8.57319 11.962 8.70513 11.8266 8.92478 11.7867C9.00707 11.7718 9.09412 11.7799 9.17912 11.7799C10.8874 11.7799 12.5957 11.7806 14.3047 11.7772C14.3931 11.7772 14.5074 11.7745 14.5658 11.723C14.9018 11.4285 15.2792 11.1414 15.0528 10.5808ZM8.72893 9.5225C9.59872 7.29964 11.1751 5.78432 13.2561 4.74906C13.2486 4.71318 13.2493 4.68677 13.2384 4.6651C12.4645 3.14437 11.3621 1.91547 9.92787 0.986511C9.8619 0.943855 9.70889 0.95198 9.64564 1.00005C9.16076 1.37042 8.6616 1.72792 8.21753 2.14365C6.99479 3.28656 6.12363 4.64411 5.77953 6.30365C5.74076 6.49188 5.77137 6.60292 5.9577 6.70854C6.79553 7.18182 7.50483 7.80948 8.08219 8.57729C8.30389 8.87318 8.50043 9.18802 8.72893 9.5225ZM14.6903 5.06526C12.7827 5.41599 9.74833 8.19677 9.57288 9.75C10.2448 9.75 10.9153 9.75271 11.5858 9.74662C11.6634 9.74594 11.7518 9.71141 11.8164 9.66604C12.761 9.00453 13.5437 8.19542 14.081 7.16828C14.4251 6.50948 14.642 5.81479 14.6903 5.06526ZM14.2415 25.1807C13.9497 24.8178 13.6838 24.5009 13.4356 24.1712C13.3234 24.0222 13.2051 23.9633 13.0126 23.964C10.9663 23.9721 8.92002 23.9803 6.87374 23.9593C6.4725 23.9552 6.18688 24.0392 5.9679 24.3899C5.79789 24.6628 5.56939 24.8991 5.34361 25.1807C8.32973 25.1807 11.2574 25.1807 14.2415 25.1807ZM7.85302 9.75C7.17092 8.3613 5.20012 6.86562 4.24464 6.99495C4.53026 7.92052 4.9315 8.79261 5.45514 9.60714C5.4973 9.67214 5.59251 9.74323 5.66392 9.74391C6.38478 9.75406 7.10563 9.75 7.85302 9.75ZM17.3949 7.89547C16.5836 7.50547 15.7852 7.40255 14.9562 7.6138C14.8413 7.64292 14.7263 7.74042 14.6502 7.83656C14.2612 8.32474 13.8878 8.8251 13.5036 9.31734C13.3873 9.46698 13.2547 9.60375 13.1268 9.74932C13.4084 9.74932 13.7035 9.75542 13.998 9.74459C14.0626 9.74255 14.1401 9.69583 14.1864 9.64641C14.7787 9.01604 15.507 8.5949 16.3034 8.28073C16.6482 8.14531 17.0032 8.03292 17.3949 7.89547ZM1.33944 9.38302C1.45709 9.4074 1.5285 9.42162 1.5999 9.43719C2.15415 9.55703 2.70772 9.6762 3.26128 9.7974C3.4925 9.84818 3.72168 10.0391 3.95358 9.78182C3.99166 9.73984 4.09843 9.75406 4.17391 9.75135C4.28884 9.74661 4.40445 9.75 4.54387 9.75C4.36433 9.39047 4.19024 9.06479 4.04062 8.7276C3.97738 8.58542 3.89373 8.51771 3.74548 8.49875C2.8036 8.3762 2.05486 8.7662 1.33944 9.38302Z" fill="white"/>
<path d="M10.2099 16.25C10.2099 16.533 10.2099 16.7835 10.2099 17.0625C10.5825 17.0625 10.945 17.0611 11.3075 17.0632C11.691 17.0652 11.8291 17.2013 11.8311 17.5825C11.8331 18.0564 11.8331 18.5304 11.8311 19.0044C11.8297 19.3165 11.6645 19.5068 11.4108 19.498C11.166 19.4898 11.0184 19.3084 11.0164 19.0044C11.0137 18.6408 11.0157 18.2772 11.0157 17.8946C10.7485 17.8946 10.4907 17.8946 10.1997 17.8946C10.1997 18.2257 10.1997 18.5616 10.1997 18.8967C10.1997 19.3849 10.0868 19.5 9.60665 19.5C9.18161 19.5 8.75658 19.5007 8.33154 19.5C7.94459 19.4993 7.74873 19.3592 7.75349 19.087C7.75825 18.8216 7.94663 18.6882 8.3193 18.6875C8.66545 18.6868 9.0116 18.6875 9.37067 18.6875C9.37067 18.4133 9.37067 18.1627 9.37067 17.875C9.01092 17.875 8.64913 17.8757 8.28734 17.875C7.88747 17.8736 7.75281 17.7402 7.75145 17.3421C7.75009 16.8682 7.74873 16.3942 7.75213 15.9202C7.75417 15.6217 7.91127 15.4395 8.15881 15.4395C8.40567 15.4395 8.56412 15.6217 8.56616 15.9196C8.56956 16.2906 8.56684 16.661 8.56684 17.0469C8.84362 17.0469 9.10068 17.0469 9.38291 17.0469C9.38291 16.684 9.38223 16.3312 9.38291 15.9778C9.38427 15.5661 9.51552 15.4382 9.93647 15.4375C10.3955 15.4368 10.8545 15.4361 11.3136 15.4375C11.6387 15.4388 11.8243 15.5837 11.8291 15.8363C11.8338 16.0963 11.6414 16.2486 11.302 16.2493C10.947 16.2507 10.5907 16.25 10.2099 16.25Z" fill="white"/>
<path d="M5.7236 14.623C5.50326 14.6298 5.31284 14.451 5.30536 14.231C5.29856 14.0102 5.47674 13.822 5.69844 13.8145C5.91945 13.8078 6.10987 13.9859 6.11667 14.2066C6.12415 14.4253 5.94394 14.6162 5.7236 14.623Z" fill="white"/>
<path d="M8.15769 14.2201C8.15701 14.4402 7.97068 14.6243 7.75034 14.623C7.52932 14.6223 7.34502 14.4375 7.34571 14.2174C7.34639 13.996 7.53068 13.8139 7.75306 13.8145C7.97408 13.8152 8.15837 13.9994 8.15769 14.2201Z" fill="white"/>
<path d="M10.198 14.2174C10.1987 14.4375 10.0137 14.6223 9.79266 14.6223C9.57164 14.623 9.38667 14.4388 9.38599 14.2188C9.38531 13.998 9.56892 13.8146 9.79062 13.8139C10.0123 13.8139 10.1973 13.9974 10.198 14.2174Z" fill="white"/>
<path d="M11.8246 14.623C11.6036 14.6189 11.422 14.4314 11.4261 14.2113C11.4302 13.9906 11.6172 13.8105 11.8389 13.8146C12.0606 13.8186 12.2422 14.0055 12.2381 14.2255C12.234 14.4456 12.0449 14.6271 11.8246 14.623Z" fill="white"/>
<path d="M13.8633 13.8145C14.0843 13.8098 14.2734 13.9892 14.2781 14.21C14.2829 14.4293 14.102 14.6182 13.881 14.623C13.66 14.6277 13.4716 14.4476 13.4662 14.2276C13.4614 14.0068 13.6409 13.8193 13.8633 13.8145Z" fill="white"/>
<path d="M6.11772 20.7255C6.11364 20.9456 5.92458 21.127 5.70424 21.123C5.48323 21.1189 5.30165 20.9314 5.30573 20.7113C5.30981 20.4906 5.49683 20.3105 5.71853 20.3146C5.94022 20.3186 6.1218 20.5055 6.11772 20.7255Z" fill="white"/>
<path d="M8.15769 20.7174C8.15837 20.9375 7.9734 21.1223 7.75238 21.1223C7.53136 21.123 7.34639 20.9388 7.34571 20.7188C7.34502 20.498 7.52864 20.3146 7.75034 20.3139C7.97204 20.3139 8.15701 20.4974 8.15769 20.7174Z" fill="white"/>
<path d="M9.79266 21.123C9.57164 21.1236 9.38667 20.9401 9.38599 20.7194C9.38531 20.4987 9.56824 20.3152 9.79062 20.3145C10.0123 20.3138 10.1973 20.4967 10.198 20.7174C10.1987 20.9374 10.0137 21.1223 9.79266 21.123Z" fill="white"/>
<path d="M12.238 20.7194C12.2373 20.9395 12.0517 21.1236 11.8307 21.123C11.6096 21.1223 11.4253 20.9381 11.426 20.7174C11.4267 20.4967 11.611 20.3138 11.8327 20.3145C12.0544 20.3152 12.2387 20.4994 12.238 20.7194Z" fill="white"/>
<path d="M14.2781 20.7228C14.2754 20.9429 14.0883 21.1257 13.8673 21.123C13.6456 21.1203 13.4634 20.9348 13.4661 20.714C13.4688 20.4933 13.6545 20.3118 13.8762 20.3145C14.0979 20.3173 14.2801 20.5028 14.2781 20.7228Z" fill="white"/>
<path d="M11.8278 4.71522C11.8346 5.07746 11.685 5.26434 11.447 5.27923C11.211 5.29345 11.041 5.12351 11.0152 4.84793C10.9628 4.2934 10.7003 3.81944 10.4378 3.34548C10.3766 3.23444 10.3011 3.13085 10.2474 3.01642C10.1488 2.8072 10.2154 2.63184 10.3997 2.50996C10.5799 2.3908 10.786 2.40976 10.9043 2.57903C11.3736 3.25002 11.7353 3.97179 11.8278 4.71522Z" fill="white"/>
<path d="M9.43333 3.21142C9.35104 3.36308 9.30479 3.47074 9.23883 3.56418C8.99129 3.91694 8.73151 4.2609 8.48805 4.61569C8.31735 4.86418 8.10382 4.94339 7.88892 4.81272C7.68354 4.68746 7.6237 4.45183 7.78147 4.21553C8.05893 3.80183 8.35544 3.401 8.65602 3.00355C8.76619 2.8573 8.94096 2.78621 9.10758 2.88506C9.23271 2.95886 9.32044 3.09496 9.43333 3.21142Z" fill="white"/>
<path d="M7.96055 5.75317C7.88303 6.02942 7.81026 6.36797 7.69057 6.6889C7.61916 6.8812 7.42739 6.94823 7.22337 6.88255C7.02276 6.81755 6.90443 6.6625 6.94455 6.45734C7.00507 6.14521 7.09008 5.8351 7.19209 5.5338C7.25941 5.33677 7.43283 5.2562 7.64229 5.29411C7.83474 5.32797 7.96055 5.49588 7.96055 5.75317Z" fill="white"/>
</svg>
