<svg width="26" height="26" viewBox="0 0 26 26" fill="none" xmlns="http://www.w3.org/2000/svg">
<path d="M0 20.7667C0 20.5636 0 20.3604 0 20.1573C0.120524 19.9548 0.297924 19.8973 0.530846 19.8993C1.77333 19.9088 3.01581 19.8973 4.25828 19.9095C4.49866 19.9122 4.57652 19.8722 4.57584 19.6048C4.56637 13.257 4.56907 6.90846 4.56501 0.560639C4.56501 0.323654 4.60564 0.130004 4.82231 0.0047402C11.8019 0.0047402 18.7821 0.00541681 25.7616 0C25.9519 0 25.9952 0.0426575 25.9946 0.232923C25.9891 8.74408 25.9891 17.2559 25.9946 25.7671C25.9946 25.9573 25.9519 26.0007 25.7616 26C18.7821 25.9946 11.8019 25.9953 4.82231 25.9953C4.62053 25.8741 4.55621 25.698 4.56433 25.4637C4.57923 25.0243 4.56569 24.5842 4.56975 24.1441C4.57246 23.8766 4.73158 23.7046 4.95908 23.7114C5.17711 23.7175 5.32472 23.8834 5.32878 24.1393C5.33352 24.4102 5.34503 24.6817 5.32539 24.9512C5.30847 25.1773 5.37211 25.2396 5.60707 25.2396C11.5452 25.2322 17.4827 25.2315 23.4209 25.241C23.6775 25.2416 23.7121 25.1658 23.7114 24.9349C23.7046 18.0325 23.706 11.1302 23.706 4.22782C23.706 3.8114 23.706 3.8114 23.2841 3.8114C22.9449 3.8114 22.9449 3.8114 22.9449 4.1574C22.9449 9.50311 22.9463 14.8495 22.9442 20.1952C22.9435 21.7573 21.8026 22.9442 20.271 22.9463C14.4006 22.9537 8.53079 22.9524 2.66033 22.9463C1.43071 22.9449 0.418448 22.1432 0.0900545 20.9597C0.0717728 20.894 0.0887002 20.8026 0 20.7667ZM13.7709 3.8114C11.0476 3.8114 8.32427 3.81411 5.6003 3.80666C5.38701 3.80598 5.32336 3.8439 5.32336 4.07479C5.33149 9.25935 5.33149 14.4446 5.32336 19.6292C5.32269 19.8695 5.39446 19.9088 5.61384 19.9088C9.69879 19.902 13.7844 19.9041 17.8694 19.9041C18.2397 19.9041 18.3589 20.0158 18.3779 20.3746C18.3948 20.6922 18.4842 20.9888 18.648 21.2616C19.0854 21.9895 19.9535 22.3409 20.7714 22.1236C21.611 21.9001 22.1811 21.1486 22.1818 20.2413C22.1838 14.8366 22.1818 9.43201 22.1872 4.0274C22.1872 3.84864 22.1432 3.80734 21.9665 3.80802C19.2344 3.81343 16.503 3.8114 13.7709 3.8114ZM13.7566 3.04966C16.4894 3.04966 19.2215 3.04763 21.9543 3.0544C22.1439 3.05508 22.1926 3.01107 22.1886 2.8208C22.175 2.22021 22.173 1.61963 22.1893 1.01904C22.1954 0.806427 22.1392 0.75903 21.9293 0.759707C19.036 0.767832 16.1428 0.765124 13.2495 0.765124C10.686 0.765124 8.12317 0.767156 5.55967 0.760385C5.37008 0.759708 5.32133 0.803719 5.32539 0.993985C5.33894 1.59457 5.34097 2.19516 5.32472 2.79575C5.31862 3.00836 5.37482 3.05576 5.58472 3.05508C8.3087 3.04695 11.0327 3.04966 13.7566 3.04966ZM18.411 22.1879C18.0427 21.7952 17.7935 21.3937 17.6994 20.9197C17.6588 20.7145 17.587 20.659 17.3771 20.659C11.9407 20.6658 6.50355 20.6644 1.06711 20.6644C0.985181 20.6644 0.903252 20.6644 0.811843 20.6644C0.819291 20.7193 0.819291 20.7531 0.828094 20.785C1.0705 21.6361 1.80515 22.1866 2.71585 22.1866C7.88213 22.1886 13.0484 22.1872 18.2147 22.1872C18.2621 22.1879 18.3101 22.1879 18.411 22.1879ZM24.4677 14.5231C24.4677 17.9323 24.4677 21.3422 24.4677 24.7514C24.4677 25.2342 24.4684 25.22 24.9505 25.2396C25.1834 25.2491 25.2349 25.1807 25.2349 24.9532C25.2281 18.0752 25.2294 11.1972 25.2294 4.31923C25.2294 3.81072 25.2288 3.82291 24.7216 3.80598C24.5083 3.79854 24.4623 3.85744 24.463 4.06667C24.4697 7.55171 24.4677 11.0374 24.4677 14.5231ZM25.2288 1.92026C25.2288 1.59051 25.222 1.26008 25.2321 0.931014C25.2362 0.796948 25.1956 0.761739 25.0635 0.763093C24.4122 0.769864 23.7608 0.769864 23.1101 0.763093C22.976 0.761739 22.9408 0.799657 22.9422 0.931691C22.949 1.58306 22.949 2.23443 22.9422 2.88513C22.9408 3.01919 22.9788 3.0544 23.1108 3.05305C23.7622 3.04628 24.4135 3.04628 25.0642 3.05305C25.1983 3.0544 25.2362 3.01648 25.2321 2.88445C25.2227 2.56283 25.2288 2.2412 25.2288 1.92026Z" fill="white"/>
<path d="M11.1494 16.8585C10.5069 16.8585 9.86363 16.8605 9.22106 16.8578C8.88251 16.8565 8.74642 16.7068 8.7647 16.3703C8.81887 15.3797 9.62258 14.5943 10.6159 14.576C11.2165 14.5652 11.8171 14.5685 12.417 14.5767C12.5646 14.5787 12.6235 14.5523 12.6181 14.3864C12.6045 13.9896 12.6066 13.5915 12.6174 13.194C12.6215 13.041 12.5842 12.9936 12.4244 12.9963C11.8577 13.0072 11.291 13.0024 10.7242 12.9997C9.62868 12.995 8.80059 12.2474 8.76944 11.1587C8.73288 9.8654 8.75454 8.57079 8.7586 7.27685C8.75928 6.98637 8.91908 6.85366 9.21226 6.8584C10.1182 6.87262 10.9409 7.6242 11.0201 8.53219C11.0777 9.19033 11.0384 9.85119 11.0384 10.51C11.0384 10.6752 11.0811 10.7233 11.2469 10.7186C11.6356 10.7064 12.0256 10.7043 12.4136 10.7192C12.589 10.726 12.6188 10.6624 12.6167 10.5059C12.6079 9.96494 12.6106 9.42326 12.614 8.88225C12.6215 7.65061 13.4191 6.85772 14.6507 6.85704C15.8519 6.85637 17.0524 6.85637 18.2536 6.85704C18.6449 6.85704 18.7743 6.9972 18.7458 7.3818C18.6734 8.36224 17.8737 9.1233 16.8858 9.13955C16.294 9.14903 15.7016 9.14632 15.1098 9.13888C14.9547 9.13684 14.8891 9.16461 14.8958 9.34133C14.9107 9.72998 14.908 10.1193 14.8965 10.508C14.8918 10.6698 14.9317 10.7226 15.1024 10.7192C15.6603 10.7077 16.2189 10.7131 16.7768 10.7152C17.8995 10.7192 18.7215 11.4749 18.7485 12.5934C18.779 13.8698 18.76 15.1475 18.756 16.4245C18.7546 16.7292 18.5955 16.8639 18.2888 16.8558C17.3794 16.8321 16.5568 16.0812 16.4965 15.1691C16.4538 14.5205 16.4701 13.8677 16.4762 13.2164C16.4775 13.0383 16.4308 12.9889 16.2541 12.9956C15.8742 13.0099 15.4924 13.0099 15.1125 12.9956C14.9297 12.9889 14.8925 13.0498 14.8965 13.2218C14.9087 13.7547 14.9033 14.2876 14.9006 14.8204C14.8945 16.069 14.1002 16.8572 12.8496 16.8578C12.2829 16.8585 11.7162 16.8585 11.1494 16.8585ZM9.58399 16.0961C10.7012 16.0961 11.7832 16.0968 12.8652 16.0961C13.6771 16.0954 14.1334 15.639 14.1361 14.8231C14.1382 14.1298 14.1348 13.4358 14.1375 12.7424C14.1388 12.3626 14.2634 12.2393 14.6372 12.2393C15.3055 12.238 15.9738 12.2386 16.6421 12.2393C17.1404 12.2393 17.2345 12.3328 17.2359 12.8277C17.2386 13.5637 17.2332 14.2997 17.2488 15.0351C17.2569 15.4379 17.4708 15.7332 17.8094 15.9437C17.9421 16.0263 17.9976 16.0155 17.997 15.8395C17.9922 14.7737 18.0037 13.708 17.9909 12.6422C17.9821 11.9387 17.4979 11.4823 16.791 11.4796C16.072 11.4769 15.3529 11.4796 14.6338 11.4789C14.2695 11.4783 14.1395 11.3557 14.1375 10.9975C14.1341 10.2872 14.1341 9.57628 14.1375 8.866C14.1395 8.50579 14.2682 8.38323 14.6311 8.38255C15.3671 8.3812 16.1031 8.38662 16.8391 8.38052C17.3503 8.37646 17.7376 8.09885 17.9062 7.62217C17.827 7.62217 17.7539 7.62217 17.6814 7.62217C16.6665 7.62217 15.6515 7.62149 14.6365 7.62217C13.8409 7.62285 13.3818 8.08124 13.3785 8.88158C13.3757 9.57493 13.3791 10.269 13.3771 10.9623C13.3757 11.3571 13.2532 11.4789 12.8645 11.4796C12.1962 11.4803 11.5279 11.4796 10.8596 11.4796C10.3776 11.4796 10.2787 11.3828 10.2787 10.9041C10.278 10.2189 10.2767 9.53363 10.2787 8.8484C10.28 8.39136 10.1101 8.02911 9.71602 7.78129C9.57316 7.69123 9.5156 7.70342 9.51696 7.89233C9.52305 8.94996 9.51222 10.0069 9.52237 11.0646C9.52982 11.7802 10.0126 12.238 10.7357 12.24C11.446 12.242 12.157 12.24 12.8672 12.2407C13.2478 12.2414 13.3751 12.3612 13.3764 12.735C13.3798 13.4371 13.3791 14.1393 13.3764 14.8414C13.3751 15.2152 13.2478 15.3371 12.8686 15.3377C12.1414 15.3384 11.4135 15.333 10.6863 15.3398C10.1731 15.3425 9.81082 15.5876 9.58399 16.0961Z" fill="white"/>
<path d="M11.8247 7.618C11.6121 7.61597 11.4428 7.43722 11.451 7.22258C11.4591 7.01877 11.6277 6.85626 11.8301 6.8583C12.0427 6.86033 12.2127 7.03908 12.2039 7.25372C12.1958 7.45685 12.0265 7.61936 11.8247 7.618Z" fill="white"/>
<path d="M18.384 9.54844C18.5966 9.55318 18.7632 9.73465 18.7517 9.94861C18.7408 10.1538 18.5709 10.3122 18.3677 10.3082C18.1551 10.3034 17.9886 10.1219 18.0001 9.90731C18.0102 9.70282 18.1802 9.5437 18.384 9.54844Z" fill="white"/>
<path d="M9.51474 13.7736C9.52151 13.9876 9.3502 14.1664 9.13759 14.1664C8.93446 14.1664 8.76722 14.0032 8.76045 13.7987C8.75368 13.584 8.92431 13.406 9.13759 13.4066C9.34072 13.4066 9.50864 13.5698 9.51474 13.7736Z" fill="white"/>
<path d="M15.694 16.0967C15.9067 16.1014 16.0732 16.2829 16.0617 16.4968C16.0509 16.702 15.8809 16.8604 15.6778 16.8564C15.4652 16.8516 15.2986 16.6702 15.3101 16.4555C15.3203 16.251 15.4902 16.0926 15.694 16.0967Z" fill="white"/>
</svg>
