<svg width="47" height="61" viewBox="0 0 47 61" fill="none" xmlns="http://www.w3.org/2000/svg">
<circle cx="24.5" cy="30.5" r="22.5" fill="#09B4BF" fill-opacity="0.8"/>
<path d="M11.7549 22.2267C11.9612 21.7417 12.3256 21.5593 12.8479 21.5852C13.4592 21.6156 14.0725 21.5916 14.6851 21.5923C15.5234 21.5929 16.0181 21.9435 16.3237 22.7241C16.926 24.2626 18.0513 25.1739 19.6602 25.5005C19.7956 25.5283 19.8814 25.5018 19.9743 25.3989C20.2587 25.084 20.6224 24.9035 21.0325 24.8026C21.115 24.7826 21.2066 24.725 21.2575 24.6571C21.5677 24.2413 21.9727 24.0104 22.4918 24.0046C22.7975 24.0007 23.1167 23.9677 23.4056 24.0421C23.7138 24.121 23.9937 24.3105 24.3316 24.4735C24.7733 23.9418 25.4517 23.9781 26.1249 24.0065C26.6137 24.0272 26.9994 24.2478 27.3031 24.6306C27.365 24.7089 27.4688 24.7768 27.5656 24.8014C27.957 24.9016 28.2988 25.0788 28.5967 25.3562C28.6625 25.417 28.7947 25.4533 28.883 25.4352C29.4505 25.3181 29.9632 25.0691 30.4339 24.7328C30.4732 24.7043 30.5113 24.6746 30.5506 24.6461C30.7666 24.4935 30.9756 24.5045 31.1078 24.6759C31.2438 24.8524 31.2051 25.0542 30.993 25.2204C30.4726 25.6279 29.8909 25.9157 29.2577 26.1C29.2125 26.1129 29.1667 26.1265 29.1055 26.1446C29.1364 26.3567 29.1667 26.5598 29.199 26.7797C29.9161 26.6685 30.5738 26.4253 31.1806 26.0437C31.2355 26.0094 31.287 25.9706 31.3425 25.9377C31.554 25.8115 31.7559 25.8445 31.8732 26.0237C31.9893 26.2002 31.9409 26.4046 31.7372 26.5456C31.1336 26.9627 30.47 27.2454 29.7574 27.4135C29.5775 27.4562 29.3957 27.4879 29.1951 27.5293C29.1854 27.7213 29.1751 27.9121 29.1622 28.1644C29.6065 28.1178 30.0392 28.1029 30.4597 28.0234C33.3886 27.473 35.2749 25.5341 35.774 22.5863C35.8056 22.3994 35.7688 22.316 35.5625 22.3179C34.8692 22.325 34.176 22.3192 33.4828 22.3211C33.083 22.3224 32.8179 22.5223 32.6625 22.8857C32.5458 23.16 32.4317 23.4361 32.2975 23.7019C32.1673 23.9606 31.9693 24.0356 31.7707 23.9289C31.5663 23.819 31.5321 23.6224 31.6566 23.3637C31.772 23.1244 31.8823 22.8819 31.9796 22.6342C32.2382 21.979 32.7844 21.5955 33.4899 21.5923C34.1264 21.589 34.7648 21.6149 35.4 21.5845C35.9275 21.5593 36.3066 21.7281 36.5175 22.2261C36.5175 22.3716 36.5175 22.5171 36.5175 22.6626C36.3879 23.1515 36.2963 23.6547 36.1229 24.1275C35.1794 26.7002 33.3184 28.1993 30.6609 28.7199C30.0876 28.8324 29.4956 28.8499 28.9082 28.9113C28.9352 28.932 28.9765 28.9708 29.0242 28.9999C31.0098 30.2184 31.9738 31.9982 31.948 34.3284C31.9467 34.4402 31.9957 34.5631 32.0525 34.6627C33.1114 36.5111 34.1792 38.3542 35.231 40.2071C35.3361 40.3927 35.398 40.6327 35.3935 40.8455C35.3858 41.24 35.0253 41.5679 34.6255 41.5776C33.3919 41.608 32.2479 41.3072 31.2251 40.6003C31.1284 40.5331 31.0214 40.4102 31.0117 40.3048C31.0014 40.191 31.0717 40.0377 31.1581 39.9549C31.2909 39.8281 31.4573 39.8799 31.6011 39.9814C32.0673 40.3106 32.5761 40.5583 33.1313 40.6754C33.5699 40.7678 34.0213 40.8086 34.4688 40.85C34.6893 40.8707 34.7325 40.7847 34.6223 40.5906C34.2302 39.9038 33.8375 39.2176 33.4338 38.5373C33.3874 38.459 33.2816 38.3982 33.1907 38.3672C32.3756 38.0891 31.5598 37.8136 30.7402 37.5504C30.5113 37.4766 30.341 37.3635 30.2353 37.1416C30.1495 36.9612 30.038 36.7937 29.9374 36.6204C29.9109 36.6255 29.8838 36.6307 29.8574 36.6359C29.909 36.9851 29.9245 37.3447 30.0212 37.6804C30.1276 38.049 30.2991 38.4002 30.4616 38.75C30.5796 39.0036 30.5616 39.2118 30.3726 39.3231C30.1824 39.4343 29.9748 39.3599 29.8335 39.12C29.208 38.0587 29.0474 36.9159 29.2306 35.7085C29.2512 35.5714 29.2287 35.3993 29.1609 35.2803C28.2923 33.7508 27.4101 32.2291 26.537 30.7015C26.4577 30.5624 26.3842 30.5243 26.2172 30.5424C25.9147 30.5741 25.6045 30.5708 25.3002 30.5489C24.8997 30.5204 24.5644 30.3316 24.2723 30.0205C23.7396 30.6452 23.029 30.5909 22.3261 30.5417C22.1965 30.5327 22.1423 30.565 22.083 30.6685C21.1918 32.2226 20.2935 33.7722 19.41 35.3308C19.3442 35.4465 19.3513 35.6244 19.3726 35.766C19.5764 37.1306 19.3294 38.3918 18.5021 39.508C17.6044 40.7181 16.3624 41.335 14.8947 41.5316C14.6239 41.5679 14.3485 41.5814 14.0757 41.5821C13.3696 41.5847 12.9692 40.9153 13.3116 40.2957C13.663 39.6606 14.0338 39.0359 14.3962 38.4066C15.1127 37.1617 15.831 35.918 16.541 34.6698C16.6049 34.5579 16.6423 34.415 16.6429 34.2863C16.6455 31.9814 17.5973 30.2093 19.5699 29.0045C19.6215 28.9734 19.6705 28.9391 19.7853 28.8648C19.628 28.8648 19.5448 28.8628 19.461 28.8648C17.4909 28.9139 15.6963 28.4172 14.1712 27.1199C12.8421 25.99 12.1063 24.5239 11.8039 22.8204C11.7942 22.7667 11.7716 22.7156 11.7549 22.6633C11.7549 22.5177 11.7549 22.3722 11.7549 22.2267ZM19.3971 27.5383C19.0779 27.4614 18.7787 27.4006 18.4853 27.3171C17.8927 27.1477 17.3419 26.8851 16.8377 26.5294C16.6532 26.3994 16.6145 26.1899 16.7248 26.0211C16.8364 25.851 17.0356 25.8128 17.2355 25.926C17.2981 25.9616 17.3568 26.0062 17.418 26.0444C18.0236 26.424 18.6775 26.6685 19.3939 26.7784C19.4242 26.5792 19.4519 26.4001 19.4797 26.2164C19.4023 26.1957 19.341 26.1763 19.2791 26.1627C18.5356 25.9991 17.8669 25.6757 17.2684 25.2075C16.5069 24.6119 15.9568 23.8591 15.6311 22.9459C15.4989 22.5747 15.2552 22.3347 14.8554 22.3263C14.1312 22.3108 13.4057 22.3231 12.6809 22.3186C12.519 22.3179 12.4649 22.3839 12.49 22.541C12.7061 23.8875 13.2123 25.0995 14.1544 26.1019C15.2687 27.288 16.6648 27.9037 18.2609 28.0893C18.6465 28.134 19.0373 28.132 19.4339 28.1521C19.4203 27.9147 19.4087 27.731 19.3971 27.5383ZM20.9931 28.9676C20.9931 28.5278 20.9912 28.1074 20.9938 27.6877C20.9957 27.4174 21.1253 27.2609 21.344 27.2544C21.5755 27.2473 21.7154 27.4064 21.7173 27.6877C21.7199 28.1404 21.7122 28.5931 21.7205 29.0452C21.7283 29.4746 22.0307 29.7986 22.4557 29.8303C22.6878 29.8478 22.9239 29.8465 23.156 29.831C23.5648 29.8038 23.8879 29.4953 23.8911 29.1002C23.9015 27.8882 23.9008 26.6762 23.8918 25.4636C23.8886 25.0833 23.5855 24.7723 23.2063 24.7425C22.9503 24.7225 22.6904 24.7225 22.4338 24.7399C22.0307 24.7677 21.7399 25.0833 21.7199 25.4901C21.7135 25.6188 21.7212 25.7488 21.7167 25.8782C21.7077 26.1226 21.5645 26.274 21.351 26.2714C21.1395 26.2688 21.0022 26.1162 20.9931 25.8691C20.9899 25.7818 20.9925 25.6945 20.9925 25.6027C20.5082 25.7307 20.1619 26.1905 20.1374 26.7512C20.1219 27.1063 20.1213 27.4627 20.1381 27.8177C20.1651 28.3635 20.4837 28.7917 20.9931 28.9676ZM24.6237 27.2719C24.6237 27.8455 24.6179 28.4198 24.6256 28.9935C24.6321 29.4746 24.97 29.8155 25.4472 29.8349C25.6484 29.8433 25.8502 29.8426 26.0514 29.8349C26.5209 29.8174 26.8704 29.4947 26.8756 29.0226C26.8897 27.8591 26.8897 26.695 26.8749 25.5315C26.8691 25.0672 26.5331 24.7574 26.0676 24.7328C25.8747 24.7225 25.6806 24.7237 25.4878 24.7302C24.9461 24.7464 24.6269 25.0769 24.6237 25.6234C24.6211 26.1731 24.6237 26.7221 24.6237 27.2719ZM18.6639 36.6145C18.5678 36.7814 18.4588 36.9418 18.3776 37.1158C18.2667 37.3525 18.0906 37.4799 17.8424 37.5588C17.0227 37.8194 16.2089 38.0968 15.3945 38.3743C15.31 38.4028 15.2113 38.4571 15.1688 38.5289C14.7632 39.2157 14.3659 39.9083 13.9713 40.6016C13.8681 40.7834 13.9113 40.8577 14.1176 40.8545C15.5789 40.8319 16.8519 40.3695 17.8095 39.2163C18.4298 38.4713 18.7103 37.5969 18.6639 36.6145ZM27.0942 30.1886C27.1574 30.446 27.3128 30.5288 27.5694 30.5372C27.7971 30.5443 28.0305 30.6161 28.2472 30.6963C29.8284 31.2816 30.5713 33.1041 29.869 34.6472C29.829 34.7345 29.7787 34.8651 29.8142 34.9311C30.0766 35.4181 30.3597 35.8941 30.6519 36.4011C30.7009 36.3093 30.7376 36.2485 30.7666 36.1845C31.8281 33.864 30.9891 31.0805 28.8282 29.721C28.5296 29.5335 28.2536 29.3673 27.9241 29.6415C27.8951 29.6661 27.8506 29.6822 27.8119 29.6842C27.4733 29.7036 27.2651 29.9125 27.0942 30.1886ZM21.4948 30.208C21.3259 29.9176 21.1112 29.712 20.7668 29.6745C20.6681 29.6635 20.5637 29.6098 20.4824 29.5477C20.3354 29.4352 20.2142 29.4701 20.0665 29.5497C18.0855 30.6122 17.0176 32.8868 17.4754 35.0941C17.5677 35.5384 17.6992 35.9717 17.9475 36.3985C18.2157 35.9342 18.4595 35.4989 18.7168 35.0721C18.8038 34.9279 18.8155 34.8166 18.7394 34.6537C17.9043 32.8739 19.0431 30.7869 20.9893 30.5372C21.2298 30.5062 21.4349 30.4906 21.4948 30.208ZM27.6152 28.9851C28.0866 28.7781 28.3858 28.4567 28.4316 27.9813C28.4761 27.5176 28.4664 27.0442 28.4342 26.5779C28.4026 26.1149 27.9931 25.6693 27.6152 25.624C27.6152 26.7306 27.6152 27.8358 27.6152 28.9851ZM27.7229 31.3159C28.2536 32.2368 28.7663 33.1267 29.288 34.0321C29.6923 33.086 29.0391 31.5662 27.7229 31.3159ZM20.879 31.3088C19.6067 31.5772 18.9025 33.0013 19.3107 34.0321C19.8337 33.1235 20.3457 32.2342 20.879 31.3088ZM15.7685 37.4779C16.3553 37.2813 16.8673 37.1099 17.3665 36.9424C17.182 36.491 17.0124 36.0765 16.8312 35.6335C16.4856 36.233 16.1457 36.8228 15.7685 37.4779ZM32.8296 37.4766C32.4555 36.828 32.1131 36.2343 31.7662 35.6322C31.5817 36.0842 31.4096 36.5052 31.2309 36.9418C31.7443 37.1138 32.2518 37.2833 32.8296 37.4766Z" fill="white"/>
</svg>
