<svg width="19" height="19" viewBox="0 0 19 19" fill="none" xmlns="http://www.w3.org/2000/svg">
<path d="M1.1875 10.8258L15.2712 10.8258L10.9606 16.7259C10.7591 17.0022 10.6621 17.3585 10.691 17.7163C10.72 18.0742 10.8725 18.4042 11.115 18.6339C11.3575 18.8636 11.6702 18.9741 11.9842 18.9411C12.2982 18.9082 12.5878 18.7344 12.7894 18.458L18.7269 10.3387C18.7668 10.2741 18.8025 10.2062 18.8338 10.1357C18.8338 10.068 18.8337 10.0274 18.9169 9.95975C18.9707 9.8046 18.9989 9.63943 19 9.47259C18.9989 9.30576 18.9707 9.14059 18.9169 8.98543C18.9169 8.91777 18.9169 8.87718 18.8338 8.80951C18.8025 8.73896 18.7668 8.67111 18.7269 8.60653L12.7894 0.487175C12.6777 0.334419 12.5379 0.211573 12.3799 0.127375C12.2218 0.0431747 12.0495 -0.00030899 11.875 1.33514e-05C11.5975 -0.00060463 11.3286 0.109514 11.115 0.311255C10.9948 0.424858 10.8954 0.564379 10.8225 0.721823C10.7496 0.879267 10.7048 1.05154 10.6904 1.22878C10.6761 1.40602 10.6926 1.58475 10.7389 1.75471C10.7853 1.92468 10.8606 2.08256 10.9606 2.2193L15.2712 8.11937L1.1875 8.11937C0.872555 8.11937 0.570509 8.26194 0.347809 8.51572C0.125111 8.7695 0 9.1137 0 9.47259C0 9.83149 0.125111 10.1757 0.347809 10.4295C0.570509 10.6832 0.872555 10.8258 1.1875 10.8258Z" fill="#157B11"/>
</svg>
