<svg width="25" height="25" viewBox="0 0 25 25" fill="none" xmlns="http://www.w3.org/2000/svg">
<path d="M5.80313 8.21562C5.50469 6.25 6.89063 4.48437 9.00781 3.8375C9.38352 3.72263 9.7889 3.75533 10.1413 3.92894C10.4938 4.10254 10.7668 4.404 10.9047 4.77187L11.5844 6.58437C11.6938 6.87596 11.7136 7.19359 11.6412 7.49649C11.5688 7.7994 11.4076 8.07377 11.1781 8.28437L9.15625 10.1359C9.05659 10.2274 8.98233 10.3431 8.9407 10.4718C8.89908 10.6005 8.89152 10.7378 8.91875 10.8703L8.9375 10.9516L8.98594 11.1547C9.23739 12.1416 9.62051 13.0903 10.125 13.975C10.6745 14.9152 11.3565 15.7713 12.15 16.5172L12.2125 16.5734C12.3134 16.663 12.4359 16.7249 12.5679 16.7532C12.6998 16.7814 12.8369 16.7749 12.9656 16.7344L15.5797 15.9109C15.8768 15.8177 16.1949 15.8153 16.4934 15.9041C16.7918 15.9929 17.0569 16.1689 17.2547 16.4094L18.4922 17.9109C19.0078 18.5359 18.9453 19.4547 18.3531 20.0062C16.7328 21.5172 14.5047 21.8266 12.9547 20.5812C11.0547 19.0487 9.45305 17.1795 8.22969 15.0672C6.99639 12.9565 6.1726 10.6319 5.80156 8.21562H5.80313ZM10.5578 10.9734L12.2328 9.43594C12.6919 9.0149 13.0147 8.46625 13.1598 7.86043C13.3048 7.2546 13.2655 6.61925 13.0469 6.03594L12.3688 4.22344C12.0912 3.4832 11.5418 2.87666 10.8325 2.5274C10.1233 2.17815 9.30755 2.11247 8.55156 2.34375C5.92188 3.14844 3.81094 5.50625 4.25781 8.45156C4.57031 10.5078 5.29063 13.1234 6.87969 15.8547C8.19955 18.1323 9.92728 20.1477 11.9766 21.8C14.3016 23.6672 17.4047 23.0297 19.4203 21.1516C19.9971 20.6146 20.3471 19.8777 20.3991 19.0914C20.4511 18.3051 20.201 17.5286 19.7 16.9203L18.4625 15.4172C18.0666 14.9367 17.5362 14.5854 16.9394 14.4083C16.3425 14.2313 15.7064 14.2365 15.1125 14.4234L12.9422 15.1062C12.3818 14.5285 11.891 13.8871 11.4797 13.1953C11.0824 12.4959 10.7728 11.7502 10.5578 10.975V10.9734Z" fill="#717171"/>
</svg>
