<svg width="10" height="15" viewBox="0 0 10 15" fill="none" xmlns="http://www.w3.org/2000/svg">
<path d="M10 1.25V0H0V1.25H3.4375C4.12732 1.25203 4.79222 1.50806 5.30525 1.9692C5.81827 2.43035 6.14347 3.0643 6.21875 3.75H0V5H6.21875C6.14347 5.6857 5.81827 6.31965 5.30525 6.7808C4.79222 7.24194 4.12732 7.49797 3.4375 7.5H0V8.96562L6.01063 14.375L6.84688 13.4462L1.62875 8.75H3.4375C4.46006 8.74852 5.44449 8.3617 6.19454 7.66668C6.94458 6.97166 7.40514 6.01948 7.48438 5H10V3.75H7.48438C7.41266 2.81152 7.01593 1.92743 6.3625 1.25H10Z" fill="black" fill-opacity="0.9"/>
</svg>
