<svg width="17" height="23" viewBox="0 0 17 23" fill="none" xmlns="http://www.w3.org/2000/svg">
<path d="M8.25537 0.000483887C7.8039 -0.00741844 7.35598 0.08155 6.94179 0.261393C6.52761 0.441236 6.15679 0.707773 5.85432 1.04304L0.799486 6.76133C0.243381 7.38606 -0.0423008 8.20582 0.0050775 9.04086C0.0524558 9.8759 0.429028 10.6581 1.05223 11.2159C1.61508 11.6725 2.31781 11.9217 3.04257 11.9217C3.76734 11.9217 4.47006 11.6725 5.03291 11.2159V19.8407C5.03291 20.6786 5.36576 21.4822 5.95824 22.0747C6.55072 22.6671 7.35429 23 8.19219 23C9.03008 23 9.83365 22.6671 10.4261 22.0747C11.0186 21.4822 11.3515 20.6786 11.3515 19.8407V11.3739C11.9168 11.8385 12.6258 12.0926 13.3576 12.0926C14.0894 12.0926 14.7984 11.8385 15.3637 11.3739C15.6897 11.0893 15.9538 10.7408 16.1396 10.35C16.3253 9.95917 16.4288 9.53435 16.4437 9.10188C16.4585 8.66941 16.3843 8.2385 16.2257 7.83588C16.0671 7.43327 15.8275 7.06752 15.5217 6.76133L10.5616 1.04304C10.2699 0.719676 9.91435 0.460135 9.51747 0.280721C9.12059 0.101308 8.69089 0.00589817 8.25537 0.000483887Z" fill="#96CCEE"/>
</svg>
