<svg width="15" height="3" viewBox="0 0 15 3" fill="none" xmlns="http://www.w3.org/2000/svg">
<path d="M2.99999 1.5C2.99999 1.89782 2.84196 2.27935 2.56066 2.56066C2.27935 2.84196 1.89782 2.99999 1.5 2.99999C1.10217 2.99999 0.720643 2.84196 0.439339 2.56066C0.158035 2.27935 0 1.89782 0 1.5C0 1.10217 0.158035 0.720643 0.439339 0.439339C0.720643 0.158035 1.10217 0 1.5 0C1.89782 0 2.27935 0.158035 2.56066 0.439339C2.84196 0.720643 2.99999 1.10217 2.99999 1.5ZM8.99998 1.5C8.99998 1.89782 8.84195 2.27935 8.56064 2.56066C8.27934 2.84196 7.89781 2.99999 7.49999 2.99999C7.10216 2.99999 6.72063 2.84196 6.43933 2.56066C6.15802 2.27935 5.99999 1.89782 5.99999 1.5C5.99999 1.10217 6.15802 0.720643 6.43933 0.439339C6.72063 0.158035 7.10216 0 7.49999 0C7.89781 0 8.27934 0.158035 8.56064 0.439339C8.84195 0.720643 8.99998 1.10217 8.99998 1.5ZM13.5 2.99999C13.8978 2.99999 14.2793 2.84196 14.5606 2.56066C14.8419 2.27935 15 1.89782 15 1.5C15 1.10217 14.8419 0.720643 14.5606 0.439339C14.2793 0.158035 13.8978 0 13.5 0C13.1022 0 12.7206 0.158035 12.4393 0.439339C12.158 0.720643 12 1.10217 12 1.5C12 1.89782 12.158 2.27935 12.4393 2.56066C12.7206 2.84196 13.1022 2.99999 13.5 2.99999Z" fill="#157B11"/>
</svg>
