<svg width="9" height="19" viewBox="0 0 9 19" fill="none" xmlns="http://www.w3.org/2000/svg">
<path fill-rule="evenodd" clip-rule="evenodd" d="M2.8819 2.31007V1.58224C2.8819 1.1626 3.0486 0.760153 3.34532 0.463425C3.64205 0.166698 4.0445 0 4.46414 0C4.88377 0 5.28622 0.166698 5.58295 0.463425C5.87967 0.760153 6.04637 1.1626 6.04637 1.58224V2.31007C6.65203 2.54031 7.20206 2.89621 7.66026 3.35435C8.07825 3.75943 8.41169 4.24345 8.64124 4.77836C8.72412 4.97136 8.76773 5.17894 8.76954 5.38898C8.77136 5.59902 8.73133 5.80731 8.6518 6.00172C8.57227 6.19613 8.45483 6.37275 8.30632 6.5213C8.15782 6.66984 7.98122 6.78733 7.78684 6.86691C7.59609 6.94925 7.39074 6.99243 7.18299 6.99386C6.97524 6.9953 6.76932 6.95497 6.57745 6.87527C6.38559 6.79558 6.2117 6.67814 6.0661 6.52993C5.92051 6.38172 5.80619 6.20576 5.72992 6.0125C5.66488 5.85692 5.56785 5.71676 5.44512 5.60112C5.32724 5.47493 5.18534 5.37354 5.02775 5.3029C4.87017 5.23226 4.70007 5.19379 4.52743 5.18974C4.16654 5.18974 3.82043 5.3331 3.56525 5.58829C3.31006 5.84347 3.1667 6.18958 3.1667 6.55046C3.1667 6.91135 3.31006 7.25746 3.56525 7.51264C3.82043 7.76783 4.16654 7.91119 4.52743 7.91119C5.58142 7.93068 6.59605 8.31501 7.39846 8.99868C8.20088 9.68236 8.74143 10.6231 8.92803 11.6606C9.11464 12.6981 8.93575 13.7683 8.42185 14.6887C7.90794 15.6091 7.09081 16.3229 6.10966 16.7084V17.4046C6.10966 17.8243 5.94296 18.2267 5.64624 18.5234C5.34951 18.8201 4.94706 18.9869 4.52743 18.9869C4.10779 18.9869 3.70534 18.8201 3.40861 18.5234C3.11189 18.2267 2.94519 17.8243 2.94519 17.4046V16.7084C2.33953 16.4782 1.7895 16.1223 1.33131 15.6642C0.905634 15.2533 0.571368 14.7573 0.350317 14.2085C0.246942 14.0136 0.185453 13.7993 0.169794 13.5793C0.154135 13.3593 0.184654 13.1384 0.259392 12.9309C0.334129 12.7233 0.451435 12.5337 0.603777 12.3742C0.756119 12.2147 0.940131 12.0888 1.144 12.0046C1.34788 11.9204 1.5671 11.8797 1.78762 11.8852C2.00813 11.8908 2.22505 11.9423 2.42445 12.0366C2.62386 12.1309 2.80135 12.2659 2.94552 12.4328C3.08969 12.5997 3.19737 12.795 3.26163 13.006C3.32827 13.169 3.43758 13.3111 3.57808 13.4174C3.69842 13.5489 3.8452 13.6536 4.0088 13.7245C4.1724 13.7954 4.34914 13.8309 4.52743 13.8288C4.85665 13.7787 5.15703 13.6123 5.37408 13.3597C5.59113 13.1072 5.71048 12.7852 5.71048 12.4522C5.71048 12.1192 5.59113 11.7972 5.37408 11.5447C5.15703 11.2921 4.85665 11.1257 4.52743 11.0757C3.46631 11.0762 2.43875 10.7038 1.62434 10.0236C0.809932 9.34333 0.260467 8.39854 0.0719753 7.3543C-0.116516 6.31005 0.0679543 5.23278 0.593148 4.31075C1.11834 3.38871 1.95085 2.68057 2.94519 2.31007H2.8819Z" fill="#F1734D"/>
</svg>
