<svg width="15" height="9" viewBox="0 0 15 9" fill="none" xmlns="http://www.w3.org/2000/svg">
<path d="M14.7095 8.28309C14.8016 8.19125 14.8747 8.08215 14.9245 7.96204C14.9743 7.84192 15 7.71316 15 7.58311C15 7.45306 14.9743 7.3243 14.9245 7.20418C14.8747 7.08407 14.8016 6.97497 14.7095 6.88313L8.05772 0.231306C7.98455 0.157983 7.89763 0.099811 7.80195 0.0601204C7.70627 0.0204298 7.60369 0 7.50011 0C7.39652 0 7.29395 0.0204298 7.19826 0.0601204C7.10258 0.099811 7.01566 0.157983 6.94249 0.231306L0.290671 6.88313C-0.0968904 7.27069 -0.0968904 7.89553 0.290671 8.28309C0.678232 8.67065 1.30308 8.67065 1.69064 8.28309L7.49615 2.47758L13.3096 8.291C13.6971 8.67065 14.322 8.67065 14.7095 8.28309Z" fill="#A6A6A6"/>
</svg>
