<svg width="10" height="11" viewBox="0 0 10 11" fill="none" xmlns="http://www.w3.org/2000/svg">
<path d="M5.97538 5.6526C6.49478 5.41958 6.93545 5.0361 7.24255 4.54987C7.54966 4.06364 7.70963 3.49613 7.70256 2.91799C7.72192 2.54215 7.66596 2.16624 7.53811 1.81314C7.41027 1.46005 7.21321 1.13716 6.95892 0.864162C6.70464 0.591159 6.39847 0.373754 6.05905 0.225186C5.71963 0.076619 5.35408 0 4.98466 0C4.61525 0 4.24969 0.076619 3.91028 0.225186C3.57086 0.373754 3.26469 0.591159 3.0104 0.864162C2.75612 1.13716 2.55906 1.46005 2.43121 1.81314C2.30337 2.16624 2.24743 2.54215 2.26679 2.91799C2.2554 3.50192 2.41407 4.07621 2.72281 4.56833C3.03154 5.06046 3.47647 5.44837 4.00144 5.68308C-0.185687 6.32294 0.00125623 10.9543 0.00125623 10.9543L9.9008 11C9.9008 11 10.1326 6.28484 5.97538 5.6526Z" fill="#FF725E"/>
</svg>
