<svg width="56" height="60" viewBox="0 0 56 60" fill="none" xmlns="http://www.w3.org/2000/svg">
<path d="M41.2657 20.3L46.5657 7.3C46.6657 7 46.6657 6.6 46.4657 6.3L46.0657 5.8H45.5657L32.0657 9.4L21.7657 0.3L21.3657 0H20.9657C20.3657 0 19.8657 0.5 19.8657 1L19.0657 15L7.36572 22.3C6.96572 22.5 6.86572 22.9 6.86572 23.3L6.96572 24L20.3657 29.4L26.8657 49.2C26.9657 49.7 27.4657 50 27.8657 50C28.2657 50 28.7657 49.7 28.8657 49.3L35.1657 32.3L47.6657 33.8H47.7657C48.1657 33.8 48.5657 33.6 48.6657 33.2L48.9657 32.6L41.2657 20.3Z" fill="#FFD54F"/>
<path d="M33.8656 11L31.5656 11.7L28.8656 9.29999L37.3656 30.6L41.8656 31.1L33.8656 11Z" fill="#FFECB3"/>
<path d="M24.1656 5.1L21.7656 3L21.0657 16.2L20.1656 16.7L29.8657 41L33.8657 30.1L34.1656 30.2L24.1656 5.1Z" fill="#FFE082"/>
<path d="M28.0657 47.7L26.3657 42.6L27.4657 42.2L28.1657 44.2L29.4657 40.6L30.5657 41L28.0657 47.7ZM31.2657 38.9L30.1657 38.5L33.6657 29.1L38.3657 29.7L38.2657 30.8L34.4657 30.3L31.2657 38.9ZM45.5657 30.8L44.3657 28.8L45.3657 28.2L46.5657 30.2L45.5657 30.8ZM22.0657 29.4L21.5657 28L8.56567 22.8L10.0657 21.9L10.3657 22.3L22.5657 27.2L23.1657 29.1L22.0657 29.4ZM12.6657 21.6L12.0657 20.6L19.8657 15.7L20.4657 16.7L12.6657 21.6ZM41.5657 16.7L40.4657 16.3L43.9657 7.8L45.0657 8.2L41.5657 16.7ZM31.7657 11.6L29.6657 9.7L30.4657 8.8L32.1657 10.3L42.7657 7.5L43.0657 8.6L31.7657 11.6ZM22.6657 3.6L21.9657 3H21.3657L21.4657 1L23.4657 2.8L22.6657 3.6Z" fill="#FFCA28"/>
<path d="M38.8657 48H16.8657V53H38.8657V48Z" fill="#FF7043"/>
<path d="M42.8657 51H12.8657V59H42.8657V51Z" fill="#B71C1C"/>
<path d="M43.8657 58H11.8657V60H43.8657V58Z" fill="#3E2723"/>
<path d="M34.8657 51H20.8657V57H34.8657V51Z" fill="#FFB300"/>
<path d="M33.8657 52H21.8657V56H33.8657V52Z" fill="#FBE9E7"/>
<path d="M12.6657 47L8.4657 41.3C7.4657 38.2 7.4657 35 8.4657 32C8.5657 31.7 8.8657 31.4 9.2657 31.3C9.6657 31.2 9.9657 31.4 10.2657 31.6C13.6657 35.9 14.6657 41.8 12.6657 47Z" fill="#FFCA28"/>
<path d="M7.26568 39.1C6.86568 38.2 6.56568 37.5 6.36568 36.8C8.06568 31.6 6.96568 25.9 3.46568 21.8C3.26568 21.6 2.96568 21.5 2.76568 21.5C2.26568 21.5 1.96568 21.8 1.76568 22.2C0.165676 27.5 1.66568 33.3 5.46568 37.3C5.66568 38 5.96568 38.7 6.36568 39.6L7.26568 39.1Z" fill="#FFCA28"/>
<path d="M10.3657 42C9.56572 42 8.86572 41.1 8.86572 40C8.86572 38.9 9.56572 38 10.3657 38C11.1657 38 11.8657 38.9 11.8657 40C11.8657 41.1 11.1657 42 10.3657 42Z" fill="#FFB300"/>
<path d="M3.66563 37.4C3.16563 37.4 2.56562 37.1 2.06562 36.7C1.66562 36.3 1.46562 35.9 1.36562 35.5C1.26562 35 1.36563 34.5 1.66563 34.2C2.26563 33.6 3.36563 33.8 4.16563 34.6C4.56563 35 4.76562 35.4 4.86562 35.8C4.96562 36.3 4.86562 36.8 4.56562 37.1C4.36562 37.3 3.96563 37.4 3.66563 37.4Z" fill="#FFB300"/>
<path d="M14.8657 48.4C14.1657 47.9 13.3657 47.3 12.5657 46.5C10.8657 41.3 6.56569 37.3 1.16569 36.2C0.765686 36.1 0.365686 36.3 0.165686 36.6C-0.0343143 36.9 -0.0343147 37.2 0.0656853 37.5C1.96569 42.6 6.56569 46.4 11.9657 47.3C12.7657 48 13.5657 48.7 14.2657 49.2L14.8657 48.4Z" fill="#FFB300"/>
<path d="M43.0658 47L47.2658 41.3C48.2658 38.2 48.2658 35 47.2658 32C47.1658 31.7 46.8658 31.4 46.4658 31.3C46.0658 31.2 45.7658 31.4 45.4658 31.6C42.0658 35.9 41.0658 41.8 43.0658 47Z" fill="#FFE082"/>
<path d="M48.4657 39.1C48.8657 38.2 49.1657 37.5 49.3657 36.8C47.6657 31.6 48.7657 25.9 52.2657 21.8C52.4657 21.6 52.7657 21.5 52.9657 21.5C53.4657 21.5 53.7657 21.8 53.9657 22.2C55.5657 27.5 54.0657 33.3 50.2657 37.3C50.0657 38 49.7657 38.7 49.3657 39.6L48.4657 39.1Z" fill="#FFD54F"/>
<path d="M43.8657 40C43.8657 38.9 44.5657 38 45.3657 38C46.1657 38 46.8657 38.9 46.8657 40C46.8657 41.1 46.1657 42 45.3657 42C44.5657 42 43.8657 41.1 43.8657 40Z" fill="#FFB300"/>
<path d="M51.1657 37C50.8657 36.7 50.7657 36.2 50.8657 35.7C50.9657 35.3 51.1657 34.8 51.5657 34.5C52.3657 33.7 53.4657 33.6 54.0657 34.1C54.3657 34.4 54.4657 34.9 54.3657 35.4C54.2657 35.8 54.0657 36.3 53.6657 36.6C53.1657 37.1 52.6657 37.3 52.0657 37.3C51.7657 37.4 51.3657 37.3 51.1657 37Z" fill="#FFB300"/>
<path d="M40.8657 48.4C41.5657 47.9 42.3657 47.3 43.1657 46.5C44.8657 41.3 49.1657 37.3 54.5657 36.2C54.9657 36.1 55.3657 36.3 55.5657 36.6C55.7657 36.9 55.7657 37.2 55.6657 37.5C53.7657 42.6 49.1657 46.4 43.7657 47.3C42.9657 48 42.1657 48.7 41.4657 49.2L40.8657 48.4Z" fill="#FFCA28"/>
</svg>
