<svg width="25" height="25" viewBox="0 0 25 25" fill="none" xmlns="http://www.w3.org/2000/svg">
<path d="M19.6336 12.5L23.4375 6.25H15.8289L12.5 0.78125L9.17148 6.25H1.5625L5.3668 12.5L1.5625 18.75H9.17148L12.5 24.2188L15.8289 18.75H23.4375L19.6336 12.5ZM19.8129 8.20312L18.4273 10.5188L17.018 8.20312H19.8129ZM17.2426 12.5L14.673 16.7969H10.3277L7.7582 12.5L10.3277 8.20312H14.6727L17.2426 12.5ZM12.5 4.5707L13.5047 6.25H11.4961L12.5 4.5707ZM5.18867 8.20312H7.98203L6.57305 10.518L5.18867 8.20312ZM5.18867 16.7969L6.57305 14.482L7.98242 16.7969H5.18867ZM12.5 20.4293L11.4961 18.75H13.5051L12.5 20.4293ZM18.4273 14.4812L19.8129 16.7969H17.0184L18.4273 14.4812Z" fill="white"/>
<path d="M12.5001 14.1742C13.406 14.1742 14.1403 13.4247 14.1403 12.5C14.1403 11.5754 13.406 10.8258 12.5001 10.8258C11.5942 10.8258 10.8599 11.5754 10.8599 12.5C10.8599 13.4247 11.5942 14.1742 12.5001 14.1742Z" fill="white"/>
</svg>
