<svg width="39" height="4" viewBox="0 0 39 4" fill="none" xmlns="http://www.w3.org/2000/svg">
<g opacity="0.2">
<path d="M2.91244 1.59425C2.89155 1.88432 2.78754 2.16176 2.61331 2.39217C2.43907 2.62258 2.20228 2.7958 1.9323 2.89037C1.66231 2.98494 1.37102 2.99669 1.09454 2.92415C0.818063 2.85162 0.568566 2.69801 0.376998 2.48236C0.18543 2.2667 0.0602229 1.99848 0.0168936 1.711C-0.0264357 1.42351 0.0140187 1.1294 0.133252 0.865123C0.252486 0.600849 0.445255 0.378053 0.687634 0.224357C0.930013 0.0706603 1.21134 -0.0071722 1.49674 0.000519732C1.89109 0.0229063 2.26089 0.202795 2.52592 0.501143C2.79094 0.799492 2.92982 1.19226 2.91244 1.59425Z" fill="#E13437"/>
<path d="M7.42161 1.61587C7.43554 1.81917 7.40825 2.0232 7.34146 2.21531C7.27466 2.40741 7.16979 2.58346 7.03335 2.7325C6.89691 2.88154 6.73183 3.00039 6.54838 3.08165C6.36492 3.16291 6.16701 3.20485 5.96697 3.20485C5.76693 3.20485 5.56902 3.16291 5.38556 3.08165C5.20211 3.00039 5.03703 2.88154 4.90059 2.7325C4.76415 2.58346 4.65927 2.40741 4.59248 2.21531C4.52569 2.0232 4.49841 1.81917 4.51234 1.61587C4.49841 1.41257 4.52569 1.20851 4.59248 1.01641C4.65927 0.824309 4.76415 0.648257 4.90059 0.499216C5.03703 0.350176 5.20211 0.231328 5.38556 0.15007C5.56902 0.0688109 5.76693 0.0268723 5.96697 0.0268723C6.16701 0.0268723 6.36492 0.0688109 6.54838 0.15007C6.73183 0.231328 6.89691 0.350176 7.03335 0.499216C7.16979 0.648257 7.27466 0.824309 7.34146 1.01641C7.40825 1.20851 7.43554 1.41257 7.42161 1.61587Z" fill="#E13437"/>
<path d="M11.9375 1.63751C11.9167 1.92759 11.8126 2.20503 11.6384 2.43544C11.4642 2.66584 11.2274 2.83907 10.9574 2.93364C10.6874 3.02821 10.3961 3.03995 10.1196 2.96742C9.84317 2.89489 9.59367 2.74128 9.4021 2.52562C9.21053 2.30997 9.08533 2.04175 9.042 1.75426C8.99867 1.46678 9.03912 1.17266 9.15836 0.908388C9.27759 0.644114 9.47036 0.421318 9.71274 0.267621C9.95512 0.113925 10.2364 0.0360926 10.5218 0.0437845C10.9155 0.067997 11.2843 0.248415 11.5489 0.546345C11.8136 0.844275 11.9531 1.23601 11.9375 1.63751Z" fill="#E13437"/>
<path d="M16.4464 1.65913C16.4255 1.94921 16.3214 2.22664 16.1472 2.45705C15.973 2.68746 15.7362 2.86068 15.4662 2.95525C15.1962 3.04982 14.9049 3.06157 14.6284 2.98904C14.352 2.9165 14.1025 2.76289 13.9109 2.54724C13.7193 2.33158 13.5941 2.06339 13.5508 1.7759C13.5075 1.48842 13.5479 1.19428 13.6672 0.930005C13.7864 0.665731 13.9792 0.442934 14.2215 0.289238C14.4639 0.135542 14.7452 0.0577093 15.0306 0.0654013C15.4243 0.0896137 15.793 0.270032 16.0577 0.567961C16.3224 0.865891 16.4619 1.25763 16.4464 1.65913Z" fill="#E13437"/>
<path d="M20.9556 1.67357C20.9361 1.96408 20.8332 2.24233 20.6597 2.47374C20.4863 2.70515 20.2498 2.87952 19.9799 2.97518C19.7099 3.07083 19.4183 3.08355 19.1414 3.01175C18.8644 2.93996 18.6142 2.78682 18.4219 2.57136C18.2296 2.35591 18.1038 2.08763 18.0599 1.7999C18.0161 1.51216 18.0563 1.21765 18.1754 0.952965C18.2945 0.688276 18.4873 0.465088 18.73 0.311142C18.9726 0.157196 19.2542 0.0792621 19.5399 0.0870628C19.9324 0.111267 20.3 0.290684 20.5645 0.587048C20.8289 0.883413 20.9693 1.27329 20.9556 1.67357Z" fill="#E13437"/>
<path d="M25.4715 1.69519C25.4522 1.9842 25.3503 2.26113 25.1785 2.49193C25.0067 2.72273 24.7724 2.89733 24.5044 2.99422C24.2365 3.09111 23.9465 3.10607 23.6703 3.03727C23.3941 2.96847 23.1437 2.81889 22.9499 2.60696C22.756 2.39503 22.6272 2.13 22.5793 1.84447C22.5314 1.55894 22.5665 1.26537 22.6803 0.999893C22.7941 0.734415 22.9815 0.508598 23.2196 0.350258C23.4577 0.191917 23.736 0.107947 24.0204 0.108683C24.4191 0.12372 24.7957 0.29915 25.0677 0.59652C25.3397 0.89389 25.4849 1.28896 25.4715 1.69519Z" fill="#E13437"/>
<path d="M29.9806 1.71683C29.9945 1.92013 29.9673 2.12419 29.9005 2.31629C29.8337 2.50839 29.7288 2.68444 29.5924 2.83348C29.4559 2.98252 29.2908 3.10137 29.1074 3.18263C28.9239 3.26389 28.726 3.30581 28.526 3.30581C28.3259 3.30581 28.128 3.26389 27.9446 3.18263C27.7611 3.10137 27.596 2.98252 27.4596 2.83348C27.3232 2.68444 27.2183 2.50839 27.1515 2.31629C27.0847 2.12419 27.0574 1.92013 27.0713 1.71683C27.0574 1.51353 27.0847 1.30947 27.1515 1.11737C27.2183 0.925269 27.3232 0.749217 27.4596 0.600177C27.596 0.451137 27.7611 0.332311 27.9446 0.251052C28.128 0.169793 28.3259 0.127855 28.526 0.127855C28.726 0.127855 28.9239 0.169793 29.1074 0.251052C29.2908 0.332311 29.4559 0.451137 29.5924 0.600177C29.7288 0.749217 29.8337 0.925269 29.9005 1.11737C29.9673 1.30947 29.9945 1.51353 29.9806 1.71683Z" fill="#E13437"/>
<path d="M34.4896 1.73847C34.4702 2.02747 34.3684 2.30442 34.1966 2.53522C34.0248 2.76602 33.7905 2.94061 33.5225 3.0375C33.2545 3.13439 32.9646 3.14935 32.6884 3.08054C32.4122 3.01174 32.1618 2.86216 31.968 2.65023C31.7741 2.43831 31.6453 2.17328 31.5974 1.88774C31.5495 1.60221 31.5846 1.30865 31.6984 1.04317C31.8121 0.777689 31.9996 0.551872 32.2377 0.393532C32.4758 0.235191 32.7541 0.151243 33.0385 0.151979C33.4372 0.167016 33.8138 0.342425 34.0858 0.639794C34.3578 0.937164 34.503 1.33224 34.4896 1.73847Z" fill="#E13437"/>
<path d="M38.9988 1.76008C38.9793 2.05058 38.8764 2.32883 38.7029 2.56025C38.5295 2.79166 38.2931 2.96603 38.0231 3.06169C37.7531 3.15734 37.4616 3.17008 37.1846 3.09828C36.9076 3.02649 36.6574 2.87333 36.4651 2.65787C36.2728 2.44241 36.147 2.17414 36.1031 1.8864C36.0593 1.59867 36.0995 1.30416 36.2186 1.03947C36.3377 0.774783 36.5305 0.551595 36.7732 0.39765C37.0158 0.243704 37.2974 0.165792 37.5831 0.173593C37.9756 0.197797 38.3432 0.377192 38.6077 0.673556C38.8721 0.96992 39.0125 1.3598 38.9988 1.76008Z" fill="#E13437"/>
</g>
</svg>
