<svg width="72" height="13" viewBox="0 0 72 13" fill="none" xmlns="http://www.w3.org/2000/svg">
<path d="M70.3949 12.5309C70.5358 12.514 70.6756 12.4879 70.8132 12.4528C71.0071 12.39 71.1857 12.286 71.3372 12.1476C71.4887 12.0092 71.6095 11.8396 71.6918 11.6501C71.8011 11.3632 71.8441 11.0545 71.8173 10.7479C71.8173 10.3998 71.8173 10.0375 71.8173 9.61842C71.8173 8.8015 71.8173 7.8567 71.8173 6.77694V2.26608C71.8506 1.9395 71.7797 1.61068 71.6151 1.32839C71.439 1.04416 71.1697 0.832733 70.8551 0.731681C70.5081 0.666021 70.1544 0.644548 69.8022 0.66775H59.7683L1.64963 0.447537C1.33701 0.448289 1.0353 0.564671 0.800587 0.775038C0.565878 0.985406 0.414148 1.27543 0.373594 1.59122C0.373594 2.30159 0.373594 3.01196 0.373594 3.72233C0.373594 5.14308 0.373594 6.56382 0.373594 7.98456C0.373594 8.69493 0.373594 9.4053 0.373594 10.1157C0.347628 10.4453 0.361678 10.777 0.415429 11.1031C0.498935 11.3929 0.678911 11.6441 0.924444 11.8135C1.18041 11.9837 1.4842 12.0636 1.78908 12.0408H4.82226L20.2532 12.126L46.3804 12.2894L63.9938 12.4315L68.7841 12.4883H70.0323C70.3112 12.4883 70.4507 12.4883 70.4507 12.4883C70.4507 12.4883 70.3112 12.4883 70.0323 12.4883H68.7841H63.9938H46.3804L20.2532 12.4102L4.82226 12.3462H1.78908C1.41162 12.3722 1.03639 12.2697 0.722236 12.055C0.404953 11.8311 0.173394 11.5023 0.0667871 11.1244C0.00429057 10.7635 -0.0144453 10.396 0.011003 10.0304C0.011003 9.32006 0.011003 8.60969 0.011003 7.89932C0.011003 6.47858 0.011003 5.05783 0.011003 3.63709C0.011003 2.92672 0.011003 2.21636 0.011003 1.47047C0.0602985 1.06488 0.253328 0.691596 0.553799 0.420807C0.854269 0.150018 1.24148 0.000366187 1.64265 0L59.7613 0.326764L69.7952 0.404916C70.1689 0.381565 70.5439 0.407822 70.9109 0.483047C71.2732 0.603639 71.5787 0.856724 71.7685 1.19342C71.9489 1.5063 72.027 1.86948 71.9917 2.23055C71.9917 2.56443 71.9917 2.89831 71.9917 3.21798C71.9917 4.50375 71.9917 5.68296 71.9917 6.76983C71.9917 7.8567 71.9917 8.77308 71.9917 9.61131C71.9917 10.0162 71.9917 10.3927 71.9917 10.7408C72.0184 11.0585 71.9681 11.3781 71.8452 11.6714C71.7547 11.8674 71.6238 12.0412 71.4613 12.181C71.2989 12.3207 71.1087 12.4231 70.9039 12.4812C70.7404 12.5382 70.566 12.5552 70.3949 12.5309Z" fill="#E0E0E0"/>
</svg>
