<svg width="91" height="194" viewBox="0 0 91 194" fill="none" xmlns="http://www.w3.org/2000/svg">
<path d="M80.2464 0.239807H66.8536C66.4166 0.248059 65.9855 0.343938 65.5849 0.521965C65.1843 0.699993 64.822 0.956679 64.5188 1.27737C64.2156 1.59805 63.9773 1.97646 63.8177 2.39096C63.6581 2.80547 63.5801 3.24795 63.5884 3.69314V6.16685C63.5966 6.6117 63.5187 7.05383 63.3589 7.46794C63.1992 7.88204 62.9609 8.25997 62.6576 8.5801C62.3543 8.90023 61.992 9.15625 61.5914 9.33351C61.1908 9.51078 60.7599 9.6058 60.3232 9.61314L34.2155 9.49332C33.3323 9.46934 32.4945 9.08922 31.8862 8.43645C31.2779 7.78367 30.9487 6.91162 30.971 6.01181V3.53809C30.9934 2.63946 30.6652 1.76845 30.0583 1.11588C29.4515 0.463312 28.6155 0.0823891 27.7335 0.0565675H23.0225L11.2969 0.000190626C8.50788 -0.0167263 5.82595 1.09292 3.83831 3.08616C1.85067 5.0794 0.719292 7.7938 0.69189 10.635L0.000111806 182.893C-0.00626202 184.302 0.259942 185.699 0.783535 187.004C1.30713 188.309 2.07786 189.496 3.0517 190.497C4.02555 191.498 5.18344 192.294 6.45927 192.84C7.73511 193.385 9.10389 193.669 10.4875 193.676L79.444 194C80.8284 194.006 82.2006 193.735 83.4822 193.201C84.7637 192.667 85.9295 191.882 86.913 190.889C87.8965 189.896 88.6784 188.716 89.2141 187.415C89.7498 186.115 90.0287 184.719 90.0351 183.309L90.7269 11.0508C90.7434 8.2016 89.6488 5.46226 87.6835 3.43498C85.7182 1.40771 83.0432 0.258441 80.2464 0.239807Z" fill="#FFF7E3"/>
</svg>
