<svg width="17" height="17" viewBox="0 0 17 17" fill="none" xmlns="http://www.w3.org/2000/svg">
<path d="M14.2965 16.2273C14.6039 16.2273 14.8987 16.1052 15.1161 15.8878C15.3334 15.6704 15.4556 15.3756 15.4556 15.0682C15.4556 14.7608 15.3334 14.466 15.1161 14.2486C14.8987 14.0312 14.6039 13.9091 14.2965 13.9091C13.9891 13.9091 13.6942 14.0312 13.4769 14.2486C13.2595 14.466 13.1374 14.7608 13.1374 15.0682C13.1374 15.3756 13.2595 15.6704 13.4769 15.8878C13.6942 16.1052 13.9891 16.2273 14.2965 16.2273ZM6.56919 16.2273C6.8766 16.2273 7.17142 16.1052 7.38879 15.8878C7.60616 15.6704 7.72828 15.3756 7.72828 15.0682C7.72828 14.7608 7.60616 14.466 7.38879 14.2486C7.17142 14.0312 6.8766 13.9091 6.56919 13.9091C6.26178 13.9091 5.96696 14.0312 5.74959 14.2486C5.53222 14.466 5.4101 14.7608 5.4101 15.0682C5.4101 15.3756 5.53222 15.6704 5.74959 15.8878C5.96696 16.1052 6.26178 16.2273 6.56919 16.2273Z" fill="black" stroke="#157B11" stroke-width="1.5" stroke-linecap="round" stroke-linejoin="round"/>
<path d="M3.09091 2.31818H16.2273L14.6818 10.8182M3.09091 2.31818L4.63636 10.8182H14.6818M3.09091 2.31818C2.96186 1.80277 2.31818 0.772727 0.772727 0.772727M14.6818 10.8182H3.26864C1.89009 10.8182 1.15909 11.4217 1.15909 12.3636C1.15909 13.3056 1.89009 13.9091 3.26864 13.9091H14.2955" stroke="#157B11" stroke-width="1.5" stroke-linecap="round" stroke-linejoin="round"/>
</svg>
