<svg width="62" height="37" viewBox="0 0 62 37" fill="none" xmlns="http://www.w3.org/2000/svg">
<path d="M59.9092 0H1.7575C1.52737 0.000769994 1.29971 0.0475383 1.08791 0.137553C0.876107 0.227569 0.684438 0.359015 0.524167 0.524167C0.188744 0.859391 0.000199402 1.31411 0 1.78833V35.2425C0 35.7086 0.185164 36.1556 0.514759 36.4852C0.844355 36.8148 1.29138 37 1.7575 37H59.9092C60.3753 37 60.8223 36.8148 61.1519 36.4852C61.4815 36.1556 61.6667 35.7086 61.6667 35.2425V1.78833C61.6667 1.31933 61.4826 0.869073 61.1538 0.534567C60.8251 0.200062 60.3781 0.00808623 59.9092 0Z" fill="#FFEABB"/>
</svg>
