<svg width="149" height="154" viewBox="0 0 149 154" fill="none" xmlns="http://www.w3.org/2000/svg">
<path d="M75.0207 22.3493H76.3178V132.601H75.0207V22.3493Z" fill="#C49094"/>
<path d="M28.2532 105.599L27.6046 104.476L123.085 49.3505L123.734 50.4738L28.2532 105.599Z" fill="#C49094"/>
<path d="M21.4935 87.6861L21.2683 86.4088L129.845 67.2638L130.07 68.5412L21.4935 87.6861Z" fill="#C49094"/>
<path d="M21.2683 68.5412L21.4935 67.2638L130.07 86.4088L129.845 87.6861L21.2683 68.5412Z" fill="#C49094"/>
<path d="M27.6046 50.4738L28.2531 49.3505L123.734 104.476L123.085 105.599L27.6046 50.4738Z" fill="#C49094"/>
<path d="M39.7382 35.6631L40.7318 34.8294L111.6 119.287L110.606 120.121L39.7382 35.6631Z" fill="#C49094"/>
<path d="M56.2056 25.8956L57.4245 25.452L95.1327 129.054L93.9138 129.498L56.2056 25.8956Z" fill="#C49094"/>
<path d="M110.607 34.8294L111.6 35.6631L40.732 120.121L39.7384 119.287L110.607 34.8294Z" fill="#C49094"/>
<path d="M93.9139 25.452L95.1328 25.8956L57.4246 129.498L56.2058 129.054L93.9139 25.452Z" fill="#C49094"/>
<path d="M53.6694 23.5362L63.086 30.1832C63.4852 30.465 64.0294 30.4185 64.3749 30.0729L74.0463 20.4015C74.4559 19.992 75.126 20.0129 75.5091 20.4472L83.9642 30.0296C84.2903 30.3992 84.8365 30.4774 85.2532 30.2142L95.7904 23.5592C96.3346 23.2154 96.4194 22.4555 95.9642 22.0003L74.2579 0.29407C73.8494 -0.114416 73.1813 -0.0947831 72.7975 0.336985L53.498 22.0489C53.1001 22.4966 53.1801 23.1908 53.6694 23.5362Z" fill="#FDBA16"/>
<path d="M96.2831 23.5222L97.6443 34.9678C97.7021 35.4531 98.1008 35.8263 98.5888 35.8519L112.363 36.5738C112.897 36.6017 113.315 37.0423 113.315 37.5764L113.315 51.3462C113.315 51.8305 113.66 52.2458 114.137 52.3336L126.201 54.5576C126.818 54.6713 127.388 54.1976 127.388 53.5702L127.388 23.2175C127.388 22.6605 126.934 22.21 126.377 22.2135L97.2737 22.3997C96.6748 22.4035 96.2124 22.9275 96.2831 23.5222Z" fill="#FDBA16"/>
<path d="M126.496 55.5269L119.366 64.5827C119.063 64.9666 119.081 65.5125 119.408 65.8756L128.638 76.1261C128.995 76.523 128.979 77.1302 128.602 77.5079L118.865 87.2446C118.523 87.587 118.473 88.1252 118.748 88.524L125.706 98.6277C126.062 99.1444 126.8 99.2118 127.243 98.7681L148.706 77.3056C149.1 76.9117 149.098 76.2725 148.701 75.8811L127.99 55.4336C127.564 55.0128 126.867 55.0563 126.496 55.5269Z" fill="#FDBA16"/>
<path d="M52.911 130.165L62.3276 123.518C62.7268 123.236 63.271 123.283 63.6165 123.629L73.2879 133.3C73.6974 133.709 74.3676 133.689 74.7507 133.254L83.2058 123.672C83.5319 123.302 84.0781 123.224 84.4948 123.487L95.032 130.142C95.5762 130.486 95.661 131.246 95.2058 131.701L73.4995 153.407C73.091 153.816 72.4229 153.796 72.0391 153.364L52.7396 131.653C52.3417 131.205 52.4217 130.511 52.911 130.165Z" fill="#FDBA16"/>
<path d="M95.5247 130.179L96.8859 118.734C96.9436 118.248 97.3424 117.875 97.8304 117.85L111.605 117.128C112.138 117.1 112.556 116.659 112.556 116.125L112.556 102.355C112.556 101.871 112.902 101.456 113.378 101.368L125.443 99.1439C126.06 99.0301 126.629 99.5039 126.629 100.131L126.629 130.484C126.629 131.041 126.176 131.491 125.619 131.488L96.5153 131.302C95.9163 131.298 95.454 130.774 95.5247 130.179Z" fill="#FDBA16"/>
<path d="M52.5987 129.421L51.2375 117.976C51.1798 117.49 50.7811 117.117 50.2931 117.092L36.5186 116.37C35.9852 116.342 35.5671 115.901 35.5671 115.367L35.5671 101.597C35.5671 101.113 35.2214 100.698 34.7451 100.61L22.6804 98.386C22.0634 98.2722 21.4943 98.7459 21.4943 99.3733L21.4943 129.726C21.4943 130.283 21.9478 130.734 22.5048 130.73L51.6082 130.544C52.2071 130.54 52.6695 130.016 52.5987 129.421Z" fill="#FDBA16"/>
<path d="M52.7169 22.7643L51.3557 34.2099C51.2979 34.6951 50.8992 35.0684 50.4112 35.0939L36.6367 35.8158C36.1034 35.8438 35.6853 36.2844 35.6853 36.8185L35.6853 50.5883C35.6853 51.0726 35.3395 51.4879 34.8632 51.5757L22.7985 53.7996C22.1815 53.9134 21.6125 53.4397 21.6125 52.8123L21.6125 22.4596C21.6125 21.9026 22.0659 21.452 22.6229 21.4556L51.7263 21.6418C52.3252 21.6456 52.7876 22.1696 52.7169 22.7643Z" fill="#FDBA16"/>
<path d="M22.5037 54.7689L29.6344 63.8247C29.9367 64.2087 29.9187 64.7545 29.5917 65.1177L20.3621 75.3681C20.0048 75.7651 20.0207 76.3723 20.3983 76.7499L30.135 86.4866C30.4775 86.8291 30.5267 87.3672 30.252 87.7661L23.2935 97.8697C22.9377 98.3864 22.2003 98.4538 21.7567 98.0102L0.294122 76.5476C-0.0997468 76.1537 -0.0977023 75.5145 0.298678 75.1232L21.0095 54.6756C21.4357 54.2548 22.1332 54.2984 22.5037 54.7689Z" fill="#FDBA16"/>
<ellipse cx="74.3722" cy="77.475" rx="26.59" ry="26.59" fill="#E73035"/>
</svg>
