<svg width="22" height="22" viewBox="0 0 22 22" fill="none" xmlns="http://www.w3.org/2000/svg">
<path d="M18.5011 21C18.8989 21 19.2804 20.842 19.5617 20.5607C19.843 20.2794 20.0011 19.8978 20.0011 19.5C20.0011 19.1022 19.843 18.7207 19.5617 18.4394C19.2804 18.1581 18.8989 18 18.5011 18C18.1033 18 17.7217 18.1581 17.4404 18.4394C17.1591 18.7207 17.0011 19.1022 17.0011 19.5C17.0011 19.8978 17.1591 20.2794 17.4404 20.5607C17.7217 20.842 18.1033 21 18.5011 21ZM8.50116 21C8.89898 21 9.28051 20.842 9.56181 20.5607C9.84312 20.2794 10.0012 19.8978 10.0012 19.5C10.0012 19.1022 9.84312 18.7207 9.56181 18.4394C9.28051 18.1581 8.89898 18 8.50116 18C8.10334 18 7.72181 18.1581 7.44051 18.4394C7.15921 18.7207 7.00117 19.1022 7.00117 19.5C7.00117 19.8978 7.15921 20.2794 7.44051 20.5607C7.72181 20.842 8.10334 21 8.50116 21Z" fill="black" stroke="white" stroke-width="2" stroke-linecap="round" stroke-linejoin="round"/>
<path d="M3.99997 2.99998H20.9999L18.9999 13.9999M3.99997 2.99998L5.99996 13.9999H18.9999M3.99997 2.99998C3.83297 2.33298 2.99998 0.999993 0.999993 0.999993M18.9999 13.9999H4.22997C2.44598 13.9999 1.49999 14.7809 1.49999 15.9999C1.49999 17.2189 2.44598 17.9999 4.22997 17.9999H18.4999" stroke="white" stroke-width="2" stroke-linecap="round" stroke-linejoin="round"/>
</svg>
