<svg width="28" height="26" viewBox="0 0 28 26" fill="none" xmlns="http://www.w3.org/2000/svg">
<path d="M12.6061 23.6364C12.6061 24.9442 11.5503 26 10.2424 26C8.93455 26 7.87879 24.9442 7.87879 23.6364C7.87879 22.3285 8.93455 21.2727 10.2424 21.2727C11.5503 21.2727 12.6061 22.3285 12.6061 23.6364ZM20.4848 21.2727C19.177 21.2727 18.1212 22.3285 18.1212 23.6364C18.1212 24.9442 19.177 26 20.4848 26C21.7927 26 22.8485 24.9442 22.8485 23.6364C22.8485 22.3285 21.7927 21.2727 20.4848 21.2727ZM27.5442 6.19273L24.3927 18.7988C24.3292 19.0557 24.1813 19.2838 23.9728 19.4466C23.7642 19.6095 23.507 19.6976 23.2424 19.697H7.48485C6.91758 19.697 6.42909 19.2873 6.31879 18.72L3.34061 2.36364H1.18182C0.535758 2.36364 0 1.82788 0 1.18182C0 0.535758 0.535758 0 1.18182 0H4.33333C4.90061 0 5.38909 0.409697 5.49939 0.97697L6.17697 4.72727H26.3939C26.5731 4.72803 26.7498 4.7693 26.9108 4.84801C27.0718 4.92672 27.2129 5.04082 27.3235 5.18178C27.4342 5.32274 27.5115 5.48689 27.5497 5.66196C27.5879 5.83704 27.5861 6.01848 27.5442 6.19273ZM24.8812 7.09091H6.60242L8.46182 17.3333H22.3127L24.8812 7.09091Z" fill="#A1A1A1"/>
</svg>
