<svg width="125" height="30" viewBox="0 0 125 30" fill="none" xmlns="http://www.w3.org/2000/svg">
<g filter="url(#filter0_d_1_10194)">
<rect width="58" height="30" rx="10" fill="white"/>
</g>
<g filter="url(#filter1_d_1_10194)">
<rect x="67" width="58" height="30" rx="10" fill="white"/>
</g>
<path d="M90.7042 10.3825C90.3881 8.29643 91.8601 6.41945 94.1088 5.73072C94.5081 5.60852 94.939 5.64324 95.3135 5.82782C95.688 6.01239 95.9781 6.3329 96.1244 6.72398L96.8455 8.64909C96.9614 8.95875 96.9822 9.296 96.9052 9.61756C96.8281 9.93912 96.6568 10.2303 96.4132 10.4539L94.2681 12.4213C94.1624 12.5185 94.0835 12.6414 94.0393 12.7781C93.9951 12.9148 93.9871 13.0606 94.0159 13.2013L94.035 13.2876L94.0881 13.5042C94.1354 13.6867 94.2067 13.944 94.3071 14.251C94.5063 14.8609 94.8241 15.6807 95.2971 16.4997C95.7701 17.3187 96.321 18.0041 96.7492 18.4812C96.9722 18.7297 97.2053 18.9689 97.4479 19.1982L97.5143 19.2596C97.6216 19.3546 97.7516 19.4202 97.8918 19.45C98.032 19.4798 98.1775 19.4728 98.3142 19.4297L101.091 18.5559C101.406 18.4568 101.744 18.4541 102.061 18.5483C102.378 18.6425 102.66 18.8292 102.87 19.0845L104.183 20.6794C104.731 21.3432 104.666 22.319 104.036 22.9057C102.315 24.5097 99.9489 24.8391 98.3026 23.5147C96.2847 21.8872 94.5835 19.9022 93.284 17.6589C91.9738 15.4171 91.0986 12.949 90.7042 10.3825ZM95.7543 13.31L97.535 11.677C98.0223 11.2299 98.365 10.6475 98.5191 10.0043C98.6731 9.36122 98.6315 8.68674 98.3997 8.0674L97.6777 6.1423C97.3832 5.35576 96.7998 4.71116 96.0465 4.33988C95.2932 3.96861 94.4266 3.89861 93.6234 4.14417C90.8312 4.99968 88.5891 7.50315 89.0637 10.6306C89.4894 13.4038 90.4345 16.0717 91.8493 18.4945C93.2509 20.9136 95.0857 23.0542 97.262 24.8092C99.7306 26.7924 103.028 26.1161 105.168 24.1205C105.781 23.5498 106.152 22.767 106.207 21.9317C106.262 21.0965 105.997 20.2717 105.464 19.6255L104.151 18.0307C103.731 17.5199 103.167 17.1463 102.533 16.958C101.899 16.7696 101.223 16.775 100.592 16.9735L98.2876 17.6988C98.1845 17.5927 98.0835 17.4845 97.9848 17.3743C97.5112 16.8504 97.0922 16.2796 96.7343 15.6708C96.3858 15.0563 96.1009 14.4079 95.8837 13.7357C95.8377 13.595 95.7945 13.4533 95.7543 13.3108" fill="#157B11"/>
<path d="M22.367 14.1889C22.367 14.5797 22.2118 14.9544 21.9354 15.2307C21.6591 15.5071 21.2844 15.6623 20.8936 15.6623C20.5028 15.6623 20.128 15.5071 19.8517 15.2307C19.5754 14.9544 19.4202 14.5797 19.4202 14.1889C19.4202 13.7981 19.5754 13.4233 19.8517 13.147C20.128 12.8707 20.5028 12.7155 20.8936 12.7155C21.2844 12.7155 21.6591 12.8707 21.9354 13.147C22.2118 13.4233 22.367 13.7981 22.367 14.1889ZM28.2607 14.1889C28.2607 14.5797 28.1054 14.9544 27.8291 15.2307C27.5528 15.5071 27.178 15.6623 26.7872 15.6623C26.3965 15.6623 26.0217 15.5071 25.7454 15.2307C25.4691 14.9544 25.3138 14.5797 25.3138 14.1889C25.3138 13.7981 25.4691 13.4233 25.7454 13.147C26.0217 12.8707 26.3965 12.7155 26.7872 12.7155C27.178 12.7155 27.5528 12.8707 27.8291 13.147C28.1054 13.4233 28.2607 13.7981 28.2607 14.1889ZM32.6809 15.6623C33.0717 15.6623 33.4465 15.5071 33.7228 15.2307C33.9991 14.9544 34.1543 14.5797 34.1543 14.1889C34.1543 13.7981 33.9991 13.4233 33.7228 13.147C33.4465 12.8707 33.0717 12.7155 32.6809 12.7155C32.2901 12.7155 31.9154 12.8707 31.6391 13.147C31.3627 13.4233 31.2075 13.7981 31.2075 14.1889C31.2075 14.5797 31.3627 14.9544 31.6391 15.2307C31.9154 15.5071 32.2901 15.6623 32.6809 15.6623Z" fill="#157B11"/>
<path d="M18.1899 25.686L18.2194 25.6801C20.9158 25.1452 22.563 24.4395 23.3292 24.052C24.4573 24.3528 25.6199 24.5044 26.7873 24.5028C33.2969 24.5028 38.5747 19.8851 38.5747 14.1889C38.5747 8.49269 33.2969 3.875 26.7873 3.875C20.2778 3.875 15 8.49269 15 14.1889C15 16.7821 16.0947 19.1543 17.9026 20.9666C17.7761 22.1308 17.5171 23.2767 17.1306 24.382L17.1261 24.3982C17.0163 24.7148 16.8964 25.0278 16.7666 25.3368C16.6502 25.6108 16.8757 25.9173 17.1689 25.8702C17.5102 25.8143 17.8506 25.7529 18.1899 25.686ZM19.3687 21.1066C19.3893 20.8909 19.3621 20.6733 19.289 20.4693C19.2159 20.2653 19.0987 20.0799 18.9458 19.9264C17.384 18.3587 16.4734 16.3519 16.4734 14.1889C16.4734 9.48577 20.8996 5.34842 26.7873 5.34842C32.6751 5.34842 37.1012 9.48577 37.1012 14.1889C37.1012 18.8935 32.6751 23.0294 26.7873 23.0294C25.7487 23.0309 24.7144 22.8962 23.7108 22.6286C23.3601 22.5347 22.9871 22.5735 22.6632 22.7377C22.093 23.0265 20.8362 23.5775 18.7823 24.0534C19.0688 23.0915 19.2651 22.105 19.3687 21.1066Z" fill="#157B11"/>
<defs>
<filter id="filter0_d_1_10194" x="-7" y="-7" width="74" height="46" filterUnits="userSpaceOnUse" color-interpolation-filters="sRGB">
<feFlood flood-opacity="0" result="BackgroundImageFix"/>
<feColorMatrix in="SourceAlpha" type="matrix" values="0 0 0 0 0 0 0 0 0 0 0 0 0 0 0 0 0 0 127 0" result="hardAlpha"/>
<feOffset dx="1" dy="1"/>
<feGaussianBlur stdDeviation="4"/>
<feComposite in2="hardAlpha" operator="out"/>
<feColorMatrix type="matrix" values="0 0 0 0 0 0 0 0 0 0 0 0 0 0 0 0 0 0 0.15 0"/>
<feBlend mode="normal" in2="BackgroundImageFix" result="effect1_dropShadow_1_10194"/>
<feBlend mode="normal" in="SourceGraphic" in2="effect1_dropShadow_1_10194" result="shape"/>
</filter>
<filter id="filter1_d_1_10194" x="60" y="-7" width="74" height="46" filterUnits="userSpaceOnUse" color-interpolation-filters="sRGB">
<feFlood flood-opacity="0" result="BackgroundImageFix"/>
<feColorMatrix in="SourceAlpha" type="matrix" values="0 0 0 0 0 0 0 0 0 0 0 0 0 0 0 0 0 0 127 0" result="hardAlpha"/>
<feOffset dx="1" dy="1"/>
<feGaussianBlur stdDeviation="4"/>
<feComposite in2="hardAlpha" operator="out"/>
<feColorMatrix type="matrix" values="0 0 0 0 0 0 0 0 0 0 0 0 0 0 0 0 0 0 0.15 0"/>
<feBlend mode="normal" in2="BackgroundImageFix" result="effect1_dropShadow_1_10194"/>
<feBlend mode="normal" in="SourceGraphic" in2="effect1_dropShadow_1_10194" result="shape"/>
</filter>
</defs>
</svg>
