<svg width="20" height="20" viewBox="0 0 20 20" fill="none" xmlns="http://www.w3.org/2000/svg">
<path d="M4 16H1.33333C0.97982 15.9996 0.640886 15.8591 0.390914 15.6091C0.140942 15.3591 0.000352984 15.0202 0 14.6667V12H1.33333V14.6667H4V16ZM0 6.66667H1.33333V9.33333H0V6.66667ZM16 4H14.6667V1.33333H12V0H14.6667C15.0202 0.000352984 15.3591 0.140942 15.6091 0.390914C15.8591 0.640886 15.9996 0.97982 16 1.33333V4ZM6.66667 0H9.33333V1.33333H6.66667V0ZM1.33333 4H0V1.33333C0.000352984 0.97982 0.140942 0.640886 0.390914 0.390914C0.640886 0.140942 0.97982 0.000352984 1.33333 0H4V1.33333H1.33333V4ZM16.6667 20C16.5791 20.0001 16.4924 19.9829 16.4115 19.9494C16.3306 19.9158 16.2572 19.8667 16.1953 19.8047L12.1033 15.7127L9.888 19.0367C9.81779 19.142 9.71907 19.2251 9.60337 19.2763C9.48767 19.3276 9.35977 19.3449 9.23462 19.3261C9.10947 19.3074 8.99223 19.2534 8.89662 19.1705C8.801 19.0876 8.73096 18.9792 8.69467 18.858L4.69467 5.52467C4.66011 5.40938 4.65741 5.2869 4.68685 5.17021C4.71629 5.05351 4.77676 4.94696 4.86186 4.86186C4.94696 4.77676 5.05351 4.71629 5.1702 4.68685C5.2869 4.65741 5.40938 4.66011 5.52467 4.69467L18.858 8.69467C18.9792 8.73096 19.0876 8.801 19.1705 8.89662C19.2534 8.99223 19.3074 9.10947 19.3261 9.23462C19.3449 9.35977 19.3276 9.48767 19.2763 9.60337C19.2251 9.71907 19.142 9.8178 19.0367 9.888L15.7127 12.1033L19.8047 16.1953C19.9296 16.3204 19.9999 16.4899 19.9999 16.6667C19.9999 16.8434 19.9296 17.013 19.8047 17.138L17.138 19.8047C17.0762 19.8667 17.0027 19.9158 16.9218 19.9494C16.8409 19.9829 16.7542 20.0001 16.6667 20ZM16.6667 18.3907L18.3907 16.6667L13.6207 11.8967L17.118 9.56467L6.328 6.328L9.56467 17.118L11.8967 13.6207L16.6667 18.3907Z" fill="#157B11"/>
</svg>
