<svg width="20" height="11" viewBox="0 0 20 11" fill="none" xmlns="http://www.w3.org/2000/svg">
<path d="M0.372614 0.374161C0.2545 0.491976 0.16079 0.631934 0.0968512 0.786021C0.032912 0.940108 0 1.1053 0 1.27212C0 1.43895 0.032912 1.60414 0.0968512 1.75822C0.16079 1.91231 0.2545 2.05227 0.372614 2.17009L8.9058 10.7033C8.99967 10.7973 9.11117 10.872 9.23391 10.9229C9.35666 10.9738 9.48824 11 9.62113 11C9.75401 11 9.88559 10.9738 10.0083 10.9229C10.1311 10.872 10.2426 10.7973 10.3365 10.7033L18.8696 2.17009C19.3668 1.67291 19.3668 0.871339 18.8696 0.374161C18.3725 -0.123016 17.5709 -0.123016 17.0737 0.374161L9.6262 7.82167L2.16854 0.364015C1.67136 -0.123016 0.869791 -0.123016 0.372614 0.374161Z" fill="#A6A6A6"/>
</svg>
