<svg width="107" height="74" viewBox="0 0 107 74" fill="none" xmlns="http://www.w3.org/2000/svg">
<path d="M51.6061 23.6364C51.6061 24.9442 50.5503 26 49.2424 26C47.9345 26 46.8788 24.9442 46.8788 23.6364C46.8788 22.3285 47.9345 21.2727 49.2424 21.2727C50.5503 21.2727 51.6061 22.3285 51.6061 23.6364ZM59.4848 21.2727C58.177 21.2727 57.1212 22.3285 57.1212 23.6364C57.1212 24.9442 58.177 26 59.4848 26C60.7927 26 61.8485 24.9442 61.8485 23.6364C61.8485 22.3285 60.7927 21.2727 59.4848 21.2727ZM66.5442 6.19273L63.3927 18.7988C63.3292 19.0557 63.1813 19.2838 62.9728 19.4466C62.7642 19.6095 62.507 19.6976 62.2424 19.697H46.4848C45.9176 19.697 45.4291 19.2873 45.3188 18.72L42.3406 2.36364H40.1818C39.5358 2.36364 39 1.82788 39 1.18182C39 0.535758 39.5358 0 40.1818 0H43.3333C43.9006 0 44.3891 0.409697 44.4994 0.97697L45.177 4.72727H65.3939C65.5731 4.72803 65.7498 4.7693 65.9108 4.84801C66.0718 4.92672 66.2129 5.04082 66.3235 5.18178C66.4342 5.32274 66.5115 5.48689 66.5497 5.66196C66.5879 5.83704 66.5861 6.01848 66.5442 6.19273ZM63.8812 7.09091H45.6024L47.4618 17.3333H61.3127L63.8812 7.09091Z" fill="black"/>
<rect y="68.25" width="107" height="5" fill="#E73035"/>
</svg>
