<svg width="29" height="29" viewBox="0 0 29 29" fill="none" xmlns="http://www.w3.org/2000/svg">
<path d="M10.8368 29L10.2263 24.3447C9.8193 24.2175 9.40618 24.0268 8.98695 23.7724C8.5667 23.518 8.17851 23.2509 7.82237 22.9711L3.51053 24.8026L0 18.6974L3.73947 15.8737C3.6886 15.6447 3.65705 15.4158 3.64484 15.1868C3.63161 14.9579 3.625 14.7289 3.625 14.5C3.625 14.2965 3.63161 14.0803 3.64484 13.8513C3.65705 13.6224 3.6886 13.3807 3.73947 13.1263L0 10.3026L3.51053 4.23553L7.82237 6.02895C8.17851 5.74912 8.5667 5.48863 8.98695 5.24747C9.40618 5.0053 9.8193 4.8079 10.2263 4.65526L10.8368 0H17.8579L18.4684 4.65526C18.9263 4.83333 19.3394 5.03023 19.7078 5.24595C20.0772 5.46268 20.4526 5.72368 20.8342 6.02895L25.1842 4.23553L28.6947 10.3026L24.9171 13.1645C24.968 13.4189 24.9934 13.6478 24.9934 13.8513V14.5C24.9934 14.7035 24.9868 14.9131 24.9736 15.1288C24.9614 15.3456 24.9298 15.5939 24.8789 15.8737L28.6184 18.6974L25.1079 24.8026L20.8342 22.9711C20.4526 23.2763 20.0649 23.5434 19.6712 23.7724C19.2764 24.0013 18.8754 24.1921 18.4684 24.3447L17.8579 29H10.8368ZM14.3474 19.0789C15.6193 19.0789 16.7004 18.6338 17.5908 17.7434C18.4811 16.8531 18.9263 15.7719 18.9263 14.5C18.9263 13.2281 18.4811 12.1469 17.5908 11.2566C16.7004 10.3662 15.6193 9.92105 14.3474 9.92105C13.0754 9.92105 11.9943 10.3662 11.1039 11.2566C10.2136 12.1469 9.76842 13.2281 9.76842 14.5C9.76842 15.7719 10.2136 16.8531 11.1039 17.7434C11.9943 18.6338 13.0754 19.0789 14.3474 19.0789ZM14.3474 16.7895C13.7114 16.7895 13.1711 16.5666 12.7264 16.1209C12.2807 15.6763 12.0579 15.136 12.0579 14.5C12.0579 13.864 12.2807 13.3237 12.7264 12.8791C13.1711 12.4334 13.7114 12.2105 14.3474 12.2105C14.9833 12.2105 15.5236 12.4334 15.9683 12.8791C16.414 13.3237 16.6368 13.864 16.6368 14.5C16.6368 15.136 16.414 15.6763 15.9683 16.1209C15.5236 16.5666 14.9833 16.7895 14.3474 16.7895ZM12.8211 26.7105H15.8355L16.3697 22.6276C17.1583 22.4241 17.8706 22.1316 18.5066 21.75C19.1425 21.3684 19.7658 20.8851 20.3763 20.3L24.1539 21.9026L25.6803 19.3079L22.3605 16.8276C22.4877 16.4206 22.5706 16.0263 22.6093 15.6447C22.647 15.2632 22.6658 14.8816 22.6658 14.5C22.6658 14.093 22.647 13.7053 22.6093 13.3369C22.5706 12.9676 22.4877 12.5921 22.3605 12.2105L25.6803 9.69211L24.1921 7.09737L20.3382 8.7C19.8294 8.16579 19.2189 7.68856 18.5066 7.26832C17.7943 6.84909 17.082 6.55044 16.3697 6.37237L15.8737 2.28947H12.8592L12.325 6.37237C11.5618 6.55044 10.8496 6.83026 10.1882 7.21184C9.52675 7.59342 8.89079 8.07675 8.28026 8.66184L4.50263 7.09737L3.01447 9.69211L6.29605 12.1342C6.16886 12.5158 6.07982 12.8974 6.02895 13.2789C5.97807 13.6605 5.95263 14.0675 5.95263 14.5C5.95263 14.907 5.97807 15.3013 6.02895 15.6829C6.07982 16.0645 6.16886 16.4461 6.29605 16.8276L3.01447 19.3079L4.50263 21.9026L8.28026 20.3C8.86535 20.8851 9.4886 21.3684 10.15 21.75C10.8114 22.1316 11.5364 22.4241 12.325 22.6276L12.8211 26.7105Z" fill="#1C1B1F"/>
</svg>
