<svg width="24" height="23" viewBox="0 0 24 23" fill="none" xmlns="http://www.w3.org/2000/svg">
<path d="M7.367 11.1889C7.367 11.5797 7.21176 11.9544 6.93544 12.2307C6.65913 12.5071 6.28436 12.6623 5.89358 12.6623C5.50281 12.6623 5.12804 12.5071 4.85172 12.2307C4.5754 11.9544 4.42017 11.5797 4.42017 11.1889C4.42017 10.7981 4.5754 10.4233 4.85172 10.147C5.12804 9.8707 5.50281 9.71547 5.89358 9.71547C6.28436 9.71547 6.65913 9.8707 6.93544 10.147C7.21176 10.4233 7.367 10.7981 7.367 11.1889V11.1889ZM13.2607 11.1889C13.2607 11.5797 13.1054 11.9544 12.8291 12.2307C12.5528 12.5071 12.178 12.6623 11.7872 12.6623C11.3965 12.6623 11.0217 12.5071 10.7454 12.2307C10.4691 11.9544 10.3138 11.5797 10.3138 11.1889C10.3138 10.7981 10.4691 10.4233 10.7454 10.147C11.0217 9.8707 11.3965 9.71547 11.7872 9.71547C12.178 9.71547 12.5528 9.8707 12.8291 10.147C13.1054 10.4233 13.2607 10.7981 13.2607 11.1889ZM17.6809 12.6623C18.0717 12.6623 18.4465 12.5071 18.7228 12.2307C18.9991 11.9544 19.1543 11.5797 19.1543 11.1889C19.1543 10.7981 18.9991 10.4233 18.7228 10.147C18.4465 9.8707 18.0717 9.71547 17.6809 9.71547C17.2901 9.71547 16.9154 9.8707 16.6391 10.147C16.3627 10.4233 16.2075 10.7981 16.2075 11.1889C16.2075 11.5797 16.3627 11.9544 16.6391 12.2307C16.9154 12.5071 17.2901 12.6623 17.6809 12.6623V12.6623Z" fill="#157B11"/>
<path d="M3.18995 22.686L3.21941 22.6801C5.91577 22.1452 7.56305 21.4395 8.32922 21.052C9.45725 21.3528 10.6199 21.5044 11.7873 21.5028C18.2969 21.5028 23.5747 16.8851 23.5747 11.1889C23.5747 5.49269 18.2969 0.875 11.7873 0.875C5.27778 0.875 0 5.49269 0 11.1889C0 13.7821 1.09475 16.1543 2.90263 17.9666C2.77615 19.1308 2.51711 20.2767 2.13056 21.382L2.12614 21.3982C2.01629 21.7148 1.89639 22.0278 1.76663 22.3368C1.65023 22.6108 1.87566 22.9173 2.16887 22.8702C2.5102 22.8143 2.85061 22.7529 3.18995 22.686ZM4.36868 18.1066C4.38932 17.8909 4.36212 17.6733 4.28903 17.4693C4.21594 17.2653 4.09875 17.0799 3.94581 16.9264C2.38399 15.3587 1.47342 13.3519 1.47342 11.1889C1.47342 6.48577 5.89956 2.34842 11.7873 2.34842C17.6751 2.34842 22.1012 6.48577 22.1012 11.1889C22.1012 15.8935 17.6751 20.0294 11.7873 20.0294C10.7487 20.0309 9.7144 19.8962 8.71084 19.6286C8.36013 19.5347 7.98708 19.5735 7.66324 19.7377C7.09303 20.0265 5.8362 20.5775 3.78226 21.0534C4.06881 20.0915 4.26513 19.105 4.36868 18.1066Z" fill="#157B11"/>
</svg>
