<svg width="314" height="220" viewBox="0 0 314 220" fill="none" xmlns="http://www.w3.org/2000/svg">
<rect width="314" height="220" fill="white"/>
<path d="M156.893 162.714C156.603 162.714 156.318 162.633 156.071 162.481L93.0218 123.398C92.7271 123.216 92.5019 122.94 92.3819 122.615C92.2619 122.29 92.2539 121.934 92.3591 121.604L112.549 58.369C112.649 58.0547 112.847 57.7803 113.113 57.5856C113.38 57.3909 113.702 57.2859 114.032 57.2856H199.754C200.084 57.2859 200.406 57.3909 200.672 57.5856C200.939 57.7803 201.137 58.0547 201.237 58.369L221.426 121.604C221.532 121.934 221.524 122.29 221.404 122.615C221.284 122.94 221.059 123.216 220.764 123.398L157.714 162.482C157.467 162.634 157.183 162.714 156.893 162.714V162.714Z" fill="#32269E"/>
<path d="M199.575 59.0972L219.679 122.014L156.893 160.899L94.1065 122.014L114.211 59.0972H199.575ZM199.575 56H114.211C113.553 56.0002 112.912 56.2091 112.381 56.5966C111.85 56.9841 111.456 57.5301 111.256 58.1558L91.1467 121.073C90.9367 121.73 90.9525 122.439 91.1916 123.086C91.4307 123.733 91.8793 124.282 92.4664 124.646L155.258 163.534C155.748 163.839 156.315 164 156.893 164C157.471 164 158.037 163.839 158.528 163.534L221.319 124.646C221.906 124.282 222.355 123.733 222.594 123.086C222.833 122.439 222.849 121.73 222.639 121.073L202.53 58.1558C202.33 57.5301 201.936 56.9841 201.405 56.5966C200.874 56.2091 200.233 56.0002 199.575 56V56Z" fill="white"/>
<path d="M145.305 89.5404L157.031 69.5L168.94 89.5404L193.857 93.7329L176.177 110.252L179.933 133.143L157.031 122.913L134.496 133.143L138.16 110.252L120.571 93.7329L145.305 89.5404Z" fill="white"/>
</svg>
