<svg width="18" height="22" viewBox="0 0 18 22" fill="none" xmlns="http://www.w3.org/2000/svg">
<path d="M1.70421 6.38251C1.38806 4.29643 2.8601 2.41945 5.10883 1.73072C5.5081 1.60852 5.93895 1.64324 6.31349 1.82782C6.68804 2.01239 6.97806 2.3329 7.12438 2.72398L7.84547 4.64909C7.96141 4.95875 7.98219 5.296 7.90516 5.61756C7.82814 5.93912 7.65681 6.23034 7.41315 6.45388L5.26815 8.4213C5.16236 8.51849 5.08353 8.64141 5.03933 8.77809C4.99512 8.91477 4.98705 9.06057 5.01589 9.2013L5.03498 9.2876L5.08809 9.50418C5.13538 9.68673 5.20675 9.94396 5.30715 10.251C5.5063 10.8609 5.82411 11.6807 6.29709 12.4997C6.77007 13.3187 7.32104 14.0041 7.74922 14.4812C7.97221 14.7297 8.2053 14.9689 8.4479 15.1982L8.51428 15.2596C8.62157 15.3546 8.75164 15.4202 8.89183 15.45C9.03201 15.4798 9.17752 15.4728 9.3142 15.4297L12.0907 14.5559C12.4061 14.4568 12.744 14.4541 13.061 14.5483C13.378 14.6425 13.6596 14.8292 13.8697 15.0845L15.1833 16.6794C15.7309 17.3432 15.6662 18.319 15.0364 18.9057C13.3154 20.5097 10.9489 20.8391 9.30258 19.5147C7.28466 17.8872 5.58347 15.9022 4.28402 13.6589C2.97383 11.4171 2.09857 8.94898 1.70421 6.38251ZM6.7543 9.31001L8.53502 7.67698C9.02234 7.22992 9.365 6.64747 9.51905 6.00435C9.67311 5.36122 9.63153 4.68674 9.39966 4.0674L8.67775 2.1423C8.38323 1.35576 7.79984 0.711158 7.0465 0.339882C6.29315 -0.0313938 5.42657 -0.101388 4.6234 0.144167C1.83117 0.999678 -0.41092 3.50315 0.0637185 6.63062C0.489398 9.40379 1.43446 12.0717 2.84932 14.4945C4.25089 16.9136 6.08568 19.0542 8.26202 20.8092C10.7306 22.7924 14.0282 22.1161 16.1682 20.1205C16.7806 19.5498 17.1521 18.767 17.2072 17.9317C17.2622 17.0965 16.9966 16.2717 16.4645 15.6255L15.1509 14.0307C14.7306 13.5199 14.1672 13.1463 13.5331 12.958C12.8989 12.7696 12.223 12.775 11.592 12.9735L9.28764 13.6988C9.1845 13.5927 9.08352 13.4845 8.98477 13.3743C8.5112 12.8504 8.0922 12.2796 7.73428 11.6708C7.38584 11.0563 7.10086 10.4079 6.88375 9.73569C6.83771 9.59497 6.79455 9.45332 6.7543 9.31083" fill="#157B11"/>
</svg>
