<svg width="115" height="139" viewBox="0 0 115 139" fill="none" xmlns="http://www.w3.org/2000/svg">
<path d="M119.499 94.0207L116.191 85.0533C116.067 84.7157 115.745 84.4918 115.386 84.4918C115.027 84.4918 114.705 84.7157 114.581 85.0533L111.274 94.0207C108.596 101.28 102.874 107.003 95.6146 109.68L86.6471 112.987C86.31 113.112 86.0861 113.433 86.0861 113.792C86.0861 114.152 86.31 114.473 86.6471 114.597L95.6151 117.905C102.874 120.582 108.597 126.304 111.274 133.563L114.581 142.531C114.705 142.868 115.027 143.092 115.386 143.092C115.745 143.092 116.067 142.868 116.191 142.531L119.499 133.563C122.176 126.304 127.898 120.582 135.158 117.905L144.126 114.597C144.463 114.473 144.687 114.152 144.687 113.792C144.687 113.433 144.463 113.112 144.126 112.987L135.158 109.68C127.899 107.003 122.176 101.281 119.499 94.0207Z" fill="#FF5000"/>
<path d="M46.7932 56.1443L55.7601 59.4512C63.0198 62.1283 68.7425 67.8506 71.4191 75.1097L74.7265 84.0772C74.8509 84.4143 75.1723 84.6382 75.5317 84.6382C75.891 84.6382 76.2124 84.4143 76.3368 84.0772L79.6442 75.1102C82.3213 67.8506 88.044 62.1283 95.3032 59.4512L104.271 56.1443C104.608 56.02 104.832 55.6985 104.832 55.3392C104.832 54.9798 104.608 54.6584 104.271 54.5341L95.3027 51.2262C88.0435 48.549 82.3213 42.8268 79.6442 35.5676L76.3368 26.5997C76.2124 26.2626 75.891 26.0387 75.5317 26.0387C75.1723 26.0387 74.8509 26.2626 74.7265 26.5997L71.4191 35.5676C68.742 42.8268 63.0198 48.5495 55.7606 51.2262L46.7926 54.5341C46.4555 54.6584 46.2316 54.9798 46.2316 55.3392C46.2316 55.6985 46.456 56.02 46.7932 56.1443Z" fill="#FF5000"/>
<path d="M0.381504 94.5005L6.47623 96.7481C11.4095 98.5675 15.2986 102.457 17.1181 107.39L19.3656 113.484C19.4505 113.713 19.6689 113.866 19.913 113.866C20.1571 113.866 20.3754 113.713 20.4604 113.484L22.7074 107.39C24.5269 102.457 28.416 98.5675 33.3498 96.7481L39.444 94.5005C39.6729 94.4161 39.8256 94.1978 39.8256 93.9537C39.8256 93.7096 39.6729 93.4907 39.444 93.4063L33.3493 91.1593C28.416 89.3393 24.5269 85.4502 22.7074 80.5169L20.4604 74.4217C20.3754 74.1927 20.1571 74.0401 19.913 74.0401C19.6689 74.0401 19.4505 74.1927 19.3656 74.4217L17.1181 80.5169C15.2986 85.4507 11.41 89.3393 6.47623 91.1588L0.381504 93.4063C0.152554 93.4907 -6.48499e-05 93.7096 -6.48499e-05 93.9537C-6.48499e-05 94.1978 0.152554 94.4161 0.381504 94.5005Z" fill="#FF5000"/>
<path d="M15.1451 14.2718L19.3965 15.8401C22.8379 17.1091 25.5504 19.8217 26.8195 23.2625L28.3877 27.513C28.4464 27.6727 28.599 27.7788 28.7693 27.7788C28.9396 27.7788 29.0923 27.6727 29.1509 27.513L30.7192 23.2625C31.9883 19.8212 34.7008 17.1086 38.1416 15.8401L42.3931 14.2718C42.5528 14.2132 42.6589 14.0605 42.6589 13.8902C42.6589 13.7199 42.5528 13.5672 42.3931 13.5086L38.1421 11.9403C34.7003 10.6713 31.9878 7.95823 30.7187 4.5169L29.1504 0.265915C29.0918 0.106205 28.9391 6.86646e-05 28.7688 6.86646e-05C28.5985 6.86646e-05 28.4459 0.106205 28.3872 0.265915L26.819 4.5169C25.5499 7.95823 22.8374 10.6713 19.3955 11.9403L15.1445 13.5086C14.9848 13.5672 14.8787 13.7199 14.8787 13.8902C14.8787 14.0605 14.9848 14.2132 15.1451 14.2718Z" fill="#FF5000"/>
<path d="M46.4975 136.492L50.7489 138.06C54.1903 139.329 56.9028 142.042 58.1714 145.483L59.7396 149.734C59.7983 149.894 59.9509 150 60.1212 150C60.2916 150 60.4442 149.894 60.5028 149.734L62.0706 145.484C63.3397 142.043 66.0527 139.33 69.494 138.061L73.7455 136.493C73.9052 136.434 74.0114 136.282 74.0114 136.111C74.0114 135.941 73.9052 135.788 73.7455 135.73L69.4945 134.162C66.0527 132.892 63.3397 130.179 62.0706 126.738L60.5028 122.487C60.4442 122.327 60.2916 122.221 60.1212 122.221C59.9509 122.221 59.7983 122.327 59.7396 122.487L58.1714 126.738C56.9023 130.18 54.1898 132.892 50.7479 134.161L46.497 135.729C46.3372 135.788 46.2311 135.941 46.2311 136.111C46.2311 136.281 46.3372 136.434 46.4975 136.492Z" fill="#FF5000"/>
<path d="M98.6425 23.0112L103.99 24.9823C108.318 26.5783 111.731 29.9909 113.328 34.3197L115.299 39.6669C115.373 39.8675 115.565 40.0015 115.779 40.0015C115.994 40.0015 116.185 39.8675 116.259 39.6669L118.231 34.3202C119.827 29.9914 123.24 26.5788 127.569 24.9823L132.915 23.0112C133.117 22.9374 133.25 22.7453 133.25 22.531C133.25 22.3167 133.116 22.1247 132.915 22.0509L127.568 20.0788C123.24 18.4827 119.828 15.0702 118.231 10.7414L116.259 5.39417C116.185 5.19302 115.994 5.05959 115.779 5.05959C115.565 5.05959 115.373 5.19302 115.299 5.39417L113.327 10.7419C111.731 15.0702 108.319 18.4822 103.99 20.0788L98.6425 22.0509C98.4413 22.1247 98.3079 22.3167 98.3079 22.531C98.3079 22.7453 98.4408 22.9374 98.6425 23.0112Z" fill="#FF5000"/>
</svg>
