<svg width="21" height="21" viewBox="0 0 21 21" fill="none" xmlns="http://www.w3.org/2000/svg">
<path d="M5.29171 3.20832H6.85421C6.85421 4.35706 7.78881 5.29166 8.93754 5.29166C10.0863 5.29166 11.0209 4.35706 11.0209 3.20832H12.5834C12.871 3.20832 13.1042 2.97512 13.1042 2.68749V1.12499C13.1042 0.83736 12.871 0.604156 12.5834 0.604156H5.29171C5.00408 0.604156 4.77087 0.83736 4.77087 1.12499V2.68749C4.77087 2.97512 5.00408 3.20832 5.29171 3.20832ZM16.75 13.1042C14.7397 13.1042 13.1042 14.7396 13.1042 16.75C13.1042 18.7603 14.7397 20.3958 16.75 20.3958C18.7604 20.3958 20.3959 18.7603 20.3959 16.75C20.3959 14.7396 18.7604 13.1042 16.75 13.1042ZM16.75 18.8333C16.4624 18.8333 16.2292 18.6001 16.2292 18.3125C16.2292 18.0248 16.4624 17.7917 16.75 17.7917C17.0377 17.7917 17.2709 18.0248 17.2709 18.3125C17.2709 18.6001 17.0377 18.8333 16.75 18.8333ZM17.2709 16.75C17.2709 17.0376 17.0377 17.2708 16.75 17.2708C16.4624 17.2708 16.2292 17.0376 16.2292 16.75V15.1875C16.2292 14.8999 16.4624 14.6667 16.75 14.6667C17.0377 14.6667 17.2709 14.8999 17.2709 15.1875V16.75Z" fill="#1E1E1E" fill-opacity="0.5"/>
<path d="M12.3311 18.3125H3.20835C2.92072 18.3125 2.68752 18.0793 2.68752 17.7917V3.20832C2.68752 2.92069 2.92072 2.68749 3.20835 2.68749H3.72919V1.12499C3.72919 0.942677 3.76044 0.765615 3.82293 0.604156H1.12502C0.838567 0.604156 0.604187 0.838537 0.604187 1.12499V19.875C0.604187 20.1614 0.838567 20.3958 1.12502 20.3958H13.8125C13.142 19.8561 12.6241 19.1374 12.3311 18.3125Z" fill="#1E1E1E" fill-opacity="0.5"/>
<path d="M3.72919 17.2708H12.0926C12.0736 17.0997 12.0625 16.9262 12.0625 16.75C12.0625 15.1294 12.8909 13.6981 14.1459 12.8558V3.72916H13.738C13.4515 4.04626 13.0418 4.24999 12.5834 4.24999H11.8854C11.4532 5.46351 10.2969 6.33332 8.93752 6.33332C7.57815 6.33332 6.42188 5.46351 5.98962 4.24999H5.29169C4.83329 4.24999 4.42356 4.04626 4.13707 3.72916H3.72919V17.2708ZM7.37502 6.85416H12.5834C12.871 6.85416 13.1042 7.08736 13.1042 7.37499C13.1042 7.66262 12.871 7.89582 12.5834 7.89582H7.37502C7.08739 7.89582 6.85419 7.66262 6.85419 7.37499C6.85419 7.08736 7.08739 6.85416 7.37502 6.85416ZM7.37502 8.93749H12.5834C12.871 8.93749 13.1042 9.17069 13.1042 9.45832C13.1042 9.74595 12.871 9.97916 12.5834 9.97916H7.37502C7.08739 9.97916 6.85419 9.74595 6.85419 9.45832C6.85419 9.17069 7.08739 8.93749 7.37502 8.93749ZM7.37502 11.0208H12.5834C12.871 11.0208 13.1042 11.254 13.1042 11.5417C13.1042 11.8293 12.871 12.0625 12.5834 12.0625H7.37502C7.08739 12.0625 6.85419 11.8293 6.85419 11.5417C6.85419 11.254 7.08739 11.0208 7.37502 11.0208ZM7.37502 13.1042H11.0209C11.3085 13.1042 11.5417 13.3374 11.5417 13.625C11.5417 13.9126 11.3085 14.1458 11.0209 14.1458H7.37502C7.08739 14.1458 6.85419 13.9126 6.85419 13.625C6.85419 13.3374 7.08739 13.1042 7.37502 13.1042ZM7.37502 15.1875H10.5C10.7877 15.1875 11.0209 15.4207 11.0209 15.7083C11.0209 15.996 10.7877 16.2292 10.5 16.2292H7.37502C7.08739 16.2292 6.85419 15.996 6.85419 15.7083C6.85419 15.4207 7.08739 15.1875 7.37502 15.1875ZM5.29169 6.85416C5.57935 6.85416 5.81252 7.08733 5.81252 7.37499C5.81252 7.66262 5.57935 7.89582 5.29169 7.89582C5.00403 7.89582 4.77085 7.66262 4.77085 7.37499C4.77085 7.08733 5.00403 6.85416 5.29169 6.85416ZM5.29169 8.93749C5.57935 8.93749 5.81252 9.17066 5.81252 9.45832C5.81252 9.74595 5.57935 9.97916 5.29169 9.97916C5.00403 9.97916 4.77085 9.74595 4.77085 9.45832C4.77085 9.17066 5.00403 8.93749 5.29169 8.93749ZM5.29169 11.0208C5.57935 11.0208 5.81252 11.254 5.81252 11.5417C5.81252 11.8293 5.57935 12.0625 5.29169 12.0625C5.00403 12.0625 4.77085 11.8293 4.77085 11.5417C4.77085 11.254 5.00403 11.0208 5.29169 11.0208ZM5.29169 13.1042C5.57935 13.1042 5.81252 13.3373 5.81252 13.625C5.81252 13.9126 5.57935 14.1458 5.29169 14.1458C5.00403 14.1458 4.77085 13.9126 4.77085 13.625C4.77085 13.3373 5.00403 13.1042 5.29169 13.1042ZM5.29169 15.1875C5.57935 15.1875 5.81252 15.4207 5.81252 15.7083C5.81252 15.996 5.57935 16.2292 5.29169 16.2292C5.00403 16.2292 4.77085 15.996 4.77085 15.7083C4.77085 15.4207 5.00403 15.1875 5.29169 15.1875ZM14.1459 2.68749H14.6667C14.9543 2.68749 15.1875 2.92069 15.1875 3.20832V12.3363C15.6772 12.1622 16.2016 12.0625 16.75 12.0625C16.9271 12.0625 17.099 12.0729 17.2709 12.0937V1.12499C17.2709 0.838537 17.0365 0.604156 16.75 0.604156H14.0521C14.1146 0.765615 14.1459 0.942677 14.1459 1.12499V2.68749Z" fill="#04198C" fill-opacity="1"/>
</svg>
