<svg width="48" height="48" viewBox="0 0 48 48" fill="none" xmlns="http://www.w3.org/2000/svg">
<g clip-path="url(#clip0_69_3861)">
<path fill-rule="evenodd" clip-rule="evenodd" d="M20.5197 9.35558C19.8257 9.61962 19.1708 9.96038 18.5458 10.3496C17.0323 11.2904 15.6958 12.4928 14.2959 13.5776C12.9989 14.5828 11.6731 15.4701 10.1484 16.0757C10.295 16.3175 10.4271 16.5674 10.5428 16.8275C11.2762 18.4791 11.2492 20.5751 11.247 22.3406C11.244 24.9776 11.2573 27.6137 11.2607 30.2511C11.2625 31.5601 11.2805 32.8983 11.3988 34.2031C11.4395 34.6515 11.5295 35.5957 11.7352 36.0021L11.7545 36.0385L11.7687 36.0771C12.3683 37.696 13.3906 38.9712 15.028 39.7243C17.0195 40.5165 19.0469 41.3737 20.9316 42.3772C21.7824 42.8302 22.8137 43.4196 23.6089 44.0917C24.404 43.4196 25.4357 42.8302 26.287 42.3772C28.1712 41.3737 30.1991 40.5165 32.1905 39.7243C33.8279 38.9712 34.8498 37.696 35.4499 36.0771L35.464 36.0385L35.4825 36.0021C35.6891 35.5957 35.7786 34.6515 35.8194 34.2031C35.9381 32.8983 35.9561 31.5601 35.9574 30.2511C35.9608 27.6137 35.9741 24.9776 35.9707 22.3406C35.9685 20.5751 35.942 18.4791 36.6758 16.8275C36.7907 16.5674 36.9231 16.3175 37.0701 16.0757C35.5455 15.4701 34.2193 14.5828 32.9227 13.5776C31.5227 12.4928 30.1863 11.2904 28.6723 10.3496C28.0474 9.96038 27.3928 9.61962 26.6985 9.35558C25.6997 9.16526 24.6419 9.02296 23.623 9.04053H23.5951C22.5767 9.02296 21.5184 9.16526 20.5197 9.35558Z" fill="#FFD100"/>
<path fill-rule="evenodd" clip-rule="evenodd" d="M20.8679 10.5478C20.252 10.793 19.6712 11.1106 19.1165 11.4724C17.7736 12.3481 16.5876 13.4673 15.3458 14.4767C14.1954 15.4124 13.0184 16.2384 11.666 16.802C11.7959 17.0271 11.9138 17.2598 12.0158 17.502C12.6664 19.0387 12.6429 20.9898 12.6412 22.6332C12.6382 25.0876 12.6497 27.5411 12.6527 29.9954C12.6544 31.214 12.6699 32.4596 12.7753 33.674C12.8113 34.0906 12.8915 34.9702 13.0745 35.3478L13.0908 35.3821L13.1032 35.4176C13.6356 36.9247 14.5426 38.1116 15.9952 38.8129C17.7621 39.5501 19.561 40.3478 21.2336 41.2814C21.988 41.7036 22.9035 42.2518 23.6086 42.8772C24.3146 42.2518 25.2293 41.7036 25.9846 41.2814C27.6567 40.3478 29.4556 39.5501 31.2225 38.8129C32.6755 38.1116 33.5825 36.9247 34.1145 35.4176L34.1273 35.3821L34.1436 35.3478C34.3266 34.9702 34.4064 34.0906 34.4424 33.674C34.5474 32.4596 34.5637 31.214 34.5654 29.9954C34.5684 27.5411 34.58 25.0876 34.577 22.6332C34.5748 20.9898 34.5513 19.0387 35.2019 17.502C35.3044 17.2598 35.4218 17.0271 35.5521 16.802C34.1989 16.2384 33.0227 15.4124 31.8719 14.4767C30.6301 13.4673 29.4441 12.3481 28.1016 11.4724C27.5469 11.1106 26.9657 10.793 26.3498 10.5478C25.4642 10.3708 24.5251 10.2375 23.6211 10.2538L23.6086 10.2542L23.5966 10.2538C22.6931 10.2375 21.7539 10.3708 20.8679 10.5478Z" fill="#005AFF"/>
<path fill-rule="evenodd" clip-rule="evenodd" d="M20.9736 41.1391C21.0606 41.1862 21.1468 41.2334 21.233 41.2814C21.9874 41.7036 22.9029 42.2518 23.608 42.8772V32.3979H20.9736V41.1391Z" fill="#029C55"/>
<path fill-rule="evenodd" clip-rule="evenodd" d="M26.2432 10.5264C25.3885 10.3601 24.4884 10.2383 23.6208 10.2538L23.6084 10.2542V18.0446H26.2432V10.5264" fill="#029C55"/>
<path fill-rule="evenodd" clip-rule="evenodd" d="M12.6399 22.792C12.639 23.6677 12.6404 24.543 12.6421 25.4182H15.9674V22.792H12.6399" fill="#009C54"/>
<path fill-rule="evenodd" clip-rule="evenodd" d="M34.5684 28.0456C34.5705 27.1699 34.5731 26.2942 34.5748 25.4185H30.835V28.0456H34.5684Z" fill="#009C54"/>
<path fill-rule="evenodd" clip-rule="evenodd" d="M10.0839 22.6322C9.99472 18.7981 9.4855 17.141 7.16016 15.183C13.0522 14.9605 15.3728 9.50703 20.672 7.9408C20.7732 7.91979 20.8739 7.90008 20.9733 7.88207V9.83365C20.8743 9.85208 20.774 9.8718 20.672 9.89237C16.8949 11.3686 14.6934 15.171 10.6231 16.4591C11.8018 18.0587 11.975 19.3528 11.9574 22.6322L11.9617 25.4179H10.1327C10.122 24.5868 10.1062 23.6631 10.0839 22.6322H10.0839ZM23.6077 7.6969C24.5353 7.6459 25.5139 7.72691 26.5439 7.9408C31.8431 9.50703 34.1637 14.9605 40.0553 15.183C37.7304 17.141 37.2212 18.7981 37.1316 22.6322L37.1286 22.7917H35.2585L35.2589 22.6322C35.2413 19.3528 35.4145 18.0587 36.5928 16.4591C32.5225 15.171 30.321 11.3686 26.5439 9.89237C25.42 9.66434 24.4414 9.55846 23.6077 9.57347L23.6077 7.6969ZM37.0831 25.4179C36.994 32.2084 37.2165 32.8063 36.7522 34.8929C36.5345 36.0982 36.114 37.1835 35.4916 38.1488C34.3767 40.1565 32.3943 41.5385 29.5452 42.295C28.2618 42.8162 27.1607 43.3756 26.2425 43.9727V41.9178C27.5675 41.172 29.3201 40.3439 31.5019 39.4334C33.0403 38.697 34.1256 37.4339 34.7578 35.6435C35.0801 34.9778 35.2434 33.0952 35.2469 29.9962L35.2542 25.4179H37.0831ZM25.1624 44.7614C25.1375 44.7819 25.1131 44.8025 25.0882 44.8235C25.1131 44.8025 25.1375 44.7819 25.1624 44.7614ZM25.0848 44.8265C25.0329 44.8702 24.9819 44.914 24.9318 44.9581C24.9819 44.914 25.0329 44.8702 25.0848 44.8265ZM24.7702 45.1038C24.747 45.1253 24.7243 45.1463 24.702 45.1677C24.7243 45.1463 24.747 45.1253 24.7702 45.1038ZM24.6244 45.2414C24.603 45.262 24.5824 45.2826 24.5614 45.3032C24.5824 45.2826 24.603 45.262 24.6244 45.2414ZM24.5537 45.3105C24.5331 45.331 24.5126 45.352 24.492 45.373C24.5126 45.352 24.5331 45.331 24.5537 45.3105ZM24.282 45.5933C24.2627 45.6144 24.2438 45.6358 24.2245 45.6572C24.2438 45.6358 24.2627 45.6144 24.282 45.5933ZM24.2198 45.6624C24.2001 45.6847 24.1804 45.7069 24.1611 45.7292C24.1804 45.7069 24.2001 45.6847 24.2198 45.6624ZM24.1568 45.7344C24.0964 45.8034 24.0385 45.8728 23.9828 45.9431C24.0385 45.8728 24.0964 45.8034 24.1568 45.7344ZM23.9768 45.9504C23.9583 45.9731 23.9403 45.9958 23.9228 46.0186C23.9403 45.9958 23.9583 45.9731 23.9768 45.9504ZM23.9211 46.0207C23.9035 46.043 23.8868 46.0653 23.8696 46.0876C23.8868 46.0653 23.9035 46.043 23.9211 46.0207ZM23.8088 46.1703C23.7925 46.1917 23.777 46.2132 23.7616 46.2346L23.8088 46.1703ZM23.7569 46.2414C23.741 46.2633 23.726 46.2852 23.711 46.307C23.726 46.2852 23.7415 46.2633 23.7569 46.2414ZM23.7033 46.3182C23.6879 46.34 23.6729 46.3623 23.6579 46.3846C23.6729 46.3623 23.6879 46.34 23.7033 46.3182ZM23.6549 46.3889C23.639 46.4125 23.6232 46.4369 23.6077 46.4605C22.5799 44.8732 20.6009 43.4849 17.6711 42.295C14.8211 41.5385 12.8391 40.1565 11.7243 38.1488C11.1019 37.1835 10.6814 36.0982 10.4636 34.8929C10.0689 33.1145 10.1717 32.4167 10.1555 28.045H11.966L11.969 29.9962C11.9729 33.0952 12.1357 34.9778 12.4585 35.6435C13.0907 37.4339 14.1756 38.6971 15.714 39.4334C19.9956 41.2196 22.6266 42.6898 23.6077 43.8428V46.4605C23.6232 46.4369 23.639 46.4125 23.6549 46.3889" fill="#1E175E"/>
<path fill-rule="evenodd" clip-rule="evenodd" d="M15.5165 28.0456V25.4185H10.1328C10.1461 26.4215 10.1525 27.2877 10.1555 28.0456H15.5165Z" fill="#FFD100"/>
<path fill-rule="evenodd" clip-rule="evenodd" d="M36.2076 22.792H31.4746V25.4182H37.0833C37.0936 24.6308 37.1082 23.7586 37.1287 22.792H36.2076Z" fill="#FFD100"/>
<path fill-rule="evenodd" clip-rule="evenodd" d="M20.9736 17.7067H23.608V7.69684C22.7718 7.65097 21.8939 7.71227 20.9736 7.88201V17.7067Z" fill="#FFD100"/>
<path fill-rule="evenodd" clip-rule="evenodd" d="M26.2432 42.903V33.2793H23.6084V46.4602C24.1866 45.5678 25.0645 44.7388 26.2432 43.9724V42.903Z" fill="#FFD100"/>
<path fill-rule="evenodd" clip-rule="evenodd" d="M18.1794 17.0503H29.038L26.2433 20.1836V22.7919H28.8593L32.002 20.0053V30.8313L28.8593 28.0452H26.2433V30.653L29.038 33.7863H18.1794L20.9741 30.653V28.0452H18.3581L15.2158 30.8313V20.0053L18.3581 22.7919H20.9741V20.1836L18.1794 17.0503Z" fill="#FFFDFF"/>
<path fill-rule="evenodd" clip-rule="evenodd" d="M23.6088 7.74376e-06L24.2483 1.97473L26.3293 1.97087L24.6435 3.18691L25.2907 5.15906L23.6088 3.93659L21.9277 5.15906L22.5749 3.18691L20.8887 1.97087L22.9697 1.97472L23.6088 0" fill="#009C54"/>
<path fill-rule="evenodd" clip-rule="evenodd" d="M15.9686 1.66943L16.6077 3.64458L18.6891 3.64072L17.0029 4.85676L17.6501 6.82934L15.9686 5.60601L14.2871 6.82934L14.9343 4.85676L13.248 3.64073L15.3295 3.64458L15.9686 1.66943" fill="#009C54"/>
<path fill-rule="evenodd" clip-rule="evenodd" d="M9.72054 6.43555L10.3596 8.41027L12.4411 8.4064L10.7548 9.62245L11.4016 11.5946L9.72054 10.3721L8.03944 11.5946L8.68625 9.62245L7 8.40641L9.08102 8.41027L9.72054 6.43555" fill="#009C54"/>
<path fill-rule="evenodd" clip-rule="evenodd" d="M31.2484 1.66943L30.6093 3.64458L28.5283 3.64072L30.2141 4.85676L29.5673 6.82934L31.2484 5.60601L32.9304 6.82934L32.2832 4.85676L33.9694 3.64072L31.888 3.64458L31.2484 1.66943Z" fill="#009C54"/>
<path fill-rule="evenodd" clip-rule="evenodd" d="M37.4969 6.43555L36.8578 8.41027L34.7764 8.4064L36.4622 9.62244L35.8154 11.5946L37.4969 10.3721L39.178 11.5946L38.5312 9.62244L40.217 8.4064L38.1364 8.41027L37.4969 6.43555Z" fill="#009C54"/>
<path d="M19.2586 25.6753C19.2586 25.8857 19.2714 26.0567 19.2967 26.1892C19.322 26.3212 19.3696 26.4258 19.4403 26.5017C19.5102 26.5775 19.6062 26.6294 19.7271 26.6564C19.8479 26.6838 20.0022 26.6971 20.1895 26.6971C20.2521 26.6971 20.3177 26.6971 20.3863 26.6971C20.4544 26.6971 20.5303 26.6971 20.6143 26.6971C20.6983 26.6971 20.7948 26.6962 20.9045 26.6946C21.0134 26.6924 21.1407 26.6894 21.2851 26.6856L21.127 27.4974C20.8848 27.5051 20.6915 27.509 20.5475 27.509C20.4026 27.509 20.2658 27.509 20.1373 27.509C19.7896 27.509 19.4956 27.4768 19.256 27.413C19.0155 27.3482 18.8213 27.2441 18.6726 27.1C18.5243 26.956 18.418 26.7661 18.3537 26.5308C18.2894 26.2951 18.2568 26.004 18.2568 25.6577V25.1729C18.2568 24.8304 18.2911 24.5428 18.3593 24.3092C18.4279 24.0752 18.5363 23.8853 18.6846 23.7396C18.8329 23.5934 19.0271 23.4884 19.2676 23.4245C19.5072 23.3598 19.7973 23.3276 20.1373 23.3276C20.1955 23.3276 20.2603 23.3276 20.3301 23.3276C20.4009 23.3276 20.4797 23.3276 20.5676 23.3276C20.6555 23.3276 20.7549 23.3289 20.8664 23.3306C20.9774 23.3328 21.1055 23.3354 21.25 23.3396L21.0918 24.151C20.9474 24.1472 20.7961 24.1442 20.6379 24.1425C20.4797 24.1403 20.3263 24.1395 20.178 24.1395C19.9868 24.1395 19.8316 24.1532 19.7125 24.1802C19.5933 24.208 19.4994 24.2582 19.4313 24.3324C19.3627 24.4061 19.3173 24.5094 19.2937 24.6418C19.2706 24.7743 19.2586 24.9474 19.2586 25.1613V25.6753ZM22.0001 23.3396H23.9157C24.3533 23.3396 24.6722 23.4254 24.8732 23.5964C25.0743 23.7678 25.175 24.0267 25.175 24.3731V24.4374C25.175 24.8656 25.0031 25.1519 24.6598 25.2959C24.8587 25.3619 25.0138 25.4729 25.1253 25.6285C25.2363 25.7841 25.2924 25.9907 25.2924 26.2475V26.3529C25.2924 26.7537 25.1703 27.0447 24.926 27.2256C24.6821 27.4069 24.3276 27.4974 23.8629 27.4974H22.0001V23.3396ZM22.9084 26.7614H23.7927C23.9997 26.7614 24.1454 26.7276 24.229 26.6594C24.313 26.5908 24.355 26.4657 24.355 26.2826V26.2068C24.355 26.0199 24.3113 25.8904 24.223 25.8184C24.1356 25.7464 23.9843 25.7104 23.7691 25.7104H22.9084V26.7614ZM22.9084 24.0752V24.9804H23.7224C23.9135 24.9804 24.0485 24.9453 24.127 24.8754C24.2046 24.8051 24.2436 24.6941 24.2436 24.5428V24.4725C24.2436 24.3323 24.2076 24.2312 24.1356 24.1686C24.0631 24.1065 23.9388 24.0752 23.7635 24.0752H22.9084ZM26.98 27.4974H26.0134V23.3396H28.9594L28.8072 24.151H26.98V25.0623H28.7194L28.5672 25.8741H26.98V27.4974Z" fill="#211C5E"/>
</g>
<defs>
<clipPath id="clip0_69_3861">
<rect width="48" height="48" fill="white"/>
</clipPath>
</defs>
</svg>
