<svg width="30" height="30" viewBox="0 0 30 30" fill="none" xmlns="http://www.w3.org/2000/svg">
<path d="M8.375 24.125L4.9375 23.375C4.625 23.3125 4.375 23.1509 4.1875 22.89C4 22.63 3.92708 22.3438 3.96875 22.0313L4.3125 18.5L1.96875 15.8125C1.76042 15.5833 1.65625 15.3125 1.65625 15C1.65625 14.6875 1.76042 14.4167 1.96875 14.1875L4.3125 11.5L3.96875 7.96876C3.92708 7.65626 4 7.37001 4.1875 7.11001C4.375 6.84918 4.625 6.68751 4.9375 6.62501L8.375 5.87501L10.1875 2.81251C10.3542 2.54168 10.5833 2.3646 10.875 2.28126C11.1667 2.19793 11.4583 2.20835 11.75 2.31251L15 3.68751L18.25 2.31251C18.5417 2.20835 18.8333 2.19793 19.125 2.28126C19.4167 2.3646 19.6458 2.54168 19.8125 2.81251L21.625 5.87501L25.0625 6.62501C25.375 6.68751 25.625 6.84918 25.8125 7.11001C26 7.37001 26.0729 7.65626 26.0313 7.96876L25.6875 11.5L28.0312 14.1875C28.2396 14.4167 28.3438 14.6875 28.3438 15C28.3438 15.3125 28.2396 15.5833 28.0312 15.8125L25.6875 18.5L26.0313 22.0313C26.0729 22.3438 26 22.63 25.8125 22.89C25.625 23.1509 25.375 23.3125 25.0625 23.375L21.625 24.125L19.8125 27.1875C19.6458 27.4584 19.4167 27.6354 19.125 27.7188C18.8333 27.8021 18.5417 27.7917 18.25 27.6875L15 26.3125L11.75 27.6875C11.4583 27.7917 11.1667 27.8021 10.875 27.7188C10.5833 27.6354 10.3542 27.4584 10.1875 27.1875L8.375 24.125ZM12.8125 18.5625C13.0417 18.7917 13.3333 18.9063 13.6875 18.9063C14.0417 18.9063 14.3333 18.7917 14.5625 18.5625L19.875 13.25C20.125 13 20.25 12.7029 20.25 12.3588C20.25 12.0154 20.125 11.7188 19.875 11.4688C19.625 11.2188 19.3283 11.0938 18.985 11.0938C18.6408 11.0938 18.3438 11.2188 18.0938 11.4688L13.6875 15.875L11.875 14.0938C11.625 13.8646 11.3283 13.755 10.985 13.765C10.6408 13.7758 10.3542 13.8958 10.125 14.125C9.89583 14.3542 9.78125 14.6458 9.78125 15C9.78125 15.3542 9.89583 15.6458 10.125 15.875L12.8125 18.5625Z" fill="#157B11"/>
</svg>
