<svg width="64" height="64" viewBox="0 0 64 64" fill="none" xmlns="http://www.w3.org/2000/svg">
<path d="M52.4164 14.0011H16.8425C14.0047 14.0011 11.7041 16.3017 11.7041 19.1395V56.1252H52.4164V14.0011Z" fill="#915EFD"/>
<path d="M22.6572 20.0218C22.3265 17.5986 22.3606 15.5 22.4681 14.0018H16.8425C14.0047 14.0018 11.7041 16.3024 11.7041 19.1402V56.1259H52.4164V49.7885C41.9968 51.2066 24.8559 36.1353 22.6572 20.0218Z" fill="#7E4CE8"/>
<g opacity="0.5">
<path d="M50.3481 24.2994C50.2418 24.2994 50.1554 24.2132 50.1554 24.1067V16.2598H45.8016C45.6952 16.2598 45.6089 16.1736 45.6089 16.0671C45.6089 15.9606 45.6952 15.8744 45.8016 15.8744H50.3481C50.4545 15.8744 50.5408 15.9606 50.5408 16.0671V24.1067C50.5408 24.213 50.4545 24.2994 50.3481 24.2994Z" fill="white"/>
</g>
<path d="M20.2317 54.7002V13.9962H16.8425C14.0047 13.9962 11.7041 16.2968 11.7041 19.1346V54.7002H20.2317Z" fill="#915EFD"/>
<path d="M20.2317 17.0948V13.9962H16.8425C14.0047 13.9962 11.7041 16.2968 11.7041 19.1346V54.7002H14.8041V22.5202C14.8041 19.5238 17.2341 17.0948 20.2317 17.0948Z" fill="#7E4CE8"/>
<path d="M31.6461 38.5018C32.171 38.5018 32.5965 38.0752 32.5965 37.549C32.5965 37.0228 32.171 36.5963 31.6461 36.5963C31.1213 36.5963 30.6958 37.0228 30.6958 37.549C30.6958 38.0752 31.1213 38.5018 31.6461 38.5018Z" fill="#F5F5F5"/>
<path d="M31.2125 37.0325C31.2125 36.9033 31.2384 36.7802 31.2849 36.6678C30.9394 36.8104 30.6958 37.151 30.6958 37.5489C30.6958 38.0752 31.1213 38.5017 31.6461 38.5017C32.0421 38.5017 32.3812 38.2588 32.524 37.9136C32.4127 37.9596 32.2907 37.9853 32.1628 37.9853C31.6379 37.9854 31.2125 37.5588 31.2125 37.0325Z" fill="#E3D7FE"/>
<path d="M31.6468 38.6945C31.0166 38.6945 30.5039 38.1807 30.5039 37.549C30.5039 36.9174 31.0166 36.4036 31.6468 36.4036C32.277 36.4036 32.7897 36.9174 32.7897 37.549C32.7897 38.1807 32.2772 38.6945 31.6468 38.6945ZM31.6468 36.7888C31.2291 36.7888 30.8893 37.1299 30.8893 37.5489C30.8893 37.9679 31.2292 38.309 31.6468 38.309C32.0644 38.309 32.4043 37.9679 32.4043 37.5489C32.4043 37.1299 32.0646 36.7888 31.6468 36.7888Z" fill="black"/>
<path d="M40.9464 38.5018C41.4713 38.5018 41.8968 38.0752 41.8968 37.549C41.8968 37.0228 41.4713 36.5963 40.9464 36.5963C40.4216 36.5963 39.9961 37.0228 39.9961 37.549C39.9961 38.0752 40.4216 38.5018 40.9464 38.5018Z" fill="#F5F5F5"/>
<path d="M40.5128 37.0325C40.5128 36.9033 40.5387 36.7802 40.5852 36.6678C40.2397 36.8104 39.9961 37.151 39.9961 37.5489C39.9961 38.0752 40.4216 38.5017 40.9464 38.5017C41.3423 38.5017 41.6815 38.2588 41.8243 37.9136C41.7129 37.9596 41.591 37.9853 41.4631 37.9853C40.9382 37.9854 40.5128 37.5588 40.5128 37.0325Z" fill="#E3D7FE"/>
<path d="M40.9456 38.6945C40.3154 38.6945 39.8027 38.1807 39.8027 37.549C39.8027 36.9174 40.3154 36.4036 40.9456 36.4036C41.5759 36.4036 42.0885 36.9174 42.0885 37.549C42.0885 38.1807 41.5759 38.6945 40.9456 38.6945ZM40.9456 36.7888C40.5279 36.7888 40.1881 37.1299 40.1881 37.5489C40.1881 37.9679 40.528 38.309 40.9456 38.309C41.3633 38.309 41.7032 37.9679 41.7032 37.5489C41.7032 37.1299 41.3634 36.7888 40.9456 36.7888Z" fill="black"/>
<path d="M40.9464 29.2059C41.4713 29.2059 41.8968 28.7793 41.8968 28.2531C41.8968 27.7269 41.4713 27.3004 40.9464 27.3004C40.4216 27.3004 39.9961 27.7269 39.9961 28.2531C39.9961 28.7793 40.4216 29.2059 40.9464 29.2059Z" fill="#F5F5F5"/>
<path d="M40.5128 27.7368C40.5128 27.6075 40.5387 27.4845 40.5852 27.3721C40.2397 27.5147 39.9961 27.8552 39.9961 28.2532C39.9961 28.7795 40.4216 29.206 40.9464 29.206C41.3423 29.206 41.6815 28.963 41.8243 28.6179C41.7129 28.6639 41.591 28.6895 41.4631 28.6895C40.9382 28.6895 40.5128 28.2629 40.5128 27.7368Z" fill="#E3D7FE"/>
<path d="M40.9456 29.3986C40.3154 29.3986 39.8027 28.8848 39.8027 28.2531C39.8027 27.6215 40.3154 27.1077 40.9456 27.1077C41.5759 27.1077 42.0885 27.6215 42.0885 28.2531C42.0885 28.8848 41.5759 29.3986 40.9456 29.3986ZM40.9456 27.4929C40.5279 27.4929 40.1881 27.834 40.1881 28.253C40.1881 28.672 40.528 29.0131 40.9456 29.0131C41.3633 29.0131 41.7032 28.672 41.7032 28.253C41.7032 27.834 41.3634 27.4929 40.9456 27.4929Z" fill="black"/>
<path d="M31.6461 29.206C32.171 29.206 32.5965 28.7794 32.5965 28.2532C32.5965 27.727 32.171 27.3004 31.6461 27.3004C31.1213 27.3004 30.6958 27.727 30.6958 28.2532C30.6958 28.7794 31.1213 29.206 31.6461 29.206Z" fill="#F5F5F5"/>
<path d="M31.2125 27.7368C31.2125 27.6075 31.2384 27.4845 31.2849 27.3721C30.9394 27.5147 30.6958 27.8552 30.6958 28.2532C30.6958 28.7795 31.1213 29.206 31.6461 29.206C32.0421 29.206 32.3812 28.963 32.524 28.6179C32.4127 28.6639 32.2907 28.6895 32.1628 28.6895C31.6379 28.6895 31.2125 28.2629 31.2125 27.7368Z" fill="#E3D7FE"/>
<path d="M31.6468 29.3987C31.0166 29.3987 30.5039 28.8848 30.5039 28.2532C30.5039 27.6216 31.0166 27.1077 31.6468 27.1077C32.277 27.1077 32.7897 27.6216 32.7897 28.2532C32.7897 28.8848 32.2772 29.3987 31.6468 29.3987ZM31.6468 27.493C31.2291 27.493 30.8893 27.834 30.8893 28.2531C30.8893 28.6721 31.2292 29.0132 31.6468 29.0132C32.0644 29.0132 32.4043 28.6721 32.4043 28.2531C32.4043 27.834 32.0646 27.493 31.6468 27.493Z" fill="black"/>
<path d="M49.1716 44.0175L47.9487 42.7993C47.5895 42.4416 47.3876 41.955 47.3876 41.4474V33.0371C47.3876 31.9846 46.5366 31.1314 45.487 31.1314H38.0702V25.3105H44.8218C45.8715 25.3105 46.7224 24.4573 46.7224 23.4049V19.9868L45.474 21.2263C45.1182 21.5797 44.6376 21.7779 44.1368 21.7779H36.4512C35.4016 21.7779 34.5506 22.6311 34.5506 23.6836V31.1314H28.7528V23.6756C28.7528 22.6232 27.9019 21.77 26.8522 21.77H23.4492C23.4492 21.77 24.1629 22.4969 24.6876 23.0313C25.0374 23.3878 25.2333 23.8676 25.2333 24.3677V32.7583C25.2333 33.8108 26.0842 34.664 27.1338 34.664H34.5506V40.4849H27.799C26.7493 40.4849 25.8984 41.3381 25.8984 42.3906V45.8086L27.1284 44.5757C27.4849 44.2184 27.9682 44.0176 28.4722 44.0176H36.1697C37.2194 44.0176 38.0703 43.1644 38.0703 42.1119V34.6642H43.8682V42.1119C43.8682 43.1644 44.7191 44.0176 45.7687 44.0176H49.1716V44.0175Z" fill="#F5F5F5"/>
<path d="M34.5506 34.664C34.5506 33.6943 33.7642 32.9081 32.794 32.9081H27.1337C27.0544 32.9081 26.9898 32.8409 26.9898 32.7583V24.0072C26.9898 23.2782 26.7036 22.5782 26.1928 22.0578L25.9102 21.77H23.4492C23.4492 21.77 24.4331 22.7721 24.9396 23.2881C25.1281 23.4801 25.2333 23.7379 25.2333 24.0069V32.7583C25.2333 33.8108 26.0842 34.664 27.1338 34.664H34.5506Z" fill="#E3D7FE"/>
<path d="M34.5503 31.1313C35.5204 31.1313 36.307 30.3452 36.307 29.3754V23.6835C36.307 23.6009 36.3716 23.5338 36.4508 23.5338H44.4958C45.2299 23.5338 45.9339 23.2437 46.4548 22.7269L46.722 22.4618V19.9869L45.216 21.4823C45.0252 21.6716 44.7674 21.7779 44.4985 21.7779H36.4508C35.4012 21.7779 34.5503 22.6311 34.5503 23.6835V31.1313Z" fill="#E3D7FE"/>
<path d="M47.69 42.5418C47.4961 42.3487 47.3872 42.0865 47.3872 41.813V33.037C47.3872 31.9845 46.5363 31.1313 45.4867 31.1313H38.0698C38.0698 32.101 38.8563 32.8872 39.8264 32.8872H45.4867C45.5659 32.8872 45.6305 32.9544 45.6305 33.037V41.4473C45.6305 42.4027 46.0142 43.3369 46.6839 44.0174H49.1713L47.69 42.5418Z" fill="#E3D7FE"/>
<path d="M38.0702 34.6639C37.1001 34.6639 36.3135 35.4501 36.3135 36.4198V42.1117C36.3135 42.1943 36.2489 42.2615 36.1696 42.2615H28.4721C27.5008 42.2615 26.5877 42.6383 25.8984 43.3223V45.8084L27.1292 44.5745C27.485 44.2178 27.9682 44.0174 28.4721 44.0174H36.1696C37.2193 44.0174 38.0702 43.1642 38.0702 42.1117V34.6639Z" fill="#E3D7FE"/>
<path d="M25.8986 46.0012C25.795 46.003 25.7042 45.9125 25.706 45.8085V42.3906C25.706 41.2335 26.645 40.2923 27.7992 40.2923H34.3582V34.8568H27.134C25.9798 34.8568 25.0408 33.9155 25.0408 32.7586V24.3679C25.0408 23.9155 24.8666 23.4887 24.5503 23.1664L23.312 21.9051C23.192 21.7908 23.2837 21.5719 23.4494 21.5774H26.8525C28.0067 21.5774 28.9457 22.5187 28.9457 23.6756V30.9388H34.3582V23.6837C34.3582 22.5267 35.2972 21.5854 36.4514 21.5854H44.137C44.5899 21.5854 45.0168 21.4094 45.3386 21.0898L46.5868 19.8504C46.7008 19.7293 46.9208 19.8211 46.9153 19.9871V23.405C46.9153 24.562 45.9763 25.5032 44.8221 25.5032H38.2631V30.9387H45.4872C46.6414 30.9387 47.5805 31.8801 47.5805 33.0371V41.4474C47.5805 41.9005 47.7643 42.3436 48.0848 42.6628L49.3079 43.881C49.43 43.9946 49.3386 44.2157 49.1718 44.2102H45.7689C44.6147 44.2102 43.6756 43.2688 43.6756 42.1118V34.8567H38.2631V42.1118C38.2631 43.2688 37.324 44.2102 36.1698 44.2102H28.4723C28.0163 44.2102 27.5874 44.3882 27.2649 44.7116L26.0351 45.9445C25.9983 45.9815 25.9489 46.0012 25.8986 46.0012ZM27.7992 40.6776C26.8575 40.6776 26.0913 41.446 26.0913 42.3904V45.3423L26.9922 44.4392C27.3875 44.0429 27.9133 43.8247 28.4723 43.8247H36.1698C37.1116 43.8247 37.8777 43.0562 37.8777 42.1117V34.6639C37.8777 34.5574 37.964 34.4712 38.0704 34.4712H43.8683C43.9746 34.4712 44.0609 34.5574 44.0609 34.6639V42.1117C44.0609 43.0562 44.8272 43.8247 45.7689 43.8247H48.7054L47.8129 42.9356C47.4203 42.5446 47.1951 42.002 47.1951 41.4473V33.037C47.1951 32.0924 46.429 31.324 45.4872 31.324H38.0704C37.964 31.324 37.8777 31.2378 37.8777 31.1313V25.3104C37.8777 25.2039 37.964 25.1177 38.0704 25.1177H44.8221C45.7638 25.1177 46.5299 24.3493 46.5299 23.4049V20.4498L45.6102 21.363C45.2157 21.7547 44.6923 21.9705 44.137 21.9705H36.4514C35.5097 21.9705 34.7436 22.7389 34.7436 23.6835V31.1313C34.7436 31.2378 34.6572 31.324 34.5509 31.324H28.753C28.6466 31.324 28.5603 31.2378 28.5603 31.1313V23.6754C28.5603 22.7308 27.7942 21.9625 26.8525 21.9625H23.9086L24.8252 22.8962C25.2128 23.2909 25.4262 23.8135 25.4262 24.3675V32.7582C25.4262 33.7028 26.1923 34.4711 27.134 34.4711H34.5509C34.6572 34.4711 34.7436 34.5573 34.7436 34.6638V40.4846C34.7436 40.5911 34.6572 40.6773 34.5509 40.6773H27.7992V40.6776Z" fill="black"/>
<path d="M52.4198 51.7444H15.9603C13.6064 51.7444 11.6982 53.6526 11.6982 56.0065C11.6982 58.3603 13.6064 60.2685 15.9603 60.2685H52.4198V51.7444Z" fill="#FFCF00"/>
<path d="M52.4198 51.6411H15.9603C13.6064 51.6411 11.6982 53.5492 11.6982 55.9031C11.6982 58.257 13.6064 60.1651 15.9603 60.1651H52.4198V51.6411Z" fill="#FFCF00"/>
<path d="M14.7982 51.8033C13.0093 52.3097 11.6982 53.9528 11.6982 55.9032C11.6982 58.2571 13.6073 60.1652 15.9621 60.1652H52.4198V57.5831H20.5804C17.3869 57.583 14.7982 54.9954 14.7982 51.8033Z" fill="#FEAC01"/>
<path d="M52.6083 14.0012C52.6083 13.8947 52.522 13.8085 52.4157 13.8085L16.8418 13.8035C13.9022 13.8035 11.5107 16.195 11.5107 19.1345V55.8235C11.399 58.3408 13.4416 60.4673 15.9608 60.461H52.4203C52.5266 60.461 52.613 60.3748 52.613 60.2683L52.6083 14.0012ZM20.4237 14.1939H52.223V51.5517H20.4237V14.1939ZM11.8961 19.1395C11.8961 16.4125 14.1147 14.1939 16.8418 14.1939H20.0383V51.5517H15.9608C14.1525 51.5517 12.5934 52.6356 11.8961 54.1871V19.1395ZM52.2276 60.0758H15.9608C13.717 60.0758 11.8915 58.2502 11.8915 56.0064C11.8915 53.7626 13.717 51.9371 15.9608 51.9371H47.9865V55.8138H32.0595C31.9532 55.8138 31.8668 55.8999 31.8668 56.0064C31.8668 56.1129 31.9532 56.1991 32.0595 56.1991H48.1791C48.2854 56.1991 48.3718 56.1129 48.3718 56.0064V51.9371H52.2276V60.0758Z" fill="black"/>
<path d="M28.9899 56.1991H27.2879C27.1815 56.1991 27.0952 56.1129 27.0952 56.0064C27.0952 55.8999 27.1815 55.8137 27.2879 55.8137H28.9899C29.0962 55.8137 29.1825 55.8999 29.1825 56.0064C29.1825 56.1129 29.0962 56.1991 28.9899 56.1991Z" fill="black"/>
<path d="M5.72235 9.21264C4.53963 9.21264 3.35575 9.15611 2.17431 9.0423C2.06833 9.03202 1.99074 8.93786 2.00089 8.83201C2.01104 8.72616 2.10379 8.6487 2.21118 8.65859C8.72585 9.28599 15.322 8.15478 21.2888 5.38739C24.0992 4.08405 26.7284 2.44106 29.1031 0.504414C29.1855 0.436973 29.307 0.449562 29.3741 0.532033C29.4413 0.614503 29.4291 0.735768 29.3466 0.803081C26.9469 2.76002 24.2905 4.41997 21.4507 5.73693C16.504 8.03133 11.1284 9.21264 5.72235 9.21264Z" fill="black"/>
<path d="M6.24472 9.86876C5.94168 9.22133 5.16926 8.94103 4.51964 9.24291C3.87003 9.54466 3.58896 10.3143 3.89199 10.9618C4.19503 11.6092 4.96745 11.8895 5.61707 11.5877C6.26669 11.2858 6.54775 10.5162 6.24472 9.86876Z" fill="#FDB72C"/>
<path d="M6.42135 9.94388C6.0826 9.22001 5.2191 8.9067 4.49279 9.24416C3.76649 9.58162 3.4524 10.4419 3.79115 11.1658C4.1299 11.8896 4.9934 12.203 5.71971 11.8655C6.44601 11.528 6.76022 10.6677 6.42135 9.94388Z" fill="#FF8EDE"/>
<path d="M3.88831 11.34C4.21807 11.8542 4.85921 12.1106 5.45269 11.9602C6.04064 11.8112 6.42769 11.3531 6.53007 10.8307C6.12838 10.8193 5.78308 10.9239 5.52681 11.0412C4.98304 11.2901 4.33805 11.0041 4.1803 10.429C4.08627 10.086 4.04991 9.74033 4.03707 9.5777C3.61123 10.0413 3.51437 10.757 3.88831 11.34Z" fill="#FD4CC8"/>
<path d="M11.7109 9.6984C11.3722 8.97453 10.5087 8.66122 9.78234 8.99868C9.05604 9.33614 8.74195 10.1964 9.0807 10.9203C9.41945 11.6442 10.2829 11.9575 11.0093 11.62C11.7356 11.2825 12.0498 10.4223 11.7109 9.6984Z" fill="#FFCF00"/>
<path d="M9.17786 11.0945C9.50762 11.6087 10.1488 11.8651 10.7422 11.7147C11.3302 11.5657 11.7172 11.1076 11.8196 10.5851C11.4179 10.5737 11.0726 10.6784 10.8164 10.7957C10.2726 11.0445 9.6276 10.7586 9.46985 10.1835C9.37582 9.84047 9.33946 9.49478 9.32662 9.33215C8.90078 9.79576 8.80392 10.5115 9.17786 11.0945Z" fill="#FEAC01"/>
<path d="M17.832 8.45432C17.4932 7.73045 16.6297 7.41714 15.9034 7.7546C15.1771 8.09206 14.863 8.95235 15.2018 9.67622C15.5405 10.4001 16.404 10.7134 17.1303 10.3759C17.8568 10.0385 18.1709 9.17818 17.832 8.45432Z" fill="#915EFD"/>
<path d="M15.298 9.85052C15.6277 10.3647 16.2689 10.6211 16.8624 10.4707C17.4503 10.3217 17.8374 9.86363 17.9397 9.34118C17.538 9.32975 17.1927 9.43444 16.9365 9.55173C16.3927 9.80055 15.7477 9.5146 15.59 8.93949C15.4959 8.59651 15.4596 8.25082 15.4467 8.0882C15.0209 8.5518 14.924 9.26758 15.298 9.85052Z" fill="#7E4CE8"/>
<path d="M23.3691 6.34415C23.0304 5.62028 22.1669 5.30697 21.4405 5.64443C20.7142 5.98189 20.4002 6.84218 20.7389 7.56605C21.0777 8.28991 21.9412 8.60322 22.6675 8.26576C23.3938 7.92843 23.708 7.06801 23.3691 6.34415Z" fill="#FF8EDE"/>
<path d="M20.8351 7.74048C21.1648 8.2547 21.806 8.5111 22.3995 8.36068C22.9874 8.21166 23.3745 7.75358 23.4768 7.23114C23.0752 7.2197 22.7299 7.3244 22.4736 7.44168C21.9298 7.69051 21.2848 7.40456 21.1271 6.82945C21.033 6.48646 20.9967 6.14078 20.9838 5.97815C20.558 6.44163 20.4611 7.1574 20.8351 7.74048Z" fill="#FD4CC8"/>
<path d="M28.976 3.14322C28.6373 2.41935 27.7738 2.10604 27.0475 2.4435C26.3212 2.78096 26.0071 3.64125 26.3458 4.36512C26.6846 5.08899 27.5481 5.4023 28.2744 5.06484C29.0007 4.72737 29.3149 3.86708 28.976 3.14322Z" fill="#FFCF00"/>
<path d="M26.4425 4.53955C26.7723 5.05377 27.4134 5.31017 28.0069 5.15975C28.5948 5.01074 28.9819 4.55265 29.0843 4.03021C28.6826 4.01878 28.3373 4.12347 28.081 4.24075C27.5372 4.48958 26.8922 4.20363 26.7345 3.62852C26.6405 3.28553 26.6041 2.93985 26.5913 2.77722C26.1654 3.24083 26.0686 3.95647 26.4425 4.53955Z" fill="#FEAC01"/>
<path d="M58.3968 9.21252C52.9902 9.21252 47.6153 8.03147 42.6684 5.73706C39.8288 4.4201 37.1723 2.76015 34.7725 0.80321C34.69 0.735898 34.6778 0.614504 34.745 0.532162C34.8119 0.449692 34.9336 0.437231 35.0161 0.504543C37.3908 2.44119 40.0199 4.08405 42.8304 5.38752C48.7972 8.15479 55.3938 9.28612 61.9079 8.65873C62.0143 8.64871 62.108 8.72617 62.1182 8.83215C62.1284 8.938 62.0509 9.03216 61.9448 9.04244C60.7636 9.15599 59.579 9.21252 58.3968 9.21252Z" fill="black"/>
<path d="M57.8734 9.86876C58.1765 9.22133 58.9488 8.94103 59.5985 9.24291C60.2481 9.54466 60.5292 10.3143 60.226 10.9618C59.923 11.6092 59.1507 11.8895 58.501 11.5877C57.8515 11.2858 57.5704 10.5162 57.8734 9.86876Z" fill="#FDB72C"/>
<path d="M57.6974 9.94388C58.0361 9.22001 58.8996 8.9067 59.626 9.24416C60.3523 9.58162 60.6663 10.4419 60.3276 11.1658C59.9889 11.8896 59.1254 12.203 58.399 11.8655C57.6727 11.528 57.3587 10.6677 57.6974 9.94388Z" fill="#FFCF00"/>
<path d="M60.2306 11.34C59.9007 11.8542 59.2597 12.1106 58.6663 11.9602C58.0783 11.8112 57.6912 11.3531 57.5889 10.8307C57.9906 10.8193 58.3359 10.9239 58.5921 11.0412C59.1359 11.2901 59.7809 11.0041 59.9386 10.429C60.0327 10.086 60.069 9.74033 60.0819 9.5777C60.5077 10.0413 60.6046 10.757 60.2306 11.34Z" fill="#FEAC01"/>
<path d="M52.4078 9.6984C52.7466 8.97453 53.6101 8.66122 54.3364 8.99868C55.0627 9.33614 55.3768 10.1964 55.038 10.9203C54.6993 11.6442 53.8358 11.9575 53.1095 11.62C52.3832 11.2825 52.0691 10.4223 52.4078 9.6984Z" fill="#915EFD"/>
<path d="M54.9411 11.0945C54.6113 11.6087 53.9702 11.8651 53.3767 11.7147C52.7887 11.5657 52.4017 11.1076 52.2993 10.5851C52.701 10.5737 53.0463 10.6784 53.3026 10.7957C53.8463 11.0445 54.4913 10.7586 54.6491 10.1835C54.7431 9.84047 54.7795 9.49478 54.7923 9.33215C55.2182 9.79576 55.315 10.5115 54.9411 11.0945Z" fill="#7E4CE8"/>
<path d="M46.2863 8.45432C46.6251 7.73045 47.4886 7.41714 48.2149 7.7546C48.9412 8.09206 49.2553 8.95235 48.9165 9.67622C48.5778 10.4001 47.7143 10.7134 46.988 10.3759C46.2617 10.0385 45.9474 9.17818 46.2863 8.45432Z" fill="#FF8EDE"/>
<path d="M48.821 9.85052C48.4912 10.3647 47.8501 10.6211 47.2566 10.4707C46.6686 10.3217 46.2816 9.86363 46.1792 9.34118C46.5809 9.32975 46.9262 9.43444 47.1825 9.55173C47.7262 9.80055 48.3712 9.5146 48.529 8.93949C48.623 8.59651 48.6594 8.25082 48.6722 8.0882C49.098 8.5518 49.1949 9.26758 48.821 9.85052Z" fill="#FD4CC8"/>
<path d="M40.7492 6.34415C41.0879 5.62028 41.9514 5.30697 42.6777 5.64443C43.404 5.98189 43.7181 6.84218 43.3794 7.56605C43.0406 8.28991 42.1771 8.60322 41.4508 8.26576C40.7245 7.92843 40.4104 7.06801 40.7492 6.34415Z" fill="#FFCF00"/>
<path d="M43.2838 7.74048C42.9541 8.2547 42.313 8.5111 41.7195 8.36068C41.1315 8.21166 40.7445 7.75358 40.6421 7.23114C41.0438 7.2197 41.3891 7.3244 41.6454 7.44168C42.1891 7.69051 42.8341 7.40456 42.9919 6.82945C43.0859 6.48646 43.1222 6.14078 43.1351 5.97815C43.5609 6.44163 43.6578 7.1574 43.2838 7.74048Z" fill="#FEAC01"/>
<path d="M35.1432 3.14316C35.4819 2.41929 36.3454 2.10598 37.0718 2.44344C37.7981 2.7809 38.1121 3.64119 37.7734 4.36506C37.4346 5.08892 36.5711 5.40224 35.8448 5.06477C35.1185 4.72731 34.8045 3.86702 35.1432 3.14316Z" fill="#915EFD"/>
<path d="M37.6764 4.53949C37.3467 5.05371 36.7055 5.31011 36.1121 5.15969C35.5241 5.01067 35.137 4.55259 35.0347 4.03015C35.4364 4.01872 35.7817 4.12341 36.0379 4.24069C36.5817 4.48952 37.2267 4.20357 37.3844 3.62846C37.4785 3.28547 37.5148 2.93979 37.5277 2.77716C37.9535 3.24077 38.0504 3.95641 37.6764 4.53949Z" fill="#7E4CE8"/>
<path d="M58.9863 21.391L59.5313 20.3945L60.0763 21.391L61.0728 21.936L60.0763 22.481L59.5313 23.4775L58.9863 22.481L57.9897 21.936L58.9863 21.391Z" fill="#FEC54E"/>
<path d="M6.51306 50.1305L7.05811 49.134L7.60316 50.1305L8.59962 50.6755L7.60316 51.2205L7.05811 52.217L6.51306 51.2205L5.5166 50.6755L6.51306 50.1305Z" fill="#915EFD"/>
<path d="M6.53003 26.8115C6.95571 26.8115 7.30079 26.4664 7.30079 26.0408C7.30079 25.6151 6.95571 25.27 6.53003 25.27C6.10436 25.27 5.75928 25.6151 5.75928 26.0408C5.75928 26.4664 6.10436 26.8115 6.53003 26.8115Z" fill="#FE82D9"/>
<path d="M55.9436 52.412C56.3693 52.412 56.7144 52.0669 56.7144 51.6412C56.7144 51.2156 56.3693 50.8705 55.9436 50.8705C55.5179 50.8705 55.1729 51.2156 55.1729 51.6412C55.1729 52.0669 55.5179 52.412 55.9436 52.412Z" fill="#915EFD"/>
</svg>
