<svg width="58" height="55" viewBox="0 0 58 55" fill="none" xmlns="http://www.w3.org/2000/svg">
<path d="M57.5877 50.1009C57.2037 50.686 56.6577 50.8543 55.9662 50.8498C52.5927 50.826 49.2207 50.8409 45.8472 50.8379C44.9802 50.8364 44.4777 50.4687 44.4267 49.8136C44.3727 49.1242 44.8227 48.6195 45.5727 48.5808C46.1517 48.5525 46.7337 48.5733 47.3157 48.5733C50.2017 48.5733 53.0877 48.5882 55.9737 48.5614C56.6682 48.5555 57.2127 48.7267 57.5892 49.3193C57.5877 49.5813 57.5877 49.8419 57.5877 50.1009Z" fill="#CC5A6F"/>
<path d="M57.5879 45.414C57.2054 46.0006 56.6594 46.1674 55.9664 46.1629C52.5749 46.1376 49.1834 46.154 45.7919 46.1495C44.9459 46.148 44.4494 45.746 44.4239 45.073C44.3984 44.415 44.8484 43.9341 45.5714 43.8939C46.0574 43.8656 46.5449 43.8864 47.0324 43.8864C50.0114 43.8864 52.9919 43.9013 55.9709 43.876C56.6639 43.87 57.2099 44.0413 57.5879 44.6323C57.5879 44.8929 57.5879 45.1534 57.5879 45.414Z" fill="#CC5A6F"/>
<path d="M0.0151711 48.4274C0.351171 47.8289 0.858172 47.6309 1.54667 47.6383C4.52267 47.6651 7.49867 47.6487 10.4747 47.6517C10.6787 47.6517 10.8917 47.6517 11.0852 47.7038C11.5937 47.8393 11.9432 48.3351 11.9132 48.8324C11.8832 49.352 11.4482 49.8091 10.9097 49.8731C10.7432 49.8924 10.5737 49.885 10.4042 49.885C7.44767 49.885 4.48967 49.8701 1.53317 49.8969C0.843171 49.9029 0.331672 49.7183 0.0136719 49.0959C0.0151719 48.8741 0.0151711 48.6507 0.0151711 48.4274Z" fill="#CC586D"/>
<path d="M0.0151367 52.8925C0.334637 52.2731 0.846137 52.09 1.53614 52.096C4.58714 52.1228 7.63813 52.1079 10.6891 52.1079C11.2576 52.1079 11.6581 52.3506 11.8456 52.894C12.0211 53.4032 11.8321 53.8022 11.4331 54.1223C11.2051 54.3054 10.9291 54.3441 10.6396 54.3441C7.53313 54.3412 4.42514 54.3337 1.31864 54.3501C0.693137 54.3531 0.310637 54.0523 0.0151367 53.5655C0.0151367 53.3392 0.0151367 53.1158 0.0151367 52.8925Z" fill="#CC586D"/>
<path d="M38.4864 31.447C39.7794 29.5011 41.0559 27.5462 42.3714 25.6152C43.0404 24.6325 43.9704 24.0265 45.2049 23.9744C45.5034 24.6623 45.6234 25.3576 45.4734 26.1184C45.3069 26.9626 44.8809 27.6698 44.4414 28.377C42.7119 31.1656 40.9809 33.9543 39.2409 36.7369C38.3574 38.1499 37.4499 39.5494 36.5544 40.9549C35.6064 40.3996 34.6584 39.8457 33.7119 39.2889C33.0339 38.8898 32.3919 38.9836 32.0439 39.539C31.6569 40.1554 31.8174 40.7375 32.5239 41.1797C33.3759 41.7127 34.2414 42.2264 35.1009 42.749C35.0994 42.9619 34.9239 43.0631 34.8024 43.1986C34.1814 43.8969 33.3699 44.3153 32.5299 44.6711C31.4079 45.1446 30.9609 46.0111 30.9369 47.1635C30.9279 47.5684 30.8859 47.9719 30.6129 48.3069C30.5829 48.1818 30.5589 48.0538 30.5199 47.9302C29.8374 45.7669 29.4819 43.5708 29.8089 41.3003C30.1869 38.671 31.4724 36.5687 33.5394 34.9116C34.0509 34.5022 34.6254 34.191 35.1894 33.8605C35.5374 33.655 35.6694 33.3394 35.4564 32.9567C35.2614 32.6054 34.9674 32.5205 34.6029 32.6858C34.3824 32.787 34.1589 32.8838 33.9504 33.0044C32.8299 33.658 31.8444 34.4664 31.0044 35.4595C29.3844 37.3742 28.5234 39.5896 28.3629 42.0656C28.2264 44.1783 28.5459 46.2389 29.1984 48.2578C29.3454 48.7134 29.5539 48.9724 30.0354 48.9903C29.5764 49.4891 28.9824 49.6528 28.3299 49.6543C24.4089 49.6588 20.4879 49.6588 16.5654 49.6618C16.7184 48.8369 16.2849 48.4722 15.5814 48.0851C13.4273 46.8999 12.3518 44.9227 11.8178 42.6031C11.7158 42.1609 11.7863 41.6725 11.4848 41.278C11.5568 41.1946 11.6243 41.1068 11.7008 41.0279C13.0388 39.6283 14.3889 38.2392 15.7104 36.8233C16.2399 36.2561 16.2369 35.5533 15.7794 35.1409C15.2498 34.6645 14.6469 34.724 14.0559 35.327C13.0928 36.3111 12.1358 37.3042 11.1773 38.2928C10.9133 36.4258 10.6433 34.5602 10.3853 32.6932C10.1078 30.6788 9.84985 28.6629 9.56635 26.6499C9.22585 24.235 8.87035 21.8215 8.41285 19.423C8.25235 18.5833 7.91785 17.7599 8.10235 16.8636C8.33935 15.7157 9.30985 14.6705 10.4513 14.4115C11.6948 14.1301 12.8708 14.6199 13.6373 15.6696C14.2628 16.5256 14.4279 17.5425 14.7399 18.5073C15.5094 20.8895 16.2549 23.2806 17.0124 25.6658C17.0379 25.7462 17.0574 25.8489 17.2014 25.8787C17.2014 24.168 17.2014 22.4677 17.2014 20.7674C19.2054 20.76 21.2094 20.7615 23.2134 20.7406C23.5854 20.7362 23.6244 20.9074 23.6424 21.2141C23.6994 22.2325 23.7519 23.2508 23.7459 24.2722C23.7429 24.8395 24.1254 25.1938 24.5679 25.0658C24.9744 24.9481 25.0824 24.6414 25.0959 24.2484C25.1499 22.7431 24.9669 21.2439 24.9684 19.7401C24.9684 19.3113 25.0719 19.1624 25.5294 19.1699C27.1779 19.1967 28.8264 19.1803 30.4749 19.1803C31.1979 19.1803 31.2534 19.2101 31.1454 19.9426C30.9309 21.3823 31.1739 22.8369 30.9579 24.2767C30.8919 24.7159 31.1229 25.0479 31.5999 25.0941C32.0694 25.1402 32.2539 24.8543 32.3184 24.4241C32.4759 23.37 32.3754 22.3099 32.3979 21.2528C32.4054 20.8761 32.4984 20.7257 32.9034 20.7391C33.8199 20.7674 34.7394 20.7525 35.6559 20.7555C35.6469 22.1253 35.4819 23.4891 35.4564 24.8543C35.4114 27.2782 36.2334 29.4266 37.8219 31.2758C37.9929 31.4723 38.2074 31.6048 38.4864 31.447ZM25.6914 35.2481C25.5594 36.5136 25.4409 37.6526 25.3224 38.7916C25.1079 40.873 24.7674 42.9351 24.3594 44.9867C24.1824 45.8756 24.0129 46.7659 23.8554 47.6592C23.7894 48.0315 23.9964 48.2756 24.3399 48.3709C24.7074 48.4722 24.9444 48.2563 25.1019 47.9555C25.1604 47.8439 25.1844 47.7113 25.2114 47.5848C25.6089 45.7386 25.9689 43.888 26.2584 42.0209C26.6154 39.7132 26.9289 37.404 26.9934 35.0694C27.0069 34.596 27.1614 34.3444 27.5814 34.1195C29.6739 32.9969 31.8144 31.9771 34.0194 31.0912C34.2654 30.9929 34.5084 30.8723 34.5339 30.5612C34.5534 30.32 34.5759 30.0698 34.3464 29.8956C34.0404 29.6634 33.7299 29.717 33.3984 29.8554C31.4664 30.6639 29.5689 31.5483 27.7074 32.5071C27.5319 32.5979 27.3714 32.7513 27.1269 32.7066C27.0759 31.9101 27.1749 31.1076 27.0084 30.3185C26.9334 29.9626 27.1884 29.8822 27.4389 29.7869C28.7139 29.2986 29.9799 28.7924 31.1859 28.1507C31.7109 27.8708 31.8879 27.5001 31.6569 27.1249C31.3809 26.6782 31.0074 26.7154 30.5889 26.9402C29.5839 27.4792 28.5294 27.9125 27.4689 28.3353C27.1794 28.4499 26.9559 28.5303 26.7879 28.1596C26.6469 27.8455 26.3619 27.7814 26.0334 27.8604C25.6794 27.9452 25.5159 28.1998 25.5534 28.5155C25.6104 28.9978 25.3314 29.1214 24.9579 29.2152C23.7819 29.5115 22.6179 29.8584 21.4329 30.1085C18.9474 30.6326 16.4394 30.981 13.8849 30.8396C13.3208 30.8083 12.9338 31.3458 13.1723 31.7939C13.3509 32.1304 13.6523 32.2376 14.0153 32.2361C14.8944 32.2331 15.7704 32.2078 16.6479 32.1498C17.8224 32.0709 18.9864 31.9279 20.1444 31.7329C21.8199 31.45 23.4729 31.0689 25.0959 30.5641C25.4559 30.4525 25.6659 30.4167 25.6899 30.9289C25.7079 31.3324 25.6989 31.7508 25.7709 32.1453C25.9734 33.2485 25.4649 33.8218 24.5169 34.3533C22.6464 35.4029 20.8974 36.6536 19.3224 38.1231C18.9909 38.4328 18.8604 38.7678 19.1769 39.143C19.4649 39.4839 19.8639 39.466 20.2584 39.0908C21.0174 38.3687 21.8574 37.7509 22.7034 37.1389C23.6229 36.4734 24.5619 35.8392 25.6914 35.2481ZM14.5269 28.1194C14.4234 27.5924 14.3078 26.8613 14.1293 26.1467C14.0033 25.642 13.3854 25.301 12.9053 25.3948C12.2633 25.5214 11.8523 26.0082 11.9483 26.6231C12.0548 27.3154 12.2033 28.0033 12.3818 28.6807C12.5333 29.2584 13.0884 29.6083 13.5924 29.5115C14.1954 29.3969 14.5344 28.9666 14.5269 28.1194ZM13.5038 22.8727C13.4633 22.7208 13.4213 22.4215 13.3028 22.155C13.0913 21.6756 12.6908 21.4806 12.1658 21.5208C11.6528 21.5595 11.3513 21.8334 11.2013 22.3099C11.0678 22.7342 11.2178 23.1213 11.3603 23.498C11.5478 23.9953 12.0908 24.2841 12.5693 24.1903C13.0733 24.0906 13.5143 23.5382 13.5038 22.8727Z" fill="#FEC7B6"/>
<path d="M30.6123 48.3068C30.8853 47.9718 30.9273 47.5683 30.9363 47.1634C30.9603 46.0095 31.4088 45.1445 32.5293 44.671C33.3708 44.3152 34.1808 43.8968 34.8018 43.1985C34.9233 43.063 35.0973 42.9618 35.1003 42.7489C36.5613 43.6348 38.0238 44.5206 39.4848 45.408C38.6028 46.7122 37.6233 47.9197 36.2268 48.7282C35.5053 49.1465 34.7283 49.4279 33.9093 49.5098C33.4188 49.5589 33.3888 49.7734 33.4023 50.15C33.4518 51.5034 33.4713 52.8598 33.5298 54.2131C33.5478 54.636 33.4488 54.7983 32.9823 54.7878C27.6678 54.6643 22.3518 54.6911 17.0358 54.6866C16.6953 54.6866 16.5303 54.6285 16.5378 54.2355C16.5648 52.7124 16.5603 51.1878 16.5663 49.6632C20.4873 49.6617 24.4083 49.6602 28.3308 49.6557C28.9833 49.6557 29.5773 49.4905 30.0363 48.9917C30.3588 48.8696 30.5658 48.6552 30.6123 48.3068Z" fill="#FE96B8"/>
<path d="M35.6547 20.7525C34.7367 20.7495 33.8187 20.7659 32.9022 20.7361C32.4972 20.7242 32.4042 20.8731 32.3967 21.2497C32.3742 22.3068 32.4762 23.3654 32.3172 24.421C32.2527 24.8513 32.0682 25.1372 31.5987 25.091C31.1202 25.0448 30.8907 24.7128 30.9567 24.2736C31.1712 22.8339 30.9282 21.3793 31.1442 19.9395C31.2537 19.207 31.1967 19.1772 30.4737 19.1772C28.8252 19.1772 27.1767 19.1936 25.5282 19.1668C25.0707 19.1594 24.9672 19.3083 24.9672 19.7371C24.9657 21.2408 25.1487 22.7401 25.0947 24.2453C25.0812 24.6384 24.9717 24.9451 24.5667 25.0627C24.1242 25.1908 23.7417 24.8379 23.7447 24.2692C23.7507 23.2478 23.6982 22.2294 23.6412 21.211C23.6247 20.9043 23.5857 20.7346 23.2122 20.7376C21.2082 20.7584 19.2042 20.7584 17.2002 20.7644C16.8447 20.6736 16.6017 20.4621 16.5792 20.0884C16.5567 19.7281 16.7952 19.5271 17.1072 19.4021C19.0692 19.4021 21.0327 19.3812 22.9947 19.4155C23.5347 19.4244 23.6742 19.2472 23.6247 18.7544C23.5062 17.5544 23.4852 16.3499 23.5212 15.1469C23.5347 14.6958 23.3787 14.5856 22.9452 14.5901C21.0012 14.6094 19.0572 14.596 17.1132 14.5945C16.3902 14.1255 16.3857 13.6699 17.0982 13.2546C19.0212 13.256 20.9442 13.2426 22.8672 13.2694C23.3382 13.2769 23.4297 13.1012 23.4132 12.6873C23.3832 11.928 23.4237 11.1657 23.3847 10.4079C23.3607 9.93141 23.5152 9.62024 23.9667 9.46094C24.0417 9.47136 24.1167 9.48178 24.1917 9.4922C24.4272 9.66491 24.7317 9.8004 24.7362 10.1428C24.7407 10.4748 24.9372 10.4778 25.1787 10.4778C27.0972 10.4748 29.0157 10.4704 30.9342 10.4823C31.2642 10.4838 31.4247 10.3974 31.3917 10.049C31.3602 9.72595 31.4652 9.42967 31.6077 9.14529C31.7937 8.96216 32.0262 8.9041 32.2797 8.90112C32.6532 9.12594 32.7657 9.44754 32.7492 9.87931C32.7132 10.8426 32.7402 11.8074 32.7177 12.7707C32.7102 13.1161 32.7927 13.2754 33.1797 13.265C34.1502 13.2382 35.1222 13.2501 36.0927 13.2456C37.1277 13.2575 38.1612 13.2694 39.1962 13.2814C39.6237 13.8918 39.6162 14.0362 39.1197 14.593C38.0772 14.5975 37.0332 14.602 35.9892 14.6064C35.0172 14.6035 34.0452 14.602 33.0732 14.599C32.8452 14.599 32.6232 14.5722 32.6157 14.9176C32.5872 16.2874 32.5497 17.6571 32.5002 19.0269C32.4867 19.3857 32.6847 19.408 32.9577 19.405C33.8922 19.3961 34.8267 19.3976 35.7612 19.3946C36.8202 19.3931 37.8792 19.3902 38.9382 19.3887C39.2787 19.5093 39.5097 19.7147 39.4902 20.1063C39.4722 20.4696 39.2517 20.6587 38.9187 20.745C37.8342 20.7495 36.7437 20.751 35.6547 20.7525ZM28.0647 11.8193C27.1287 11.8193 26.1927 11.8357 25.2582 11.8118C24.8637 11.8014 24.7332 11.9265 24.7527 12.3181C24.8007 13.2977 24.8997 14.2759 24.8697 15.2615C24.8502 15.9107 24.8562 16.5628 24.8817 17.212C24.8937 17.5142 24.8847 17.8492 25.3767 17.8447C27.1722 17.8283 28.9692 17.8343 30.7647 17.8417C31.0422 17.8432 31.1427 17.7598 31.1772 17.4651C31.3692 15.7856 31.1622 14.0898 31.3842 12.4148C31.4532 11.8982 31.2357 11.791 30.7572 11.8104C29.8617 11.8446 28.9617 11.8193 28.0647 11.8193Z" fill="#E9749A"/>
<path d="M36.5532 40.9548C37.4502 39.5494 38.3562 38.1498 39.2397 36.7369C40.9797 33.9542 42.7107 31.1656 44.4402 28.377C44.8797 27.6683 45.3057 26.9625 45.4722 26.1184C45.6222 25.3575 45.5022 24.6637 45.2037 23.9744C46.3827 23.7406 47.3802 24.1575 48.2307 24.9049C49.8372 26.3164 50.1177 28.3755 48.9252 30.314C46.3017 34.5795 43.6377 38.8183 40.9872 43.0675C40.9107 43.1911 40.8027 43.2953 40.7097 43.4085C39.2622 42.6953 37.9302 41.7871 36.5532 40.9548Z" fill="#FE96B8"/>
<path d="M31.6125 9.14831C31.47 9.43268 31.365 9.73045 31.3965 10.052C31.431 10.4004 31.269 10.4868 30.939 10.4853C29.0205 10.4734 27.102 10.4779 25.1835 10.4808C24.942 10.4808 24.744 10.4779 24.741 10.1458C24.7365 9.8034 24.4335 9.66792 24.1965 9.49521C24.261 8.31305 24.0495 7.11899 24.3135 5.94875C24.9285 3.2152 28.23 2.3055 30.2835 4.12191C30.99 4.74723 31.404 5.58397 31.401 6.583C31.3995 7.34083 31.4595 8.09717 31.4925 8.855C31.497 8.96666 31.506 9.07684 31.6125 9.14831Z" fill="#FEC8B7"/>
<path d="M23.9735 9.46395C23.522 9.62326 23.366 9.93443 23.3915 10.4109C23.4305 11.1687 23.39 11.931 23.42 12.6903C23.4365 13.1042 23.345 13.2784 22.874 13.2724C20.951 13.2442 19.028 13.2591 17.105 13.2576C17.108 12.2362 17.111 11.2134 17.114 10.192C17.12 8.23564 18.41 6.74976 20.363 6.59343C21.9815 6.4639 23.723 7.57161 23.9735 9.46395Z" fill="#FEC7B7"/>
<path d="M17.1183 14.5975C19.0623 14.599 21.0063 14.6124 22.9503 14.593C23.3823 14.5886 23.5383 14.6972 23.5263 15.1499C23.4903 16.3529 23.5113 17.5588 23.6298 18.7574C23.6793 19.2502 23.5398 19.4288 22.9998 19.4184C21.0378 19.3842 19.0743 19.405 17.1123 19.405C17.1123 17.8015 17.1153 16.1995 17.1183 14.5975Z" fill="#FEC8B7"/>
<path d="M11.179 38.2927C12.1375 37.3041 13.0945 36.3126 14.0575 35.3269C14.647 34.7239 15.2515 34.6644 15.781 35.1408C16.2385 35.5532 16.2415 36.256 15.712 36.8232C14.3905 38.2377 13.0405 39.6268 11.7025 41.0278C11.626 41.1067 11.5585 41.1945 11.4865 41.2779C10.2985 42.5152 9.1165 43.7569 7.921 44.9882C7.363 45.5629 6.601 45.5748 6.1555 45.0447C5.7535 44.5668 5.7775 44.0055 6.262 43.4918C7.4635 42.2174 8.6815 40.9563 9.889 39.6863C10.324 39.2263 10.7485 38.7573 11.179 38.2927Z" fill="#CC596D"/>
<path d="M35.6554 20.7525C36.7459 20.751 37.8349 20.7495 38.9254 20.7465C38.8084 23.5188 38.7079 26.2925 38.5624 29.0633C38.5204 29.8583 38.4604 30.6504 38.4859 31.447C38.2069 31.6033 37.9939 31.4723 37.8214 31.2728C36.2329 29.4236 35.4109 27.2752 35.4559 24.8513C35.4814 23.486 35.6464 22.1222 35.6554 20.7525Z" fill="#FE96B9"/>
<path d="M36.5536 40.9548C37.9321 41.7856 39.2626 42.6938 40.7116 43.4085C41.2186 43.8864 41.8726 44.1395 42.4441 44.5192C42.7501 44.7216 43.0141 44.9509 43.0786 45.3276C43.1566 45.7847 43.0336 46.1837 42.6421 46.4576C42.2356 46.742 41.7991 46.7376 41.3731 46.4979C40.7401 46.1405 40.1146 45.7713 39.4846 45.408C38.0236 44.5221 36.5611 43.6363 35.1001 42.7489C34.2406 42.2263 33.3766 41.7127 32.5231 41.1796C31.8166 40.7374 31.6561 40.1568 32.0431 39.5389C32.3911 38.9836 33.0331 38.8898 33.7111 39.2888C34.6561 39.8456 35.6056 40.3995 36.5536 40.9548Z" fill="#CC586D"/>
<path d="M51.2007 9.88092C50.9217 9.84816 50.8362 9.60846 50.7537 9.38513C50.5107 8.72258 50.2707 8.06004 50.0532 7.38856C49.9302 7.0089 49.7157 6.75133 49.3347 6.59947C48.7287 6.35678 48.1362 6.08134 47.5392 5.81633C47.3262 5.72253 47.1357 5.59895 47.1402 5.33244C47.1447 5.06743 47.3412 4.94981 47.5527 4.85601C48.1167 4.60737 48.6747 4.34533 49.2477 4.122C49.6842 3.95227 49.9407 3.67236 50.0757 3.22273C50.2737 2.56614 50.5227 1.92444 50.7597 1.27976C50.8362 1.07281 50.9172 0.816727 51.1797 0.810772C51.4722 0.804817 51.5562 1.05792 51.6387 1.29614C51.8817 1.99739 52.1487 2.6912 52.3827 3.39544C52.4847 3.70214 52.6587 3.89272 52.9632 4.01778C53.5842 4.27535 54.1902 4.56717 54.8007 4.84708C55.0092 4.94236 55.2102 5.05254 55.2222 5.31756C55.2342 5.61533 55.0137 5.73146 54.7887 5.83568C54.2127 6.10219 53.6457 6.39549 53.0532 6.61882C52.6572 6.76771 52.4592 7.02081 52.3347 7.3975C52.1097 8.08535 51.8562 8.76427 51.6192 9.44766C51.5487 9.65461 51.4497 9.82285 51.2007 9.88092Z" fill="#FEC8B7"/>
<path d="M36.0977 13.2486C35.1272 13.2531 34.1552 13.2427 33.1847 13.268C32.7977 13.2784 32.7137 13.1206 32.7227 12.7737C32.7452 11.8104 32.7182 10.8456 32.7542 9.88233C32.7707 9.44907 32.6582 9.12747 32.2847 8.90414C32.6177 7.59395 33.4952 6.83314 34.7672 6.46539C34.8137 6.52197 34.8512 6.59046 34.9082 6.63363C35.7647 7.27682 36.2462 8.11505 36.2222 9.19596C36.1922 10.5478 36.1397 11.8982 36.0977 13.2486Z" fill="#FEC7B6"/>
<path d="M36.0976 13.2486C36.1396 11.8982 36.1921 10.5463 36.2221 9.1959C36.2461 8.11499 35.7631 7.27676 34.9081 6.63357C34.8511 6.59039 34.8136 6.52191 34.7671 6.46533C36.6286 5.83703 38.7691 7.08172 39.2536 9.07679C39.3331 9.40136 39.3856 9.72891 39.3676 10.0669C39.3076 11.1389 39.2566 12.2123 39.2026 13.2843C38.1661 13.2724 37.1326 13.2605 36.0976 13.2486Z" fill="#FE96B9"/>
<path d="M35.9941 14.6094C37.0381 14.6049 38.0806 14.6005 39.1246 14.596C39.1261 16.0491 39.0436 17.4993 38.9536 18.9494C38.9446 19.0968 38.9461 19.2442 38.9431 19.3901C37.8841 19.3916 36.8251 19.3946 35.7661 19.3961C35.8426 17.8015 35.9191 16.2055 35.9941 14.6094Z" fill="#FE96B9"/>
<path d="M8.06267 2.33374C8.24267 2.35458 8.29667 2.48411 8.34767 2.633C8.48717 3.03499 8.68517 3.42359 8.77517 3.836C8.89817 4.39432 9.24617 4.68167 9.75017 4.86629C10.0997 4.99433 10.4417 5.14769 10.7687 5.32486C11.1407 5.52735 11.1347 5.76557 10.7732 5.97698C10.6292 6.06185 10.4792 6.15862 10.3202 6.19287C9.20117 6.43853 8.73617 7.24251 8.50067 8.25196C8.46767 8.39489 8.39867 8.53038 8.35667 8.67182C8.30867 8.84006 8.25317 9.00682 8.04167 9.00235C7.83467 8.99788 7.77167 8.81773 7.71467 8.66438C7.53317 8.17901 7.35017 7.69215 7.19417 7.19934C7.09067 6.87477 6.91817 6.66781 6.57918 6.55317C6.15768 6.41024 5.74968 6.21669 5.35068 6.01867C4.97118 5.83108 4.96968 5.53628 5.33867 5.3204C5.53067 5.20724 5.72868 5.08069 5.94168 5.02858C6.87618 4.79781 7.30967 4.16057 7.48517 3.27321C7.53467 3.02308 7.67267 2.79082 7.77317 2.5526C7.82417 2.42456 7.91117 2.33672 8.06267 2.33374Z" fill="#FEC8B7"/>
<path d="M48.6547 15.0487C49.7812 15.0502 50.6962 15.9673 50.6782 17.075C50.6602 18.1396 49.7182 19.0612 48.6487 19.0612C47.5387 19.0612 46.6537 18.1485 46.6612 17.0125C46.6687 15.8899 47.5237 15.0472 48.6547 15.0487Z" fill="#FEA786"/>
<path d="M41.0746 2.45289C40.5901 2.46034 40.2106 2.11194 40.1956 1.64593C40.1821 1.235 40.6351 0.785367 41.0611 0.788345C41.4886 0.791323 41.9131 1.22905 41.9056 1.66231C41.8981 2.10003 41.5351 2.44545 41.0746 2.45289Z" fill="#FEA786"/>
<path d="M25.6903 35.248C24.5623 35.8376 23.6233 36.4733 22.7038 37.1359C21.8578 37.7463 21.0178 38.3657 20.2588 39.0878C19.8643 39.463 19.4653 39.4808 19.1773 39.1399C18.8608 38.7647 18.9913 38.4297 19.3228 38.12C20.8978 36.6505 22.6468 35.3999 24.5173 34.3502C25.4638 33.8187 25.9737 33.2455 25.7712 32.1422C25.6992 31.7462 25.7083 31.3293 25.6903 30.9258C25.6678 30.4137 25.4562 30.4494 25.0962 30.5611C23.4732 31.0658 21.8203 31.4469 20.1448 31.7298C18.9868 31.9249 17.8243 32.0678 16.6483 32.1467C15.7693 32.2063 14.8933 32.2301 14.0158 32.2331C13.6528 32.2345 13.3513 32.1273 13.1728 31.7909C12.9343 31.3427 13.3213 30.8052 13.8853 30.8365C16.4398 30.9779 18.9478 30.6296 21.4333 30.1055C22.6183 29.8553 23.7823 29.5084 24.9583 29.2122C25.3318 29.1184 25.6108 28.9948 25.5538 28.5124C25.5163 28.1968 25.6797 27.9407 26.0337 27.8573C26.3637 27.7784 26.6472 27.8439 26.7882 28.1566C26.9562 28.5288 27.1797 28.4484 27.4692 28.3322C28.5282 27.9094 29.5828 27.4761 30.5892 26.9372C31.0077 26.7124 31.3812 26.6751 31.6572 27.1218C31.8897 27.497 31.7127 27.8677 31.1862 28.1476C29.9802 28.7908 28.7128 29.2955 27.4393 29.7839C27.1903 29.8792 26.9337 29.961 27.0087 30.3154C27.1752 31.103 27.0747 31.907 27.1272 32.7035C27.3717 32.7467 27.5322 32.5934 27.7077 32.504C29.5707 31.5467 31.4667 30.6623 33.3987 29.8524C33.7302 29.7139 34.0407 29.6603 34.3467 29.8926C34.5762 30.0668 34.5537 30.3169 34.5342 30.5581C34.5087 30.8678 34.2657 30.9884 34.0197 31.0881C31.8147 31.9725 29.6742 32.9924 27.5817 34.1165C27.1617 34.3413 27.0073 34.5944 26.9938 35.0664C26.9293 37.4009 26.6157 39.7116 26.2587 42.0178C25.9692 43.8849 25.6093 45.737 25.2118 47.5817C25.1848 47.7083 25.1622 47.8408 25.1023 47.9524C24.9432 48.2532 24.7063 48.4691 24.3403 48.3678C23.9953 48.274 23.7898 48.0284 23.8558 47.6562C24.0118 46.7628 24.1828 45.8725 24.3598 44.9837C24.7678 42.932 25.1067 40.8699 25.3228 38.7885C25.4382 37.6525 25.5583 36.5135 25.6903 35.248Z" fill="#E9749A"/>
<path d="M30.6121 48.3068C30.5656 48.6552 30.3586 48.8696 30.0361 48.9902C29.5546 48.9723 29.3461 48.7132 29.1991 48.2576C28.5466 46.2388 28.2271 44.1782 28.3636 42.0655C28.5241 39.5895 29.3836 37.3741 31.0051 35.4594C31.8451 34.4678 32.8306 33.6579 33.9511 33.0043C34.1596 32.8822 34.3831 32.7854 34.6036 32.6857C34.9681 32.5189 35.2621 32.6053 35.4571 32.9566C35.6686 33.3393 35.5381 33.6549 35.1901 33.8604C34.6261 34.1909 34.0516 34.5021 33.5401 34.9115C31.4731 36.5671 30.1891 38.6709 29.8096 41.3002C29.4826 43.5707 29.8381 45.7668 30.5206 47.9301C30.5581 48.0537 30.5821 48.1817 30.6121 48.3068Z" fill="#E9749A"/>
<path d="M14.5261 28.1194C14.5321 28.9665 14.1931 29.3968 13.5901 29.5129C13.0861 29.6097 12.5311 29.2598 12.3796 28.6822C12.2011 28.0047 12.0541 27.3154 11.9461 26.6246C11.8516 26.0111 12.2626 25.5243 12.9031 25.3962C13.3831 25.301 14.0011 25.6434 14.1271 26.1481C14.3086 26.8628 14.4226 27.5923 14.5261 28.1194Z" fill="#FEFDFD"/>
<path d="M13.5028 22.8726C13.5133 23.5366 13.0708 24.0905 12.5668 24.1887C12.0883 24.2825 11.5453 23.9937 11.3578 23.4964C11.2153 23.1197 11.0653 22.7326 11.1988 22.3083C11.3488 21.8304 11.6503 21.5579 12.1633 21.5192C12.6898 21.479 13.0888 21.6755 13.3003 22.1534C13.4203 22.4214 13.4623 22.7222 13.5028 22.8726Z" fill="#FEFDFD"/>
<path d="M28.0648 11.8194C28.9633 11.8194 29.8618 11.8462 30.7588 11.8089C31.2373 11.7896 31.4548 11.8968 31.3858 12.4134C31.1623 14.0899 31.3693 15.7842 31.1788 17.4636C31.1458 17.7569 31.0438 17.8403 30.7663 17.8403C28.9708 17.8329 27.1738 17.8269 25.3783 17.8433C24.8863 17.8478 24.8953 17.5113 24.8833 17.2105C24.8578 16.5614 24.8518 15.9107 24.8713 15.2601C24.9013 14.276 24.8023 13.2978 24.7543 12.3166C24.7348 11.9251 24.8668 11.8 25.2598 11.8104C26.1928 11.8357 27.1288 11.8194 28.0648 11.8194Z" fill="#FEC6B6"/>
<path d="M35.9939 14.6095C35.9174 16.2055 35.8424 17.8016 35.7659 19.3961C34.8314 19.3991 33.8969 19.3976 32.9624 19.4066C32.6894 19.4095 32.4929 19.3872 32.5049 19.0284C32.5544 17.6586 32.5919 16.2889 32.6204 14.9191C32.6279 14.5722 32.8499 14.599 33.0779 14.6005C34.0514 14.605 35.0234 14.6065 35.9939 14.6095Z" fill="#FEC7B6"/>
</svg>
