<svg width="54" height="60" viewBox="0 0 54 60" fill="none" xmlns="http://www.w3.org/2000/svg">
<path d="M27.1962 60C26.8055 60 26.4147 60 26.0239 60C26.0255 59.9234 25.9895 59.8812 25.9114 59.8765H25.9145C25.927 59.6389 25.7566 59.4873 25.641 59.3123C24.7953 58.0493 23.9435 56.791 23.0947 55.5296C18.8776 49.2555 14.662 42.9829 10.4495 36.7056C10.2682 36.4352 9.99933 36.2101 9.96494 35.8537L9.96338 35.8599C13.1286 35.8584 16.2954 35.8568 19.4606 35.8537C19.4903 35.8771 19.5231 35.8943 19.5575 35.9068C19.5747 36.0225 19.5778 36.1429 19.6106 36.2523C20.3359 38.6594 21.2159 41.0056 22.3273 43.2658C23.0072 44.646 23.7903 45.9668 24.4999 47.3298C23.9513 47.4704 23.6668 47.8253 23.7184 48.3895C23.8122 49.4227 24.2999 50.2152 25.208 50.7466C25.8661 51.1311 26.5788 51.1155 27.2994 51.0843C27.3025 51.2312 27.3947 51.3297 27.4776 51.4375C28.417 52.6411 29.4517 53.7587 30.5084 54.8559C30.5052 54.8903 30.5052 54.9247 30.5099 54.9591C29.6518 56.2267 28.7843 57.4882 27.9418 58.7652C27.6808 59.1685 27.3338 59.5217 27.1962 60Z" fill="#2FCDFA"/>
<path d="M27.3132 0C29.6124 0.662742 31.4991 2.12108 33.5404 3.2715C37.8029 5.67082 42.0216 8.14672 46.2591 10.5914C47.8128 11.487 49.3696 12.3764 50.9155 13.2845C51.4032 13.5706 51.8408 13.9301 52.1441 14.424C51.1484 14.4193 50.1793 14.1989 49.1993 14.0692C46.7187 13.7394 44.2365 13.433 41.7575 13.097C39.6255 12.8094 37.4966 12.4858 35.3645 12.1935C32.4447 11.7918 29.5233 11.4057 26.6035 11.0118C26.6051 7.34174 26.6082 3.67009 26.6098 0C26.8442 0 27.0787 0 27.3132 0Z" fill="#BC9CDD"/>
<path d="M26.6099 0C26.6084 3.67009 26.6052 7.34174 26.6037 11.0118C26.5583 11.0243 26.513 11.0368 26.4661 11.0493C25.472 11.1838 24.4795 11.3244 23.4838 11.451C22.1427 11.623 20.8016 11.7824 19.4604 11.9481C19.4792 11.7949 19.4761 11.6339 19.5214 11.4901C19.8715 10.3819 20.1873 9.25806 20.5999 8.17329C21.2892 6.357 22.0958 4.59386 23.0305 2.88386C23.4369 2.14141 24.0059 1.48335 24.2544 0.654924C24.7436 0.281351 25.3532 0.212578 25.9065 0C26.141 0 26.3755 0 26.6099 0Z" fill="#B08CD8"/>
<path d="M27.1963 60C27.3338 59.5217 27.6808 59.1684 27.945 58.7683C28.7875 57.4913 29.655 56.2299 30.5131 54.9622C30.7726 54.9888 30.8883 55.2139 31.0539 55.3639C31.6745 55.9313 32.1856 56.6191 32.9187 57.063C31.1321 58.1212 29.419 59.3169 27.4307 59.9984C27.3526 60 27.2744 60 27.1963 60Z" fill="#A47CD1"/>
<path d="M25.9114 59.8765C25.9896 59.8797 26.0255 59.9234 26.024 60C25.9849 60 25.9458 60 25.9067 60C25.9083 59.9594 25.9099 59.9172 25.9114 59.8765Z" fill="#B08CD8"/>
<path d="M0.389648 15.5729C0.522509 15.1383 0.733523 14.7507 1.07271 14.4397C2.39507 14.3631 3.69554 14.1145 5.00539 13.9426C7.77984 13.5784 10.5527 13.1876 13.3272 12.8188C15.331 12.5515 17.3365 12.2998 19.3419 12.0403C18.329 15.973 17.8007 19.9667 17.8288 24.0322C17.8241 24.0697 17.8226 24.1072 17.8226 24.1432C17.696 24.3136 17.5631 24.4793 17.4443 24.6543C15.1622 28.0446 12.8786 31.4334 10.6027 34.8268C10.3777 35.1628 10.0916 35.4629 9.96658 35.86L9.96814 35.8537C9.93375 35.8443 9.8978 35.8365 9.86185 35.8318C7.83924 31.4912 5.82132 27.1474 3.79401 22.8083C2.66548 20.3934 1.52444 17.9847 0.389648 15.5729ZM11.8548 16.7436C11.1717 16.7436 10.4902 16.7374 9.80715 16.7452C9.16941 16.753 8.78959 17.0891 8.79428 17.6205C8.7974 18.1535 9.17723 18.4896 9.81496 18.499C10.5559 18.5099 11.2983 18.5286 12.0361 18.4927C12.566 18.4661 12.6113 18.6099 12.405 19.0679C11.5156 21.0358 10.6528 23.0147 9.78839 24.9935C9.53517 25.5734 9.6946 26.0548 10.1807 26.2752C10.6653 26.4956 11.1295 26.2924 11.3921 25.7031C12.5206 23.16 13.6445 20.6153 14.7543 18.0629C15.0684 17.3407 14.6855 16.7655 13.9024 16.7467C13.2193 16.7311 12.5378 16.7452 11.8548 16.7436Z" fill="#01BCFC"/>
<path d="M9.86013 35.8318C9.89608 35.838 9.93203 35.8459 9.96642 35.8537C10.0008 36.2101 10.2697 36.4351 10.451 36.7055C14.6634 42.9828 18.879 49.2554 23.0962 55.5296C23.9434 56.791 24.7953 58.0493 25.6424 59.3122C25.7597 59.4857 25.93 59.6373 25.916 59.8765C25.2626 59.914 24.6984 59.642 24.1591 59.331C16.919 55.1576 9.6835 50.9779 2.44805 46.7967C1.62119 46.3184 0.947504 45.6869 0.562988 44.7882C1.51646 44.0129 2.33707 43.0954 3.24209 42.2669C4.90989 40.7398 6.48077 39.108 8.12199 37.5496C8.71127 36.9869 9.3662 36.4914 9.86013 35.8318Z" fill="#B08CD8"/>
<path d="M9.86009 35.8318C9.36616 36.4914 8.71123 36.9869 8.12039 37.5481C6.48073 39.1065 4.90828 40.7383 3.24049 42.2654C2.33547 43.0938 1.51486 44.0114 0.561384 44.7867C0.175306 44.1771 0.00336795 43.5034 0.00180488 42.789C-0.00132126 34.2797 0.000241808 25.7719 0.00180488 17.2626C0.00180488 16.6702 0.106531 16.1012 0.387883 15.5729C1.52267 17.9847 2.66371 20.3934 3.79225 22.8083C5.81955 27.1474 7.83747 31.4912 9.86009 35.8318Z" fill="#A47CD1"/>
<path d="M19.34 12.0403C17.3345 12.2998 15.3291 12.5514 13.3253 12.8187C10.5508 13.1892 7.7795 13.5784 5.00349 13.9426C3.69363 14.1145 2.39316 14.363 1.0708 14.4396C1.41468 13.8394 1.97582 13.4815 2.5479 13.1501C9.62392 9.05954 16.7031 4.97523 23.7822 0.890932C23.9338 0.8034 24.0948 0.733061 24.2527 0.654907C24.0042 1.48333 23.4352 2.14139 23.0288 2.88385C22.0941 4.59228 21.2875 6.35699 20.5982 8.17327C20.1856 9.25961 19.8698 10.3819 19.5197 11.4901C19.4744 11.6355 19.4775 11.7949 19.4588 11.9481C19.4197 11.9794 19.3806 12.009 19.34 12.0403Z" fill="#A47CD1"/>
<path d="M26.4663 11.0494C26.5116 11.0369 26.5585 11.0243 26.6039 11.0118C29.5237 11.4057 32.4451 11.7918 35.3649 12.1935C37.4969 12.4858 39.6242 12.8094 41.7578 13.097C44.2369 13.4315 46.7206 13.7394 49.1996 14.0692C50.1796 14.1989 51.1487 14.4193 52.1444 14.424C52.4711 14.7398 52.6931 15.1165 52.7837 15.5651C51.8646 17.5361 50.944 19.5056 50.0296 21.4782C49.3325 22.9787 48.6478 24.4839 47.9476 25.9814C47.0457 27.9164 46.1282 29.8437 45.2294 31.7804C44.5932 33.1527 43.9821 34.536 43.2552 35.8647C43.2271 35.6161 43.0474 35.4504 42.9192 35.2597C41.092 32.5416 39.2554 29.8281 37.4266 27.1083C33.944 21.9299 30.4662 16.7483 26.9806 11.573C26.8618 11.3964 26.8117 11.1072 26.496 11.1353C26.4804 11.1088 26.471 11.0806 26.4663 11.0494ZM43.8258 21.622C43.8258 20.334 43.8351 19.046 43.8226 17.7581C43.8164 17.0812 43.4835 16.7624 42.8113 16.7499C42.3033 16.7405 41.7969 16.7483 41.2889 16.7499C40.9028 16.7514 40.6074 16.9062 40.448 17.2688C40.1697 17.8987 40.6074 18.5224 41.3858 18.4896C41.9751 18.4646 42.0892 18.6678 42.0798 19.2148C42.047 21.2249 42.0658 23.235 42.0673 25.2452C42.0689 25.9579 42.4096 26.3768 42.9645 26.3612C43.5006 26.3456 43.8211 25.9392 43.8242 25.2514C43.8305 24.0416 43.8258 22.8318 43.8258 21.622Z" fill="#83DDFE"/>
<path d="M32.9186 57.063C32.1855 56.6191 31.6744 55.9313 31.0538 55.3639C30.8882 55.2123 30.7725 54.9888 30.513 54.9622C30.5083 54.9278 30.5083 54.8934 30.5115 54.859C30.6224 54.7246 30.7459 54.5996 30.8428 54.4558C33.661 50.2714 36.4761 46.0855 39.2928 41.8996C40.6198 39.927 41.9453 37.9544 43.2708 35.9834C43.4224 35.9803 43.5193 36.0741 43.6194 36.1694C45.1824 37.6575 46.7533 39.1377 48.3117 40.632C49.6747 41.9387 51.0221 43.2611 52.3772 44.574C52.4601 44.6538 52.5648 44.71 52.6586 44.7757C52.321 45.6291 51.702 46.2543 50.9345 46.6983C45.0246 50.1261 39.1021 53.5351 33.1827 56.9489C33.1015 56.9958 33.0077 57.0255 32.9186 57.063Z" fill="#B08CD8"/>
<path d="M52.6583 44.7742C52.5645 44.7069 52.4598 44.6522 52.377 44.5725C51.0202 43.2595 49.6728 41.9372 48.3114 40.6305C46.7546 39.1362 45.1837 37.6559 43.6191 36.1679C43.519 36.0725 43.4221 35.9772 43.2705 35.9803C43.2658 35.9397 43.2611 35.9006 43.2564 35.86L43.2549 35.8647C43.9833 34.5376 44.5929 33.1527 45.229 31.7804C46.1278 29.8437 47.0453 27.9164 47.9472 25.9814C48.6459 24.4824 49.3321 22.9771 50.0292 21.4782C50.9452 19.5056 51.8658 17.5361 52.7834 15.5651C53.2116 16.1747 53.2179 16.8749 53.2179 17.5767C53.2179 25.8798 53.2179 34.1844 53.2195 42.4874C53.2195 42.9172 53.2101 43.3439 53.0897 43.7597C52.9866 44.1161 52.8865 44.4725 52.6583 44.7742Z" fill="#BC9CDD"/>
<path d="M26.4943 11.1353C26.81 11.1072 26.86 11.3964 26.9788 11.573C30.4645 16.7483 33.9423 21.9299 37.4248 27.1083C39.2536 29.8265 41.0887 32.54 42.9174 35.2598C43.0456 35.4504 43.2269 35.6161 43.2535 35.8647L43.2551 35.86C35.6085 35.8631 27.962 35.8647 20.3139 35.8693C20.0622 35.8693 19.809 35.8944 19.5574 35.9084C19.5214 35.8959 19.4902 35.8772 19.4605 35.8553C19.4417 35.7412 19.4339 35.6239 19.4042 35.513C18.4038 31.7882 17.8911 27.9962 17.8208 24.1432C17.8208 24.1057 17.8224 24.0682 17.8271 24.0322C19.0291 22.2597 20.2389 20.4934 21.4315 18.7147C23.1259 16.1919 24.8077 13.6628 26.4943 11.1353ZM26.2895 24.9372C26.6506 24.2667 27.1445 23.7821 27.6322 23.2913C27.8073 23.1163 28.023 22.9709 28.0198 22.6692C28.0151 22.2597 27.8635 21.9549 27.4884 21.7705C27.0929 21.5751 26.7678 21.7111 26.4802 21.9877C24.9593 23.457 23.9418 25.1717 23.5166 27.2912C23.1102 29.3185 24.6795 31.2739 26.6568 31.2036C27.9354 31.1567 29.436 30.2908 29.758 28.4807C29.9737 27.2662 29.0718 25.6906 27.8401 25.1701C27.3665 24.9669 26.8632 24.9607 26.2895 24.9372Z" fill="#FAF098"/>
<path d="M19.5591 35.9084C19.8107 35.8943 20.064 35.8709 20.3156 35.8693C27.9621 35.8646 35.6087 35.8631 43.2568 35.8599C43.2615 35.9006 43.2662 35.9396 43.2709 35.9803C41.9454 37.9529 40.6199 39.9255 39.2928 41.8965C36.4778 46.0824 33.6611 50.2683 30.8429 54.4526C30.746 54.5964 30.6225 54.7215 30.5115 54.8559C29.4549 53.7571 28.4201 52.6395 27.4807 51.4375C27.3963 51.3296 27.3041 51.2312 27.3025 51.0842C27.4948 50.9951 27.687 50.9076 27.8777 50.8138C29.4549 50.0401 30.0019 48.0972 29.0125 46.6435C28.7687 46.2856 28.8109 46.0808 29.0313 45.7448C29.7769 44.6162 29.6346 43.1954 28.7343 42.2419C27.784 41.2353 26.3991 40.9899 25.2143 41.6683C24.3983 42.1357 23.8356 42.8172 23.7872 43.8097C23.7669 44.2333 23.9904 44.5271 24.3968 44.6303C24.8126 44.7366 25.1752 44.6209 25.3987 44.2255C25.4737 44.0911 25.5066 43.9332 25.566 43.7909C25.7848 43.2658 26.1974 43.0329 26.7852 43.1063C27.3572 43.1767 27.6386 43.5518 27.7246 44.077C27.8277 44.7069 27.3604 45.2149 26.5616 45.3368C26.063 45.4118 25.7551 45.6776 25.7395 46.1668C25.7238 46.6826 26.0349 46.9921 26.5444 47.089C26.6585 47.1109 26.7836 47.0968 26.8914 47.1359C27.3682 47.3094 27.6824 47.6126 27.7058 48.1582C27.7308 48.7271 27.4557 49.0944 26.9508 49.2836C26.3069 49.5258 25.6519 49.1023 25.5081 48.3301C25.3987 47.7408 25.1549 47.3469 24.5031 47.3297C23.7934 45.9667 23.0103 44.6459 22.3304 43.2657C21.2175 41.0056 20.3375 38.6609 19.6138 36.2523C19.5794 36.1444 19.5763 36.024 19.5591 35.9084Z" fill="#83DDFD"/>
<path d="M17.8209 24.1432C17.8913 27.9962 18.404 31.7882 19.4043 35.513C19.434 35.6239 19.4418 35.7412 19.4606 35.8553C16.2954 35.8568 13.1286 35.8584 9.96338 35.8615C10.09 35.4645 10.3745 35.1628 10.5995 34.8283C12.8754 31.4349 15.159 28.0446 17.4411 24.6559C17.5599 24.4792 17.6943 24.3136 17.8209 24.1432Z" fill="#F8D889"/>
<path d="M24.5016 47.3313C25.1534 47.347 25.3972 47.7424 25.5066 48.3317C25.6504 49.1054 26.3053 49.5274 26.9493 49.2852C27.4542 49.096 27.7277 48.7287 27.7043 48.1597C27.6808 47.6127 27.3667 47.3094 26.8899 47.1375C26.7836 47.0984 26.6586 47.1125 26.5429 47.0906C26.0349 46.9937 25.7223 46.6842 25.7379 46.1684C25.7536 45.6792 26.0615 45.415 26.5601 45.3384C27.3604 45.2165 27.8262 44.7085 27.723 44.0786C27.6371 43.5534 27.3573 43.1782 26.7836 43.1079C26.1959 43.036 25.7833 43.2673 25.5644 43.7925C25.505 43.9363 25.4722 44.0942 25.3972 44.2271C25.1737 44.6225 24.811 44.7382 24.3953 44.6319C23.9889 44.5287 23.7653 44.2349 23.7857 43.8113C23.8341 42.8187 24.3968 42.1372 25.2128 41.6699C26.3976 40.9899 27.7824 41.2369 28.7328 42.2435C29.6331 43.197 29.7754 44.6178 29.0298 45.7464C28.8094 46.0809 28.7672 46.2872 29.011 46.6451C30.0004 48.0988 29.4534 50.0417 27.8762 50.8154C27.6871 50.9092 27.4933 50.9952 27.301 51.0858C26.5804 51.1171 25.8692 51.1343 25.2096 50.7482C24.3015 50.2167 23.8138 49.4243 23.72 48.3911C23.67 47.8284 23.9529 47.472 24.5016 47.3313Z" fill="#F7D88B"/>
<path d="M26.4945 11.1353C24.8079 13.6612 23.126 16.1918 21.4317 18.7146C20.2375 20.4918 19.0292 22.2597 17.8272 24.0322C17.7991 19.9682 18.3274 15.973 19.3403 12.0403C19.3809 12.0106 19.42 11.9794 19.4606 11.9497C20.8018 11.784 22.1444 11.6246 23.484 11.4526C24.4797 11.326 25.4722 11.1853 26.4663 11.0509C26.471 11.0806 26.4804 11.1087 26.4945 11.1353Z" fill="#2FCDFA"/>
<path d="M11.8546 16.7436C12.5376 16.7436 13.2191 16.7295 13.9006 16.7483C14.6837 16.7686 15.0667 17.3422 14.7525 18.0644C13.6427 20.6153 12.5189 23.16 11.3903 25.7047C11.1293 26.2939 10.6651 26.4971 10.1789 26.2768C9.69283 26.0564 9.53339 25.5749 9.78661 24.995C10.651 23.0162 11.5138 21.0358 12.4032 19.0694C12.6111 18.6115 12.5642 18.4677 12.0343 18.4942C11.295 18.5302 10.5525 18.5114 9.81318 18.5005C9.17389 18.4911 8.79563 18.155 8.7925 17.622C8.78937 17.0906 9.16764 16.7545 9.80537 16.7467C10.49 16.7373 11.1731 16.7436 11.8546 16.7436Z" fill="#F5D88A"/>
<path d="M43.8255 21.6219C43.8255 22.8317 43.8286 24.0416 43.8239 25.2514C43.8208 25.9391 43.4988 26.3455 42.9642 26.3612C42.4094 26.3768 42.0686 25.9594 42.067 25.2451C42.0639 23.235 42.0467 21.2249 42.0795 19.2148C42.0889 18.6677 41.9748 18.4645 41.3855 18.4895C40.6087 18.5224 40.1695 17.8987 40.4477 17.2688C40.6071 16.9061 40.9026 16.7514 41.2886 16.7498C41.7966 16.7483 42.3031 16.7405 42.8111 16.7498C43.4832 16.7608 43.8161 17.0812 43.8224 17.758C43.8349 19.0444 43.8255 20.3324 43.8255 21.6219Z" fill="#F7D88B"/>
<path d="M26.2896 24.9372C26.8632 24.9591 27.3665 24.9669 27.8401 25.167C29.0718 25.6891 29.9737 27.2631 29.758 28.4776C29.436 30.2892 27.9355 31.1551 26.6569 31.2005C24.6796 31.2724 23.1103 29.3154 23.5167 27.2881C23.9418 25.1701 24.9578 23.4539 26.4802 21.9846C26.7679 21.7079 27.093 21.572 27.4884 21.7673C27.8636 21.9518 28.0152 22.2566 28.0199 22.6661C28.023 22.9678 27.8073 23.1131 27.6322 23.2882C27.1446 23.7821 26.6506 24.2667 26.2896 24.9372ZM26.5975 29.4154C27.4197 29.417 28.0152 28.8746 28.0152 28.1243C28.0167 27.3131 27.4322 26.7238 26.6225 26.7191C25.8034 26.7145 25.222 27.2787 25.2048 28.0978C25.1876 28.8465 25.7878 29.4139 26.5975 29.4154Z" fill="#F8D889"/>
<path d="M26.5976 29.4154C25.7879 29.4139 25.1893 28.8465 25.2049 28.0978C25.2236 27.2787 25.8035 26.7145 26.6226 26.7191C27.4323 26.7238 28.0153 27.3131 28.0153 28.1243C28.0137 28.8746 27.4198 29.417 26.5976 29.4154Z" fill="#FAF098"/>
</svg>
