<svg width="38" height="50" viewBox="0 0 38 50" fill="none" xmlns="http://www.w3.org/2000/svg">
<path d="M21.1468 49.9799C19.7146 49.9799 18.2836 49.9799 16.8514 49.9799C16.8319 49.9369 16.8214 49.8848 16.7902 49.8536C14.9452 48.0724 13.1158 46.2847 10.8477 45.0048C8.8334 43.8681 7.10559 42.3772 5.85432 40.3903C5.4559 39.7575 5.28533 38.9516 4.79055 38.4412C4.29578 37.9308 3.51716 37.6951 2.89478 37.2797C1.94298 36.6443 1.17869 35.8045 0.350586 35.0324C0.35319 28.3308 0.355794 21.6279 0.358398 14.9262C0.387043 14.9106 0.422198 14.9028 0.441729 14.8807C1.62789 13.5122 3.03149 12.425 4.66946 11.6477C4.83092 11.5709 4.90774 11.4472 4.97414 11.2909C6.01708 8.82877 7.73708 6.9369 9.9805 5.532C12.0664 4.22605 14.1093 2.87843 15.8058 1.0725C16.1483 0.709227 16.5714 0.42408 16.8527 0.000915527C18.2849 0.000915527 19.7159 0.000915527 21.1481 0.000915527C21.2028 0.0777361 21.2497 0.163671 21.3148 0.228773C23.1819 2.06205 25.0738 3.86147 27.4058 5.11925C27.8315 5.34971 28.2234 5.64788 28.6193 5.93042C30.5632 7.3171 32.0801 9.05793 33.0123 11.2753C33.1087 11.5045 33.2532 11.6334 33.4681 11.7388C34.8066 12.3964 35.9875 13.27 37.0266 14.3403C37.2271 14.5473 37.3807 14.8052 37.6463 14.9471C37.6437 21.65 37.6411 28.3529 37.6385 35.0558C37.6112 35.0715 37.576 35.0806 37.5565 35.1027C36.3703 36.4712 34.9667 37.5584 33.33 38.337C33.1881 38.4047 33.1022 38.4997 33.0423 38.6456C31.9186 41.3512 29.9695 43.3394 27.4891 44.7951C25.3368 46.0581 23.4475 47.6232 21.7041 49.3835C21.5127 49.5749 21.2614 49.7155 21.1468 49.9799ZM17.5415 8.99674C16.4217 9.83656 15.229 10.5696 14.0286 11.2818C11.8763 12.5578 10.9076 14.4731 10.9115 16.9184C10.9128 17.3975 10.7448 17.4639 10.3281 17.4613C8.09514 17.4483 6.37774 18.43 5.19549 20.2959C3.96376 22.2385 3.69814 24.3856 4.06011 26.6251C4.59785 29.9479 6.97538 32.6418 10.5729 32.5247C10.8385 32.5156 10.8984 32.6262 10.9037 32.8684C10.9141 33.2903 10.9466 33.7121 10.9948 34.1314C11.1784 35.7381 11.8424 37.0805 13.1601 38.0714C14.565 39.1286 16.1496 39.9138 17.5428 40.9853C17.949 41.3343 18.3591 41.6793 18.7589 42.0348C18.9138 42.1728 19.0414 42.2236 19.2159 42.0595C20.682 40.6768 22.4202 39.6781 24.1168 38.6247C26.1675 37.3526 27.1037 35.4881 27.0946 33.1171C27.0933 32.7122 27.161 32.5754 27.6167 32.5663C30.0606 32.5182 31.9108 31.4296 33.0709 29.2604C34.1061 27.3243 34.3469 25.2567 33.9199 23.12C33.3496 20.2685 31.4603 17.5538 27.6623 17.4236C27.1753 17.4066 27.0933 17.266 27.0907 16.8168C27.0789 14.5968 26.2756 12.7805 24.3551 11.5279C22.6025 10.3847 20.7484 9.38214 19.2172 7.92385C19.044 7.75849 18.9151 7.80927 18.7602 7.94729C18.3578 8.30274 17.9477 8.64649 17.5415 8.99674Z" fill="#FEF4ED"/>
<path d="M0.32959 49.8835C0.334798 47.8706 0.34261 45.8589 0.345214 43.8459C0.34912 40.9085 0.349121 37.9698 0.350423 35.0324C1.17852 35.8045 1.94282 36.6443 2.89462 37.2797C3.51699 37.6951 4.29561 37.9295 4.79039 38.4412C5.28517 38.9516 5.45574 39.7575 5.85416 40.3903C7.10543 42.3772 8.83324 43.8681 10.8475 45.0048C13.1144 46.2847 14.9437 48.0724 16.79 49.8536C16.8213 49.8835 16.8317 49.9369 16.8512 49.9799C11.3527 49.9799 5.85286 49.9799 0.354329 49.9799C0.346517 49.9473 0.338704 49.9161 0.32959 49.8835ZM3.18497 42.9267C3.19018 43.3694 3.49616 43.7223 3.87505 43.7236C4.25655 43.7249 4.64977 43.3199 4.64196 42.9345C4.63415 42.514 4.30343 42.1702 3.90891 42.1741C3.50918 42.178 3.17976 42.5205 3.18497 42.9267ZM7.41141 47.2495C7.86973 47.2443 8.17831 46.9318 8.16008 46.4917C8.14446 46.1128 7.80723 45.7847 7.43094 45.7847C7.01558 45.7847 6.68617 46.1467 6.70049 46.588C6.71351 47.0307 6.95439 47.2547 7.41141 47.2495ZM3.88287 47.2495C4.29692 47.2469 4.64977 46.9175 4.64196 46.5425C4.63284 46.1232 4.30343 45.7821 3.91282 45.7847C3.51699 45.786 3.18367 46.1271 3.18627 46.5282C3.18758 47.0177 3.41413 47.2521 3.88287 47.2495Z" fill="#FE3D80"/>
<path d="M37.6684 0.0959838C37.6632 2.10764 37.6554 4.1206 37.6528 6.13226C37.6489 9.06967 37.6489 12.0071 37.6476 14.9458C37.382 14.8039 37.2283 14.5461 37.0278 14.339C35.9888 13.2688 34.8079 12.3951 33.4694 11.7376C33.2545 11.6321 33.11 11.5032 33.0136 11.274C32.0814 9.05795 30.5632 7.31582 28.6205 5.92914C28.2247 5.6466 27.8328 5.34843 27.407 5.11797C25.0764 3.86019 23.1832 2.06077 21.3161 0.227491C21.2497 0.162389 21.2041 0.0764544 21.1494 -0.000366211C26.6479 -0.000366211 32.1478 -0.000366211 37.6463 -0.000366211C37.6515 0.0321849 37.6606 0.0647347 37.6684 0.0959838ZM34.8131 7.06582C34.8118 6.62053 34.5149 6.26637 34.1347 6.25726C33.7519 6.24684 33.3561 6.64266 33.3561 7.03458C33.3561 7.45253 33.6842 7.80408 34.0774 7.80669C34.4758 7.80929 34.8144 7.46816 34.8131 7.06582ZM30.5866 2.73002C30.0775 2.73523 29.8249 2.98782 29.8379 3.47869C29.8484 3.85889 30.1856 4.19221 30.5606 4.19612C30.9772 4.20003 31.3106 3.83936 31.2975 3.39536C31.2858 2.95137 31.0449 2.72481 30.5866 2.73002ZM34.11 2.73002C33.6972 2.73392 33.3444 3.06725 33.3574 3.44224C33.3717 3.8628 33.6998 4.20003 34.0917 4.19482C34.4875 4.18961 34.817 3.84847 34.8131 3.44614C34.8092 2.95918 34.5813 2.72611 34.11 2.73002Z" fill="#FE3D80"/>
<path d="M0.358235 14.9262C0.354329 10.1946 0.350422 5.46167 0.345214 0.730039C0.345214 0.519108 0.334798 0.308179 0.32959 0.0972479C0.337402 0.0659988 0.346517 0.0334463 0.354329 0.00219727C5.85286 0.00219727 11.3527 0.00219727 16.8512 0.00219727C16.57 0.425362 16.1468 0.710511 15.8044 1.07378C14.1065 2.87972 12.0636 4.22863 9.97904 5.53328C7.73562 6.93688 6.01692 8.83005 4.97268 11.2922C4.90627 11.4485 4.82945 11.5722 4.668 11.649C3.03003 12.4263 1.62643 13.5135 0.440264 14.882C0.422036 14.9028 0.38688 14.9106 0.358235 14.9262ZM4.64196 7.01501C4.62894 6.63741 4.19275 6.22987 3.83209 6.25722C3.4571 6.28586 3.17586 6.65043 3.18497 7.09313C3.19278 7.48895 3.54824 7.82357 3.94406 7.80665C4.33207 7.78842 4.65628 7.42125 4.64196 7.01501ZM6.70049 3.37709C6.67966 3.81849 7.00387 4.18827 7.41922 4.19608C7.79551 4.20259 8.13925 3.87838 8.16008 3.49688C8.18612 3.03075 7.94134 2.75472 7.47911 2.72998C6.98694 2.70394 6.72262 2.92398 6.70049 3.37709ZM3.85553 2.72998C3.40111 2.73649 3.17586 2.98778 3.18497 3.47996C3.19278 3.87448 3.54694 4.2104 3.94016 4.19478C4.32817 4.17915 4.65238 3.81719 4.64196 3.40965C4.63154 3.03075 4.27739 2.72477 3.85553 2.72998Z" fill="#FE3D80"/>
<path d="M37.64 35.0546C37.6439 39.7706 37.6478 44.4866 37.653 49.2026C37.653 49.4304 37.6634 49.657 37.6686 49.8849C37.6608 49.9161 37.6517 49.9486 37.6439 49.9799C32.1453 49.9799 26.6455 49.9799 21.147 49.9799C21.2616 49.7156 21.5128 49.575 21.7042 49.3823C23.449 47.6219 25.337 46.0568 27.4892 44.7939C29.9709 43.3382 31.9201 41.3499 33.0424 38.6443C33.1023 38.4998 33.1883 38.4034 33.3302 38.3357C34.9682 37.5571 36.3705 36.4699 37.5566 35.1014C37.5775 35.0793 37.6126 35.0702 37.64 35.0546ZM34.8132 42.9241C34.8184 42.5192 34.4864 42.1767 34.088 42.1728C33.6948 42.1702 33.3628 42.5153 33.3562 42.9345C33.3497 43.3212 33.7442 43.7249 34.1257 43.7223C34.5046 43.721 34.808 43.3681 34.8132 42.9241ZM30.6232 47.2495C31.0633 47.2443 31.3055 46.993 31.2977 46.5477C31.2912 46.1245 30.9696 45.7873 30.5712 45.7847C30.1753 45.7821 29.8264 46.1402 29.8368 46.5386C29.8511 47.0321 30.0972 47.256 30.6232 47.2495ZM34.1062 47.2495C34.5789 47.2547 34.8067 47.0243 34.8132 46.536C34.8184 46.1324 34.4916 45.7912 34.0945 45.7847C33.7039 45.7782 33.3732 46.1128 33.3562 46.5334C33.3419 46.9084 33.6961 47.2456 34.1062 47.2495Z" fill="#FE3D80"/>
<path d="M0.354489 0.000915527C0.346677 0.0321646 0.337562 0.0647151 0.32975 0.0959642C0.305011 0.0647151 0.281575 0.0321646 0.256836 0.000915527C0.289387 0.000915527 0.321938 0.000915527 0.354489 0.000915527Z" fill="#FEF4ED"/>
<path d="M37.6683 0.0959642C37.6605 0.0647151 37.6514 0.0321646 37.6436 0.000915527C37.6761 0.000915527 37.7087 0.000915527 37.7412 0.000915527C37.7165 0.0321646 37.693 0.0647151 37.6683 0.0959642Z" fill="#FEF4ED"/>
<path d="M0.32975 49.8835C0.337562 49.9148 0.346677 49.9473 0.354489 49.9786C0.321938 49.9786 0.289387 49.9786 0.256836 49.9786C0.281575 49.9473 0.306313 49.9161 0.32975 49.8835Z" fill="#FEF4ED"/>
<path d="M37.6436 49.9799C37.6514 49.9486 37.6605 49.9161 37.6683 49.8848C37.693 49.9161 37.7165 49.9486 37.7412 49.9799C37.7087 49.9799 37.6761 49.9799 37.6436 49.9799Z" fill="#FEF4ED"/>
<path d="M17.5411 40.9828C16.1466 39.9112 14.5634 39.126 13.1584 38.0688C11.8421 37.0779 11.178 35.7355 10.9931 34.1288C10.945 33.7095 10.9124 33.2877 10.902 32.8658C10.8968 32.6236 10.8369 32.513 10.5713 32.5221C6.97504 32.6393 4.5962 29.9453 4.05846 26.6225C3.69649 24.383 3.96211 22.2359 5.19384 20.2933C6.3761 18.4274 8.09349 17.4457 10.3265 17.4587C10.7432 17.4613 10.9111 17.3949 10.9098 16.9158C10.9046 14.4705 11.8746 12.5552 14.0269 11.2792C15.2274 10.567 16.4201 9.83396 17.5398 8.99414C17.92 9.42642 18.42 9.69855 18.8966 10.0019C19.989 10.6972 21.1322 11.3157 22.1256 12.1581C23.5787 13.3911 23.9993 15.0617 24.0579 16.8585C24.0735 17.3441 24.1763 17.4926 24.6802 17.4835C26.3338 17.4509 27.7491 18.0499 28.9106 19.2334C30.5095 20.8636 31.029 22.9065 31.0615 25.0952C31.0785 26.2267 30.8584 27.3491 30.4275 28.4115C29.7556 30.0703 28.6762 31.3476 26.9992 32.069C26.2088 32.4088 25.3859 32.552 24.5331 32.4986C24.1646 32.4752 24.0175 32.6067 24.0709 32.9687C24.1308 33.3632 24.0097 33.7421 23.9641 34.1262C23.8183 35.3749 23.4133 36.5154 22.5071 37.4399C21.679 38.2849 20.6634 38.8604 19.6778 39.4828C18.9447 39.9515 18.1609 40.35 17.5411 40.9828ZM18.976 23.732C19.0567 23.732 19.1387 23.732 19.2195 23.732C21.4798 23.732 23.7415 23.7346 26.0018 23.7294C26.5851 23.7281 26.8442 23.4703 26.8169 22.9468C26.7934 22.4963 26.4757 22.2581 25.8781 22.2581C21.291 22.2568 16.7039 22.2568 12.1168 22.2581C11.497 22.2581 11.1806 22.5133 11.1793 22.9976C11.178 23.5237 11.4319 23.7307 12.0947 23.732C14.3889 23.7333 16.6818 23.732 18.976 23.732ZM19.045 26.2488C16.7026 26.2488 14.3602 26.2462 12.0179 26.2501C11.3916 26.2514 11.0569 26.6082 11.195 27.155C11.3174 27.6355 11.7028 27.7253 12.1455 27.7253C16.7156 27.7214 21.2871 27.7227 25.8573 27.7214C26.5096 27.7214 26.8273 27.4636 26.8169 26.9545C26.8065 26.4415 26.5526 26.2475 25.8755 26.2475C23.5995 26.2475 21.3223 26.2488 19.045 26.2488ZM18.989 19.8167C19.6387 19.8167 20.2897 19.8219 20.9395 19.8154C21.4681 19.8102 21.8027 19.5355 21.8235 19.1071C21.8444 18.6683 21.446 18.2725 20.9329 18.2673C19.6322 18.2569 18.3328 18.2556 17.032 18.2686C16.5516 18.2738 16.1623 18.6683 16.1714 19.0876C16.1792 19.5186 16.5151 19.8076 17.0385 19.8141C17.6896 19.8219 18.3393 19.8167 18.989 19.8167ZM19.0228 30.1641C18.3562 30.1641 17.6896 30.1576 17.0242 30.1667C16.5099 30.1732 16.1714 30.4779 16.1727 30.9075C16.174 31.3125 16.5464 31.7044 16.9995 31.7096C18.3315 31.7252 19.6648 31.7252 20.9967 31.7096C21.4512 31.7044 21.8222 31.3112 21.8235 30.9075C21.8248 30.4779 21.4863 30.1732 20.972 30.1667C20.3236 30.1576 19.6739 30.1641 19.0228 30.1641Z" fill="#FEC238"/>
<path d="M17.541 40.9827C18.1608 40.35 18.9446 39.9515 19.6816 39.4854C20.6672 38.863 21.6828 38.2875 22.5109 37.4425C23.4171 36.5167 23.8234 35.3774 23.9679 34.1288C24.0122 33.746 24.1333 33.3658 24.0747 32.9713C24.02 32.6093 24.1684 32.4778 24.5369 32.5012C25.3897 32.5546 26.2126 32.4127 27.003 32.0716C28.6787 31.3489 29.7581 30.0716 30.4312 28.4141C30.8622 27.3516 31.0823 26.2293 31.0653 25.0978C31.0328 22.9091 30.5133 20.8662 28.9144 19.236C27.7529 18.0525 26.3376 17.4535 24.684 17.4861C24.1814 17.4965 24.0773 17.3467 24.0617 16.8611C24.0031 15.0643 23.5838 13.3924 22.1294 12.1607C21.136 11.3183 19.9928 10.6985 18.9003 10.0045C18.4238 9.70114 17.9251 9.42902 17.5436 8.99674C17.9499 8.64779 18.36 8.30274 18.7597 7.94729C18.9147 7.80927 19.0436 7.75849 19.2167 7.92385C20.748 9.38214 22.6021 10.3847 24.3546 11.5279C26.2751 12.7805 27.0798 14.5968 27.0902 16.8168C27.0928 17.2647 27.1748 17.4066 27.6618 17.4236C31.4586 17.5538 33.3478 20.2685 33.9194 23.12C34.3478 25.258 34.1069 27.3256 33.0705 29.2604C31.9104 31.4296 30.0602 32.5182 27.6162 32.5663C27.1605 32.5754 27.0915 32.7122 27.0941 33.1171C27.1045 35.4881 26.1671 37.3526 24.1163 38.6247C22.4198 39.6781 20.6815 40.6768 19.2154 42.0595C19.041 42.2236 18.9134 42.1728 18.7584 42.0348C18.3574 41.6767 17.9473 41.3317 17.541 40.9827Z" fill="#F6B724"/>
<path d="M3.18512 42.9267C3.17991 42.5205 3.50933 42.178 3.90906 42.1741C4.30358 42.1702 4.63429 42.5126 4.64211 42.9345C4.64992 43.3212 4.2567 43.7261 3.8752 43.7235C3.49501 43.7222 3.19033 43.3694 3.18512 42.9267Z" fill="#E01E62"/>
<path d="M7.411 47.2495C6.95398 47.2547 6.7131 47.0307 6.70008 46.5867C6.68706 46.1454 7.01518 45.7834 7.43053 45.7834C7.80682 45.7834 8.14535 46.1115 8.15967 46.4904C8.1779 46.9331 7.86932 47.2456 7.411 47.2495Z" fill="#E01E61"/>
<path d="M3.88296 47.2495C3.41422 47.2521 3.18767 47.0177 3.18506 46.5269C3.18376 46.1258 3.51708 45.7847 3.9116 45.7834C4.30352 45.7821 4.63163 46.1232 4.64075 46.5412C4.64986 46.9188 4.29701 47.2482 3.88296 47.2495Z" fill="#E01E61"/>
<path d="M34.8129 7.06579C34.8142 7.46812 34.4744 7.81056 34.0773 7.80665C33.6841 7.80405 33.356 7.45119 33.356 7.03454C33.356 6.64263 33.7518 6.2468 34.1346 6.25722C34.5161 6.26633 34.8116 6.62049 34.8129 7.06579Z" fill="#E01E62"/>
<path d="M30.5864 2.73001C31.0448 2.7248 31.2869 2.95005 31.2987 3.39535C31.3104 3.83805 30.977 4.20002 30.5617 4.19611C30.1854 4.1922 29.8495 3.85888 29.8391 3.47868C29.8234 2.98781 30.076 2.73522 30.5864 2.73001Z" fill="#E01E61"/>
<path d="M34.1099 2.72997C34.5812 2.72606 34.8091 2.95783 34.813 3.4474C34.8169 3.84973 34.4875 4.19086 34.0916 4.19607C33.6997 4.20128 33.3703 3.86405 33.3573 3.44349C33.3443 3.0672 33.6971 2.73387 34.1099 2.72997Z" fill="#E01E61"/>
<path d="M4.64177 7.01502C4.6561 7.42125 4.33189 7.78973 3.94388 7.80666C3.54936 7.82358 3.1939 7.49026 3.18479 7.09314C3.17567 6.65044 3.45691 6.28587 3.8319 6.25723C4.19257 6.22858 4.62875 6.63612 4.64177 7.01502Z" fill="#E01E62"/>
<path d="M6.70077 3.37709C6.72291 2.92397 6.98722 2.70393 7.4794 2.73127C7.94162 2.75601 8.1851 3.03074 8.16036 3.49818C8.13953 3.87968 7.79579 4.20388 7.4195 4.19737C7.00415 4.18826 6.67864 3.81848 6.70077 3.37709Z" fill="#E01E62"/>
<path d="M3.85547 2.72998C4.27733 2.72478 4.63279 3.03076 4.6419 3.40965C4.65232 3.81719 4.32811 4.18046 3.9401 4.19478C3.54688 4.21041 3.19273 3.87448 3.18492 3.47996C3.1745 2.98909 3.39975 2.7365 3.85547 2.72998Z" fill="#E01E61"/>
<path d="M34.813 42.9241C34.8078 43.3668 34.5044 43.7196 34.1255 43.7235C33.744 43.7261 33.3495 43.3225 33.356 42.9358C33.3625 42.5152 33.6933 42.1715 34.0878 42.1741C34.4862 42.1767 34.8182 42.5191 34.813 42.9241Z" fill="#E01E62"/>
<path d="M30.6228 47.2495C30.0967 47.256 29.8493 47.0321 29.8376 46.5386C29.8272 46.1389 30.1762 45.7808 30.572 45.7847C30.9704 45.7873 31.292 46.1258 31.2985 46.5477C31.305 46.993 31.0629 47.2443 30.6228 47.2495Z" fill="#E01E62"/>
<path d="M34.1059 47.2495C33.6944 47.2456 33.3416 46.9083 33.3559 46.5334C33.3728 46.1128 33.7035 45.7769 34.0941 45.7847C34.4913 45.7925 34.8168 46.1336 34.8129 46.536C34.8077 47.0242 34.5785 47.2547 34.1059 47.2495Z" fill="#E01E61"/>
<path d="M18.976 23.732C16.6831 23.732 14.3889 23.7333 12.096 23.732C11.4333 23.732 11.1794 23.5236 11.1807 22.9976C11.182 22.5133 11.4984 22.2581 12.1181 22.2581C16.7052 22.2568 21.2923 22.2568 25.8794 22.2581C26.4771 22.2581 26.7948 22.4963 26.8182 22.9468C26.8456 23.4703 26.5865 23.7281 26.0031 23.7294C23.7428 23.7333 21.4811 23.7307 19.2208 23.732C19.1375 23.732 19.0567 23.732 18.976 23.732Z" fill="#FEED91"/>
<path d="M19.0446 26.2488C21.3219 26.2488 23.5992 26.2475 25.8765 26.2488C26.5535 26.2488 26.8074 26.4428 26.8178 26.9558C26.8283 27.4649 26.5106 27.7227 25.8582 27.7227C21.2881 27.724 16.7166 27.7214 12.1464 27.7266C11.7037 27.7266 11.317 27.6368 11.1959 27.1563C11.0579 26.6095 11.3912 26.2514 12.0188 26.2514C14.3599 26.2462 16.7023 26.2488 19.0446 26.2488Z" fill="#FEED91"/>
<path d="M18.9891 19.8168C18.3394 19.8168 17.6884 19.8233 17.0387 19.8155C16.5165 19.809 16.1806 19.5199 16.1715 19.0889C16.1637 18.6684 16.5517 18.2738 17.0322 18.2699C18.3316 18.2569 19.6323 18.2582 20.9331 18.2686C21.4448 18.2725 21.8445 18.6697 21.8237 19.1085C21.8028 19.5368 21.4682 19.8116 20.9396 19.8168C20.2899 19.8207 19.6401 19.8168 18.9891 19.8168Z" fill="#FEEC8F"/>
<path d="M19.0227 30.1641C19.6724 30.1641 20.3234 30.1575 20.9732 30.1667C21.4875 30.1732 21.826 30.4779 21.8247 30.9075C21.8234 31.3125 21.4523 31.7044 20.9979 31.7096C19.6659 31.7252 18.3326 31.7252 17.0006 31.7096C16.5462 31.7044 16.1751 31.3112 16.1738 30.9075C16.1725 30.4779 16.5111 30.1732 17.0254 30.1667C17.6907 30.1575 18.3561 30.1641 19.0227 30.1641Z" fill="#FEEC8F"/>
</svg>
