<svg width="80" height="80" viewBox="0 0 80 80" fill="none" xmlns="http://www.w3.org/2000/svg">
<path d="M42.9683 80C40.8847 80 38.8011 80 36.719 80C36.0531 79.6702 35.3169 79.753 34.6135 79.6499C25.8945 78.3884 18.329 74.7417 12.0375 68.569C5.66784 62.3197 1.8007 54.7589 0.434545 45.9258C0.298555 45.0442 0.357952 44.1266 0 43.281C0 41.0942 0 38.9058 0 36.719C0.189136 36.6409 0.146933 36.4674 0.162564 36.3204C0.30637 34.9496 0.501759 33.5866 0.759672 32.2313C3.8812 15.8406 17.5053 2.84173 34.0711 0.436107C35.0059 0.300116 35.9703 0.332943 36.8753 0C38.959 0 41.0426 0 43.1247 0C43.2044 0.189136 43.381 0.142242 43.5264 0.154746C45.8632 0.36264 48.161 0.767485 50.4275 1.38022C65.7851 5.52559 77.2708 18.4478 79.5733 34.1508C79.7061 35.059 79.6592 36 80.0016 36.8753C80.0016 38.959 80.0016 41.0426 80.0016 43.1247C79.7077 43.8531 79.7561 44.6346 79.6483 45.3927C78.526 53.2724 75.4123 60.2626 70.1587 66.2431C63.6827 73.6147 55.578 78.0727 45.8585 79.5717C44.8957 79.7186 43.9046 79.6827 42.9683 80ZM52.9535 18.7589C52.6456 17.8163 52.619 16.8206 52.4002 15.8624C52.3173 15.4998 52.2376 15.0856 51.7687 15.1137C51.3591 15.1387 51.2888 15.5201 51.2263 15.8671C51.0496 16.8347 50.8589 17.7991 50.6745 18.7651C43.3075 18.7605 35.939 18.8011 28.5721 18.7198C26.5604 18.6979 25.0801 19.3748 23.8687 20.9394C21.9898 23.3685 20.0141 25.7225 18.1258 28.1454C16.4924 30.2415 14.6573 32.1673 13.0113 34.2478C11.4342 36.2423 11.4607 37.6913 13.0848 39.6467C14.0977 40.866 15.1762 42.0383 16.297 43.1606C22.8808 49.7569 29.4865 56.3329 36.0828 62.9168C36.7659 63.5983 37.474 64.247 38.2868 64.7753C39.8093 65.7663 41.3458 65.7882 42.9277 64.9097C44.3548 64.1172 45.5662 63.0574 46.7104 61.9148C53.0285 55.6045 59.3466 49.2943 65.6506 42.9699C66.7167 41.9007 67.6842 40.7393 68.5424 39.4904C69.2333 38.4869 69.6116 37.3834 69.3474 36.1704C69.1114 35.0825 68.4674 34.1774 67.7749 33.3255C66.6245 31.9125 65.4427 30.526 64.2954 29.1114C61.9351 26.2009 59.5889 23.2794 57.2364 20.3626C57.1082 20.2329 56.9816 20.1047 56.8535 19.975C55.8109 18.7464 54.3947 18.7104 52.9535 18.7589ZM56.1501 68.9097C56.4783 68.8925 56.608 68.6252 56.7128 67.7483C56.866 66.4713 56.9988 66.34 58.2415 66.2665C58.6917 66.2399 59.2622 66.2196 59.32 65.7179C59.3888 65.1254 58.7542 65.1739 58.3525 65.0535C58.3275 65.0457 58.3009 65.0426 58.2759 65.0379C56.9738 64.8159 56.9722 64.8159 56.7487 63.5061C56.6753 63.0762 56.6925 62.5057 56.1157 62.5025C55.5201 62.4978 55.5858 63.1012 55.4826 63.5092C55.4451 63.6592 55.4451 63.8187 55.4216 63.9719C55.3279 64.5893 55.0043 64.9613 54.3493 64.9957C54.143 65.0066 53.9383 65.0504 53.7335 65.0895C53.374 65.1598 52.9316 65.2177 52.9191 65.6663C52.905 66.1743 53.3708 66.2118 53.7601 66.2868C55.2106 66.5666 55.2059 66.5713 55.5107 68.0469C55.5529 68.247 55.6202 68.4486 55.7139 68.6299C55.7984 68.7925 55.939 68.9222 56.1501 68.9097ZM33.7397 8.12349C32.3986 8.12817 31.2622 9.25518 31.2481 10.5963C31.2341 11.9734 32.3845 13.1317 33.7601 13.127C35.1059 13.1223 36.236 12 36.2517 10.6542C36.2657 9.2755 35.1184 8.1188 33.7397 8.12349ZM67.5311 49.9992C66.1868 49.9836 65.0332 51.0918 64.9988 52.4314C64.9644 53.8085 66.0961 54.9871 67.4701 55.0027C68.8175 55.0184 69.9664 53.9148 70.0008 52.5705C70.0383 51.1919 68.9066 50.0148 67.5311 49.9992ZM19.3794 57.499C18.0367 57.4959 16.8941 58.6166 16.8738 59.9578C16.8519 61.3349 17.9961 62.501 19.3716 62.5025C20.7175 62.5041 21.8554 61.3896 21.8773 60.0438C21.8992 58.6651 20.7565 57.5021 19.3794 57.499Z" fill="#FFF0ED"/>
<path d="M57.2363 20.3642C59.5888 23.281 61.935 26.2024 64.2953 29.113C65.4426 30.5276 66.6243 31.9141 67.7748 33.3271C68.4672 34.179 69.1112 35.0825 69.3473 36.172C69.6114 37.3849 69.2332 38.4869 68.5423 39.492C67.6841 40.7394 66.7165 41.9008 65.6505 42.9715C59.3465 49.2958 53.0284 55.6061 46.7103 61.9164C45.5661 63.059 44.3563 64.1188 42.9276 64.9113C41.3441 65.7898 39.8076 65.7679 38.2867 64.7769C37.4739 64.2486 36.7658 63.5999 36.0827 62.9184C29.4848 56.3345 22.8807 49.7585 16.2969 43.1622C15.1761 42.0399 14.0976 40.8675 13.0847 39.6483C11.4606 37.6944 11.434 36.2454 13.0112 34.2493C14.6572 32.1673 16.4922 30.2431 18.1257 28.147C20.0139 25.7241 21.9881 23.3701 23.8686 20.941C25.08 19.3763 26.5602 18.6995 28.572 18.7214C35.9389 18.8027 43.3074 18.762 50.6743 18.7667C50.5477 19.3373 50.0819 19.4279 49.6161 19.5108C48.6486 19.6827 47.6794 19.8468 46.7119 20.0141C45.3348 20.011 43.9561 20.0125 42.579 20.0016C42.1241 19.9985 41.9991 20.1282 42.2867 20.5346C42.7822 21.2349 43.2636 21.943 43.7404 22.6558C46.9698 27.467 50.196 32.2798 53.4301 37.0895C53.5739 37.3037 53.6568 37.61 54.0241 37.6741C54.1992 32.1813 54.3727 26.737 54.5446 21.2927C54.8885 21.2458 55.2324 21.1989 55.5763 21.152C55.781 21.3568 55.7857 21.6178 55.7779 21.8804C55.7169 23.8031 55.6669 25.7257 55.5935 27.6468C55.4559 31.2028 55.3137 34.7589 55.148 38.3134C55.1136 39.0418 55.3887 39.1294 56.028 38.9777C59.7185 38.104 63.4168 37.2552 67.1151 36.4127C68.0702 36.1954 68.1405 36.0954 67.62 35.2638C66.8994 34.1134 65.9272 33.1614 65.0753 32.1141C62.1085 28.4643 59.1902 24.7753 56.2531 21.102C56.6314 20.9223 57.291 21.1208 57.2363 20.3642ZM40.7799 63.4139C40.9143 63.2497 40.9721 63.1966 41.0096 63.1309C45.0706 55.8922 49.1316 48.6534 53.1894 41.4131C53.6255 40.6331 53.6177 40.6268 52.6736 40.6268C44.8893 40.6268 37.105 40.6237 29.3191 40.6346C28.9502 40.6346 28.4219 40.4189 28.2406 40.7894C28.0796 41.1161 28.4844 41.4881 28.6704 41.821C31.5012 46.8855 34.3398 51.9469 37.1769 57.0082C38.3602 59.1153 39.545 61.2192 40.7799 63.4139ZM40.8924 39.3748C44.7439 39.3748 48.5938 39.3763 52.4453 39.3701C52.6908 39.3701 53.0331 39.4998 53.1566 39.2404C53.2738 38.9934 52.9768 38.7824 52.8393 38.5745C52.3094 37.771 51.756 36.9832 51.2214 36.1845C47.9045 31.2372 44.5829 26.2931 41.2847 21.3318C40.8971 20.7503 40.7033 20.78 40.3375 21.3396C36.5501 27.1294 32.7455 32.9082 28.9487 38.6933C28.8393 38.859 28.6095 39.0325 28.7048 39.2341C28.8252 39.4889 29.1206 39.3701 29.3379 39.3701C33.191 39.3763 37.0425 39.3748 40.8924 39.3748ZM42.1976 63.728C43.5372 63.2591 44.5344 62.3869 45.4661 61.4568C48.2453 58.6792 50.9979 55.875 53.7474 53.0676C57.8647 48.866 62.1695 44.8519 66.1304 40.4987C66.9041 39.6483 67.6654 38.7667 68.1062 37.5928C67.9311 37.5928 67.8545 37.5788 67.7857 37.5944C63.7388 38.5495 59.6919 39.5092 55.6419 40.458C55.2996 40.5377 55.1073 40.7378 54.9479 41.0239C54.0569 42.612 53.1566 44.1954 52.2656 45.782C49.7162 50.3166 47.1698 54.8543 44.6235 59.3904C43.8139 60.8347 43.0057 62.2822 42.1976 63.728ZM13.9569 37.3709C13.6552 37.338 13.5645 37.435 13.6912 37.8601C13.8568 38.4197 14.2289 38.8668 14.5681 39.3248C16.2937 41.6585 18.4618 43.5858 20.4735 45.6475C25.6724 50.9746 30.9713 56.2048 36.2437 61.46C37.0346 62.2478 37.8818 62.984 38.8572 63.5483C39.0245 63.6452 39.2308 63.839 39.4168 63.6452C39.57 63.4858 39.3731 63.3138 39.3058 63.1544C39.2558 63.0356 39.1792 62.9277 39.1167 62.8136C36.8361 58.7558 34.554 54.698 32.2765 50.6386C30.4946 47.4639 28.7126 44.2876 26.9416 41.1067C26.6697 40.619 26.3133 40.3408 25.7537 40.2173C24.1562 39.864 22.5696 39.4561 20.9784 39.0715C18.679 38.5135 16.3813 37.9586 13.9569 37.3709ZM27.7091 37.9617C27.7685 37.9805 27.8279 37.9992 27.8873 38.0164C28.4782 37.1051 29.0643 36.1907 29.6615 35.2826C32.8658 30.4182 36.0733 25.5569 39.2746 20.6909C39.3949 20.5065 39.67 20.3173 39.5028 20.0907C39.4199 19.9781 39.1214 20.0032 38.9198 20.0032C35.3293 19.9985 31.7388 20.0266 28.1499 19.9797C27.3199 19.9688 27.1495 20.247 27.1792 21.0067C27.3137 24.3283 27.4028 27.6515 27.4981 30.9746C27.5622 33.2083 27.606 35.442 27.6622 37.6757C27.6638 37.7726 27.6935 37.8664 27.7091 37.9617ZM25.8271 20.8253C24.8611 21.671 24.1999 22.6745 23.4387 23.5889C20.9284 26.6042 18.5931 29.7616 16.003 32.7112C15.2683 33.5475 14.5102 34.376 13.9506 35.356C13.6974 35.7984 13.7115 36.0454 14.2883 36.161C15.1527 36.3361 16.003 36.5815 16.8611 36.7941C19.8373 37.5287 22.815 38.2587 25.7896 38.9996C26.2554 39.1153 26.4946 39.1231 26.4555 38.4822C26.3273 36.408 26.3899 34.3275 26.2929 32.247C26.1366 28.8722 26.1413 25.4897 26.0772 22.1102C26.0694 21.7007 26.1038 21.2818 25.8271 20.8253Z" fill="#A91201"/>
<path d="M55.5765 21.1489C55.2326 21.1958 54.8887 21.2427 54.5448 21.2896C53.1208 21.4099 53.0302 21.499 52.802 22.8605C52.6738 23.6296 52.5206 24.3939 52.3815 25.1598C52.3236 25.4818 52.2267 25.8179 51.8531 25.8351C51.4358 25.8539 51.3061 25.5022 51.2404 25.1552C51.0747 24.2611 50.9106 23.367 50.759 22.4697C50.6496 21.8179 50.2963 21.4646 49.6242 21.3974C48.7973 21.3146 47.9719 21.2052 47.1482 21.0833C46.3791 20.9691 46.2478 20.6221 46.709 20.011C47.6765 19.8437 48.6456 19.6796 49.6132 19.5076C50.079 19.4248 50.5448 19.3341 50.6714 18.7636C50.8559 17.7976 51.045 16.8332 51.2232 15.8656C51.2873 15.5201 51.3576 15.1387 51.7656 15.1122C52.2345 15.0825 52.3143 15.4967 52.3971 15.8609C52.6144 16.8206 52.6425 17.8163 52.9505 18.7573C53.0521 19.3404 53.5304 19.4185 53.9805 19.4998C54.9356 19.6718 55.8954 19.8187 56.852 19.975C56.9802 20.1047 57.1068 20.2329 57.2349 20.3627C57.2897 21.1192 56.63 20.9207 56.2517 21.0973C56.0282 21.1161 55.8016 21.1333 55.5765 21.1489Z" fill="#FDFAF9"/>
<path d="M56.15 68.9097C55.9375 68.9223 55.7983 68.7941 55.7155 68.6315C55.6217 68.4502 55.5529 68.2486 55.5123 68.0485C55.2075 66.5713 55.2106 66.5666 53.7616 66.2884C53.3724 66.2134 52.9082 66.1759 52.9207 65.6679C52.9332 65.2192 53.3755 65.1614 53.735 65.0911C53.9382 65.0504 54.1446 65.0082 54.3509 64.9973C55.0074 64.9629 55.331 64.5909 55.4232 63.9734C55.4466 63.8187 55.4466 63.6608 55.4842 63.5108C55.5873 63.1028 55.5217 62.4994 56.1172 62.5041C56.694 62.5088 56.6768 63.0778 56.7503 63.5076C56.9722 64.8175 56.9738 64.8175 58.2774 65.0395C58.3024 65.0442 58.329 65.0473 58.354 65.0551C58.7558 65.1755 59.3904 65.127 59.3216 65.7194C59.2622 66.2228 58.6917 66.2415 58.243 66.2681C57.0004 66.3431 56.8675 66.4744 56.7143 67.7499C56.608 68.6253 56.4783 68.8926 56.15 68.9097Z" fill="#FEFDF8"/>
<path d="M33.7398 8.12349C35.1184 8.1188 36.2658 9.2755 36.2517 10.6542C36.2361 12 35.1075 13.1223 33.7601 13.127C32.3846 13.1333 31.2341 11.9734 31.2482 10.5963C31.2622 9.25518 32.3986 8.12818 33.7398 8.12349ZM33.7679 11.9093C34.4916 11.9015 35.0278 11.356 35.0325 10.6213C35.0372 9.87886 34.5166 9.3474 33.7757 9.33959C33.0082 9.33177 32.4486 9.89449 32.4643 10.6589C32.4815 11.3826 33.0379 11.9172 33.7679 11.9093Z" fill="#FEFCF4"/>
<path d="M67.531 49.9992C68.9065 50.0148 70.0382 51.1918 70.0022 52.5705C69.9663 53.9148 68.819 55.0183 67.4716 55.0027C66.0976 54.9871 64.9659 53.8085 65.0003 52.4314C65.0331 51.0918 66.1867 49.9836 67.531 49.9992ZM68.783 52.4533C68.7674 51.7139 68.2297 51.2028 67.4825 51.2169C66.7494 51.2294 66.2164 51.7718 66.2148 52.5017C66.2148 53.2583 66.7994 53.8163 67.5607 53.785C68.2812 53.7553 68.7986 53.1895 68.783 52.4533Z" fill="#FEFCF4"/>
<path d="M19.3796 57.499C20.7583 57.5022 21.8993 58.6651 21.8759 60.0438C21.854 61.388 20.7176 62.5041 19.3702 62.5025C17.9947 62.501 16.8505 61.3349 16.8724 59.9578C16.8943 58.6167 18.0369 57.4959 19.3796 57.499ZM20.6582 59.9484C20.641 59.2091 20.1018 58.7011 19.353 58.7151C18.6215 58.7308 18.0885 59.2747 18.09 60.0047C18.0916 60.7612 18.6793 61.3161 19.4406 61.2833C20.1596 61.2521 20.6754 60.6846 20.6582 59.9484Z" fill="#FEFCF4"/>
<path d="M56.8551 19.9766C55.8969 19.8202 54.9388 19.6733 53.9837 19.5014C53.5335 19.4201 53.0552 19.3419 52.9536 18.7589C54.3948 18.7104 55.811 18.7464 56.8551 19.9766Z" fill="#A91201"/>
<path d="M40.7798 63.4139C39.545 61.2177 38.3601 59.1137 37.1784 57.0082C34.3398 51.9469 31.5028 46.8855 28.672 41.821C28.486 41.4881 28.0811 41.1161 28.2421 40.7894C28.4234 40.4189 28.9502 40.6346 29.3207 40.6346C37.105 40.6237 44.8892 40.6268 52.6751 40.6268C53.6177 40.6268 53.627 40.6346 53.1909 41.4131C49.1331 48.6534 45.0721 55.8922 41.0112 63.1309C40.9721 63.1966 40.9127 63.2497 40.7798 63.4139ZM41.2941 59.678C41.7552 59.6421 41.9209 59.2388 42.1132 58.8746C43.9983 55.3123 45.8834 51.7499 47.7654 48.186C48.3125 47.1513 48.8533 46.1133 49.3988 45.0786C49.602 44.694 49.5473 44.3517 49.1612 44.1454C48.772 43.9375 48.461 44.0969 48.2546 44.4736C48.1921 44.5877 48.1327 44.7034 48.0717 44.8175C46.6665 47.4858 45.2597 50.1556 43.8545 52.8238C42.8494 54.7339 41.8396 56.6409 40.8392 58.5541C40.5344 59.1372 40.7345 59.6577 41.2941 59.678Z" fill="#E93B36"/>
<path d="M40.8927 39.3747C37.0412 39.3747 33.1913 39.3763 29.3398 39.3701C29.1225 39.3701 28.8271 39.4873 28.7067 39.2341C28.6114 39.0324 28.8412 38.8605 28.9506 38.6932C32.7458 32.9082 36.552 27.1309 40.3394 21.3396C40.7052 20.78 40.899 20.7503 41.2866 21.3318C44.5848 26.2915 47.9064 31.2356 51.2233 36.1844C51.7595 36.9832 52.3113 37.771 52.8412 38.5744C52.9787 38.7823 53.2741 38.9934 53.1585 39.2403C53.035 39.4998 52.6927 39.3701 52.4472 39.3701C48.5942 39.3763 44.7442 39.3747 40.8927 39.3747ZM44.3285 29.4005C43.7907 29.4318 43.5625 29.9695 43.9127 30.5213C45.3038 32.7128 46.7184 34.8886 48.1221 37.0723C48.3597 37.4412 48.6723 37.6725 49.0944 37.4255C49.5383 37.1661 49.4367 36.7628 49.2116 36.408C47.7986 34.1993 46.3761 31.9984 44.9553 29.7944C44.8083 29.5694 44.627 29.3896 44.3285 29.4005ZM41.1288 24.3673C40.6254 24.3939 40.3675 24.8394 40.6489 25.3224C41.1866 26.2431 41.7728 27.1356 42.3542 28.0313C42.5606 28.3486 42.8482 28.5049 43.214 28.2579C43.5422 28.0359 43.6485 27.7311 43.4312 27.3826C42.8529 26.4556 42.262 25.535 41.6696 24.6174C41.5492 24.4283 41.357 24.3486 41.1288 24.3673Z" fill="#E93B36"/>
<path d="M42.1978 63.728C43.0074 62.2822 43.814 60.8347 44.6253 59.3888C47.1716 54.8527 49.7194 50.3165 52.2673 45.7804C53.1599 44.1923 54.0602 42.6104 54.9496 41.0223C55.109 40.7362 55.3013 40.5377 55.6436 40.4564C59.6921 39.5092 63.739 38.5479 67.7874 37.5928C67.8562 37.5772 67.9328 37.5913 68.1079 37.5913C67.6671 38.7636 66.9058 39.6452 66.1321 40.4971C62.1712 44.8503 57.8648 48.8644 53.7491 53.0661C50.9996 55.8734 48.247 58.6776 45.4678 61.4553C44.5346 62.3869 43.5373 63.2607 42.1978 63.728Z" fill="#E8291B"/>
<path d="M13.957 37.3709C16.3813 37.9586 18.6807 38.5135 20.9785 39.0715C22.5697 39.4576 24.1547 39.8656 25.7538 40.2173C26.3133 40.3408 26.6713 40.6174 26.9417 41.1067C28.7112 44.2892 30.4947 47.4639 32.2766 50.6385C34.5556 54.6979 36.8378 58.7558 39.1168 62.8136C39.1809 62.9277 39.2575 63.0356 39.3059 63.1544C39.3716 63.3123 39.5701 63.4842 39.4169 63.6452C39.2293 63.839 39.0246 63.6452 38.8573 63.5483C37.8819 62.9856 37.0347 62.2478 36.2438 61.46C30.9714 56.2048 25.6725 50.9746 20.4736 45.6475C18.4618 43.5858 16.2922 41.6585 14.5681 39.3248C14.2289 38.8668 13.8569 38.4197 13.6912 37.8601C13.5646 37.435 13.6553 37.338 13.957 37.3709ZM27.3122 44.4861C27.1559 44.0157 26.7792 43.9531 26.3806 43.8906C24.9581 43.664 24.8894 43.5967 24.7127 42.4869C24.6346 41.9899 24.6877 41.2661 24.0062 41.3083C23.4075 41.3443 23.4779 42.0399 23.4388 42.5213C23.3559 43.5405 23.1668 43.7452 22.2133 43.8984C21.7241 43.9766 20.9941 43.8765 20.9534 44.533C20.9097 45.2568 21.6662 45.1552 22.1383 45.2099C22.9964 45.3083 23.4763 45.6882 23.4654 46.5979C23.4622 46.8261 23.5373 47.0606 23.6045 47.2826C23.6826 47.5405 23.8296 47.7906 24.125 47.789C24.4626 47.7874 24.5971 47.5108 24.6752 47.2216C24.708 47.0965 24.7096 46.9637 24.7299 46.8355C24.7518 46.7073 24.7846 46.5807 24.8049 46.4525C24.9847 45.3224 25.1004 45.2067 26.2321 45.1583C26.7385 45.138 27.1481 45.0098 27.3122 44.4861Z" fill="#E82A1C"/>
<path d="M55.5762 21.1489C55.8013 21.1317 56.0279 21.1161 56.253 21.0989C59.1901 24.7722 62.11 28.4611 65.0752 32.111C65.9271 33.1583 66.8978 34.1102 67.62 35.2607C68.1405 36.0922 68.0701 36.1907 67.1151 36.4095C63.4167 37.2536 59.72 38.1008 56.0279 38.9746C55.387 39.1262 55.1135 39.0387 55.1479 38.3103C55.312 34.7558 55.4543 31.1997 55.5934 27.6436C55.6684 25.7226 55.7184 23.7984 55.7778 21.8773C55.7872 21.6147 55.7809 21.3537 55.5762 21.1489Z" fill="#E93B35"/>
<path d="M27.7092 37.9617C27.692 37.8664 27.6639 37.7726 27.6607 37.6772C27.6045 35.4436 27.5607 33.2099 27.4966 30.9762C27.4013 27.653 27.3122 24.3298 27.1777 21.0082C27.1465 20.2486 27.3184 19.9703 28.1484 19.9813C31.7373 20.0282 35.3278 20 38.9183 20.0047C39.1199 20.0047 39.4185 19.9797 39.5013 20.0923C39.6686 20.3189 39.3934 20.508 39.2731 20.6925C36.0718 25.5584 32.8643 30.4197 29.66 35.2841C29.0629 36.1907 28.4767 37.1067 27.8858 38.018C27.828 37.9977 27.7686 37.9805 27.7092 37.9617Z" fill="#E9291C"/>
<path d="M25.8273 20.8253C26.104 21.2817 26.0681 21.7007 26.0759 22.1118C26.14 25.4912 26.1337 28.8738 26.2916 32.2485C26.3885 34.329 26.326 36.408 26.4541 38.4838C26.4932 39.1247 26.2556 39.1168 25.7883 39.0012C22.8137 38.2618 19.8359 37.5303 16.8598 36.7956C16.0016 36.5846 15.1513 36.3376 14.2869 36.1626C13.7101 36.0453 13.696 35.7999 13.9493 35.3576C14.5104 34.379 15.267 33.5506 16.0016 32.7128C18.5917 29.7616 20.927 26.6057 23.4373 23.5905C24.2017 22.6729 24.8629 21.671 25.8273 20.8253ZM16.655 35.7733C16.8957 35.7593 17.0864 35.4685 17.2974 35.2044C19.081 32.9676 20.866 30.7308 22.6495 28.4939C23.3139 27.6608 23.9797 26.8261 24.6425 25.9914C24.9301 25.6288 25.2162 25.2192 24.73 24.8441C24.2377 24.4658 23.9282 24.8878 23.6343 25.2255C23.5655 25.3036 23.5077 25.3896 23.442 25.4709C21.8508 27.4623 20.2595 29.4537 18.6699 31.4451C17.843 32.4814 17.0192 33.5209 16.1908 34.5588C15.9672 34.8386 15.8328 35.1419 15.9969 35.4936C16.0923 35.7014 16.2799 35.789 16.655 35.7733Z" fill="#E93B36"/>
<path d="M46.7103 20.0109C46.2476 20.6221 46.3804 20.9675 47.1495 21.0832C47.9717 21.2067 48.797 21.3161 49.6255 21.3974C50.2976 21.4646 50.6509 21.8179 50.7603 22.4697C50.9103 23.3669 51.0745 24.261 51.2417 25.1551C51.3058 25.5021 51.4371 25.8523 51.8545 25.8351C52.228 25.8194 52.325 25.4818 52.3828 25.1598C52.5219 24.3923 52.6751 23.6279 52.8033 22.8605C53.0315 21.499 53.1221 21.4115 54.5461 21.2895C54.3726 26.7338 54.1991 32.1782 54.0256 37.6709C53.6583 37.6068 53.5754 37.3005 53.4316 37.0863C50.1976 32.2782 46.9729 27.4638 43.7419 22.6526C43.2636 21.9414 42.7822 21.2317 42.2882 20.5314C42.0006 20.125 42.1241 19.9953 42.5805 19.9984C43.9561 20.0093 45.3332 20.0078 46.7103 20.0109Z" fill="#E9291C"/>
<path d="M33.7678 11.9093C33.0378 11.9172 32.4813 11.3841 32.4657 10.6589C32.4485 9.89606 33.0081 9.33334 33.7772 9.33959C34.5181 9.34741 35.0386 9.87886 35.0339 10.6213C35.0277 11.3544 34.4915 11.9 33.7678 11.9093Z" fill="#FAD005"/>
<path d="M68.7829 52.4533C68.7986 53.1911 68.2796 53.7554 67.5621 53.7851C66.8009 53.8163 66.2163 53.2583 66.2163 52.5018C66.2163 51.7718 66.7509 51.231 67.484 51.2169C68.2312 51.2028 68.7689 51.714 68.7829 52.4533Z" fill="#FAD005"/>
<path d="M20.658 59.9484C20.6752 60.6862 20.1578 61.2536 19.4404 61.2833C18.6791 61.3161 18.0914 60.7597 18.0898 60.0047C18.0883 59.2747 18.6213 58.7308 19.3528 58.7151C20.1016 58.6995 20.6408 59.2091 20.658 59.9484Z" fill="#FAD005"/>
<path d="M41.2943 59.678C40.7331 59.6577 40.5346 59.1387 40.8409 58.5526C41.8413 56.6409 42.8495 54.7323 43.8562 52.8222C45.2614 50.154 46.6682 47.4842 48.0735 44.8159C48.1344 44.7003 48.1938 44.5846 48.2563 44.472C48.4627 44.0953 48.7737 43.9359 49.1629 44.1438C49.549 44.3501 49.6037 44.6925 49.4005 45.077C48.855 46.1118 48.3142 47.1497 47.7671 48.1844C45.8835 51.7483 44 55.3107 42.1149 58.873C41.9211 59.2388 41.7554 59.6405 41.2943 59.678Z" fill="#F49997"/>
<path d="M44.3298 29.4006C44.6268 29.3912 44.8096 29.5694 44.955 29.796C46.3759 31.9985 47.7983 34.2009 49.2114 36.4095C49.438 36.7628 49.5396 37.1677 49.0941 37.4271C48.6721 37.6725 48.3595 37.4412 48.1219 37.0739C46.7182 34.8918 45.3036 32.7144 43.9124 30.5229C43.5623 29.9695 43.7905 29.4318 44.3298 29.4006Z" fill="#F49997"/>
<path d="M41.1288 24.3674C41.3554 24.3486 41.5477 24.4283 41.6696 24.6159C42.262 25.535 42.8529 26.4541 43.4312 27.381C43.6485 27.7296 43.5422 28.0329 43.214 28.2564C42.8482 28.5049 42.5606 28.347 42.3543 28.0297C41.7728 27.1341 41.1866 26.2431 40.6489 25.3209C40.3675 24.8394 40.627 24.3939 41.1288 24.3674Z" fill="#F49997"/>
<path d="M27.3123 44.4861C27.1482 45.0098 26.7402 45.1379 26.2322 45.1598C25.1005 45.2083 24.9849 45.3239 24.8051 46.4541C24.7848 46.5822 24.7504 46.7089 24.7301 46.837C24.7082 46.9652 24.7082 47.0981 24.6754 47.2231C24.5972 47.5123 24.4628 47.789 24.1252 47.7905C23.8297 47.7905 23.6828 47.542 23.6046 47.2841C23.5374 47.0606 23.4624 46.8277 23.4655 46.5994C23.4765 45.6897 22.9966 45.3099 22.1384 45.2114C21.6648 45.1567 20.9083 45.2583 20.9536 44.5346C20.9942 43.8796 21.7242 43.9781 22.2135 43.8999C23.167 43.7468 23.3561 43.542 23.439 42.5228C23.478 42.0414 23.4077 41.3458 24.0064 41.3099C24.6879 41.2677 24.6347 41.9914 24.7129 42.4885C24.8895 43.5983 24.9583 43.6655 26.3807 43.8921C26.7778 43.9531 27.156 44.0156 27.3123 44.4861Z" fill="#FDFAF9"/>
<path d="M16.6548 35.7733C16.2781 35.789 16.0905 35.7014 15.9952 35.4935C15.831 35.1418 15.9655 34.8386 16.189 34.5588C17.0159 33.5225 17.8396 32.4814 18.6681 31.4451C20.2578 29.4537 21.8506 27.4623 23.4403 25.4709C23.5059 25.3896 23.5638 25.3036 23.6325 25.2255C23.9264 24.8878 24.2343 24.4642 24.7283 24.8441C25.216 25.2192 24.9283 25.6288 24.6407 25.9914C23.978 26.8277 23.3137 27.6608 22.6478 28.4939C20.8643 30.7308 19.0808 32.9676 17.2957 35.2044C17.0878 35.4685 16.8955 35.7593 16.6548 35.7733Z" fill="#F49997"/>
</svg>
