<svg width="59" height="62" viewBox="0 0 59 62" fill="none" xmlns="http://www.w3.org/2000/svg">
<path d="M10.1723 21.5581C10.2665 21.5885 10.3676 21.5899 10.4626 21.5621C10.5576 21.5342 10.6419 21.4784 10.7048 21.402C14.9985 16.1407 15.473 13.947 14.7308 11.4268C14.5384 10.8474 14.2156 10.3199 13.7873 9.88482C13.3591 9.44972 12.8367 9.11863 12.2605 8.91701C9.24426 7.79411 8.17045 10.9739 7.66775 12.0403C6.96947 11.5993 4.11538 9.22711 2.11574 11.8916C1.73951 12.3725 1.47864 12.9333 1.3532 13.5308C1.22776 14.1284 1.2411 14.7467 1.39218 15.3383C2.12987 17.8637 3.71679 19.4522 10.1723 21.5581Z" fill="#E04122"/>
<path d="M2.71011 13.918C4.12302 12.0299 5.97022 12.668 7.17194 13.358C7.30835 13.4383 7.4596 13.49 7.61656 13.5101C7.77352 13.5303 7.93293 13.5183 8.08516 13.4751C8.23738 13.4319 8.37926 13.3582 8.50222 13.2586C8.62517 13.159 8.72665 13.0355 8.80051 12.8955C9.46161 11.6179 10.6314 10.1135 12.8511 10.9405C13.7382 11.263 14.4895 11.8774 14.9816 12.6828C14.9366 12.2574 14.8527 11.837 14.731 11.4268C14.5386 10.8474 14.2158 10.3198 13.7874 9.88483C13.3589 9.44983 12.8364 9.11898 12.2599 8.91778C9.24447 7.79414 8.16991 10.9739 7.6687 12.0411C6.96967 11.6001 4.11559 9.22787 2.11594 11.8923C1.73957 12.3732 1.4786 12.934 1.35316 13.5315C1.22771 14.1291 1.24113 14.7475 1.39238 15.3391C1.51069 15.7508 1.66652 16.1509 1.8579 16.5341C1.83736 15.5907 2.13784 14.6683 2.71011 13.918Z" fill="#FF6242"/>
<path d="M10.1723 21.5581C10.2665 21.5885 10.3676 21.5899 10.4626 21.5621C10.5576 21.5342 10.6419 21.4784 10.7048 21.402C14.9985 16.1407 15.473 13.947 14.7308 11.4268C14.5384 10.8474 14.2156 10.3199 13.7873 9.88482C13.3591 9.44972 12.8367 9.11863 12.2605 8.91701C9.24426 7.79411 8.17045 10.9739 7.66775 12.0403C6.96947 11.5993 4.11538 9.22711 2.11574 11.8916C1.73951 12.3725 1.47864 12.9333 1.3532 13.5308C1.22776 14.1284 1.2411 14.7467 1.39218 15.3383C2.12987 17.8637 3.71679 19.4522 10.1723 21.5581Z" stroke="#45413C" stroke-linecap="round" stroke-linejoin="round"/>
<path d="M49.3952 19.0588C49.4321 19.1308 49.4899 19.1901 49.561 19.2288C49.6321 19.2675 49.7132 19.284 49.7938 19.2759C55.3242 18.716 56.8688 17.7217 57.8995 15.8321C58.1235 15.3855 58.2421 14.8933 58.2461 14.3936C58.2501 13.8939 58.1394 13.4 57.9225 12.9498C56.8271 10.5538 54.3627 11.7704 53.4555 12.1006C53.3067 11.4402 53.0279 8.41507 50.327 8.80177C49.8308 8.86232 49.3552 9.03594 48.9367 9.30926C48.5182 9.58259 48.168 9.94831 47.9131 10.3783C46.8772 12.2649 46.8772 14.1039 49.3952 19.0588Z" fill="#E04122"/>
<path d="M49.4986 10.3166C51.4105 10.0429 52.1088 11.4804 52.4062 12.5772C52.4388 12.7026 52.4965 12.82 52.5758 12.9225C52.655 13.0249 52.7542 13.1102 52.8674 13.1732C52.9805 13.2363 53.1053 13.2757 53.2341 13.2892C53.3629 13.3027 53.4931 13.2899 53.6169 13.2517C54.739 12.8955 56.2865 12.7014 57.0934 14.4646C57.4198 15.165 57.4985 15.9556 57.3165 16.7067C57.5366 16.4338 57.7307 16.141 57.8965 15.8321C58.1207 15.3855 58.2392 14.8933 58.2431 14.3936C58.247 13.8938 58.136 13.3999 57.9188 12.9498C56.8242 10.5538 54.3598 11.7704 53.4533 12.1006C53.3045 11.4402 53.0249 8.41507 50.324 8.80177C49.8278 8.86204 49.352 9.03556 48.9335 9.30891C48.515 9.58225 48.1649 9.94813 47.9102 10.3783C47.7404 10.685 47.599 11.0066 47.4878 11.3391C48.0228 10.7802 48.7318 10.4197 49.4986 10.3166Z" fill="#FF6242"/>
<path d="M49.3952 19.0588C49.4321 19.1308 49.4899 19.1901 49.561 19.2288C49.6321 19.2675 49.7132 19.284 49.7938 19.2759C55.3242 18.716 56.8688 17.7217 57.8995 15.8321C58.1235 15.3855 58.2421 14.8933 58.2461 14.3936C58.2501 13.8939 58.1394 13.4 57.9225 12.9498C56.8271 10.5538 54.3627 11.7704 53.4555 12.1006C53.3067 11.4402 53.0279 8.41507 50.327 8.80177C49.8308 8.86232 49.3552 9.03594 48.9367 9.30926C48.5182 9.58259 48.168 9.94831 47.9131 10.3783C46.8772 12.2649 46.8772 14.1039 49.3952 19.0588Z" stroke="#45413C" stroke-linecap="round" stroke-linejoin="round"/>
<path d="M35.4565 7.62606C35.4961 7.65986 35.5451 7.68081 35.5969 7.68613C35.6487 7.69144 35.7009 7.68086 35.7465 7.6558C38.884 5.94543 39.551 4.97126 39.6878 3.59479C39.7089 3.27477 39.6564 2.95417 39.5341 2.65766C39.4119 2.36115 39.2233 2.09662 38.9829 1.88441C37.7365 0.738466 36.5794 2.0733 36.1243 2.49494C35.8715 2.14097 34.9523 0.417958 33.4472 1.31999C33.1683 1.47971 32.9298 1.70126 32.75 1.96761C32.5701 2.23395 32.4538 2.53799 32.4098 2.85635C32.2708 4.22911 32.7289 5.3178 35.4565 7.62606Z" fill="#E04122"/>
<path d="M33.3369 2.42132C34.4018 1.78254 35.1737 2.45999 35.6236 3.03557C35.6742 3.10173 35.7376 3.15696 35.8101 3.19792C35.8826 3.23888 35.9627 3.26473 36.0455 3.2739C36.1282 3.28308 36.212 3.27539 36.2917 3.25129C36.3714 3.2272 36.4454 3.18721 36.5093 3.13373C37.0856 2.64218 37.9542 2.14171 38.8711 2.985C39.2398 3.3184 39.484 3.76741 39.5634 4.25811C39.6258 4.04138 39.6679 3.81932 39.6891 3.59479C39.7102 3.27477 39.6576 2.95417 39.5354 2.65766C39.4132 2.36115 39.2246 2.09662 38.9841 1.88441C37.7378 0.738466 36.5807 2.0733 36.1263 2.49494C35.8727 2.14097 34.9536 0.417958 33.4492 1.31999C33.1703 1.47962 32.9317 1.70115 32.7518 1.96751C32.572 2.23387 32.4556 2.53796 32.4118 2.85635C32.3876 3.08038 32.3841 3.30616 32.4014 3.53083C32.5781 3.06545 32.9081 2.67413 33.3369 2.42132Z" fill="#FF6242"/>
<path d="M35.4565 7.62606C35.4961 7.65986 35.5451 7.68081 35.5969 7.68613C35.6487 7.69144 35.7009 7.68086 35.7465 7.6558C38.884 5.94543 39.551 4.97126 39.6878 3.59479C39.7089 3.27477 39.6564 2.95417 39.5341 2.65766C39.4119 2.36115 39.2233 2.09662 38.9829 1.88441C37.7365 0.738466 36.5794 2.0733 36.1243 2.49494C35.8715 2.14097 34.9523 0.417958 33.4472 1.31999C33.1683 1.47971 32.9298 1.70126 32.75 1.96761C32.5701 2.23395 32.4538 2.53799 32.4098 2.85635C32.2708 4.22911 32.7289 5.3178 35.4565 7.62606Z" stroke="#45413C" stroke-linecap="round" stroke-linejoin="round"/>
<path opacity="0.15" d="M24.5625 61.0617C29.532 61.0617 33.5605 60.5124 33.5605 59.8347C33.5605 59.1571 29.532 58.6077 24.5625 58.6077C19.593 58.6077 15.5645 59.1571 15.5645 59.8347C15.5645 60.5124 19.593 61.0617 24.5625 61.0617Z" fill="#45413C"/>
<path d="M24.5628 28.3416C20.3427 28.4242 16.3828 31.5259 16.3828 36.9307H19.2458V43.0657H29.8799V36.9336H32.7429C32.7429 31.5259 28.783 28.4242 24.5628 28.3416Z" fill="#F0F0F0"/>
<path d="M19.2456 43.0657V58.6077H23.1713L23.6175 48.4638C23.6139 48.3377 23.6357 48.2123 23.6815 48.0949C23.7272 47.9774 23.7961 47.8703 23.884 47.7799C23.9718 47.6896 24.077 47.6177 24.1931 47.5687C24.3092 47.5196 24.434 47.4943 24.56 47.4943C24.6861 47.4943 24.8109 47.5196 24.927 47.5687C25.0431 47.6177 25.1482 47.6896 25.2361 47.7799C25.324 47.8703 25.3928 47.9774 25.4386 48.0949C25.4844 48.2123 25.5061 48.3377 25.5026 48.4638L25.9488 58.6077H29.8752V43.0657H19.2456Z" fill="#00B8F0" stroke="#45413C" stroke-linecap="round" stroke-linejoin="round"/>
<path d="M29.8797 43.0657H19.2456V45.5197H29.8797V43.0657Z" fill="#009FD9"/>
<path d="M19.2456 43.0657V58.6077H23.1713L23.6175 48.4638C23.6139 48.3377 23.6357 48.2123 23.6815 48.0949C23.7272 47.9774 23.7961 47.8703 23.884 47.7799C23.9718 47.6896 24.077 47.6177 24.1931 47.5687C24.3092 47.5196 24.434 47.4943 24.56 47.4943C24.6861 47.4943 24.8109 47.5196 24.927 47.5687C25.0431 47.6177 25.1482 47.6896 25.2361 47.7799C25.324 47.8703 25.3928 47.9774 25.4386 48.0949C25.4844 48.2123 25.5061 48.3377 25.5026 48.4638L25.9488 58.6077H29.8752V43.0657H19.2456Z" stroke="#45413C" stroke-linecap="round" stroke-linejoin="round"/>
<path d="M31.3114 47.1557C30.9317 47.1557 30.5676 47.0049 30.2992 46.7364C30.0307 46.468 29.8799 46.1039 29.8799 45.7242V36.9337H32.7429V45.7242C32.7429 45.9122 32.7059 46.0984 32.6339 46.272C32.562 46.4457 32.4565 46.6035 32.3236 46.7364C32.1907 46.8694 32.0329 46.9748 31.8592 47.0468C31.6855 47.1187 31.4994 47.1557 31.3114 47.1557Z" fill="#FFCEBF" stroke="#45413C" stroke-linecap="round" stroke-linejoin="round"/>
<path d="M17.8143 47.1557C17.4347 47.1557 17.0705 47.0049 16.8021 46.7364C16.5336 46.468 16.3828 46.1039 16.3828 45.7242V36.9337H19.2458V45.7242C19.2458 45.9122 19.2088 46.0984 19.1369 46.272C19.0649 46.4457 18.9595 46.6035 18.8265 46.7364C18.6936 46.8694 18.5358 46.9748 18.3621 47.0468C18.1885 47.1187 18.0023 47.1557 17.8143 47.1557Z" fill="#FFCEBF" stroke="#45413C" stroke-linecap="round" stroke-linejoin="round"/>
<path d="M24.5628 30.7956C26.3718 30.7964 28.1289 31.4001 29.5564 32.5111C30.9839 33.6222 32.0005 35.1773 32.4454 36.9307H32.7429C32.7429 31.5259 28.783 28.4242 24.5628 28.3416C20.3427 28.4242 16.3828 31.5259 16.3828 36.9307H16.6855C17.1299 35.178 18.1457 33.6234 19.5722 32.5124C20.9987 31.4014 22.7547 30.7973 24.5628 30.7956Z" fill="white"/>
<path d="M24.5628 28.3416C20.3427 28.4242 16.3828 31.5259 16.3828 36.9307H19.2458V43.0657H29.8799V36.9336H32.7429C32.7429 31.5259 28.783 28.4242 24.5628 28.3416Z" stroke="#45413C" stroke-linecap="round" stroke-linejoin="round"/>
<path d="M29.8799 36.9306V34.229" stroke="#45413C" stroke-linecap="round" stroke-linejoin="round"/>
<path d="M19.2456 36.9306V34.229" stroke="#45413C" stroke-linecap="round" stroke-linejoin="round"/>
<path d="M22.1089 28.7425V28.7536C22.1522 29.3749 22.4295 29.9567 22.885 30.3815C23.3404 30.8063 23.9401 31.0426 24.5629 31.0426C25.1857 31.0426 25.7854 30.8063 26.2408 30.3815C26.6963 29.9567 26.9736 29.3749 27.0169 28.7536V28.7454C26.2222 28.4955 25.3958 28.3605 24.5629 28.3446C23.7301 28.3596 22.9038 28.4936 22.1089 28.7425Z" fill="#FFCEBF" stroke="#45413C" stroke-linecap="round" stroke-linejoin="round"/>
<path d="M19.2667 59.4257C19.1263 59.4267 18.9879 59.3914 18.8651 59.3234C18.7422 59.2553 18.6389 59.1568 18.5652 59.0372C18.4914 58.9177 18.4497 58.7812 18.444 58.6408C18.4384 58.5005 18.4689 58.361 18.5328 58.2359C18.7454 57.8524 19.0568 57.5329 19.4348 57.3106C19.8128 57.0882 20.2434 56.9712 20.6819 56.9717H21.0909C21.5292 56.9714 21.9597 57.0884 22.3375 57.3107C22.7153 57.5331 23.0267 57.8525 23.2393 58.2359C23.3031 58.361 23.3337 58.5005 23.328 58.6408C23.3223 58.7812 23.2806 58.9177 23.2068 59.0372C23.1331 59.1568 23.0298 59.2553 22.9069 59.3234C22.7841 59.3914 22.6457 59.4267 22.5053 59.4257H19.2667Z" fill="#8CA4B8" stroke="#45413C" stroke-linecap="round" stroke-linejoin="round"/>
<path d="M26.6198 59.4257C26.4793 59.4267 26.341 59.3914 26.2181 59.3234C26.0952 59.2553 25.9919 59.1568 25.9182 59.0372C25.8445 58.9177 25.8027 58.7812 25.7971 58.6408C25.7914 58.5005 25.8219 58.361 25.8858 58.2359C26.0984 57.8524 26.4099 57.5329 26.7878 57.3106C27.1658 57.0882 27.5964 56.9712 28.0349 56.9717H28.4439C28.8823 56.9714 29.3127 57.0884 29.6906 57.3107C30.0684 57.5331 30.3797 57.8525 30.5923 58.2359C30.6561 58.361 30.6867 58.5005 30.681 58.6408C30.6753 58.7812 30.6336 58.9177 30.5599 59.0372C30.4861 59.1568 30.3828 59.2553 30.26 59.3234C30.1371 59.3914 29.9988 59.4267 29.8583 59.4257H26.6198Z" fill="#8CA4B8" stroke="#45413C" stroke-linecap="round" stroke-linejoin="round"/>
<path d="M31.0531 22.867C31.0916 22.6372 31.0494 22.4013 30.9336 22.1992C30.8178 21.997 30.6357 21.8412 30.418 21.7582L30.5318 21.1135C30.7578 19.8315 30.4654 18.5123 29.7187 17.4459C28.972 16.3796 27.8323 15.6536 26.5504 15.4276C25.2684 15.2016 23.9492 15.4941 22.8829 16.2407C21.8166 16.9874 21.0905 18.1271 20.8645 19.409L20.7507 20.0538C20.5077 20.0557 20.2736 20.1459 20.0921 20.3076C19.9106 20.4693 19.7941 20.6916 19.7644 20.9328C19.7346 21.1741 19.7936 21.4179 19.9303 21.6189C20.0671 21.8199 20.2722 21.9643 20.5076 22.0252C20.541 23.1533 20.9623 24.2355 21.7004 25.0893C22.4385 25.9431 23.4483 26.5165 24.5598 26.7128C25.6712 26.9091 26.8164 26.7163 27.8023 26.167C28.7882 25.6177 29.5547 24.7453 29.9726 23.6969C30.2237 23.7179 30.4736 23.6444 30.6734 23.491C30.8732 23.3375 31.0086 23.115 31.0531 22.867Z" fill="#FFCEBF" stroke="#45413C" stroke-linecap="round" stroke-linejoin="round"/>
<path d="M22.6902 22.6283C23.029 22.6283 23.3037 22.3536 23.3037 22.0147C23.3037 21.6759 23.029 21.4012 22.6902 21.4012C22.3513 21.4012 22.0767 21.6759 22.0767 22.0147C22.0767 22.3536 22.3513 22.6283 22.6902 22.6283Z" fill="#FFB59E"/>
<path d="M27.926 23.5518C28.2648 23.5518 28.5395 23.2772 28.5395 22.9383C28.5395 22.5995 28.2648 22.3248 27.926 22.3248C27.5872 22.3248 27.3125 22.5995 27.3125 22.9383C27.3125 23.2772 27.5872 23.5518 27.926 23.5518Z" fill="#FFB59E"/>
<path d="M26.2679 24.0991C25.8732 24.299 25.4242 24.3656 24.9885 24.2887C24.5528 24.2119 24.1537 23.9959 23.8511 23.673" stroke="#45413C" stroke-linecap="round" stroke-linejoin="round"/>
<path d="M23.7791 19.9326C23.6261 19.9333 23.4788 19.9912 23.3663 20.0948C23.2537 20.1985 23.184 20.3406 23.1708 20.493C23.1575 20.6455 23.2018 20.7974 23.2948 20.9189C23.3878 21.0405 23.5229 21.1228 23.6735 21.1499C23.7088 21.1564 23.7447 21.1597 23.7806 21.1596C23.9344 21.1599 24.0827 21.1025 24.1961 20.9987C24.3096 20.8949 24.3799 20.7522 24.3932 20.599C24.4064 20.4459 24.3617 20.2933 24.2678 20.1715C24.1739 20.0497 24.0377 19.9676 23.8862 19.9415C23.8508 19.9356 23.815 19.9326 23.7791 19.9326Z" fill="#45413C"/>
<path d="M27.4042 20.5736C27.2503 20.573 27.1019 20.6303 26.9883 20.7341C26.8747 20.8378 26.8043 20.9804 26.7909 21.1337C26.7775 21.2869 26.8222 21.4396 26.9161 21.5615C27.01 21.6834 27.1462 21.7655 27.2978 21.7916C27.3332 21.7975 27.369 21.8005 27.4049 21.8006C27.558 21.8 27.7054 21.7423 27.8181 21.6386C27.9308 21.535 28.0007 21.393 28.014 21.2404C28.0273 21.0879 27.9831 20.9359 27.8901 20.8143C27.7971 20.6927 27.662 20.6103 27.5113 20.5832C27.4759 20.5768 27.4401 20.5735 27.4042 20.5736Z" fill="#45413C"/>
<path d="M31.8319 23.7035C31.6036 22.162 31.6913 21.6035 32.1129 19.2149C32.265 18.3742 32.1665 17.5073 31.8297 16.7222C31.4928 15.937 30.9325 15.2682 30.2185 14.799C29.5045 14.3299 28.6683 14.081 27.814 14.0834C26.9596 14.0858 26.1248 14.3394 25.4135 14.8126C24.3453 14.6243 23.2461 14.868 22.3577 15.4902C21.4692 16.1123 20.8642 17.0618 20.6758 18.1299L20.3203 20.1437C21.882 20.4196 22.4285 19.4573 25.0588 16.8263C25.4424 17.8539 26.1711 18.7163 27.1202 19.2662C30.2382 20.6791 25.27 21.4228 29.2529 24.9313C28.7036 25.6189 27.9803 26.147 27.1581 26.4609C27.181 27.6889 27.5745 28.8813 28.2869 29.8817C28.9495 30.551 29.0982 31.6025 28.8751 32.8659L30.468 30.2974C31.6881 28.3299 32.1714 25.9936 31.8319 23.7035Z" fill="#FFDF3D"/>
<path d="M31.8996 20.4248L31.8825 20.523H31.8884C31.9479 20.1511 32.023 19.7258 32.1115 19.2156C32.2636 18.3749 32.1651 17.5081 31.8282 16.7229C31.4914 15.9377 30.9311 15.269 30.2171 14.7998C29.5031 14.3306 28.6669 14.0817 27.8126 14.0841C26.9582 14.0865 26.1234 14.3401 25.4121 14.8133C24.3439 14.625 23.2447 14.8688 22.3563 15.4909C21.4678 16.113 20.8628 17.0625 20.6744 18.1307L20.4609 19.3391C20.5541 18.8101 20.7507 18.3046 21.0393 17.8515C21.3278 17.3984 21.7029 17.0067 22.1429 16.6985C22.5829 16.3904 23.0793 16.172 23.6037 16.0557C24.1282 15.9395 24.6704 15.9277 25.1994 16.021C25.9109 15.5474 26.7459 15.2935 27.6006 15.291C28.4553 15.2885 29.2918 15.5375 30.006 16.0069C30.7202 16.4764 31.2805 17.1455 31.6173 17.9311C31.954 18.7166 32.0522 19.5839 31.8996 20.4248Z" fill="#FFEF9E"/>
<path d="M31.8319 23.7035C31.6036 22.162 31.6913 21.6035 32.1129 19.2149C32.265 18.3742 32.1665 17.5073 31.8297 16.7222C31.4928 15.937 30.9325 15.2682 30.2185 14.799C29.5046 14.3299 28.6683 14.081 27.814 14.0834C26.9596 14.0858 26.1248 14.3394 25.4135 14.8126C24.3453 14.6243 23.2461 14.868 22.3577 15.4902C21.4692 16.1123 20.8642 17.0618 20.6758 18.1299L20.3203 20.1437C21.882 20.4196 22.4285 19.4573 25.0588 16.8263C25.4424 17.8539 26.1711 18.7163 27.1202 19.2662C30.2382 20.6791 25.27 21.4228 29.2529 24.9313C28.7036 25.6189 27.9803 26.147 27.1581 26.4609C27.181 27.6889 27.5745 28.8813 28.2869 29.8817C28.9495 30.551 29.0982 31.6025 28.8751 32.8659L30.468 30.2974C31.6881 28.3299 32.1714 25.9936 31.8319 23.7035Z" stroke="#45413C" stroke-linecap="round" stroke-linejoin="round"/>
<path d="M25.0586 16.8263L25.4133 14.8126" stroke="#45413C" stroke-linecap="round" stroke-linejoin="round"/>
<path d="M41.6027 31.6166L41.1223 23.6515C40.8924 24.7558 40.2891 25.7473 39.414 26.459C38.5388 27.1708 37.4453 27.5593 36.3172 27.5593C35.1892 27.5593 34.0956 27.1708 33.2205 26.459C32.3454 25.7473 31.7421 24.7558 31.5122 23.6515L31.0318 31.6166C31.0277 31.7266 31.0458 31.8362 31.0851 31.939C31.1244 32.0418 31.184 32.1356 31.2604 32.2148C31.3367 32.2941 31.4283 32.3571 31.5296 32.4001C31.6309 32.4431 31.7398 32.4652 31.8498 32.4651H40.7854C40.8954 32.4651 41.0042 32.4429 41.1054 32.3998C41.2066 32.3568 41.2981 32.2938 41.3744 32.2146C41.4507 32.1354 41.5102 32.0416 41.5494 31.9388C41.5887 31.8361 41.6068 31.7265 41.6027 31.6166Z" fill="#FFDF3D" stroke="#45413C" stroke-linecap="round" stroke-linejoin="round"/>
<path d="M41.8793 21.3343C41.8169 21.1106 41.6793 20.9152 41.4897 20.7811C41.3 20.647 41.07 20.5824 40.8382 20.5981L40.6687 19.966C40.5018 19.3434 40.214 18.7598 39.8216 18.2484C39.4292 17.7371 38.9399 17.308 38.3817 16.9857C37.8234 16.6634 37.2072 16.4543 36.5681 16.3702C35.9291 16.286 35.2797 16.3286 34.6571 16.4955C34.0345 16.6623 33.4508 16.9502 32.9395 17.3426C32.4281 17.735 31.9991 18.2243 31.6768 18.7825C31.3545 19.3407 31.1453 19.9569 31.0612 20.596C30.9771 21.2351 31.0197 21.8844 31.1865 22.5071L31.3553 23.1399C31.1362 23.2446 30.9626 23.4254 30.8668 23.6486C30.7711 23.8717 30.7596 24.1221 30.8346 24.3531C30.9097 24.584 31.066 24.7799 31.2747 24.9042C31.4833 25.0285 31.73 25.0727 31.9688 25.0287C32.4769 26.0357 33.3162 26.8369 34.3456 27.2977C35.3751 27.7584 36.5318 27.8506 37.6212 27.5587C38.7106 27.2667 39.6662 26.6085 40.3273 25.6947C40.9883 24.7809 41.3145 23.6673 41.2509 22.5413C41.4868 22.454 41.6819 22.2821 41.798 22.059C41.9142 21.8359 41.9431 21.5776 41.8793 21.3343Z" fill="#FFCEBF" stroke="#45413C" stroke-linecap="round" stroke-linejoin="round"/>
<path d="M34.3095 21.689C34.2557 21.6889 34.2022 21.6962 34.1503 21.7106C34.0065 21.7491 33.8816 21.8385 33.7989 21.9622C33.7161 22.086 33.6812 22.2356 33.7005 22.3832C33.7199 22.5308 33.7923 22.6663 33.9042 22.7644C34.0161 22.8626 34.1599 22.9168 34.3087 22.9168C34.4031 22.9173 34.4964 22.896 34.5812 22.8546C34.666 22.8131 34.74 22.7527 34.7976 22.6779C34.8552 22.6031 34.8947 22.516 34.9131 22.4234C34.9315 22.3308 34.9283 22.2353 34.9036 22.1441C34.8688 22.0132 34.7915 21.8975 34.6838 21.8151C34.5762 21.7328 34.445 21.6884 34.3095 21.689Z" fill="#45413C"/>
<path d="M37.8614 20.7387C37.8076 20.7386 37.7541 20.7459 37.7023 20.7602C37.5526 20.8011 37.4241 20.8973 37.3427 21.0294C37.2614 21.1615 37.2333 21.3197 37.2642 21.4717C37.2951 21.6237 37.3827 21.7583 37.5092 21.8482C37.6356 21.9381 37.7916 21.9765 37.9453 21.9557C38.0991 21.9348 38.2391 21.8563 38.3371 21.736C38.4351 21.6157 38.4837 21.4627 38.4731 21.3079C38.4624 21.1531 38.3933 21.0082 38.2797 20.9025C38.1661 20.7968 38.0166 20.7382 37.8614 20.7387Z" fill="#45413C"/>
<path d="M33.9387 24.7104C34.2775 24.7104 34.5522 24.4357 34.5522 24.0969C34.5522 23.7581 34.2775 23.4834 33.9387 23.4834C33.5999 23.4834 33.3252 23.7581 33.3252 24.0969C33.3252 24.4357 33.5999 24.7104 33.9387 24.7104Z" fill="#FFB59E"/>
<path d="M39.0749 23.3347C39.4138 23.3347 39.6884 23.06 39.6884 22.7212C39.6884 22.3823 39.4138 22.1077 39.0749 22.1077C38.7361 22.1077 38.4614 22.3823 38.4614 22.7212C38.4614 23.06 38.7361 23.3347 39.0749 23.3347Z" fill="#FFB59E"/>
<path d="M35.7017 25.1454C36.1154 25.2854 36.5613 25.2998 36.9832 25.1868C37.405 25.0738 37.784 24.8384 38.0724 24.5104" stroke="#45413C" stroke-linecap="round" stroke-linejoin="round"/>
<path d="M36.754 15.087C36.6113 15.1312 36.4845 15.2157 36.3888 15.3304C36.2931 15.445 36.2327 15.585 36.2148 15.7332C36.4864 15.9621 36.688 16.2629 36.7964 16.6011C36.9844 17.1827 37.0058 17.8053 36.8581 18.3984C37.0113 18.9718 39.2191 20.2918 40.4112 20.7677C40.478 20.7938 40.5506 20.8017 40.6215 20.7905C40.6923 20.7793 40.759 20.7495 40.8145 20.7041C40.8701 20.6587 40.9125 20.5993 40.9376 20.5321C40.9626 20.4649 40.9693 20.3922 40.957 20.3215L40.4818 17.4548C40.4164 17.0423 40.2639 16.6485 40.0347 16.2994C39.8054 15.9503 39.5045 15.654 39.152 15.4301C38.7994 15.2062 38.4033 15.0598 37.9899 15.0006C37.5764 14.9415 37.1552 14.9709 36.754 15.087Z" fill="#FFDF3D"/>
<path d="M36.754 15.087C36.6113 15.1311 36.4844 15.2156 36.3887 15.3303C36.293 15.445 36.2326 15.5849 36.2148 15.7332C36.4864 15.9621 36.688 16.2629 36.7964 16.6011C36.8239 16.6896 36.8477 16.7766 36.8707 16.8636C36.9735 16.7606 37.1018 16.687 37.2426 16.6501C37.8866 16.4793 38.5697 16.5327 39.1794 16.8017C39.7891 17.0706 40.2891 17.5391 40.5971 18.13L40.4818 17.4548C40.4164 17.0423 40.2639 16.6485 40.0347 16.2994C39.8054 15.9503 39.5045 15.654 39.152 15.4301C38.7994 15.2062 38.4033 15.0598 37.9899 15.0006C37.5764 14.9415 37.1552 14.9709 36.754 15.087Z" fill="#FFEF9E"/>
<path d="M36.754 15.087C36.6113 15.1312 36.4845 15.2157 36.3888 15.3304C36.2931 15.445 36.2327 15.585 36.2148 15.7332C36.4864 15.9621 36.688 16.2629 36.7964 16.6011C36.9844 17.1827 37.0058 17.8053 36.8581 18.3984C37.0113 18.9718 39.2191 20.2918 40.4112 20.7677C40.478 20.7938 40.5506 20.8017 40.6215 20.7905C40.6923 20.7793 40.759 20.7495 40.8145 20.7041C40.8701 20.6587 40.9125 20.5993 40.9376 20.5321C40.9626 20.4649 40.9693 20.3922 40.957 20.3215L40.4818 17.4548C40.4164 17.0423 40.2639 16.6485 40.0347 16.2994C39.8054 15.9503 39.5045 15.654 39.152 15.4301C38.7994 15.2062 38.4033 15.0598 37.9899 15.0006C37.5764 14.9415 37.1552 14.9709 36.754 15.087Z" stroke="#45413C" stroke-linecap="round" stroke-linejoin="round"/>
<path d="M34.3364 15.3101C34.8336 15.1734 35.3641 15.2307 35.8207 15.4704C36.2772 15.7101 36.6257 16.1142 36.7956 16.601C38.0747 20.6264 31.2659 23.7772 30.0367 22.3903C29.496 21.7812 29.5012 20.6368 30.4903 20.5022C30.5255 20.496 30.5588 20.482 30.5879 20.4613C30.6171 20.4406 30.6412 20.4137 30.6586 20.3825C30.6761 20.3514 30.6864 20.3167 30.6888 20.281C30.6912 20.2454 30.6856 20.2097 30.6725 20.1765C29.9385 18.0281 31.7002 16.0173 34.3364 15.3101Z" fill="#FFDF3D"/>
<path d="M34.4306 16.4538C34.9278 16.3169 35.4585 16.374 35.9152 16.6135C36.3719 16.8531 36.7205 17.2571 36.8906 17.744C36.9084 17.802 36.9248 17.8593 36.9396 17.9158C36.9816 17.4723 36.9328 17.025 36.7961 16.601C36.6261 16.114 36.2773 15.7098 35.8204 15.4703C35.3636 15.2307 34.8327 15.1737 34.3354 15.3108C31.7699 15.9979 30.0335 17.921 30.6172 20.0039C30.8061 18.3895 32.3447 17.013 34.4306 16.4538Z" fill="#FFEF9E"/>
<path d="M34.3364 15.3101C34.8336 15.1734 35.3641 15.2307 35.8207 15.4704C36.2772 15.7101 36.6257 16.1142 36.7956 16.601C38.0747 20.6264 31.2659 23.7772 30.0367 22.3903C29.496 21.7812 29.5012 20.6368 30.4903 20.5022C30.5255 20.496 30.5588 20.482 30.5879 20.4613C30.6171 20.4406 30.6412 20.4137 30.6586 20.3825C30.6761 20.3514 30.6864 20.3167 30.6888 20.281C30.6912 20.2454 30.6856 20.2097 30.6725 20.1765C29.9385 18.0281 31.7002 16.0173 34.3364 15.3101Z" stroke="#45413C" stroke-linecap="round" stroke-linejoin="round"/>
<path opacity="0.15" d="M37.2461 61.0617C42.2156 61.0617 46.2441 60.5124 46.2441 59.8347C46.2441 59.1571 42.2156 58.6077 37.2461 58.6077C32.2766 58.6077 28.248 59.1571 28.248 59.8347C28.248 60.5124 32.2766 61.0617 37.2461 61.0617Z" fill="#45413C"/>
<path d="M37.2463 29.1596C35.2938 29.1596 33.4212 29.9352 32.0406 31.3159C30.6599 32.6965 29.8843 34.5691 29.8843 36.5216V37.3396H32.748V44.2956H41.7461V37.3426H44.6091V36.5246C44.6095 35.5575 44.4193 34.5998 44.0495 33.7062C43.6796 32.8126 43.1373 32.0006 42.4536 31.3167C41.7698 30.6327 40.958 30.0902 40.0646 29.7201C39.1711 29.35 38.2134 29.1595 37.2463 29.1596Z" fill="#F0F0F0"/>
<path d="M34.0078 52.4727L34.3834 59.4257H40.1094L40.4857 52.4727H34.0078Z" fill="#FFCEBF"/>
<path d="M40.3749 54.5177L40.4857 52.4727H34.0078L34.1186 54.5177H40.3749Z" fill="#FFB59E"/>
<path d="M34.0078 52.4727L34.3834 59.4257H40.1094L40.4857 52.4727H34.0078Z" stroke="#45413C" stroke-linecap="round" stroke-linejoin="round"/>
<path d="M40.5288 52.4757C40.7383 52.476 40.94 52.3959 41.0922 52.2518C41.2444 52.1078 41.3355 51.9108 41.3468 51.7016L41.7461 44.2957H32.748L33.1489 51.7016C33.1601 51.9108 33.2512 52.1078 33.4034 52.2518C33.5556 52.3959 33.7573 52.476 33.9669 52.4757H40.5288Z" fill="#FF6196"/>
<path d="M41.6351 46.3377L41.7451 44.2927H32.7471L32.8579 46.3377H41.6351Z" fill="#E0366F"/>
<path d="M40.5288 52.4757C40.7383 52.476 40.94 52.3959 41.0922 52.2518C41.2444 52.1078 41.3355 51.9108 41.3468 51.7016L41.7461 44.2957H32.748L33.1489 51.7016C33.1601 51.9108 33.2512 52.1078 33.4034 52.2518C33.5556 52.3959 33.7573 52.476 33.9669 52.4757H40.5288Z" stroke="#45413C" stroke-linecap="round" stroke-linejoin="round"/>
<path d="M41.5265 59.4257C41.6701 59.4258 41.8112 59.388 41.9356 59.3163C42.06 59.2445 42.1633 59.1412 42.2351 59.0169C42.3069 58.8925 42.3448 58.7514 42.3448 58.6078C42.3448 58.4642 42.307 58.3231 42.2352 58.1987C42.0197 57.8256 41.7098 57.5157 41.3366 57.3003C40.9634 57.0849 40.54 56.9716 40.1091 56.9717H39.7001C39.0493 56.9717 38.4251 57.2303 37.9649 57.6905C37.5046 58.1507 37.2461 58.7749 37.2461 59.4257H41.5265Z" fill="#FF6196" stroke="#45413C" stroke-linecap="round" stroke-linejoin="round"/>
<path d="M37.2461 59.4257C37.2461 58.7749 36.9876 58.1507 36.5273 57.6905C36.0671 57.2303 35.4429 56.9717 34.7921 56.9717H34.3838C33.9531 56.9717 33.5299 57.0851 33.1568 57.3005C32.7837 57.5159 32.4739 57.8257 32.2585 58.1987C32.1867 58.3231 32.1489 58.4642 32.1489 58.6078C32.1489 58.7514 32.1868 58.8925 32.2586 59.0169C32.3304 59.1412 32.4337 59.2445 32.5581 59.3163C32.6825 59.388 32.8236 59.4258 32.9672 59.4257H37.2461Z" fill="#FF6196" stroke="#45413C" stroke-linecap="round" stroke-linejoin="round"/>
<path d="M37.2461 52.4727V59.4257" stroke="#45413C" stroke-linecap="round" stroke-linejoin="round"/>
<path d="M37.2463 29.1596C35.2938 29.1596 33.4212 29.9352 32.0406 31.3159C30.6599 32.6965 29.8843 34.5691 29.8843 36.5216V37.3396H30.0709C30.4404 35.7117 31.3522 34.2576 32.6567 33.216C33.9612 32.1743 35.581 31.607 37.2504 31.607C38.9198 31.607 40.5396 32.1743 41.8441 33.216C43.1486 34.2576 44.0604 35.7117 44.4299 37.3396H44.6121V36.5216C44.6121 35.5545 44.4215 34.5969 44.0513 33.7035C43.6811 32.81 43.1385 31.9983 42.4545 31.3146C41.7704 30.6309 40.9584 30.0887 40.0648 29.7189C39.1711 29.3492 38.2134 29.1591 37.2463 29.1596Z" fill="white"/>
<path d="M37.2463 29.1596C35.2938 29.1596 33.4212 29.9352 32.0406 31.3159C30.6599 32.6965 29.8843 34.5691 29.8843 36.5216V37.3396H32.748V44.2956H41.7461V37.3426H44.6091V36.5246C44.6095 35.5575 44.4193 34.5998 44.0495 33.7062C43.6796 32.8126 43.1373 32.0006 42.4536 31.3167C41.7698 30.6327 40.958 30.0902 40.0646 29.7201C39.1711 29.35 38.2134 29.1595 37.2463 29.1596Z" stroke="#45413C" stroke-linecap="round" stroke-linejoin="round"/>
<path d="M34.7202 29.6043V29.614C34.918 30.1238 35.2653 30.5618 35.7165 30.8707C36.1677 31.1796 36.7018 31.3449 37.2486 31.3449C37.7954 31.3449 38.3294 31.1796 38.7807 30.8707C39.2319 30.5618 39.5792 30.1238 39.777 29.614V29.6043C38.1448 29.0114 36.3561 29.0114 34.7239 29.6043H34.7202Z" fill="#FFCEBF" stroke="#45413C" stroke-linecap="round" stroke-linejoin="round"/>
<path d="M36.7017 32.712C36.5473 32.7883 36.417 32.9057 36.3251 33.0514C36.2333 33.197 36.1834 33.3652 36.1811 33.5374C36.1811 33.7204 36.2362 33.9011 36.2295 34.0832C36.225 34.1946 36.1974 34.3037 36.1486 34.4038C36.0997 34.5039 36.0306 34.5928 35.9455 34.6648C35.8605 34.7368 35.7615 34.7904 35.6547 34.8221C35.5479 34.8539 35.4357 34.8631 35.3252 34.8492" stroke="#45413C" stroke-linecap="round" stroke-linejoin="round"/>
<path d="M37.2461 32.0145C37.2461 32.004 37.2402 31.6925 37.2342 31.6828C37.0654 31.3891 36.4519 31.4262 35.8652 31.7646C35.2785 32.1029 34.9401 32.6161 35.1097 32.9098C35.2792 33.2035 35.892 33.1664 36.4787 32.8273C36.8211 32.6536 37.0924 32.3662 37.2461 32.0145Z" stroke="#45413C" stroke-linecap="round" stroke-linejoin="round"/>
<path d="M37.7915 32.712C37.9459 32.7883 38.0762 32.9057 38.168 33.0514C38.2599 33.197 38.3097 33.3652 38.3121 33.5374C38.3121 33.7204 38.257 33.9011 38.2637 34.0832C38.2682 34.1946 38.2957 34.3037 38.3446 34.4038C38.3935 34.5039 38.4626 34.5928 38.5476 34.6648C38.6326 34.7368 38.7317 34.7904 38.8384 34.8221C38.9452 34.8539 39.0574 34.8631 39.168 34.8492" stroke="#45413C" stroke-linecap="round" stroke-linejoin="round"/>
<path d="M37.2461 32.0145C37.2461 32.004 37.2528 31.6925 37.2587 31.6828C37.4275 31.3891 38.041 31.4262 38.6278 31.7646C39.2145 32.1029 39.5529 32.6161 39.3833 32.9098C39.2138 33.2035 38.601 33.1664 38.0143 32.8273C37.6717 32.6536 37.4002 32.3663 37.2461 32.0145Z" stroke="#45413C" stroke-linecap="round" stroke-linejoin="round"/>
<path d="M32.7471 37.3396V35.7036" stroke="#45413C" stroke-linecap="round" stroke-linejoin="round"/>
<path d="M41.7451 37.3396V35.7036" stroke="#45413C" stroke-linecap="round" stroke-linejoin="round"/>
<path d="M29.8843 37.3397V46.5422C29.8843 46.9219 30.0351 47.286 30.3036 47.5544C30.572 47.8229 30.9361 47.9737 31.3158 47.9737C31.6954 47.9737 32.0596 47.8229 32.328 47.5544C32.5965 47.286 32.7473 46.9219 32.7473 46.5422V37.3397H29.8843Z" fill="#FFCEBF" stroke="#45413C" stroke-linecap="round" stroke-linejoin="round"/>
<path d="M41.7461 37.3397V46.5422C41.7461 46.9219 41.8969 47.286 42.1654 47.5544C42.4338 47.8229 42.7979 47.9737 43.1776 47.9737C43.5573 47.9737 43.9214 47.8229 44.1898 47.5544C44.4583 47.286 44.6091 46.9219 44.6091 46.5422V37.3397H41.7461Z" fill="#FFCEBF" stroke="#45413C" stroke-linecap="round" stroke-linejoin="round"/>
<path d="M32.2548 48.4533C32.1686 48.562 32.0498 48.64 31.916 48.6761C31.7821 48.7121 31.6402 48.7041 31.5111 48.6534L30.1257 48.0986C29.7444 47.9459 29.4394 47.6479 29.2778 47.2702C29.1161 46.8926 29.1111 46.4662 29.2639 46.0849L29.5516 45.365C29.6273 45.1761 29.7394 45.004 29.8816 44.8584C30.0238 44.7129 30.1933 44.5967 30.3803 44.5167C30.5674 44.4367 30.7684 44.3943 30.9719 44.3919C31.1754 44.3896 31.3773 44.4274 31.5662 44.5031L32.9516 45.0579C33.0809 45.1098 33.19 45.2021 33.2625 45.3212C33.3351 45.4402 33.3671 45.5795 33.3539 45.7182C33.2583 46.7167 32.8767 47.6664 32.2548 48.4533Z" fill="#FFCEBF" stroke="#45413C" stroke-linecap="round" stroke-linejoin="round"/>
</svg>
