<svg width="60" height="60" viewBox="0 0 60 60" fill="none" xmlns="http://www.w3.org/2000/svg">
<path d="M7.41575 23.6719C7.09955 23.6747 6.78823 23.5939 6.5134 23.4375C6.31182 23.3242 6.13486 23.1718 5.99288 22.9893C5.85089 22.8068 5.74673 22.5978 5.6865 22.3745C5.62626 22.1512 5.61116 21.9182 5.64207 21.689C5.67298 21.4599 5.74929 21.2392 5.86653 21.0398C8.1259 17.2687 15.0001 8.4668 30.0001 8.4668C36.5005 8.4668 42.2017 10.1742 46.9372 13.5398C50.8349 16.302 53.0193 19.4285 54.0599 20.9344C54.1919 21.1242 54.2845 21.3385 54.3325 21.5647C54.3804 21.7908 54.3825 22.0243 54.3389 22.2513C54.2952 22.4783 54.2065 22.6943 54.0781 22.8866C53.9497 23.0788 53.7841 23.2434 53.5911 23.3707C53.1967 23.6314 52.7162 23.7283 52.2516 23.6408C51.7869 23.5533 51.3746 23.2883 51.1021 22.902C49.2189 20.1937 43.4767 11.9531 30.0001 11.9531C16.8458 11.9531 10.8986 19.5363 8.96145 22.7883C8.80581 23.0598 8.58048 23.2849 8.30874 23.4403C8.03701 23.5956 7.72872 23.6755 7.41575 23.6719Z" fill="url(#paint0_linear_293_10674)"/>
<path d="M37.5575 58.125C37.408 58.1268 37.2588 58.1098 37.1134 58.0746C26.2325 55.3793 22.1696 44.5019 22.0044 44.0496L21.9786 43.95C21.8896 43.6359 19.7064 36.1769 23.0579 31.8082C24.5942 29.816 26.931 28.7941 30.0165 28.7941C32.8853 28.7941 34.9548 29.6859 36.3775 31.5316C37.5493 33.0387 38.0181 34.8973 38.4716 36.6879C39.4243 40.4168 40.1122 42.375 44.072 42.5766C45.811 42.6644 46.9536 41.6473 47.6017 40.7812C49.3536 38.4199 49.6583 34.5703 48.3376 31.1719C46.6407 26.7855 40.6185 18.5156 30.0001 18.5156C25.4673 18.5156 21.3025 19.9723 17.9626 22.7098C15.1982 24.9773 13.0079 28.1789 11.9532 31.4695C9.99737 37.5961 12.5626 47.2266 12.5872 47.3144C12.6471 47.5386 12.6615 47.7724 12.6296 48.0022C12.5977 48.232 12.5201 48.4531 12.4013 48.6524C12.2826 48.8518 12.1252 49.0253 11.9383 49.1628C11.7515 49.3003 11.539 49.399 11.3134 49.4531C10.8576 49.5743 10.3725 49.5122 9.96197 49.28C9.55146 49.0478 9.24824 48.664 9.11729 48.2109C9.00011 47.7715 6.26026 37.5 8.51964 30.4195C10.9806 22.7473 18.5755 15.0129 30.0036 15.0129C35.2853 15.0129 40.2751 16.8082 44.44 20.1984C47.665 22.8351 50.2993 26.3765 51.6775 29.9168C53.4294 34.4367 52.9595 39.5098 50.4833 42.8238C48.8333 45.034 46.4837 46.1894 43.881 46.064C37.1005 45.7242 35.8817 40.991 34.9935 37.5387C34.0794 33.9973 33.4946 32.2898 30.0036 32.2898C28.0864 32.2898 26.74 32.8172 25.9021 33.9094C24.7595 35.4035 24.6704 37.739 24.797 39.4336C24.8801 40.6142 25.0803 41.7836 25.3946 42.9246C25.6735 43.6277 29.3052 52.534 38.0028 54.6891C38.2276 54.7423 38.4396 54.8397 38.6265 54.9756C38.8133 55.1115 38.9713 55.2831 39.0912 55.4806C39.2112 55.678 39.2907 55.8974 39.3251 56.1258C39.3596 56.3543 39.3483 56.5873 39.2919 56.8113C39.1858 57.1895 38.9588 57.5227 38.6457 57.7598C38.3325 57.997 37.9504 58.1253 37.5575 58.125Z" fill="url(#paint1_linear_293_10674)"/>
<path d="M23.5909 57.3211C23.347 57.3216 23.1055 57.273 22.8808 57.1782C22.6561 57.0833 22.4528 56.9442 22.283 56.7692C17.9284 52.1988 15.4651 47.0883 14.5381 40.6981V40.6641C14.0178 36.4336 14.7795 30.4442 18.5119 26.3262C21.267 23.2875 25.1401 21.743 30.0034 21.743C35.7549 21.743 40.2748 24.4172 43.0932 29.4645C45.1381 33.1313 45.5436 36.7852 45.5541 36.9352C45.5756 37.1664 45.5512 37.3997 45.4824 37.6215C45.4135 37.8433 45.3016 38.0494 45.153 38.228C45.0044 38.4065 44.8221 38.5539 44.6164 38.6619C44.4108 38.7698 44.1858 38.8361 43.9545 38.857C43.4878 38.9077 43.0198 38.7728 42.6517 38.4814C42.2836 38.19 42.0448 37.7655 41.9869 37.2996C41.6783 35.1072 40.9688 32.9903 39.894 31.0547C37.7096 27.2004 34.3862 25.241 29.9905 25.241C26.1936 25.241 23.2229 26.3836 21.1791 28.6395C18.233 31.8914 17.6635 36.9012 18.0678 40.2152C18.8799 45.866 21.0514 50.3613 24.8858 54.3785C25.0458 54.545 25.1707 54.742 25.2531 54.9577C25.3355 55.1734 25.3737 55.4035 25.3654 55.6343C25.3571 55.8651 25.3025 56.0918 25.2048 56.3011C25.1071 56.5103 24.9683 56.6978 24.7967 56.8524C24.4663 57.1519 24.0368 57.3188 23.5909 57.3211Z" fill="url(#paint2_linear_293_10674)"/>
<path d="M43.6525 52.2867C39.8439 52.2867 36.606 51.2321 34.015 49.1356C28.8096 44.9414 28.226 38.1106 28.2002 37.8223C28.1635 37.3491 28.3163 36.8807 28.625 36.5202C28.9336 36.1596 29.3729 35.9365 29.8461 35.8998C30.3193 35.8632 30.7877 36.016 31.1482 36.3246C31.5087 36.6333 31.7319 37.0725 31.7685 37.5457C31.7814 37.6465 32.3017 43.234 36.3142 46.452C38.6885 48.3481 41.8619 49.1004 45.7724 48.661C46.2398 48.6043 46.7106 48.7349 47.082 49.0243C47.4533 49.3138 47.6949 49.7384 47.7541 50.2055C47.7797 50.4362 47.7591 50.6697 47.6935 50.8924C47.6278 51.1151 47.5185 51.3225 47.3719 51.5025C47.2253 51.6825 47.0443 51.8314 46.8395 51.9407C46.6347 52.05 46.4102 52.1175 46.1791 52.1391C45.3404 52.2369 44.4969 52.2862 43.6525 52.2867Z" fill="url(#paint3_linear_293_10674)"/>
<path d="M46.6618 5.71758C45.1759 4.75078 39.9071 1.875 30.0001 1.875C19.6009 1.875 14.3192 5.05195 13.1509 5.85938C13.0737 5.90674 13.0015 5.9617 12.9353 6.02344C12.9283 6.0302 12.9192 6.03434 12.9095 6.03516C12.7229 6.19805 12.5732 6.39885 12.4703 6.62416C12.3675 6.84947 12.3138 7.09412 12.313 7.3418C12.3162 7.57397 12.3652 7.80322 12.4571 8.01643C12.5491 8.22963 12.6822 8.42259 12.8489 8.58425C13.0156 8.74591 13.2125 8.8731 13.4284 8.95852C13.6443 9.04393 13.875 9.08591 14.1071 9.08203C14.4792 9.08178 14.8424 8.96769 15.1478 8.75508C15.1981 8.71758 19.7438 5.37773 30.0036 5.37773C40.2634 5.37773 44.8337 8.70586 44.8829 8.73047C45.1949 8.96183 45.5738 9.08525 45.9622 9.08203C46.1946 9.08559 46.4253 9.04324 46.6413 8.95739C46.8572 8.87153 47.0541 8.74388 47.2206 8.58176C47.387 8.41963 47.5199 8.22622 47.6114 8.01263C47.7029 7.79904 47.7514 7.56948 47.754 7.33711C47.7541 6.98905 47.6502 6.6489 47.4556 6.36033C47.261 6.07175 46.9845 5.84793 46.6618 5.71758Z" fill="url(#paint4_linear_293_10674)"/>
<defs>
<linearGradient id="paint0_linear_293_10674" x1="29.9983" y1="8.4668" x2="29.9983" y2="23.6722" gradientUnits="userSpaceOnUse">
<stop stop-color="#E73035"/>
<stop offset="1" stop-color="#FFCE31"/>
</linearGradient>
<linearGradient id="paint1_linear_293_10674" x1="30.1783" y1="15.0129" x2="30.1783" y2="58.1251" gradientUnits="userSpaceOnUse">
<stop stop-color="#E73035"/>
<stop offset="1" stop-color="#FFCE31"/>
</linearGradient>
<linearGradient id="paint2_linear_293_10674" x1="29.9766" y1="21.743" x2="29.9766" y2="57.3211" gradientUnits="userSpaceOnUse">
<stop stop-color="#E73035"/>
<stop offset="1" stop-color="#FFCE31"/>
</linearGradient>
<linearGradient id="paint3_linear_293_10674" x1="37.9798" y1="35.8945" x2="37.9798" y2="52.2867" gradientUnits="userSpaceOnUse">
<stop stop-color="#E73035"/>
<stop offset="1" stop-color="#FFCE31"/>
</linearGradient>
<linearGradient id="paint4_linear_293_10674" x1="30.0335" y1="1.875" x2="30.0335" y2="9.08228" gradientUnits="userSpaceOnUse">
<stop stop-color="#E73035"/>
<stop offset="1" stop-color="#FFCE31"/>
</linearGradient>
</defs>
</svg>
