<svg width="47" height="60" viewBox="0 0 47 60" fill="none" xmlns="http://www.w3.org/2000/svg">
<path d="M2.82968 22.2386C1.38271 21.0083 0.472863 19.475 0.198621 17.5826C0.348621 17.5841 0.427409 17.7007 0.524379 17.7856C0.918318 18.1295 1.38574 18.2189 1.86377 18.0727C2.19105 17.9727 2.5062 17.7924 2.78877 17.5932C3.49408 17.097 3.99104 16.456 4.04408 15.5507C4.05014 15.3901 4.05998 15.2295 4.06074 15.0697C4.06226 14.4462 3.75923 14.0826 3.14786 13.997C2.96226 13.9712 2.76908 13.9992 2.57968 14.003C2.14483 14.006 1.76226 14.178 1.40544 14.4007C0.673621 14.8576 0.234227 15.5311 0.0107422 16.3545C0.0107422 15.9151 0.0107422 15.475 0.0107422 15.0356C0.122106 14.9727 0.0895301 14.8583 0.108469 14.7629C0.7365 11.6106 2.44483 9.35075 5.51377 8.20454C6.10014 7.9856 6.7312 7.95681 7.31453 7.7356C7.87211 7.7356 8.42892 7.7356 8.9865 7.7356C9.65165 7.93635 10.3486 7.99999 11.0054 8.24923C12.4357 8.7909 13.663 9.61969 14.582 10.8394C15.06 11.4735 15.5085 12.15 15.7486 12.9288C15.6001 12.922 15.5213 12.8083 15.4274 12.7189C14.8304 12.153 14.1494 12.0114 13.3804 12.3159C13.1956 12.1909 13.0676 12.0144 12.9282 11.8447C12.0706 10.8007 11.0426 10.028 9.66983 9.79544C9.01226 9.68408 8.38195 10.0629 8.22362 10.7023C8.17892 10.8841 8.18271 11.078 8.16453 11.2667C8.12135 11.2311 8.0562 11.203 8.03801 11.1576C7.6918 10.2598 7.07362 9.83938 6.09332 9.84317C4.93271 9.84772 4.18423 10.6818 4.13044 11.9015C4.07514 13.1704 5.23498 13.9795 6.11907 13.9818C7.25317 13.9841 8.03347 13.2295 8.22892 11.9371C8.56377 12.1917 8.58044 12.6227 8.79029 12.9507C9.64635 14.2909 10.7713 15.303 12.2517 15.906C12.2971 16.6379 12.1229 17.325 11.8001 17.9735C11.4426 18.6924 10.9494 19.2879 10.1865 19.6129C10.4418 18.6015 9.69862 18.0007 8.93195 18.2257C8.62892 18.3144 8.39559 18.3 8.10847 18.231C6.98953 17.9614 6.22741 18.5091 6.15771 19.6038C5.93195 19.5697 5.77362 19.403 5.57968 19.3053C4.90317 18.9651 4.21983 18.9424 3.57741 19.3341C2.96453 19.7068 2.58195 20.2447 2.54862 21.0136C2.53044 21.4621 2.77135 21.8235 2.82968 22.2386Z" fill="#7D8FAA"/>
<path d="M42.3615 10.8932C43.7524 11.9432 44.688 13.281 44.9789 15.0265C44.9948 15.1212 44.9493 15.2371 45.0668 15.2992C45.0668 15.8272 45.0668 16.3545 45.0668 16.8825C44.8865 17.153 44.8948 17.4795 44.8107 17.7772C44.2668 19.7182 43.0297 21.0295 41.1978 21.8144C40.8766 21.5613 41.0486 21.1682 40.9259 20.8591C40.9243 19.7235 40.5834 18.6621 40.2153 17.6068C41.2001 16.3235 41.2145 15.4242 40.2077 14.456C39.5713 13.8447 39.3448 13.1151 39.5872 12.3075C39.8334 11.4871 40.3698 10.9022 41.294 10.753C41.6312 10.6985 41.9259 10.8636 42.2456 10.8182L42.2478 10.8189C42.2857 10.8439 42.3236 10.8682 42.3615 10.8932Z" fill="#015CED"/>
<path d="M35.7366 46.4356C36.8434 47.4204 37.204 49.3772 36.5214 50.8401C35.9305 52.1068 35.0124 53.006 33.5934 53.3C33.5427 53.3106 33.498 53.3538 33.451 53.3818C32.9813 53.3818 32.5124 53.3818 32.0427 53.3818C31.5161 53.1598 30.9533 53.025 30.473 52.6909C30.0964 52.4288 29.829 52.078 29.5821 51.7045C29.5805 51.6166 29.5775 51.5295 29.579 51.4416C29.5919 50.7644 30.0169 50.3735 30.6927 50.3871C31.0487 50.3947 31.2821 50.6144 31.5336 50.8075C32.2321 51.3432 32.9828 51.3871 33.7389 50.9871C34.4199 50.6272 34.7768 50.0454 34.7783 49.2477C34.779 48.7932 34.6699 48.4007 34.4283 48.0129C33.9972 47.3204 34.2457 46.6325 34.9639 46.3803C35.2381 46.2833 35.4783 46.4288 35.7366 46.4356Z" fill="#BF74FE"/>
<path d="M27.8188 7.7356C28.3916 7.93863 28.659 8.35378 28.7029 8.94999C28.7348 9.38029 29.006 9.63181 29.4105 9.74317C29.537 9.77802 29.6688 9.79317 29.7969 9.8212C30.3734 9.94696 30.709 10.3167 30.7143 10.8288C30.7204 11.3841 30.4052 11.8189 29.8188 11.8985C29.0817 11.9985 28.709 12.3462 28.6279 13.1023C28.5704 13.6439 28.0999 13.9909 27.6332 13.9727C27.1317 13.9538 26.7257 13.6326 26.6651 13.0757C26.5825 12.3167 26.1704 11.9924 25.4544 11.8848C24.8825 11.7992 24.6014 11.422 24.5757 10.8523C24.5544 10.3818 24.8893 9.98105 25.4287 9.83484C26.3234 9.75075 26.5757 9.49847 26.6605 8.60378C26.6954 8.1462 27.0764 7.97423 27.3764 7.7356C27.5249 7.7356 27.6719 7.7356 27.8188 7.7356Z" fill="#5DBDFD"/>
<path d="M2.11626 35.4356C2.3799 34.8712 2.69505 34.6727 3.22763 34.7364C3.67535 34.7894 3.97157 35.1038 4.08217 35.6432C4.25642 36.4917 4.37763 36.6099 5.22232 36.7674C5.36475 36.794 5.50339 36.8409 5.64429 36.8781C6.27839 37.4652 6.29505 37.9424 5.75717 38.6076C5.53066 38.8871 5.19657 38.8023 4.93748 38.9455C4.44429 39.0031 4.2049 39.2894 4.1299 39.7735C4.00566 40.5758 3.6996 40.8947 3.10187 40.9068C2.60566 40.9167 2.24202 40.6394 2.11551 40.1515C2.08596 40.0387 2.05036 39.925 2.04354 39.8099C2.01399 39.3137 1.74202 38.9849 1.27157 38.9447C0.661719 38.8917 0.29884 38.5614 0.0117188 38.0803C0.0117188 37.9341 0.0117188 37.7871 0.0117188 37.6409C0.135204 37.1834 0.417022 36.8796 0.878385 36.7493C1.69884 36.772 1.99202 36.4614 2.11626 35.4356Z" fill="#5DBDFD"/>
<path d="M45.0669 42.2121C44.8108 42.7023 44.4146 42.9485 43.8555 43.0129C43.326 43.0735 43.126 43.3288 43.0298 43.8848C42.8745 44.7841 42.2692 45.222 41.5889 44.9273C41.1798 44.7507 41.0161 44.4068 40.9449 43.9977C40.8192 43.2765 40.6836 43.1386 39.9533 42.9833C39.6358 42.9159 39.3275 42.8424 39.1207 42.55C38.676 41.9204 38.9798 41.1682 39.7692 40.9644C40.6699 40.8886 40.8942 40.6515 41.0086 39.653C41.2093 39.1379 41.6116 38.8432 42.0533 38.8894C42.5411 38.9401 42.9063 39.2454 42.9661 39.7977C43.0464 40.5371 43.4321 40.8977 44.1449 40.9545C44.6608 40.9954 44.8752 41.3674 45.0654 41.7712C45.0669 41.9189 45.0669 42.0659 45.0669 42.2121Z" fill="#5DBDFD"/>
<path d="M4.04408 15.5515C3.9918 16.4568 3.49408 17.0969 2.78877 17.5939C2.5062 17.7931 2.19105 17.9734 1.86377 18.0734C1.38574 18.2197 0.918318 18.1303 0.524379 17.7863C0.427409 17.7015 0.347863 17.5848 0.198621 17.5833C0.106954 17.4189 0.148621 17.2068 0.0107422 17.0583C0.0107422 16.8234 0.0107422 16.5894 0.0107422 16.3545C0.234227 15.531 0.673621 14.8575 1.40544 14.4007C1.76226 14.178 2.14483 14.0068 2.57968 14.003C2.55392 14.1606 2.42135 14.2409 2.32892 14.3507C2.04862 14.681 1.96453 15.0719 2.17589 15.4378C2.37286 15.7787 2.67438 16.0098 3.13574 16.0144C3.54786 16.0181 3.71756 15.6522 4.04408 15.5515Z" fill="#5C7398"/>
<path d="M26.6628 8.60378C26.5772 9.49847 26.3249 9.75075 25.431 9.83484C24.6484 9.42423 24.4204 8.92726 24.709 8.31514C24.862 7.9909 25.1719 7.89469 25.4431 7.7356C25.531 7.7356 25.6188 7.7356 25.7067 7.7356C26.1787 7.85605 26.4575 8.18938 26.6628 8.60378Z" fill="#BAE3FE"/>
<path d="M2.11605 35.4356C1.9918 36.4614 1.69862 36.772 0.877409 36.747C0.438772 36.6076 0.165288 36.3038 0.0107422 35.8796C0.0107422 35.7621 0.0107422 35.6447 0.0107422 35.528C0.206197 35.1076 0.434227 34.7477 0.978924 34.728C1.40998 34.7129 1.70544 34.897 1.92211 35.2402C1.97514 35.3235 1.97817 35.4409 2.11605 35.4356Z" fill="#BAE3FE"/>
<path d="M26.6631 8.60378C26.4585 8.18938 26.1798 7.85605 25.707 7.7356C26.2646 7.7356 26.8214 7.7356 27.379 7.7356C27.079 7.97423 26.6979 8.1462 26.6631 8.60378Z" fill="#FEFEFE"/>
<path d="M0.0107422 35.8795C0.16453 36.303 0.438772 36.6068 0.877409 36.7469C0.416045 36.8772 0.134227 37.181 0.0107422 37.6386C0.0107422 37.0522 0.0107422 36.4659 0.0107422 35.8795Z" fill="#FEFEFE"/>
<path d="M4.93636 38.944C5.19545 38.8008 5.5303 38.8856 5.75606 38.6061C6.29469 37.9409 6.27727 37.4636 5.64318 36.8765C6.33257 35.3409 7.06439 33.8265 7.95985 32.3977C8.02878 32.2871 8.10985 32.1849 8.1856 32.0788C8.19394 33.1553 8.25227 34.2288 8.45682 35.2879C8.56363 35.8424 8.69394 36.3924 8.81363 36.9447C8.55909 37.5349 8.45 38.1667 8.28485 38.7826C7.3606 38.7296 7.11969 38.8455 6.91212 39.5485C6.40757 41.2546 6.00151 42.9788 6.24394 44.7955C6.36818 45.7258 6.59697 46.594 7.12348 47.3743C7.4303 47.8288 8.02879 47.994 8.46666 47.7493C8.95227 47.4773 9.11666 46.9114 8.87424 46.3818C8.72879 46.0644 8.54318 45.7697 8.44621 45.4243C8.07727 44.1076 8.23712 42.8083 8.525 41.5083C8.57121 41.5985 8.60909 41.694 8.66515 41.7773C9.36969 42.819 10.9205 43.2614 12.3417 42.8303C12.4856 42.8265 12.6295 42.8227 12.7727 42.8182C12.7409 42.8667 12.7136 42.919 12.6773 42.9637C12.372 43.3402 12.3159 43.8803 12.5485 44.222C12.8235 44.6265 13.3068 44.7909 13.7894 44.6447C15.8758 44.0091 17.8061 43.0417 19.6152 41.8371C21.2038 40.7788 22.7871 39.7121 24.1197 38.319C24.6432 37.772 25.2682 37.3235 25.8038 36.7864C27.4841 35.1023 29.0864 33.3576 30.4545 31.3917C32.0227 29.1379 33.4864 26.8523 34.2917 24.1962C34.6614 22.978 34.8348 21.7493 34.7697 20.4833C34.7401 19.9038 34.3205 19.5417 33.7409 19.5174C33.1182 19.4909 32.9326 19.9493 32.7015 20.3727C32.3303 18.9197 31.4235 18.228 29.9273 18.1803C28.8341 18.1455 27.8167 18.4523 26.7901 18.7477C26.6598 18.7364 26.5227 18.747 26.4 18.7099C24.9106 18.2515 23.3826 18.15 21.8371 18.1977C22.5705 17.5349 23.4636 17.1296 24.325 16.6788C26.6924 15.4379 29.1667 14.4977 31.8326 14.128C32.2659 14.0682 32.703 14.0318 33.1386 13.9849C33.7689 14.0076 34.3985 14.0303 35.0288 14.053C36.2795 14.3371 37.5008 14.697 38.5538 15.472C39.2114 16.1038 39.7924 16.7962 40.2167 17.6099C40.5848 18.6652 40.9258 19.7273 40.9273 20.8621C40.8727 20.797 40.8136 20.7356 40.7651 20.6667C40.5265 20.3258 40.1955 20.1758 39.7909 20.2379C39.3727 20.3023 39.0773 20.5318 38.9803 20.9659C38.9333 20.9371 38.8606 20.9205 38.8424 20.8803C38.6174 20.3644 38.2015 20.1932 37.6727 20.219C37.678 20.0333 37.8553 20.053 37.9568 19.9894C38.4045 19.7068 38.6 19.2743 38.4 18.7924C38.1394 18.1652 37.8636 17.5409 37.2659 17.1265C36.7886 16.7955 36.1288 16.7894 35.7894 17.1606C35.4667 17.5137 35.4303 18.3243 35.8212 18.6508C36.422 19.153 36.6432 20.047 37.5083 20.2644C36.8273 20.7493 36.7273 21.1167 37.0697 21.8705C36.9348 22.0803 36.8273 22.2993 36.7886 22.5515C36.6311 23.575 36.403 24.5856 36.0803 25.5682C35.3083 27.9182 34.0962 30.0576 32.753 32.1121C31.0371 34.7371 28.9144 37.0288 26.6606 39.2038C25.1848 40.628 23.5508 41.8493 21.8788 43.025C20.9977 42.9561 20.6455 43.1962 20.4856 43.9758C19.8644 44.2977 19.2242 44.5887 18.6258 44.9493C17.4061 45.6833 16.1106 46.2197 14.7492 46.6288C13.9364 46.8735 13.0924 46.9493 12.2811 47.175C11.7455 47.3243 11.4492 47.8303 11.5614 48.3114C11.678 48.8114 12.2015 49.2046 12.703 49.1402C14.5371 48.903 16.2864 48.3667 17.972 47.6174C18.8258 47.2379 19.6667 46.8303 20.5129 46.4349C20.7258 46.875 21.0591 47.1167 21.5621 47.1682C21.8871 47.2015 22.2303 47.2871 22.3705 47.6621C20.1356 48.9576 17.8174 50.0644 15.303 50.7053C13.1992 51.2417 11.078 51.5114 8.93182 50.925C6.1553 50.1667 4.58106 48.0606 4.22954 45.2174C3.96363 43.0614 4.34242 40.9932 4.93636 38.944ZM33.1848 16.0947C32.8742 16.0947 32.6371 16.0727 32.4061 16.1008C32.175 16.1288 31.947 16.1682 31.7129 16.1871C31.1439 16.2326 30.6932 16.7659 30.722 17.3205C30.7508 17.8667 31.2182 18.3015 31.7947 18.2871C32.3773 18.272 32.9621 18.2493 33.5417 18.1932C34.2576 18.1235 34.7652 17.2796 34.4833 16.675C34.2 16.0659 33.6735 16.0356 33.1848 16.0947Z" fill="#FEE71F"/>
<path d="M40.0784 26.4068C39.9041 27.1651 39.6064 27.881 39.2973 28.5886C38.6193 30.1409 37.8753 31.6613 36.9829 33.1053C36.9064 33.2288 36.8556 33.3674 36.7935 33.4992C36.5602 33.6939 36.4427 33.9719 36.2761 34.2151C35.9071 34.7401 35.5594 35.2825 35.1647 35.7879C34.0518 37.2113 32.9533 38.6447 31.7193 39.9727C30.7329 41.0348 29.6685 42.0068 28.6056 42.9863C27.7897 43.7386 26.8912 44.3878 26.0526 45.1113C25.0927 45.075 24.5132 44.6394 24.489 43.6219C24.4882 43.5932 24.4806 43.5644 24.4761 43.5356C24.6761 43.5712 24.8109 43.4356 24.9473 43.3356C26.164 42.4492 27.2927 41.4545 28.3935 40.4333C29.1632 39.7197 29.8617 38.9303 30.564 38.1447C32.0261 36.5091 33.423 34.8288 34.6268 32.9969C35.639 31.4568 36.523 29.8378 37.2632 28.15C37.7783 26.975 38.2602 25.7818 38.4799 24.5045C38.8465 24.675 38.8533 25.0303 38.9026 25.3538C39.017 26.1038 39.3246 26.3863 40.0784 26.4068Z" fill="#FEE71F"/>
<path d="M35.7367 46.4356C35.4791 46.4288 35.2382 46.2841 34.9639 46.3803C34.2465 46.6333 33.9973 47.3204 34.4283 48.0128C34.67 48.4015 34.7798 48.7939 34.7783 49.2477C34.7768 50.0447 34.42 50.6272 33.7389 50.9871C32.9829 51.3863 32.2313 51.3424 31.5336 50.8075C31.2821 50.6144 31.0488 50.3947 30.6927 50.3871C30.017 50.3735 29.592 50.7644 29.5791 51.4416C29.5776 51.5295 29.5813 51.6166 29.5821 51.7045C28.676 50.6318 28.5018 49.4 28.8503 48.0848C29.1503 46.9522 29.892 46.1772 30.8912 45.5666C31.9003 44.9507 32.9382 44.8757 33.992 45.2416C34.6548 45.4727 35.2806 45.8545 35.7367 46.4356Z" fill="#CE94FE"/>
<path d="M36.2769 34.2144C36.4428 33.9712 36.561 33.6932 36.7943 33.4985C36.7754 35.178 36.3314 36.7636 35.7011 38.3023C34.486 41.2674 32.4216 43.478 29.7072 45.1538C28.7004 45.7758 27.6405 46.2114 26.5367 46.5833C26.6276 46.2659 26.6299 45.9515 26.5117 45.6401C26.714 45.4757 26.9087 45.3007 27.1201 45.1485C28.2329 44.3462 29.3231 43.5091 30.311 42.5614C31.6988 41.2295 33.0776 39.8856 34.1807 38.2841C34.8754 37.275 35.6094 36.2917 36.242 35.2417C36.4329 34.9235 36.6216 34.5689 36.2769 34.2144Z" fill="#FEA101"/>
<path d="M26.511 45.6409C26.6291 45.9523 26.6276 46.2674 26.536 46.5841C26.2988 46.9273 25.9822 47.103 25.5572 47.1606C24.9041 47.2493 24.689 47.497 24.5746 48.1447C24.4504 48.853 24.1314 49.175 23.5534 49.175C22.9587 49.175 22.6413 48.8402 22.5276 48.1008C22.5034 47.944 22.4882 47.7818 22.3693 47.6576C22.2291 47.2826 21.886 47.197 21.561 47.1636C21.0579 47.1121 20.7246 46.8705 20.5117 46.4303C20.4882 45.6318 20.6723 45.3068 21.3057 45.0258C22.2041 45.0099 22.567 44.6356 22.5254 43.7697C22.8973 42.8152 23.9534 42.7318 24.4769 43.5326C24.4814 43.5614 24.4897 43.5902 24.4897 43.619C24.5147 44.6364 25.0935 45.072 26.0534 45.1083C26.2723 45.2303 26.3428 45.4773 26.511 45.6409Z" fill="#5DBDFD"/>
<path d="M40.0784 26.4068C39.3246 26.3864 39.0162 26.1046 38.9026 25.3523C38.8534 25.028 38.8465 24.6735 38.4799 24.503C38.264 24.3273 37.9973 24.3129 37.7397 24.2674C37.245 24.1803 36.9155 23.8273 36.8799 23.3523C36.8427 22.8584 37.1102 22.4902 37.6284 22.3197C38.1011 22.1644 38.6897 22.1879 38.8556 21.5477C38.9056 21.3553 38.9382 21.1576 38.9791 20.9629C39.0768 20.528 39.3715 20.2985 39.7897 20.2341C40.1943 20.172 40.5253 20.322 40.764 20.6629C40.8124 20.7318 40.8715 20.7932 40.9261 20.8584C41.0488 21.1682 40.8768 21.5606 41.1981 21.8137C41.3594 22.2129 41.7367 22.1932 42.0693 22.2614C42.4981 22.3485 42.8359 22.5508 42.9481 23.0031C43.0609 23.4599 42.9011 23.8568 42.5299 24.1137C42.3943 24.2076 42.2458 24.25 42.0837 24.2743C41.2776 24.3932 41.0829 24.5659 40.9556 25.4046C40.8738 25.9477 40.6162 26.2871 40.0784 26.4068Z" fill="#5DBDFD"/>
<path d="M41.0108 39.6538C40.8964 40.6522 40.6722 40.8894 39.7714 40.9651C39.0722 40.606 38.8048 40.1833 38.9532 39.6651C39.0828 39.2106 39.3995 38.9462 39.8532 38.8992C40.2745 38.856 40.6101 39.0492 40.8184 39.4303C40.8661 39.5197 40.9002 39.6189 41.0108 39.6538Z" fill="#BAE3FE"/>
<path d="M21.8372 18.1947C23.3826 18.1469 24.9107 18.2485 26.4001 18.7068C26.522 18.7447 26.6599 18.7333 26.7902 18.7447C27.2107 19.0379 27.7395 19.0773 28.1735 19.3394C27.3735 19.4257 26.9008 19.953 26.5008 20.5788C26.4046 20.5068 26.4137 20.4015 26.4122 20.3C26.3985 19.4757 25.969 18.8848 25.241 18.6098C24.4599 18.3144 23.6788 18.3666 23.0031 19C22.4751 19.4947 22.4016 20.1424 22.2788 20.7803C21.9107 22.6886 21.1955 24.456 20.1713 26.1045C19.7319 26.8121 19.1667 27.4212 18.6576 28.0742C18.4788 27.9326 18.4652 27.7204 18.4516 27.525C18.4182 27.0492 18.1849 26.7144 17.7841 26.4795C18.2038 25.8424 18.4031 25.1568 18.416 24.3803C18.4417 22.8469 17.1054 22.0394 15.822 22.2826C13.8826 22.65 12.1872 24.4576 12.3266 26.6295C12.4107 27.9363 13.8258 28.7341 14.9137 28.3901C15.0016 28.4068 15.1061 28.3879 15.1546 28.4954C14.8508 28.6333 14.5614 28.7773 14.4281 29.1242C14.1728 29.7886 14.5645 30.3606 15.4114 30.5386C15.2046 30.8629 14.7857 30.8735 14.5326 31.1295C14.0076 31.3682 13.4872 31.6166 12.9569 31.8439C12.0781 32.2197 11.1395 32.3659 10.2084 32.5401C8.74324 32.8136 8.05688 34.4621 8.89173 35.6947C9.29627 36.2916 10.1016 36.7348 11.3485 36.4689C13.1243 36.0901 14.8569 35.6098 16.4614 34.7371C16.5311 34.7182 16.6076 34.7113 16.6682 34.6772C18.116 33.8666 19.5091 32.9803 20.6925 31.7977C21.0682 31.4219 21.4061 31.0038 21.8425 30.6901C21.8091 30.8007 21.7773 30.9121 21.7425 31.0227C21.4576 31.931 21.8061 32.9 22.5902 33.4257C23.2955 33.8985 24.0122 33.8144 24.7417 33.5068C24.7402 33.6932 24.5895 33.7803 24.4819 33.8954C23.7622 34.6636 22.9485 35.325 22.1341 35.9879C20.622 37.2182 18.922 38.1401 17.2114 39.0477C16.569 39.3886 15.944 39.7356 15.4766 40.3303C15.0493 40.8735 14.8175 41.4886 14.622 42.131C14.5235 42.25 14.3788 42.2757 14.2425 42.3212C13.7531 42.4841 13.2652 42.6515 12.7766 42.8174C12.6326 42.8212 12.4887 42.825 12.3455 42.8288C11.1046 41.4894 10.0372 40.0371 9.36445 38.3204C9.18491 37.8613 9.06748 37.3765 8.81748 36.9454C8.69779 36.3932 8.56824 35.8432 8.46067 35.2886C8.25612 34.2295 8.19779 33.156 8.18945 32.0795C8.31597 30.8757 8.43794 29.6727 8.79703 28.5076C9.12051 27.4583 9.53945 26.4523 10.0804 25.4962C10.4175 24.9007 10.7432 24.2992 11.1622 23.7553C11.341 23.5439 11.5175 23.331 11.6985 23.1212C12.766 21.8826 14.0258 20.8765 15.4251 20.0386C17.4243 18.9485 19.5455 18.2765 21.8372 18.1947Z" fill="#FEA101"/>
<path d="M15.4227 20.0371C14.0235 20.875 12.7636 21.881 11.6962 23.1197C11.5151 23.3295 11.3386 23.5424 11.1598 23.7538C8.53103 24.6871 6.02876 24.4485 3.66891 22.9333C3.36209 22.7363 3.06739 22.5204 2.82952 22.2386C2.77118 21.8235 2.53027 21.4621 2.54997 21.0121C2.58406 20.2432 2.96588 19.7053 3.57876 19.3326C4.22118 18.9416 4.90452 18.9644 5.58103 19.3038C5.77497 19.4015 5.9333 19.5682 6.15906 19.6023C6.228 20.7727 6.86588 21.5697 7.88709 22.0318C9.25906 22.653 10.3341 21.9409 10.2136 20.5424C10.2 20.3856 10.1515 20.228 10.0969 20.0788C10.0303 19.8977 10.0098 19.7386 10.1871 19.6113C10.95 19.2863 11.4432 18.6901 11.8007 17.9719C12.1235 17.3235 12.2977 16.6363 12.2522 15.9045C12.3947 15.9318 12.5371 15.9583 12.6795 15.9856C13.8053 16.2 14.5219 15.4416 14.2863 14.3333C14.128 13.5879 13.7341 12.9644 13.3795 12.3159C14.1485 12.0113 14.8288 12.1523 15.4265 12.7189C15.5204 12.8083 15.5992 12.9227 15.7477 12.9288C16.6939 15.1068 16.5628 17.2757 15.6878 19.4363C15.6068 19.6394 15.5113 19.8371 15.4227 20.0371Z" fill="#5C7398"/>
<path d="M40.2152 17.6068C39.791 16.7932 39.2107 16.1015 38.5524 15.4689C38.9387 15.0515 39.066 14.4879 38.7607 13.9825C38.2796 13.1871 37.6243 12.5272 36.816 12.0621C36.3122 11.7719 35.563 11.9772 35.1721 12.4212C34.788 12.8568 34.7251 13.5666 35.0274 14.0507C34.3971 14.028 33.7675 14.0053 33.1372 13.9825C33.3955 13.1409 33.8887 12.4454 34.4622 11.7894C36.6236 9.31967 40.0607 9.38861 42.1122 10.7106C42.1599 10.7416 42.2016 10.7818 42.2455 10.8182C41.9251 10.8636 41.6304 10.6985 41.294 10.753C40.3698 10.9022 39.8334 11.4871 39.5872 12.3075C39.3448 13.1151 39.5713 13.8447 40.2077 14.456C41.2145 15.4235 41.2001 16.3227 40.2152 17.6068Z" fill="#0782FD"/>
<path d="M13.3804 12.3151C13.735 12.9636 14.1281 13.5879 14.2872 14.3326C14.5228 15.4409 13.8062 16.2 12.6804 15.9848C12.538 15.9576 12.3956 15.931 12.2531 15.9038C10.7728 15.3 9.64783 14.2879 8.79177 12.9485C8.58192 12.6197 8.56526 12.1894 8.23041 11.9348C8.20844 11.7113 8.18723 11.4886 8.16602 11.2651C8.1842 11.0765 8.17965 10.8826 8.22511 10.7007C8.38268 10.0613 9.01374 9.68256 9.67132 9.79392C11.044 10.0265 12.0721 10.7992 12.9297 11.8432C13.0683 12.0136 13.1963 12.1901 13.3804 12.3151Z" fill="#33517D"/>
<path d="M10.1882 19.6114C10.0102 19.7394 10.0314 19.8977 10.098 20.0788C10.1526 20.228 10.2011 20.3856 10.2147 20.5424C10.3352 21.9409 9.26016 22.653 7.88819 22.0318C6.86697 21.5697 6.2291 20.772 6.16016 19.6023C6.22985 18.5076 6.99273 17.9599 8.11091 18.2296C8.39728 18.2985 8.63137 18.3129 8.9344 18.2243C9.70107 17.9993 10.4435 18.6 10.1882 19.6114Z" fill="#33517D"/>
<path d="M8.16593 11.2659C8.18714 11.4894 8.20911 11.7121 8.23032 11.9356C8.03487 13.2288 7.25457 13.9825 6.12048 13.9803C5.23638 13.9788 4.07578 13.1697 4.13184 11.9C4.18563 10.6803 4.93411 9.84618 6.09472 9.84164C7.07502 9.83785 7.69396 10.2583 8.03941 11.156C8.05684 11.2022 8.12275 11.2295 8.16593 11.2659Z" fill="#AAB7C9"/>
<path d="M4.04399 15.5515C3.71672 15.6523 3.54702 16.0182 3.1349 16.0144C2.67354 16.0106 2.37202 15.7795 2.17505 15.4379C1.96369 15.072 2.04778 14.681 2.32808 14.3507C2.42127 14.2409 2.55384 14.1606 2.57884 14.003C2.76824 14 2.96142 13.9712 3.14702 13.997C3.75839 14.0818 4.06142 14.4462 4.0599 15.0697C4.0599 15.2303 4.05005 15.3909 4.04399 15.5515Z" fill="#33517D"/>
<path d="M12.7735 42.8159C13.2621 42.65 13.75 42.4826 14.2394 42.3197C14.3758 42.2742 14.5205 42.2485 14.619 42.1295C15.05 42.0295 15.4485 41.8386 15.8341 41.6379C17.5834 40.7273 19.2546 39.7098 20.7781 38.431C22.0076 37.3985 23.2538 36.3841 24.4046 35.2674C25.5849 34.1212 26.7023 32.9151 27.6962 31.5901C28.5629 30.4341 29.4515 29.2954 30.2129 28.0667C31.1387 26.5727 31.9356 25.0151 32.3917 23.3045C32.5379 22.9909 32.5735 22.6545 32.5902 22.3151C32.8205 21.678 32.7599 21.0242 32.7023 20.3704C32.9341 19.947 33.119 19.4886 33.7417 19.5151C34.322 19.5394 34.7409 19.9015 34.7705 20.481C34.8356 21.747 34.6621 22.9757 34.2924 24.1939C33.4871 26.85 32.0235 29.1356 30.4553 31.3894C29.0879 33.3553 27.4856 35.0992 25.8046 36.7841C25.269 37.3204 24.644 37.7697 24.1205 38.3167C22.7879 39.7098 21.2046 40.7773 19.6159 41.8348C17.8068 43.0394 15.8773 44.0068 13.7902 44.6424C13.3084 44.7894 12.825 44.6242 12.5493 44.2197C12.3167 43.878 12.3735 43.3379 12.6781 42.9614C12.7144 42.9167 12.7417 42.8644 12.7735 42.8159Z" fill="#FED600"/>
<path d="M37.6294 22.3204C37.1105 22.4909 36.8431 22.8591 36.8802 23.353C36.9158 23.828 37.2446 24.1803 37.7401 24.2682C37.9976 24.3136 38.2643 24.328 38.4802 24.5038C38.2605 25.781 37.7794 26.9742 37.2635 28.1492C36.5234 29.8379 35.6393 31.456 34.6272 32.9962C33.4234 34.828 32.0264 36.5083 30.5643 38.1439C29.862 38.9303 29.1635 39.7189 28.3938 40.4326C27.2931 41.4538 26.1643 42.4485 24.9476 43.3348C24.8113 43.4341 24.6764 43.5704 24.4764 43.5348C23.9529 42.7341 22.8976 42.8174 22.5249 43.7719C22.3946 43.4485 22.1726 43.2045 21.8779 43.0227C23.5499 41.847 25.184 40.6257 26.6597 39.2015C28.9135 37.0265 31.0363 34.7341 32.7522 32.1098C34.0954 30.0553 35.3075 27.9159 36.0794 25.5659C36.4022 24.5833 36.6302 23.5727 36.7878 22.5492C36.8264 22.297 36.934 22.078 37.0688 21.8682C37.2196 22.0621 37.5204 22.0727 37.6294 22.3204Z" fill="#FED600"/>
<path d="M21.3061 45.0265C20.6728 45.3076 20.4894 45.6326 20.5122 46.4311C19.6652 46.8265 18.825 47.2341 17.9713 47.6137C16.2857 48.3621 14.5364 48.8993 12.7023 49.1364C12.2016 49.2008 11.6781 48.8076 11.5607 48.3076C11.4485 47.8265 11.7447 47.3205 12.2804 47.1712C13.0917 46.9455 13.9357 46.8697 14.7485 46.625C16.1099 46.2159 17.4054 45.6796 18.6251 44.9455C19.2235 44.5856 19.8637 44.2947 20.4849 43.972C20.5076 44.5197 20.8326 44.8303 21.3061 45.0265Z" fill="#FED600"/>
<path d="M8.52501 41.5061C8.23713 42.8061 8.07728 44.1053 8.44622 45.422C8.54319 45.7674 8.7288 46.0621 8.87425 46.3796C9.11667 46.9091 8.95304 47.4758 8.46667 47.747C8.0288 47.9917 7.43107 47.8265 7.12349 47.372C6.59698 46.5924 6.36819 45.7235 6.24395 44.7932C6.00152 42.9765 6.40758 41.2523 6.91213 39.5462C7.1197 38.8432 7.36137 38.7273 8.28486 38.7803C8.92198 39.1962 9.00986 39.7682 8.78713 40.45C8.67577 40.7947 8.61137 41.1538 8.52501 41.5061Z" fill="#FED600"/>
<path d="M35.0283 14.05C34.726 13.5659 34.7889 12.8561 35.173 12.4205C35.5639 11.9765 36.3132 11.772 36.8169 12.0614C37.6253 12.5265 38.2806 13.1864 38.7616 13.9818C39.0669 14.4871 38.9397 15.0508 38.5533 15.4682C37.4995 14.6939 36.2791 14.3341 35.0283 14.05Z" fill="#5C7398"/>
<path d="M33.1852 16.0947C33.6738 16.0356 34.2003 16.0659 34.4844 16.6758C34.7662 17.2803 34.2587 18.1243 33.5428 18.194C32.9624 18.2508 32.3784 18.2735 31.7958 18.2879C31.22 18.3023 30.7518 17.8667 30.7231 17.3212C30.6935 16.7667 31.1443 16.2333 31.714 16.1879C31.9481 16.169 32.1761 16.1296 32.4071 16.1015C32.6374 16.0727 32.8746 16.0947 33.1852 16.0947Z" fill="#FED600"/>
<path d="M37.5082 20.2606C36.6438 20.0432 36.4219 19.1492 35.8211 18.647C35.4302 18.3197 35.4666 17.5091 35.7893 17.1568C36.1287 16.7856 36.7885 16.7924 37.2658 17.1227C37.8635 17.5371 38.1401 18.1621 38.3999 18.7886C38.5999 19.2704 38.4045 19.703 37.9567 19.9856C37.8552 20.05 37.6779 20.0295 37.6726 20.2151C37.6173 20.2303 37.5628 20.2454 37.5082 20.2606Z" fill="#FED600"/>
<path d="M37.5083 20.2606C37.5628 20.2454 37.6174 20.2303 37.6727 20.2151C38.2015 20.1901 38.6174 20.3606 38.8424 20.8765C38.8598 20.9174 38.9333 20.9341 38.9803 20.9621C38.9393 21.1576 38.9068 21.3545 38.8568 21.5477C38.6909 22.1879 38.103 22.1644 37.6295 22.3197C37.5212 22.0727 37.2204 22.0621 37.0697 21.8659C36.7265 21.1129 36.8272 20.7462 37.5083 20.2606Z" fill="#BAE3FE"/>
<path d="M21.3063 45.0265C20.8336 44.8303 20.5078 44.519 20.4858 43.9727C20.6464 43.1932 20.9987 42.9523 21.879 43.022C22.1737 43.2038 22.3949 43.4477 22.526 43.7712C22.5677 44.6371 22.2048 45.0106 21.3063 45.0265Z" fill="#BAE3FE"/>
<path d="M26.5105 45.6409C26.3423 45.4773 26.2727 45.2303 26.0537 45.1098C26.8916 44.3864 27.7908 43.7371 28.6067 42.9848C29.6689 42.0053 30.734 41.0333 31.7204 39.9712C32.9537 38.6432 34.053 37.2098 35.1658 35.7864C35.5605 35.281 35.9083 34.7386 36.2772 34.2136C36.6219 34.5682 36.4333 34.9227 36.2408 35.2424C35.6075 36.2924 34.8742 37.2757 34.1795 38.2848C33.0772 39.8856 31.6984 41.2295 30.3098 42.5621C29.3219 43.5098 28.2317 44.347 27.1189 45.1492C26.9075 45.3015 26.7128 45.4765 26.5105 45.6409Z" fill="#F78A00"/>
<path d="M28.1728 19.3401C29.1243 19.2575 29.8061 19.6788 30.288 20.4727C30.4016 20.8788 30.5455 21.2909 30.4395 21.7136C30.2569 22.4447 30.1804 23.1969 29.9592 23.9235C29.8296 24.3477 29.6471 24.7727 29.6599 25.2348C29.2918 26.1212 28.9478 27.0189 28.5493 27.8924C27.9539 29.1969 27.1766 30.3977 26.3592 31.5742C25.8766 32.2689 25.3948 32.9591 24.7387 33.5068C24.0092 33.8144 23.2925 33.8992 22.5872 33.4257C21.8039 32.9 21.4546 31.931 21.7395 31.0227C21.7743 30.9121 21.8061 30.8007 21.8395 30.6901C22.3168 30.0863 22.8183 29.5007 23.266 28.8757C24.2221 27.5432 24.9713 26.0977 25.516 24.5492C25.9705 23.2568 26.3046 21.9356 26.4993 20.5795C26.9001 19.9538 27.3728 19.4265 28.1728 19.3401Z" fill="#FED600"/>
<path d="M26.4999 20.5788C26.3052 21.9349 25.9703 23.2561 25.5166 24.5485C24.9719 26.0977 24.2226 27.5424 23.2666 28.875C22.8188 29.4993 22.3173 30.0856 21.84 30.6894C21.4037 31.003 21.0666 31.4212 20.69 31.797C19.5067 32.9796 18.1143 33.8659 16.6658 34.6765C16.6044 34.7106 16.5279 34.7167 16.459 34.7364C16.9529 34.0962 17.2143 33.3977 17.0067 32.5803C17.9067 32.7386 18.2757 32.475 18.4249 31.5652C18.5446 30.8371 18.7469 30.6379 19.4946 30.5159C20.0969 30.4174 20.4673 30.0417 20.4787 29.519C20.49 28.9909 20.0999 28.5886 19.4863 28.4856C19.1703 28.4326 18.8431 28.3924 18.656 28.075C19.165 27.422 19.7302 26.8121 20.1696 26.1053C21.1938 24.4568 21.909 22.6894 22.2772 20.7811C22.3999 20.144 22.4734 19.4955 23.0014 19.0008C23.6772 18.3674 24.4582 18.3159 25.2393 18.6106C25.9666 18.8856 26.3969 19.4765 26.4105 20.3008C26.4128 20.4023 26.4044 20.5068 26.4999 20.5788Z" fill="#FEBC00"/>
<path d="M24.7394 33.506C25.3954 32.9583 25.8765 32.2682 26.3598 31.5735C27.1773 30.397 27.9545 29.1962 28.55 27.8917C28.9485 27.0189 29.2924 26.1212 29.6606 25.2341C29.8227 25.1826 29.8492 25.0235 29.9235 24.903C30.4939 23.9818 31.3394 23.4841 32.3909 23.3038C31.9348 25.0144 31.1379 26.5712 30.2121 28.0659C29.4507 29.2947 28.5629 30.4333 27.6954 31.5894C26.7015 32.9144 25.5841 34.1204 24.4038 35.2667C23.253 36.3841 22.0068 37.3977 20.7773 38.4303C19.2545 39.7091 17.5826 40.7265 15.8333 41.6371C15.4477 41.8379 15.0492 42.0288 14.6182 42.1288C14.8136 41.4863 15.0454 40.8712 15.4727 40.328C15.9401 39.7341 16.5651 39.3863 17.2076 39.0454C18.9182 38.1379 20.6189 37.2159 22.1303 35.9856C22.9447 35.3227 23.7583 34.6613 24.478 33.8932C24.5863 33.7803 24.7379 33.6924 24.7394 33.506Z" fill="#F78A00"/>
<path d="M17.007 32.5796C17.2146 33.397 16.9532 34.0962 16.4593 34.7356C14.8547 35.6083 13.1221 36.0886 11.3464 36.4674C10.0994 36.7333 9.29411 36.2902 8.88956 35.6932C8.05471 34.4614 8.74108 32.8121 10.2062 32.5386C11.1373 32.3652 12.0767 32.2189 12.9547 31.8424C13.485 31.6152 14.0055 31.3674 14.5305 31.128C15.1903 31.0849 15.8267 31.1386 16.3714 31.5712C16.5835 31.9083 16.7956 32.2439 17.007 32.5796Z" fill="#F78A00"/>
<path d="M14.913 28.3901C13.8259 28.7341 12.41 27.9356 12.3259 26.6295C12.1865 24.4575 13.8827 22.65 15.8214 22.2825C17.1047 22.0394 18.4411 22.8469 18.4153 24.3803C18.4024 25.1568 18.2024 25.8424 17.7835 26.4795C17.1327 26.3492 16.6744 26.6037 16.3789 27.1833C16.3206 27.0871 16.2653 26.9886 16.2024 26.8947C15.8918 26.4356 15.2751 26.3113 14.8161 26.6128C14.3304 26.9318 14.2047 27.5545 14.5448 28.0272C14.6441 28.1644 14.7888 28.2697 14.913 28.3901Z" fill="#FEBC00"/>
<path d="M16.3789 27.1825C16.6736 26.603 17.1319 26.3485 17.7835 26.4788C18.1842 26.7136 18.4183 27.0485 18.4509 27.5242C18.4645 27.7197 18.4782 27.9325 18.6569 28.0735C18.8441 28.3909 19.1706 28.431 19.4872 28.4841C20.1009 28.5871 20.491 28.9886 20.4797 29.5174C20.4683 30.0409 20.0978 30.4159 19.4956 30.5144C18.7478 30.6371 18.5456 30.8356 18.4259 31.5636C18.2766 32.4727 17.9077 32.7371 17.0077 32.5788C16.7963 32.2432 16.5842 31.9075 16.3728 31.5719C16.3456 30.9045 16.1282 30.6712 15.4107 30.5379C14.5638 30.3598 14.1728 29.7871 14.4274 29.1235C14.5607 28.7765 14.8501 28.6325 15.1539 28.4947C15.9956 28.4606 16.4744 28.1182 16.3789 27.1825Z" fill="#5DBDFD"/>
<path d="M16.3791 27.1826C16.4746 28.1182 15.9958 28.4599 15.1541 28.4955C15.1056 28.3879 15.0011 28.4076 14.9132 28.3902C14.7897 28.2697 14.645 28.1644 14.5458 28.0265C14.2056 27.5538 14.3314 26.9318 14.817 26.6121C15.2761 26.3106 15.8927 26.4349 16.2033 26.8939C16.2655 26.9879 16.3208 27.0864 16.3791 27.1826Z" fill="#BAE3FE"/>
<path d="M15.41 30.5386C16.1282 30.672 16.3449 30.9053 16.3722 31.5727C15.8275 31.1394 15.1903 31.0864 14.5312 31.1295C14.7843 30.8735 15.2032 30.8629 15.41 30.5386Z" fill="#FEBC00"/>
<path d="M32.3911 23.3045C31.3396 23.4848 30.4941 23.9818 29.9237 24.9038C29.8487 25.0242 29.8222 25.1833 29.6608 25.2348C29.6479 24.7727 29.8305 24.3477 29.96 23.9235C30.182 23.197 30.2578 22.4454 30.4403 21.7136C30.5464 21.2901 30.4025 20.8788 30.2888 20.4727C31.1419 20.9795 31.8994 21.6061 32.5896 22.3151C32.5722 22.6545 32.5373 22.9909 32.3911 23.3045Z" fill="#FEA101"/>
</svg>
