<svg width="60" height="60" viewBox="0 0 60 60" fill="none" xmlns="http://www.w3.org/2000/svg">
<g clip-path="url(#clip0_294_10806)">
<path d="M37.5 16.875H36.5625V14.0625C36.5625 13.8139 36.4637 13.5754 36.2879 13.3996C36.1121 13.2238 35.8736 13.125 35.625 13.125C35.3764 13.125 35.1379 13.2238 34.9621 13.3996C34.7863 13.5754 34.6875 13.8139 34.6875 14.0625V16.875H33.75C33.2527 16.875 32.7758 17.0725 32.4242 17.4242C32.0725 17.7758 31.875 18.2527 31.875 18.75C32.8471 19.8212 34.1848 20.4901 35.625 20.625C37.0652 20.4901 38.4029 19.8212 39.375 18.75C39.375 18.2527 39.1775 17.7758 38.8258 17.4242C38.4742 17.0725 37.9973 16.875 37.5 16.875Z" fill="#B7DBF9"/>
<path d="M39.375 18.75V23.4375C39.375 23.9348 39.1775 24.4117 38.8258 24.7633C38.4742 25.115 37.9973 25.3125 37.5 25.3125H33.75C33.2527 25.3125 32.7758 25.115 32.4242 24.7633C32.0725 24.4117 31.875 23.9348 31.875 23.4375V18.75H39.375Z" fill="#EE7231"/>
<path d="M49.6875 8.4375C49.4389 8.4375 49.2004 8.53627 49.0246 8.71209C48.8488 8.8879 48.75 9.12636 48.75 9.375V11.25C48.75 11.9959 48.4537 12.7113 47.9262 13.2387C47.3988 13.7662 46.6834 14.0625 45.9375 14.0625C45.1916 14.0625 44.4762 13.7662 43.9488 13.2387C43.4213 12.7113 43.125 11.9959 43.125 11.25V3.75C43.125 3.50136 43.0262 3.2629 42.8504 3.08709C42.6746 2.91127 42.4361 2.8125 42.1875 2.8125C41.9389 2.8125 41.7004 2.91127 41.5246 3.08709C41.3488 3.2629 41.25 3.50136 41.25 3.75V11.25C41.25 11.9959 40.9537 12.7113 40.4262 13.2387C39.8988 13.7662 39.1834 14.0625 38.4375 14.0625C37.6916 14.0625 36.9762 13.7662 36.4488 13.2387C35.9213 12.7113 35.625 11.9959 35.625 11.25V9.375C35.625 9.12636 35.5262 8.8879 35.3504 8.71209C35.1746 8.53627 34.9361 8.4375 34.6875 8.4375C34.4389 8.4375 34.2004 8.53627 34.0246 8.71209C33.8488 8.8879 33.75 9.12636 33.75 9.375V11.25C33.75 12.4932 34.2439 13.6855 35.1229 14.5646C36.002 15.4436 37.1943 15.9375 38.4375 15.9375C39.4526 15.943 40.4412 15.6135 41.25 15V58.125H37.5C37.2514 58.125 37.0129 58.2238 36.8371 58.3996C36.6613 58.5754 36.5625 58.8139 36.5625 59.0625C36.5625 59.3111 36.6613 59.5496 36.8371 59.7254C37.0129 59.9012 37.2514 60 37.5 60H46.875C47.1236 60 47.3621 59.9012 47.5379 59.7254C47.7137 59.5496 47.8125 59.3111 47.8125 59.0625C47.8125 58.8139 47.7137 58.5754 47.5379 58.3996C47.3621 58.2238 47.1236 58.125 46.875 58.125H43.125V15C43.9338 15.6135 44.9224 15.943 45.9375 15.9375C47.1807 15.9375 48.373 15.4436 49.2521 14.5646C50.1311 13.6855 50.625 12.4932 50.625 11.25V9.375C50.625 9.12636 50.5262 8.8879 50.3504 8.71209C50.1746 8.53627 49.9361 8.4375 49.6875 8.4375Z" fill="#88B8F9"/>
<path d="M57.1875 27.1875V44.0625C57.1875 44.5598 56.99 45.0367 56.6383 45.3883C56.2867 45.74 55.8098 45.9375 55.3125 45.9375H4.6875C4.19022 45.9375 3.71331 45.74 3.36167 45.3883C3.01004 45.0367 2.8125 44.5598 2.8125 44.0625V23.4375C2.8125 22.9402 3.01004 22.4633 3.36167 22.1117C3.71331 21.76 4.19022 21.5625 4.6875 21.5625C5.18478 21.5625 5.66169 21.76 6.01333 22.1117C6.36496 22.4633 6.5625 22.9402 6.5625 23.4375V41.25H53.4375V27.1875C53.4375 26.6902 53.635 26.2133 53.9867 25.8617C54.3383 25.51 54.8152 25.3125 55.3125 25.3125C55.8098 25.3125 56.2867 25.51 56.6383 25.8617C56.99 26.2133 57.1875 26.6902 57.1875 27.1875Z" fill="#2F79F0"/>
<path d="M36.5625 35.625H6.5625V41.25H36.5625V35.625Z" fill="#F8CF6D"/>
<path d="M51.5625 45.9375H8.4375V49.6875H51.5625V45.9375Z" fill="#0C3798"/>
<path d="M51.5625 45.9375V51.5625H8.4375V45.9375H6.5625V55.3125H8.4375V53.4375H51.5625V55.3125H53.4375V45.9375H51.5625Z" fill="#88B8F9"/>
<path d="M23.4375 28.125H29.0625V35.625H23.4375C22.4429 35.625 21.4891 35.2299 20.7859 34.5266C20.0826 33.8234 19.6875 32.8696 19.6875 31.875C19.6875 30.8804 20.0826 29.9266 20.7859 29.2234C21.4891 28.5201 22.4429 28.125 23.4375 28.125Z" fill="#88B8F9"/>
<path d="M7.5 60C9.0533 60 10.3125 58.7408 10.3125 57.1875C10.3125 55.6342 9.0533 54.375 7.5 54.375C5.9467 54.375 4.6875 55.6342 4.6875 57.1875C4.6875 58.7408 5.9467 60 7.5 60Z" fill="#0C3798"/>
<path d="M52.5 60C54.0533 60 55.3125 58.7408 55.3125 57.1875C55.3125 55.6342 54.0533 54.375 52.5 54.375C50.9467 54.375 49.6875 55.6342 49.6875 57.1875C49.6875 58.7408 50.9467 60 52.5 60Z" fill="#0C3798"/>
<path d="M28.125 27.1875H52.5C52.7486 27.1875 52.9871 27.2863 53.1629 27.4621C53.3387 27.6379 53.4375 27.8764 53.4375 28.125V49.6875C53.4375 50.1848 53.24 50.6617 52.8883 51.0133C52.5367 51.365 52.0598 51.5625 51.5625 51.5625H29.0625C28.5652 51.5625 28.0883 51.365 27.7367 51.0133C27.385 50.6617 27.1875 50.1848 27.1875 49.6875V28.125C27.1875 27.8764 27.2863 27.6379 27.4621 27.4621C27.6379 27.2863 27.8764 27.1875 28.125 27.1875Z" fill="#B7DBF9"/>
<path d="M8.4375 31.875H15.9375C16.4348 31.875 16.9117 32.0725 17.2633 32.4242C17.615 32.7758 17.8125 33.2527 17.8125 33.75V35.625H6.5625V33.75C6.5625 33.2527 6.76004 32.7758 7.11167 32.4242C7.46331 32.0725 7.94022 31.875 8.4375 31.875Z" fill="#B7DBF9"/>
<path d="M13.125 31.875C15.7138 31.875 17.8125 29.7763 17.8125 27.1875C17.8125 24.5987 15.7138 22.5 13.125 22.5C10.5362 22.5 8.4375 24.5987 8.4375 27.1875C8.4375 29.7763 10.5362 31.875 13.125 31.875Z" fill="#88B8F9"/>
<path d="M39.375 30H24.375C23.3395 30 22.5 30.8395 22.5 31.875C22.5 32.9105 23.3395 33.75 24.375 33.75H39.375C40.4105 33.75 41.25 32.9105 41.25 31.875C41.25 30.8395 40.4105 30 39.375 30Z" fill="#88B8F9"/>
<path d="M10.3125 4.6875H9.24375C9.15091 4.35873 9.01539 4.04354 8.84063 3.75L9.6 2.99063C9.77778 2.81533 9.87864 2.5766 9.8804 2.32694C9.88216 2.07728 9.78467 1.83715 9.60938 1.65937C9.52258 1.57135 9.4193 1.50128 9.30542 1.45317C9.19155 1.40506 9.06931 1.37985 8.94569 1.37898C8.69603 1.37722 8.4559 1.47471 8.27812 1.65L7.5 2.40937C7.20646 2.23461 6.89127 2.09909 6.5625 2.00625V0.9375C6.5625 0.68886 6.46373 0.450403 6.28791 0.274587C6.1121 0.0987721 5.87364 0 5.625 0C5.37636 0 5.1379 0.0987721 4.96209 0.274587C4.78627 0.450403 4.6875 0.68886 4.6875 0.9375V2.00625C4.35873 2.09909 4.04354 2.23461 3.75 2.40937L2.99063 1.65C2.81533 1.47222 2.5766 1.37136 2.32694 1.3696C2.07728 1.36784 1.83715 1.46533 1.65937 1.64062C1.4816 1.81592 1.38073 2.05465 1.37898 2.30431C1.37722 2.55397 1.47471 2.7941 1.65 2.97188L2.40937 3.75C2.23461 4.04354 2.09909 4.35873 2.00625 4.6875H0.9375C0.68886 4.6875 0.450403 4.78627 0.274587 4.96209C0.0987721 5.1379 0 5.37636 0 5.625C0 5.87364 0.0987721 6.1121 0.274587 6.28791C0.450403 6.46373 0.68886 6.5625 0.9375 6.5625H2.00625C2.09909 6.89127 2.23461 7.20646 2.40937 7.5L1.65 8.25938C1.49641 8.43872 1.41616 8.66942 1.42527 8.90536C1.43438 9.14131 1.5322 9.36513 1.69916 9.53209C1.86612 9.69905 2.08994 9.79687 2.32589 9.80598C2.56183 9.81509 2.79253 9.73484 2.97188 9.58125L3.75 8.84063C4.04354 9.01539 4.35873 9.15091 4.6875 9.24375V10.3125C4.6875 10.5611 4.78627 10.7996 4.96209 10.9754C5.1379 11.1512 5.37636 11.25 5.625 11.25C5.87364 11.25 6.1121 11.1512 6.28791 10.9754C6.46373 10.7996 6.5625 10.5611 6.5625 10.3125V9.24375C6.89127 9.15091 7.20646 9.01539 7.5 8.84063L8.25938 9.6C8.43872 9.75359 8.66942 9.83384 8.90536 9.82473C9.14131 9.81562 9.36513 9.7178 9.53209 9.55084C9.69905 9.38388 9.79687 9.16006 9.80598 8.92411C9.81509 8.68817 9.73484 8.45747 9.58125 8.27812L8.84063 7.5C9.01539 7.20646 9.15091 6.89127 9.24375 6.5625H10.3125C10.5611 6.5625 10.7996 6.46373 10.9754 6.28791C11.1512 6.1121 11.25 5.87364 11.25 5.625C11.25 5.37636 11.1512 5.1379 10.9754 4.96209C10.7996 4.78627 10.5611 4.6875 10.3125 4.6875Z" fill="#F8CF6D"/>
<path d="M27.1875 15C27.1875 14.7514 27.0887 14.5129 26.9129 14.3371C26.7371 14.1613 26.4986 14.0625 26.25 14.0625H25.6969L26.0906 13.6781C26.2672 13.5016 26.3663 13.2622 26.3663 13.0125C26.3663 12.7628 26.2672 12.5234 26.0906 12.3469C25.9141 12.1703 25.6747 12.0712 25.425 12.0712C25.1753 12.0712 24.9359 12.1703 24.7594 12.3469L24.375 12.7406V12.1875C24.375 11.9389 24.2762 11.7004 24.1004 11.5246C23.9246 11.3488 23.6861 11.25 23.4375 11.25C23.1889 11.25 22.9504 11.3488 22.7746 11.5246C22.5988 11.7004 22.5 11.9389 22.5 12.1875V12.7406L22.1156 12.3469C21.9391 12.1703 21.6997 12.0712 21.45 12.0712C21.2003 12.0712 20.9609 12.1703 20.7844 12.3469C20.6078 12.5234 20.5087 12.7628 20.5087 13.0125C20.5087 13.2622 20.6078 13.5016 20.7844 13.6781L21.1781 14.0625H20.625C20.3764 14.0625 20.1379 14.1613 19.9621 14.3371C19.7863 14.5129 19.6875 14.7514 19.6875 15C19.6875 15.2486 19.7863 15.4871 19.9621 15.6629C20.1379 15.8387 20.3764 15.9375 20.625 15.9375H21.1781L20.7844 16.3219C20.6078 16.4984 20.5087 16.7378 20.5087 16.9875C20.5087 17.2372 20.6078 17.4766 20.7844 17.6531C20.9609 17.8297 21.2003 17.9288 21.45 17.9288C21.6997 17.9288 21.9391 17.8297 22.1156 17.6531L22.5 17.2594V17.8125C22.5 18.0611 22.5988 18.2996 22.7746 18.4754C22.9504 18.6512 23.1889 18.75 23.4375 18.75C23.6861 18.75 23.9246 18.6512 24.1004 18.4754C24.2762 18.2996 24.375 18.0611 24.375 17.8125V17.2594L24.7594 17.6531C24.9359 17.8297 25.1753 17.9288 25.425 17.9288C25.6747 17.9288 25.9141 17.8297 26.0906 17.6531C26.2672 17.4766 26.3663 17.2372 26.3663 16.9875C26.3663 16.7378 26.2672 16.4984 26.0906 16.3219L25.6969 15.9375H26.25C26.4986 15.9375 26.7371 15.8387 26.9129 15.6629C27.0887 15.4871 27.1875 15.2486 27.1875 15Z" fill="#F8CF6D"/>
<path d="M60 3.75C60 3.50136 59.9012 3.2629 59.7254 3.08709C59.5496 2.91127 59.3111 2.8125 59.0625 2.8125H58.5094L58.9031 2.42812C58.9905 2.34071 59.0599 2.23694 59.1072 2.12273C59.1545 2.00853 59.1788 1.88612 59.1788 1.7625C59.1788 1.63888 59.1545 1.51647 59.1072 1.40227C59.0599 1.28806 58.9905 1.18429 58.9031 1.09687C58.8157 1.00946 58.7119 0.940126 58.5977 0.892819C58.4835 0.845512 58.3611 0.821164 58.2375 0.821164C58.1139 0.821164 57.9915 0.845512 57.8773 0.892819C57.7631 0.940126 57.6593 1.00946 57.5719 1.09687L57.1875 1.49063V0.9375C57.1875 0.68886 57.0887 0.450403 56.9129 0.274587C56.7371 0.0987721 56.4986 0 56.25 0C56.0014 0 55.7629 0.0987721 55.5871 0.274587C55.4113 0.450403 55.3125 0.68886 55.3125 0.9375V1.49063L54.9281 1.09687C54.8407 1.00946 54.7369 0.940126 54.6227 0.892819C54.5085 0.845512 54.3861 0.821164 54.2625 0.821164C54.1389 0.821164 54.0165 0.845512 53.9023 0.892819C53.7881 0.940126 53.6843 1.00946 53.5969 1.09687C53.5095 1.18429 53.4401 1.28806 53.3928 1.40227C53.3455 1.51647 53.3212 1.63888 53.3212 1.7625C53.3212 1.88612 53.3455 2.00853 53.3928 2.12273C53.4401 2.23694 53.5095 2.34071 53.5969 2.42812L53.9906 2.8125H53.4375C53.1889 2.8125 52.9504 2.91127 52.7746 3.08709C52.5988 3.2629 52.5 3.50136 52.5 3.75C52.5 3.99864 52.5988 4.2371 52.7746 4.41291C52.9504 4.58873 53.1889 4.6875 53.4375 4.6875H53.9906L53.5969 5.07187C53.5095 5.15929 53.4401 5.26306 53.3928 5.37727C53.3455 5.49147 53.3212 5.61388 53.3212 5.7375C53.3212 5.86112 53.3455 5.98353 53.3928 6.09773C53.4401 6.21194 53.5095 6.31571 53.5969 6.40312C53.6843 6.49054 53.7881 6.55987 53.9023 6.60718C54.0165 6.65449 54.1389 6.67884 54.2625 6.67884C54.3861 6.67884 54.5085 6.65449 54.6227 6.60718C54.7369 6.55987 54.8407 6.49054 54.9281 6.40312L55.3125 6.00937V6.5625C55.3125 6.81114 55.4113 7.0496 55.5871 7.22541C55.7629 7.40123 56.0014 7.5 56.25 7.5C56.4986 7.5 56.7371 7.40123 56.9129 7.22541C57.0887 7.0496 57.1875 6.81114 57.1875 6.5625V6.00937L57.5719 6.40312C57.6593 6.49054 57.7631 6.55987 57.8773 6.60718C57.9915 6.65449 58.1139 6.67884 58.2375 6.67884C58.3611 6.67884 58.4835 6.65449 58.5977 6.60718C58.7119 6.55987 58.8157 6.49054 58.9031 6.40312C58.9905 6.31571 59.0599 6.21194 59.1072 6.09773C59.1545 5.98353 59.1788 5.86112 59.1788 5.7375C59.1788 5.61388 59.1545 5.49147 59.1072 5.37727C59.0599 5.26306 58.9905 5.15929 58.9031 5.07187L58.5094 4.6875H59.0625C59.3111 4.6875 59.5496 4.58873 59.7254 4.41291C59.9012 4.2371 60 3.99864 60 3.75Z" fill="#F8CF6D"/>
</g>
<defs>
<clipPath id="clip0_294_10806">
<rect width="60" height="60" fill="white"/>
</clipPath>
</defs>
</svg>
