<svg width="60" height="60" viewBox="0 0 60 60" fill="none" xmlns="http://www.w3.org/2000/svg">
<g clip-path="url(#clip0_295_11023)">
<path d="M16.335 7.67365C16.7559 7.30326 16.8717 6.67595 16.5807 6.17185C16.2897 5.66774 15.6884 5.45453 15.1573 5.63377C15.0469 5.08415 14.5616 4.67004 13.9796 4.67004C13.3974 4.67004 12.9121 5.08415 12.8019 5.63377C12.2707 5.45453 11.6694 5.66761 11.3784 6.17185C11.0874 6.67608 11.2033 7.30326 11.6242 7.67365C11.2033 8.04403 11.0874 8.67134 11.3784 9.17545C11.6694 9.67955 12.2707 9.89276 12.8019 9.71353C12.9122 10.2631 13.3975 10.6772 13.9796 10.6772C14.5617 10.6772 15.047 10.2631 15.1573 9.71353C15.6884 9.89276 16.2897 9.67968 16.5807 9.17545C16.8719 8.67121 16.7559 8.04403 16.335 7.67365Z" fill="#FFCF00"/>
<path d="M12.4914 6.48528C12.4155 6.18374 12.3617 5.88182 12.3178 5.57605C11.9392 5.60797 11.5818 5.81772 11.3774 6.17182C11.0864 6.67593 11.2023 7.30324 11.6232 7.67362C11.2023 8.04401 11.0864 8.67132 11.3774 9.17542C11.6684 9.67953 12.2697 9.89273 12.8009 9.7135C12.9113 10.2631 13.3965 10.6772 13.9786 10.6772C14.5608 10.6772 15.046 10.2631 15.1563 9.7135C15.4628 9.81696 15.7923 9.78902 16.0724 9.65055C15.6679 9.35017 15.2273 9.15824 14.8119 9.01119C13.6651 8.60529 12.7882 7.66529 12.4914 6.48528Z" fill="#FEAC01"/>
<path d="M13.9785 8.71611C14.5542 8.71611 15.0209 8.24939 15.0209 7.67367C15.0209 7.09794 14.5542 6.63123 13.9785 6.63123C13.4028 6.63123 12.936 7.09794 12.936 7.67367C12.936 8.24939 13.4028 8.71611 13.9785 8.71611Z" fill="#F5F5F5"/>
<path d="M13.9788 8.71606C14.0381 8.71606 14.0956 8.71003 14.1522 8.70055C13.6633 8.40965 13.2502 8.01131 12.9465 7.53644C12.9406 7.58144 12.9365 7.62708 12.9365 7.67375C12.9364 8.24926 13.4031 8.71606 13.9788 8.71606Z" fill="#E3D7FE"/>
<path d="M21.8516 5.40863C22.2725 5.03825 22.3884 4.41094 22.0973 3.90683C21.8063 3.40273 21.205 3.18952 20.6739 3.36875C20.5635 2.81913 20.0782 2.40503 19.4962 2.40503C18.914 2.40503 18.4287 2.81913 18.3185 3.36875C17.7873 3.18952 17.186 3.4026 16.895 3.90683C16.604 4.41094 16.7199 5.03825 17.1408 5.40863C16.7199 5.77902 16.604 6.40633 16.895 6.91043C17.186 7.41454 17.7873 7.62774 18.3185 7.44851C18.4288 7.99813 18.9141 8.41223 19.4962 8.41223C20.0783 8.41223 20.5636 7.99813 20.6739 7.44851C21.205 7.62774 21.8063 7.41467 22.0973 6.91043C22.3884 6.4062 22.2725 5.77902 21.8516 5.40863Z" fill="#FFCF00"/>
<path d="M18.008 4.22027C17.9321 3.91873 17.8783 3.61681 17.8344 3.31104C17.4558 3.34296 17.0984 3.5527 16.894 3.90681C16.603 4.41091 16.7189 5.03822 17.1398 5.40861C16.7189 5.77899 16.603 6.4063 16.894 6.91041C17.185 7.41451 17.7863 7.62772 18.3175 7.44849C18.4279 7.99811 18.9131 8.41221 19.4952 8.41221C20.0774 8.41221 20.5626 7.99811 20.6729 7.44849C20.9794 7.55195 21.3089 7.524 21.589 7.38554C21.1845 7.08515 20.7439 6.89323 20.3285 6.74618C19.1816 6.34028 18.3047 5.4004 18.008 4.22027Z" fill="#FEAC01"/>
<path d="M19.4951 6.45109C20.0708 6.45109 20.5375 5.98438 20.5375 5.40865C20.5375 4.83293 20.0708 4.36621 19.4951 4.36621C18.9194 4.36621 18.4526 4.83293 18.4526 5.40865C18.4526 5.98438 18.9194 6.45109 19.4951 6.45109Z" fill="#F5F5F5"/>
<path d="M19.4949 6.45104C19.5542 6.45104 19.6117 6.44502 19.6683 6.43553C19.1794 6.14463 18.7664 5.7463 18.4626 5.27142C18.4567 5.31642 18.4526 5.36206 18.4526 5.40873C18.4525 5.98438 18.9193 6.45104 19.4949 6.45104Z" fill="#E3D7FE"/>
<path d="M27.3516 3.21082C27.7725 2.84043 27.8884 2.21312 27.5973 1.70902C27.3063 1.20491 26.705 0.991705 26.1739 1.17094C26.0635 0.621319 25.5782 0.207214 24.9962 0.207214C24.4141 0.207214 23.9287 0.621319 23.8185 1.17094C23.2873 0.991705 22.686 1.20478 22.395 1.70902C22.104 2.21312 22.2199 2.84043 22.6408 3.21082C22.2199 3.5812 22.104 4.20851 22.395 4.71262C22.686 5.21672 23.2873 5.42993 23.8185 5.2507C23.9288 5.80031 24.4141 6.21442 24.9962 6.21442C25.5782 6.21442 26.0636 5.80031 26.1739 5.2507C26.705 5.42993 27.3063 5.21685 27.5973 4.71262C27.8884 4.20851 27.7723 3.5812 27.3516 3.21082Z" fill="#FFCF00"/>
<path d="M23.5075 2.02258C23.4316 1.72104 23.3778 1.41911 23.3339 1.11334C22.9553 1.14527 22.5979 1.35501 22.3935 1.70911C22.1025 2.21322 22.2184 2.84053 22.6393 3.21091C22.2184 3.5813 22.1025 4.20861 22.3935 4.71272C22.6846 5.21682 23.2858 5.43003 23.817 5.2508C23.9274 5.80041 24.4126 6.21452 24.9947 6.21452C25.5767 6.21452 26.0621 5.80041 26.1724 5.2508C26.4789 5.35426 26.8084 5.32631 27.0885 5.18785C26.6841 4.88746 26.2434 4.69554 25.828 4.54848C24.6812 4.14246 23.8043 3.20258 23.5075 2.02258Z" fill="#FEAC01"/>
<path d="M24.9946 4.25328C25.5703 4.25328 26.037 3.78656 26.037 3.21084C26.037 2.63511 25.5703 2.1684 24.9946 2.1684C24.4189 2.1684 23.9521 2.63511 23.9521 3.21084C23.9521 3.78656 24.4189 4.25328 24.9946 4.25328Z" fill="#F5F5F5"/>
<path d="M24.9949 4.25323C25.0542 4.25323 25.1117 4.2472 25.1683 4.23772C24.6794 3.94682 24.2664 3.54848 23.9626 3.07361C23.9567 3.11861 23.9526 3.16425 23.9526 3.21092C23.9525 3.78656 24.4192 4.25323 24.9949 4.25323Z" fill="#E3D7FE"/>
<path d="M6.0978 5.40863C5.6769 5.03825 5.561 4.41094 5.85203 3.90683C6.14305 3.40273 6.74434 3.18952 7.27549 3.36875C7.38588 2.81913 7.87114 2.40503 8.45319 2.40503C9.03537 2.40503 9.52063 2.81913 9.63089 3.36875C10.162 3.18952 10.7633 3.4026 11.0544 3.90683C11.3454 4.41106 11.2295 5.03825 10.8086 5.40863C11.2295 5.77902 11.3454 6.40633 11.0544 6.91043C10.7633 7.41454 10.162 7.62774 9.63089 7.44851C9.5205 7.99813 9.03525 8.41223 8.45319 8.41223C7.87101 8.41223 7.38575 7.99813 7.27549 7.44851C6.74434 7.62774 6.14305 7.41467 5.85203 6.91043C5.561 6.40633 5.67703 5.77902 6.0978 5.40863Z" fill="#FFCF00"/>
<path d="M6.96601 4.2199C6.89011 3.91836 6.83626 3.61644 6.79242 3.31067C6.41382 3.34259 6.05639 3.55234 5.85203 3.90644C5.561 4.41055 5.6769 5.03786 6.0978 5.40824C5.6769 5.77863 5.561 6.40594 5.85203 6.91004C6.14305 7.41415 6.74434 7.62735 7.27549 7.44812C7.38588 7.99774 7.87114 8.41184 8.45319 8.41184C9.03525 8.41184 9.52063 7.99774 9.63089 7.44812C9.93743 7.55158 10.2669 7.52363 10.547 7.38517C10.1426 7.08479 9.70192 6.89286 9.28653 6.74581C8.13973 6.33991 7.2628 5.39991 6.96601 4.2199Z" fill="#FEAC01"/>
<path d="M8.45308 6.45109C9.02881 6.45109 9.49553 5.98438 9.49553 5.40865C9.49553 4.83293 9.02881 4.36621 8.45308 4.36621C7.87736 4.36621 7.41064 4.83293 7.41064 5.40865C7.41064 5.98438 7.87736 6.45109 8.45308 6.45109Z" fill="#F5F5F5"/>
<path d="M8.45344 6.45068C8.51268 6.45068 8.57024 6.44465 8.62678 6.43517C8.13793 6.14427 7.72485 5.74593 7.42113 5.27106C7.41524 5.31606 7.41113 5.3617 7.41113 5.40837C7.411 5.98388 7.87767 6.45068 8.45344 6.45068Z" fill="#E3D7FE"/>
<path d="M0.598341 3.21082C0.177442 2.84043 0.0614163 2.21312 0.352571 1.70902C0.643726 1.20491 1.24488 0.991705 1.77604 1.17094C1.88642 0.621319 2.37168 0.207214 2.95374 0.207214C3.53579 0.207214 4.02118 0.621319 4.13143 1.17094C4.66259 0.991705 5.26387 1.20478 5.5549 1.70902C5.84593 2.21312 5.73003 2.84043 5.30913 3.21082C5.73003 3.5812 5.84593 4.20851 5.5549 4.71262C5.26387 5.21672 4.66259 5.42993 4.13143 5.2507C4.02105 5.80031 3.53579 6.21442 2.95374 6.21442C2.37168 6.21442 1.8863 5.80031 1.77604 5.2507C1.24488 5.43006 0.643598 5.21685 0.352571 4.71275C0.0615445 4.20864 0.177442 3.5812 0.598341 3.21082Z" fill="#FFCF00"/>
<path d="M1.46649 2.02258C1.3906 1.72104 1.33675 1.41911 1.2929 1.11334C0.914184 1.14527 0.556875 1.35501 0.352515 1.70899C0.0614882 2.21309 0.177386 2.8404 0.598285 3.21079C0.177386 3.58117 0.0614882 4.20849 0.352515 4.71259C0.643542 5.2167 1.24483 5.4299 1.77598 5.25067C1.88637 5.80029 2.37163 6.21439 2.95368 6.21439C3.53573 6.21439 4.02112 5.80029 4.13138 5.25067C4.43792 5.35413 4.7674 5.32618 5.04753 5.18772C4.64304 4.88733 4.2024 4.69541 3.78702 4.54836C2.64009 4.14246 1.76316 3.20258 1.46649 2.02258Z" fill="#FEAC01"/>
<path d="M2.95357 4.25322C3.5293 4.25322 3.99601 3.7865 3.99601 3.21078C3.99601 2.63505 3.5293 2.16833 2.95357 2.16833C2.37785 2.16833 1.91113 2.63505 1.91113 3.21078C1.91113 3.7865 2.37785 4.25322 2.95357 4.25322Z" fill="#F5F5F5"/>
<path d="M2.95393 4.25323C3.01316 4.25323 3.07073 4.2472 3.12727 4.23772C2.63842 3.94682 2.22534 3.54848 1.92162 3.07361C1.91572 3.11861 1.91162 3.16425 1.91162 3.21092C1.91149 3.78656 2.37816 4.25323 2.95393 4.25323Z" fill="#E3D7FE"/>
<path d="M27.7627 1.61285C27.4662 1.09913 26.8778 0.834768 26.3071 0.938231C26.1116 0.392971 25.5883 0.0148926 24.995 0.0148926C24.4018 0.0148926 23.8786 0.392971 23.6831 0.938231C23.1131 0.834897 22.5237 1.09913 22.2274 1.61298C21.9308 2.1267 21.9965 2.76901 22.3709 3.21093C22.2664 3.3344 22.1868 3.47376 22.1315 3.62132C21.8118 3.23401 21.3027 3.04645 20.8078 3.13619C20.6123 2.59093 20.0891 2.21285 19.4958 2.21285C18.9025 2.21285 18.3793 2.59093 18.1837 3.13619C17.6141 3.03298 17.0246 3.29696 16.728 3.81081C16.4314 4.32453 16.4972 4.96684 16.8715 5.40877C16.7525 5.54928 16.665 5.71018 16.61 5.88069C16.2898 5.49736 15.7834 5.3121 15.2911 5.40107C15.0955 4.85581 14.5723 4.47774 13.9791 4.47774C13.3859 4.47774 12.8626 4.85581 12.667 5.40107C12.1711 5.31159 11.661 5.49979 11.3412 5.88851C11.2865 5.71518 11.1983 5.55146 11.0774 5.40877C11.4519 4.96671 11.5176 4.3244 11.221 3.81081C10.9244 3.29696 10.3349 3.03286 9.76532 3.13619C9.56994 2.59093 9.0466 2.21285 8.45339 2.21285C7.86006 2.21285 7.33685 2.59093 7.14134 3.13619C6.64621 3.04657 6.13736 3.23414 5.81761 3.62145C5.76236 3.47388 5.68287 3.33452 5.57825 3.21106C5.95274 2.76901 6.01851 2.12683 5.72184 1.61311C5.4253 1.09939 4.83671 0.835025 4.2662 0.938487C4.07068 0.393228 3.54748 0.015149 2.95414 0.015149C2.36093 0.015149 1.83772 0.393228 1.64221 0.938487C1.07169 0.834769 0.482461 1.09913 0.18605 1.61285C-0.110618 2.12657 -0.0448487 2.76888 0.329512 3.21081C-0.0448487 3.65286 -0.110746 4.29504 0.18605 4.80876C0.48259 5.32261 1.07182 5.58633 1.6417 5.48338C1.83708 6.02864 2.36042 6.40672 2.95363 6.40672C3.54696 6.40672 4.07017 6.02864 4.26568 5.48338C4.76043 5.57274 5.26966 5.38543 5.58941 4.99812C5.64466 5.14569 5.72428 5.28505 5.82877 5.40851C5.45428 5.85056 5.38851 6.49275 5.68518 7.00647C5.98172 7.52019 6.56993 7.78429 7.14083 7.68108C7.33634 8.22634 7.85955 8.60442 8.45288 8.60442C9.04609 8.60442 9.5693 8.22634 9.76481 7.68108C10.2606 7.77083 10.7708 7.58237 11.0906 7.19352C11.1453 7.36698 11.2335 7.5307 11.3544 7.67339C10.9801 8.11532 10.9142 8.75763 11.2108 9.27135C11.5075 9.78507 12.096 10.0492 12.6665 9.94597C12.8621 10.4911 13.3853 10.8693 13.9785 10.8693C14.5718 10.8693 15.095 10.4912 15.2906 9.94597C15.8604 10.0496 16.4497 9.78507 16.7463 9.27135C17.0428 8.7575 16.977 8.11532 16.6027 7.67339C16.7218 7.53275 16.8093 7.37185 16.8642 7.20134C17.1842 7.58467 17.6906 7.77006 18.1829 7.68108C18.3786 8.22622 18.9018 8.60442 19.495 8.60442C20.0883 8.60442 20.6115 8.22634 20.807 7.68108C21.3768 7.78416 21.9661 7.52019 22.2627 7.00634C22.5592 6.49262 22.4936 5.85043 22.1191 5.40838C22.2237 5.28492 22.3032 5.14556 22.3585 4.99799C22.6781 5.38518 23.1874 5.57248 23.6822 5.48313C23.8777 6.02838 24.4009 6.40646 24.9941 6.40646C25.5874 6.40646 26.1107 6.02838 26.3062 5.48313C26.8758 5.58607 27.4653 5.32236 27.7618 4.80851C28.0584 4.29479 27.9927 3.6526 27.6182 3.21055C27.9935 2.76875 28.0593 2.12657 27.7627 1.61285ZM4.19299 5.06851C4.08684 5.03005 3.96273 5.1021 3.94299 5.21287C3.84889 5.68184 3.43286 6.02223 2.95375 6.02223C2.47478 6.02223 2.05888 5.68184 1.96465 5.21287C1.94503 5.10197 1.82029 5.03005 1.71465 5.06851C1.26093 5.22159 0.758617 5.03133 0.519128 4.61658C0.27964 4.20171 0.366435 3.67119 0.725411 3.35529C0.811566 3.28286 0.811566 3.13901 0.725411 3.06657C0.366307 2.75068 0.279512 2.22016 0.519128 1.80529C0.758617 1.39054 1.26131 1.20016 1.71465 1.35323C1.82054 1.39157 1.94503 1.31977 1.96465 1.20887C2.05875 0.740024 2.47478 0.399638 2.95375 0.399638C3.43286 0.399638 3.84876 0.740024 3.94299 1.20887C3.96261 1.31977 4.08722 1.39182 4.19299 1.35323C4.64581 1.20028 5.14889 1.39041 5.38851 1.80529C5.628 2.22016 5.5412 2.75055 5.18223 3.06657C5.09607 3.13901 5.09607 3.28286 5.18223 3.35529C5.54133 3.67132 5.62813 4.20184 5.38851 4.61658C5.14902 5.03133 4.64658 5.22171 4.19299 5.06851ZM10.6815 5.553C11.0406 5.86902 11.1274 6.39941 10.8878 6.81429C10.6483 7.22903 10.1456 7.41929 9.69225 7.26634C9.58622 7.22775 9.46199 7.29993 9.44225 7.4107C9.34814 7.87955 8.93212 8.21993 8.45314 8.21993C7.97403 8.21993 7.55814 7.87955 7.4639 7.4107C7.44429 7.2998 7.31954 7.22788 7.2139 7.26634C6.76082 7.41916 6.25787 7.22916 6.01838 6.81429C5.7789 6.39941 5.86569 5.86902 6.22467 5.553C6.31082 5.48056 6.31082 5.33671 6.22467 5.26428C5.86556 4.94825 5.77877 4.41774 6.01838 4.00299C6.25787 3.58812 6.76057 3.39811 7.2139 3.55106C7.3198 3.5894 7.44429 3.5176 7.4639 3.4067C7.55801 2.93773 7.97403 2.59734 8.45314 2.59734C8.93212 2.59734 9.34802 2.93773 9.44225 3.4067C9.46186 3.51747 9.58648 3.58965 9.69225 3.55106C10.1453 3.39786 10.6481 3.58812 10.8878 4.00299C11.1273 4.41774 11.0405 4.94825 10.6815 5.26428C10.5953 5.33671 10.5953 5.48069 10.6815 5.553ZM16.2074 7.81801C16.5664 8.13391 16.6532 8.66455 16.4137 9.0793C16.1742 9.49417 15.6712 9.68404 15.2182 9.53122C15.1121 9.49276 14.9879 9.56481 14.9682 9.67558C14.8741 10.1446 14.458 10.4849 13.9789 10.4849C13.4998 10.4849 13.0839 10.1446 12.9897 9.67558C12.9701 9.56481 12.8453 9.49276 12.7397 9.53122C12.2871 9.68443 11.7838 9.4943 11.5442 9.0793C11.3048 8.66442 11.3916 8.13391 11.7506 7.81801C11.8367 7.74557 11.8367 7.60173 11.7506 7.52929C11.3915 7.21339 11.3047 6.68287 11.5442 6.268C11.7837 5.85313 12.2864 5.66287 12.7397 5.81608C12.8456 5.85441 12.9701 5.78261 12.9897 5.67172C13.0838 5.20274 13.4998 4.86235 13.9789 4.86235C14.458 4.86235 14.8739 5.20274 14.9682 5.67172C14.9878 5.78249 15.1124 5.85467 15.2182 5.81608C15.6715 5.663 16.1741 5.85326 16.4137 6.268C16.653 6.68287 16.5663 7.21339 16.2074 7.52929C16.1213 7.6016 16.1213 7.74557 16.2074 7.81801ZM21.724 5.553C22.0831 5.86902 22.1699 6.39941 21.9303 6.81429C21.6908 7.22903 21.1882 7.41929 20.7347 7.26634C20.6287 7.22775 20.5045 7.29993 20.4847 7.4107C20.3906 7.87955 19.9746 8.21993 19.4955 8.21993C19.0165 8.21993 18.6005 7.87955 18.5063 7.4107C18.4866 7.29993 18.3619 7.22788 18.2563 7.26634C17.8031 7.41942 17.3002 7.22916 17.0609 6.81429C16.8214 6.39941 16.9082 5.8689 17.2672 5.553C17.3086 5.51646 17.3324 5.46389 17.3324 5.40864C17.3324 5.35338 17.3086 5.30082 17.2672 5.26428C16.9081 4.94825 16.8213 4.41774 17.0609 4.00299C17.3004 3.58812 17.8031 3.39811 18.2563 3.55106C18.3623 3.58927 18.4866 3.5176 18.5063 3.4067C18.6004 2.93773 19.0164 2.59734 19.4955 2.59734C19.9746 2.59734 20.3905 2.93773 20.4847 3.4067C20.5043 3.51747 20.629 3.58965 20.7347 3.55106C21.1879 3.39786 21.6906 3.58812 21.9303 4.00299C22.1697 4.41774 22.0829 4.94825 21.724 5.26428C21.6378 5.33671 21.6378 5.48069 21.724 5.553ZM27.2234 3.35517C27.5825 3.67119 27.6693 4.20171 27.4296 4.61645C27.1901 5.03133 26.6875 5.22159 26.2341 5.06838C26.1282 5.02992 26.0039 5.10197 25.9841 5.21274C25.89 5.68172 25.474 6.0221 24.9949 6.0221C24.5159 6.0221 24.1 5.68172 24.0058 5.21274C23.9862 5.10184 23.8614 5.02992 23.7558 5.06838C23.303 5.22133 22.7997 5.03146 22.5603 4.61645C22.3208 4.20158 22.4076 3.67107 22.7665 3.35517C22.8527 3.28273 22.8527 3.13888 22.7665 3.06645C22.4074 2.75055 22.3206 2.22003 22.5603 1.80516C22.7999 1.39028 23.3024 1.20041 23.7558 1.3531C23.8617 1.39144 23.9862 1.31964 24.0058 1.20874C24.0999 0.739896 24.5159 0.39951 24.9949 0.39951C25.474 0.39951 25.8899 0.739896 25.9841 1.20874C26.0037 1.31964 26.1285 1.39169 26.2341 1.3531C26.6868 1.20015 27.19 1.39028 27.4296 1.80516C27.6691 2.22003 27.5823 2.75042 27.2234 3.06645C27.1372 3.13888 27.1372 3.28273 27.2234 3.35517Z" fill="black"/>
<path d="M48.3867 7.67365C48.8076 7.30326 48.9235 6.67595 48.6325 6.17185C48.3415 5.66774 47.7402 5.45453 47.209 5.63377C47.0986 5.08415 46.6134 4.67004 46.0313 4.67004C45.4493 4.67004 44.9639 5.08415 44.8536 5.63377C44.3225 5.45453 43.7212 5.66761 43.4302 6.17185C43.1391 6.67608 43.255 7.30326 43.6759 7.67365C43.255 8.04403 43.1391 8.67134 43.4302 9.17545C43.7212 9.67955 44.3225 9.89276 44.8536 9.71353C44.964 10.2631 45.4493 10.6772 46.0313 10.6772C46.6134 10.6772 47.0988 10.2631 47.209 9.71353C47.7402 9.89276 48.3415 9.67968 48.6325 9.17545C48.9235 8.67121 48.8075 8.04403 48.3867 7.67365Z" fill="#FFCF00"/>
<path d="M44.5427 6.48528C44.4668 6.18374 44.4129 5.88182 44.3691 5.57605C43.9905 5.60797 43.633 5.81772 43.4287 6.17182C43.1377 6.67593 43.2536 7.30324 43.6745 7.67362C43.2536 8.04401 43.1377 8.67132 43.4287 9.17543C43.7197 9.67953 44.321 9.89274 44.8522 9.7135C44.9625 10.2631 45.4478 10.6772 46.0299 10.6772C46.612 10.6772 47.0973 10.2631 47.2075 9.7135C47.5141 9.81697 47.8436 9.78902 48.1237 9.65056C47.7192 9.35017 47.2786 9.15825 46.8632 9.01119C45.7164 8.60529 44.8395 7.66529 44.5427 6.48528Z" fill="#FEAC01"/>
<path d="M46.0297 8.71611C46.6055 8.71611 47.0722 8.24939 47.0722 7.67367C47.0722 7.09794 46.6055 6.63123 46.0297 6.63123C45.454 6.63123 44.9873 7.09794 44.9873 7.67367C44.9873 8.24939 45.454 8.71611 46.0297 8.71611Z" fill="#F5F5F5"/>
<path d="M46.0301 8.71606C46.0893 8.71606 46.1469 8.71003 46.2034 8.70055C45.7146 8.40965 45.3015 8.01131 44.9978 7.53644C44.9919 7.58144 44.9878 7.62708 44.9878 7.67375C44.9877 8.24926 45.4543 8.71606 46.0301 8.71606Z" fill="#E3D7FE"/>
<path d="M53.9028 5.40863C54.3237 5.03825 54.4396 4.41094 54.1486 3.90683C53.8576 3.40273 53.2563 3.18952 52.7251 3.36875C52.6147 2.81913 52.1295 2.40503 51.5474 2.40503C50.9652 2.40503 50.48 2.81913 50.3697 3.36875C49.8386 3.18952 49.2373 3.4026 48.9463 3.90683C48.6552 4.41106 48.7711 5.03825 49.192 5.40863C48.7711 5.77902 48.6552 6.40633 48.9463 6.91043C49.2373 7.41454 49.8386 7.62774 50.3697 7.44851C50.4801 7.99813 50.9654 8.41223 51.5474 8.41223C52.1296 8.41223 52.6149 7.99813 52.7251 7.44851C53.2563 7.62774 53.8576 7.41467 54.1486 6.91043C54.4396 6.40633 54.3237 5.77902 53.9028 5.40863Z" fill="#FFCF00"/>
<path d="M50.0593 4.22027C49.9834 3.91873 49.9295 3.61681 49.8857 3.31104C49.5071 3.34296 49.1496 3.5527 48.9453 3.90681C48.6543 4.41091 48.7702 5.03822 49.1911 5.40861C48.7702 5.77899 48.6543 6.4063 48.9453 6.91041C49.2363 7.41451 49.8376 7.62772 50.3688 7.44849C50.4791 7.99811 50.9644 8.41221 51.5465 8.41221C52.1286 8.41221 52.6139 7.99811 52.7242 7.44849C53.0307 7.55195 53.3602 7.524 53.6403 7.38554C53.2358 7.08515 52.7952 6.89323 52.3798 6.74618C51.2329 6.34028 50.3559 5.4004 50.0593 4.22027Z" fill="#FEAC01"/>
<path d="M51.5463 6.45109C52.1221 6.45109 52.5888 5.98438 52.5888 5.40865C52.5888 4.83293 52.1221 4.36621 51.5463 4.36621C50.9706 4.36621 50.5039 4.83293 50.5039 5.40865C50.5039 5.98438 50.9706 6.45109 51.5463 6.45109Z" fill="#F5F5F5"/>
<path d="M51.5462 6.45104C51.6055 6.45104 51.663 6.44502 51.7196 6.43553C51.2307 6.14463 50.8176 5.7463 50.5139 5.27142C50.508 5.31642 50.5039 5.36206 50.5039 5.40873C50.5038 5.98438 50.9706 6.45104 51.5462 6.45104Z" fill="#E3D7FE"/>
<path d="M59.4028 3.21082C59.8237 2.84043 59.9396 2.21312 59.6486 1.70902C59.3576 1.20491 58.7563 0.991705 58.2251 1.17094C58.1147 0.621319 57.6295 0.207214 57.0474 0.207214C56.4654 0.207214 55.98 0.621319 55.8697 1.17094C55.3386 0.991705 54.7373 1.20478 54.4463 1.70902C54.1552 2.21325 54.2711 2.84043 54.692 3.21082C54.2711 3.5812 54.1552 4.20851 54.4463 4.71262C54.7373 5.21672 55.3386 5.42993 55.8697 5.2507C55.9801 5.80031 56.4654 6.21442 57.0474 6.21442C57.6295 6.21442 58.1149 5.80031 58.2251 5.2507C58.7563 5.42993 59.3576 5.21685 59.6486 4.71262C59.9396 4.20838 59.8236 3.5812 59.4028 3.21082Z" fill="#FFCF00"/>
<path d="M55.5588 2.02258C55.4829 1.72104 55.429 1.41911 55.3852 1.11334C55.0066 1.14527 54.6492 1.35501 54.4448 1.70911C54.1538 2.21322 54.2697 2.84053 54.6906 3.21092C54.2697 3.5813 54.1538 4.20861 54.4448 4.71272C54.7358 5.21682 55.3371 5.43003 55.8683 5.2508C55.9787 5.80041 56.4639 6.21452 57.046 6.21452C57.628 6.21452 58.1134 5.80041 58.2237 5.2508C58.5302 5.35426 58.8597 5.32631 59.1398 5.18785C58.7353 4.88746 58.2947 4.69554 57.8793 4.54849C56.7325 4.14246 55.8556 3.20258 55.5588 2.02258Z" fill="#FEAC01"/>
<path d="M57.0459 4.25328C57.6216 4.25328 58.0883 3.78656 58.0883 3.21084C58.0883 2.63511 57.6216 2.1684 57.0459 2.1684C56.4701 2.1684 56.0034 2.63511 56.0034 3.21084C56.0034 3.78656 56.4701 4.25328 57.0459 4.25328Z" fill="#F5F5F5"/>
<path d="M57.0462 4.25323C57.1055 4.25323 57.163 4.2472 57.2196 4.23772C56.7307 3.94682 56.3176 3.54848 56.0139 3.07361C56.008 3.11861 56.0039 3.16425 56.0039 3.21092C56.0038 3.78656 56.4704 4.25323 57.0462 4.25323Z" fill="#E3D7FE"/>
<path d="M38.1491 5.40863C37.7282 5.03825 37.6123 4.41094 37.9033 3.90683C38.1943 3.40273 38.7956 3.18952 39.3268 3.36875C39.4371 2.81913 39.9224 2.40503 40.5045 2.40503C41.0866 2.40503 41.5719 2.81913 41.6822 3.36875C42.2133 3.18952 42.8146 3.4026 43.1056 3.90683C43.3967 4.41094 43.2808 5.03825 42.8599 5.40863C43.2808 5.77902 43.3967 6.40633 43.1056 6.91043C42.8146 7.41454 42.2133 7.62774 41.6822 7.44851C41.5718 7.99813 41.0865 8.41223 40.5045 8.41223C39.9223 8.41223 39.437 7.99813 39.3268 7.44851C38.7956 7.62774 38.1943 7.41467 37.9033 6.91043C37.6123 6.4062 37.7283 5.77902 38.1491 5.40863Z" fill="#FFCF00"/>
<path d="M39.0173 4.2199C38.9414 3.91836 38.8875 3.61644 38.8437 3.31067C38.4651 3.34259 38.1077 3.55234 37.9033 3.90644C37.6123 4.41055 37.7282 5.03786 38.1491 5.40824C37.7282 5.77863 37.6123 6.40594 37.9033 6.91004C38.1943 7.41415 38.7956 7.62735 39.3268 7.44812C39.4371 7.99774 39.9224 8.41184 40.5045 8.41184C41.0866 8.41184 41.5719 7.99774 41.6822 7.44812C41.9887 7.55158 42.3182 7.52363 42.5983 7.38517C42.1938 7.08479 41.7532 6.89286 41.3378 6.74581C40.191 6.33991 39.3141 5.39991 39.0173 4.2199Z" fill="#FEAC01"/>
<path d="M40.5044 6.45109C41.0801 6.45109 41.5468 5.98438 41.5468 5.40865C41.5468 4.83293 41.0801 4.36621 40.5044 4.36621C39.9286 4.36621 39.4619 4.83293 39.4619 5.40865C39.4619 5.98438 39.9286 6.45109 40.5044 6.45109Z" fill="#F5F5F5"/>
<path d="M40.5047 6.45068C40.5639 6.45068 40.6215 6.44465 40.6781 6.43517C40.1892 6.14427 39.7761 5.74593 39.4724 5.27106C39.4665 5.31606 39.4624 5.3617 39.4624 5.40837C39.4623 5.98388 39.9289 6.45068 40.5047 6.45068Z" fill="#E3D7FE"/>
<path d="M32.6496 3.21082C32.2287 2.84043 32.1128 2.21312 32.4038 1.70902C32.6948 1.20491 33.2961 0.991705 33.8273 1.17094C33.9376 0.621319 34.4229 0.207214 35.0049 0.207214C35.5871 0.207214 36.0724 0.621319 36.1826 1.17094C36.7138 0.991705 37.3151 1.20478 37.6061 1.70902C37.8971 2.21325 37.7812 2.84043 37.3603 3.21082C37.7812 3.5812 37.8971 4.20851 37.6061 4.71262C37.3151 5.21672 36.7138 5.42993 36.1826 5.2507C36.0723 5.80031 35.587 6.21442 35.0049 6.21442C34.4228 6.21442 33.9375 5.80031 33.8273 5.2507C33.2961 5.42993 32.6948 5.21685 32.4038 4.71262C32.1128 4.20838 32.2287 3.5812 32.6496 3.21082Z" fill="#FFCF00"/>
<path d="M33.5178 2.02258C33.4419 1.72104 33.388 1.41911 33.3442 1.11334C32.9656 1.14527 32.6081 1.35501 32.4038 1.70911C32.1128 2.21322 32.2287 2.84053 32.6496 3.21091C32.2287 3.5813 32.1128 4.20861 32.4038 4.71272C32.6948 5.21682 33.2961 5.43003 33.8273 5.2508C33.9376 5.80041 34.4229 6.21452 35.0049 6.21452C35.5871 6.21452 36.0724 5.80041 36.1826 5.2508C36.4892 5.35426 36.8187 5.32631 37.0988 5.18785C36.6943 4.88746 36.2537 4.69554 35.8383 4.54848C34.6914 4.14246 33.8144 3.20258 33.5178 2.02258Z" fill="#FEAC01"/>
<path d="M35.0048 4.25322C35.5806 4.25322 36.0473 3.7865 36.0473 3.21078C36.0473 2.63505 35.5806 2.16833 35.0048 2.16833C34.4291 2.16833 33.9624 2.63505 33.9624 3.21078C33.9624 3.7865 34.4291 4.25322 35.0048 4.25322Z" fill="#F5F5F5"/>
<path d="M35.0052 4.25323C35.0644 4.25323 35.122 4.2472 35.1785 4.23772C34.6897 3.94682 34.2766 3.54848 33.9729 3.07361C33.967 3.11861 33.9629 3.16425 33.9629 3.21092C33.9628 3.78656 34.4294 4.25323 35.0052 4.25323Z" fill="#E3D7FE"/>
<path d="M59.814 1.61285C59.5174 1.09913 58.9291 0.834768 58.3583 0.93823C58.1628 0.392971 57.6396 0.0148926 57.0463 0.0148926C56.4531 0.0148926 55.9298 0.392971 55.7343 0.93823C55.1643 0.834896 54.575 1.09913 54.2787 1.61298C53.982 2.1267 54.0478 2.76901 54.4221 3.21093C54.3177 3.33439 54.238 3.47375 54.1828 3.62132C53.863 3.23401 53.3539 3.04644 52.8591 3.13619C52.6635 2.59093 52.1403 2.21285 51.547 2.21285C50.9538 2.21285 50.4306 2.59093 50.2349 3.13619C49.6653 3.03298 49.0758 3.29696 48.7793 3.81081C48.4826 4.32453 48.5484 4.96684 48.9228 5.40876C48.8038 5.54928 48.7162 5.71017 48.6612 5.88069C48.3411 5.49735 47.8347 5.3121 47.3424 5.40107C47.1467 4.85581 46.6235 4.47773 46.0303 4.47773C45.4371 4.47773 44.9139 4.85581 44.7183 5.40107C44.2224 5.31158 43.7122 5.49979 43.3925 5.88851C43.3377 5.71517 43.2495 5.55146 43.1286 5.40876C43.5031 4.96671 43.5689 4.3244 43.2722 3.81081C42.9757 3.29696 42.3862 3.03285 41.8166 3.13619C41.6212 2.59093 41.0979 2.21285 40.5046 2.21285C39.9113 2.21285 39.3881 2.59093 39.1926 3.13619C38.6975 3.04657 38.1886 3.23414 37.8689 3.62145C37.8136 3.47388 37.7341 3.33452 37.6295 3.21106C38.004 2.76901 38.0698 2.12683 37.7731 1.6131C37.4766 1.09938 36.888 0.835024 36.3174 0.938486C36.1219 0.393228 35.5987 0.015149 35.0054 0.015149C34.4122 0.015149 33.889 0.393228 33.6935 0.938486C33.1235 0.835153 32.5342 1.09938 32.2378 1.61323C31.9411 2.12695 32.0069 2.76926 32.3813 3.21119C32.0069 3.65324 31.941 4.29542 32.2378 4.80914C32.5343 5.32299 33.1236 5.58671 33.6935 5.48376C33.8888 6.02902 34.4122 6.4071 35.0054 6.4071C35.5987 6.4071 36.1219 6.02902 36.3174 5.48376C36.8122 5.57312 37.3214 5.38581 37.6412 4.9985C37.6964 5.14607 37.776 5.28543 37.8805 5.40889C37.506 5.85094 37.4403 6.49313 37.7369 7.00685C38.0335 7.52057 38.6217 7.78467 39.1926 7.68147C39.3881 8.22672 39.9113 8.6048 40.5046 8.6048C41.0979 8.6048 41.6211 8.22672 41.8166 7.68147C42.3123 7.77121 42.8226 7.58275 43.1423 7.1939C43.1971 7.36736 43.2853 7.53108 43.4062 7.67377C43.0318 8.1157 42.9659 8.75801 43.2626 9.27173C43.5593 9.78545 44.1477 10.0496 44.7183 9.94635C44.9139 10.4915 45.4371 10.8697 46.0303 10.8697C46.6235 10.8697 47.1467 10.4916 47.3424 9.94635C47.9121 10.0499 48.5015 9.78545 48.798 9.27173C49.0946 8.75788 49.0288 8.1157 48.6544 7.67377C48.7735 7.53313 48.8611 7.37223 48.916 7.20172C49.236 7.58505 49.7424 7.77044 50.2347 7.68147C50.4303 8.2266 50.9535 8.6048 51.5467 8.6048C52.1401 8.6048 52.6633 8.22672 52.8588 7.68147C53.4286 7.78454 54.0179 7.52057 54.3145 7.00672C54.611 6.493 54.5454 5.85082 54.1709 5.40876C54.2755 5.2853 54.355 5.14594 54.4102 4.99838C54.7298 5.38556 55.2392 5.57287 55.7339 5.48351C55.9295 6.02877 56.4527 6.40684 57.0459 6.40684C57.6392 6.40684 58.1624 6.02877 58.3579 5.48351C58.9276 5.58646 59.517 5.32274 59.8136 4.80889C60.1101 4.29517 60.0445 3.65299 59.67 3.21093C60.0447 2.76875 60.1105 2.12657 59.814 1.61285ZM36.2442 5.0685C36.1381 5.03004 36.014 5.10209 35.9942 5.21286C35.9001 5.68184 35.4841 6.02223 35.005 6.02223C34.526 6.02223 34.1101 5.68184 34.0159 5.21286C33.9963 5.10197 33.8715 5.03004 33.7659 5.0685C33.3122 5.22158 32.8099 5.03132 32.5704 4.61658C32.3309 4.20171 32.4177 3.67119 32.7767 3.35529C32.8628 3.28286 32.8628 3.13901 32.7767 3.06657C32.4176 2.75067 32.3308 2.22016 32.5704 1.80529C32.8099 1.39054 33.3126 1.20015 33.7659 1.35323C33.8718 1.39157 33.9963 1.31977 34.0159 1.20887C34.11 0.740024 34.526 0.399638 35.005 0.399638C35.4841 0.399638 35.9 0.740024 35.9942 1.20887C36.0139 1.31977 36.1385 1.39182 36.2442 1.35323C36.6971 1.20028 37.2001 1.39041 37.4398 1.80529C37.6792 2.22016 37.5924 2.75055 37.2335 3.06657C37.1473 3.13901 37.1473 3.28286 37.2335 3.35529C37.5926 3.67132 37.6794 4.20183 37.4398 4.61658C37.2003 5.03132 36.6978 5.22171 36.2442 5.0685ZM42.7327 5.55299C43.0918 5.86902 43.1786 6.39941 42.939 6.81428C42.6995 7.22903 42.1968 7.41928 41.7435 7.26634C41.6375 7.22775 41.5132 7.29993 41.4935 7.4107C41.3994 7.87954 40.9834 8.21993 40.5044 8.21993C40.0253 8.21993 39.6094 7.87954 39.5151 7.4107C39.4955 7.2998 39.3708 7.22787 39.2651 7.26634C38.8121 7.41916 38.3091 7.22916 38.0696 6.81428C37.8301 6.39941 37.9169 5.86902 38.2759 5.55299C38.3621 5.48056 38.3621 5.33671 38.2759 5.26428C37.9168 4.94825 37.83 4.41773 38.0696 4.00299C38.3091 3.58811 38.8118 3.39811 39.2651 3.55106C39.371 3.5894 39.4955 3.5176 39.5151 3.4067C39.6093 2.93773 40.0253 2.59734 40.5044 2.59734C40.9834 2.59734 41.3993 2.93773 41.4935 3.4067C41.5131 3.51747 41.6377 3.58965 41.7435 3.55106C42.1966 3.39786 42.6994 3.58811 42.939 4.00299C43.1785 4.41773 43.0917 4.94825 42.7327 5.26428C42.6466 5.33671 42.6466 5.48069 42.7327 5.55299ZM48.2587 7.818C48.6176 8.1339 48.7044 8.66455 48.4649 9.07929C48.2254 9.49417 47.7225 9.68404 47.2694 9.53122C47.1634 9.49276 47.0392 9.56481 47.0194 9.67558C46.9253 10.1446 46.5093 10.4849 46.0302 10.4849C45.5511 10.4849 45.1352 10.1446 45.0409 9.67558C45.0213 9.56481 44.8966 9.49276 44.7909 9.53122C44.3384 9.68442 43.835 9.49429 43.5954 9.07929C43.3561 8.66442 43.4429 8.1339 43.8018 7.818C43.888 7.74557 43.888 7.60172 43.8018 7.52928C43.4427 7.21339 43.3559 6.68287 43.5954 6.268C43.8349 5.85312 44.3376 5.66287 44.7909 5.81607C44.8968 5.85441 45.0213 5.78261 45.0409 5.67171C45.135 5.20274 45.5511 4.86235 46.0302 4.86235C46.5093 4.86235 46.9252 5.20274 47.0194 5.67171C47.039 5.78248 47.1636 5.85466 47.2694 5.81607C47.7228 5.66299 48.2253 5.85325 48.4649 6.268C48.7043 6.68287 48.6175 7.21339 48.2587 7.52928C48.1725 7.60159 48.1725 7.74557 48.2587 7.818ZM53.7752 5.55299C54.1343 5.86902 54.2211 6.39941 53.9815 6.81428C53.742 7.22903 53.2394 7.41928 52.786 7.26634C52.68 7.22775 52.5557 7.29993 52.536 7.4107C52.4419 7.87954 52.0259 8.21993 51.5467 8.21993C51.0678 8.21993 50.6517 7.87954 50.5575 7.4107C50.5379 7.29993 50.4132 7.22787 50.3075 7.26634C49.8543 7.41941 49.3515 7.22916 49.1121 6.81428C48.8726 6.39941 48.9594 5.86889 49.3184 5.55299C49.3598 5.51646 49.3837 5.46389 49.3837 5.40863C49.3837 5.35338 49.3598 5.30081 49.3184 5.26428C48.9593 4.94825 48.8725 4.41773 49.1121 4.00299C49.3516 3.58811 49.8543 3.39811 50.3075 3.55106C50.4135 3.58927 50.5379 3.5176 50.5575 3.4067C50.6516 2.93773 51.0676 2.59734 51.5467 2.59734C52.0259 2.59734 52.4418 2.93773 52.536 3.4067C52.5556 3.51747 52.6802 3.58965 52.786 3.55106C53.2392 3.39786 53.7419 3.58811 53.9815 4.00299C54.221 4.41773 54.1342 4.94825 53.7752 5.26428C53.6891 5.33671 53.6891 5.48069 53.7752 5.55299ZM59.2746 3.35516C59.6337 3.67119 59.7205 4.20171 59.4809 4.61645C59.2414 5.03132 58.7387 5.22158 58.2854 5.06838C58.1795 5.02991 58.055 5.10197 58.0354 5.21274C57.9413 5.68171 57.5252 6.0221 57.0461 6.0221C56.5672 6.0221 56.1513 5.68171 56.057 5.21274C56.0374 5.10184 55.9127 5.02991 55.807 5.06838C55.3542 5.22133 54.851 5.03145 54.6115 4.61645C54.372 4.20158 54.4588 3.67106 54.8178 3.35516C54.9039 3.28273 54.9039 3.13888 54.8178 3.06644C54.4587 2.75055 54.3719 2.22003 54.6115 1.80516C54.8511 1.39028 55.3537 1.20041 55.807 1.3531C55.9129 1.39144 56.0374 1.31964 56.057 1.20874C56.1511 0.739896 56.5672 0.39951 57.0461 0.39951C57.5252 0.39951 57.9411 0.739896 58.0354 1.20874C58.055 1.31964 58.1797 1.39169 58.2854 1.3531C58.7381 1.20015 59.2413 1.39028 59.4809 1.80516C59.7204 2.22003 59.6336 2.75042 59.2746 3.06644C59.1885 3.13888 59.1885 3.28273 59.2746 3.35516Z" fill="black"/>
<path d="M35.27 19.7613C35.27 16.8291 29.9494 8.89777 29.9494 8.89777C29.9494 8.89777 24.6289 16.8291 24.6289 19.7613C24.6289 22.6935 27.011 25.0705 29.9494 25.0705C32.8879 25.0705 35.27 22.6935 35.27 19.7613Z" fill="#FFCF00"/>
<path d="M29.9494 12.8982C29.9494 12.8982 33.5806 18.3113 34.8432 21.8469C35.1177 21.2065 35.27 20.5017 35.27 19.7613C35.27 16.8291 29.9494 8.89777 29.9494 8.89777C29.9494 8.89777 24.6289 16.8291 24.6289 19.7613C24.6289 20.5018 24.7812 21.2067 25.0557 21.8469C26.3183 18.3113 29.9494 12.8982 29.9494 12.8982Z" fill="#FEAC01"/>
<path d="M22.1485 29.7289L16.6699 19.5203C22.1644 18.1833 25.838 20.2996 29.7209 26.0508" fill="#FF8EDE"/>
<path d="M22.1485 29.6177L16.6699 19.4091C22.1644 18.0722 25.838 20.1885 29.7209 25.9396" fill="#91D728"/>
<path d="M28.6611 26.4549L29.7219 25.9396C25.839 20.1885 22.1654 18.0722 16.6709 19.4091L17.636 21.2076C22.1217 20.4235 25.3831 22.1355 28.6611 26.4549Z" fill="#6DA52E"/>
<path d="M37.7511 29.7289L43.2297 19.5203C37.7352 18.1833 34.0615 20.2996 30.1787 26.0508" fill="#FF8EDE"/>
<path d="M37.7511 29.6177L43.2297 19.4091C37.7352 18.0722 34.0615 20.1885 30.1787 25.9396" fill="#91D728"/>
<path d="M42.2645 21.3187L43.2297 19.5203C37.7352 18.1833 34.0615 20.2996 30.1787 26.0508L31.2395 26.5661C34.5174 22.2465 37.7787 20.5345 42.2645 21.3187Z" fill="#6DA52E"/>
<path d="M34.0131 27.9076L37.6319 16.9048C31.9882 16.5401 29.0761 20.0626 27.3071 25.5976" fill="#91D728"/>
<path d="M37.1174 18.47L37.6319 16.9057C31.9882 16.5411 29.076 20.0636 27.3071 25.5986L28.7782 26.1054C30.3829 21.7116 32.856 18.8048 37.1174 18.47Z" fill="#6DA52E"/>
<path d="M25.4362 27.9076L21.8174 16.9048C27.4611 16.5401 30.3732 20.0626 32.1422 25.5976" fill="#FF8EDE"/>
<path d="M25.4362 27.7974L21.8174 16.7945C27.4611 16.4299 30.3732 19.9524 32.1422 25.4874" fill="#91D728"/>
<path d="M30.9155 25.909L32.1422 25.4864C30.3733 19.9514 27.4611 16.4291 21.8174 16.7936L22.4719 18.7836C26.7438 18.9931 29.2673 21.7114 30.9155 25.909Z" fill="#6DA52E"/>
<path d="M38.4766 26.916H21.423L15.8208 36.5987C14.4419 38.9818 14.4419 41.9202 15.8208 44.3034L21.423 53.9861H38.4766L44.0788 44.3034C45.4577 41.9203 45.4577 38.982 44.0788 36.5987L38.4766 26.916Z" fill="#FF8EDE"/>
<g opacity="0.5">
<path d="M43.373 42.3517C43.3954 40.9408 43.1972 36.4282 39.9082 34.3381C39.9082 34.3381 42.4755 38.186 42.2291 42.3091C42.2058 42.7005 42.5749 42.9984 42.9531 42.8938C43.1981 42.8259 43.369 42.6057 43.373 42.3517Z" fill="white"/>
</g>
<path d="M17.747 43.7876C16.5526 41.7233 16.5526 39.1786 17.747 37.1143L23.6475 26.9159H21.4228L15.5222 37.1143C14.3279 39.1786 14.3279 41.7231 15.5222 43.7876L20.1369 51.7634L21.4228 53.9859H38.4764L39.7623 51.7634H31.5827C25.8763 51.7634 20.6026 48.7234 17.747 43.7876Z" fill="#FD4CC8"/>
<path d="M41.1715 59.7928H18.7295L21.4236 53.986H38.4773L41.1715 59.7928Z" fill="#FC09B2"/>
<path d="M23.4898 53.986H21.4228L18.7285 59.7928H41.1707L40.3457 58.0149H26.0655C23.9917 58.0148 22.6178 55.8656 23.4898 53.986Z" fill="#BD0A95"/>
<path d="M26.3767 44.964C26.8067 44.964 27.1553 44.6157 27.1553 44.1861C27.1553 43.7566 26.8067 43.4083 26.3767 43.4083C25.9467 43.4083 25.5981 43.7566 25.5981 44.1861C25.5981 44.6157 25.9467 44.964 26.3767 44.964Z" fill="black"/>
<path d="M26.3767 37.8312C26.8067 37.8312 27.1553 37.483 27.1553 37.0534C27.1553 36.6238 26.8067 36.2756 26.3767 36.2756C25.9467 36.2756 25.5981 36.6238 25.5981 37.0534C25.5981 37.483 25.9467 37.8312 26.3767 37.8312Z" fill="black"/>
<path d="M33.5222 44.964C33.9523 44.964 34.3008 44.6157 34.3008 44.1861C34.3008 43.7566 33.9523 43.4083 33.5222 43.4083C33.0922 43.4083 32.7437 43.7566 32.7437 44.1861C32.7437 44.6157 33.0922 44.964 33.5222 44.964Z" fill="black"/>
<path d="M33.5222 37.8312C33.9523 37.8312 34.3008 37.483 34.3008 37.0534C34.3008 36.6238 33.9523 36.2756 33.5222 36.2756C33.0922 36.2756 32.7437 36.6238 32.7437 37.0534C32.7437 37.483 33.0922 37.8312 33.5222 37.8312Z" fill="black"/>
<path d="M41.0781 24.4389H18.8217C17.4918 24.4389 16.4136 25.517 16.4136 26.847V27.5852C16.4136 28.9151 17.4917 29.9933 18.8217 29.9933H41.0781C42.4079 29.9933 43.4861 28.9152 43.4861 27.5852V26.847C43.486 25.517 42.4079 24.4389 41.0781 24.4389Z" fill="#FC09B2"/>
<path d="M18.6094 25.9595L18.6383 24.4944C17.3636 24.7525 16.4054 25.8818 16.4136 27.2332C16.423 28.7717 17.7223 29.9931 19.2624 29.9931H40.7062C41.8848 29.9931 42.8918 29.2602 43.2962 28.2258H20.8336C19.5879 28.2258 18.5849 27.2039 18.6094 25.9595Z" fill="#BD0A95"/>
<path d="M36.9903 33.7827C37.0964 33.7827 37.1826 33.6967 37.1826 33.5904C37.1826 33.4842 37.0964 33.3981 36.9903 33.3981H29.9289C29.8227 33.3981 29.7365 33.4842 29.7365 33.5904V40.426H23.1019V33.6649C23.1019 33.5586 23.0157 33.4726 22.9096 33.4726C22.8034 33.4726 22.7173 33.5586 22.7173 33.6649V40.6183C22.7173 40.7246 22.8034 40.8106 22.9096 40.8106H29.7365V47.4538H23.0948C22.9887 47.4538 22.9025 47.5399 22.9025 47.6461C22.9025 47.7524 22.9887 47.8384 23.0948 47.8384H29.9289C30.035 47.8384 30.1212 47.7524 30.1212 47.6461V40.8106H36.7559V47.5745C36.7559 47.6808 36.8421 47.7668 36.9482 47.7668C37.0544 47.7668 37.1406 47.6808 37.1406 47.5745V40.6183C37.1406 40.512 37.0544 40.426 36.9482 40.426H30.1212V33.7827H36.9903Z" fill="black"/>
<path d="M44.2454 36.5024L40.5905 30.1854H41.078C42.5119 30.1854 43.6783 29.0189 43.6783 27.5852V26.8468C43.6783 25.413 42.5118 24.2466 41.078 24.2466H40.9115L43.3992 19.6112C43.4597 19.505 43.3946 19.3591 43.2752 19.3333C40.8783 18.7501 38.8475 18.8114 36.971 19.5295L37.8144 16.9649C37.8557 16.8499 37.7661 16.7176 37.6442 16.7128C36.5828 16.6445 35.5982 16.7104 34.6856 16.9132C33.2416 13.4786 30.2753 9.03662 30.1104 8.7906C30.0388 8.68406 29.8625 8.68406 29.791 8.7906C29.6243 9.03906 26.6007 13.5674 25.1735 17.0155C24.1479 16.7347 23.0282 16.6342 21.8059 16.7128C21.684 16.7176 21.5944 16.8499 21.6357 16.9649L22.4214 19.3541C20.6863 18.8073 18.808 18.8023 16.6255 19.3333C16.5062 19.3591 16.441 19.505 16.5015 19.6112L18.9891 24.2466H18.8218C17.388 24.2466 16.2215 25.4131 16.2215 26.8468V27.5852C16.2215 29.019 17.3881 30.1854 18.8218 30.1854H19.3092L15.6545 36.5024C14.2454 38.938 14.2454 41.9639 15.6545 44.3996L21.2067 53.9957L18.5545 59.7118C18.4933 59.8336 18.5928 59.9891 18.7289 59.985H41.171C41.3072 59.9891 41.4065 59.8336 41.3454 59.7118L38.6932 53.9958L44.2454 44.3996C45.6545 41.9641 45.6545 38.938 44.2454 36.5024ZM42.9418 19.65L40.475 24.2467H35.4194L36.8183 19.9938C38.6615 19.2145 40.6436 19.1278 42.9418 19.65ZM37.3707 17.0831L35.0146 24.2466H31.8745C31.3202 22.7844 30.6825 21.54 29.952 20.511C31.7848 18.0265 34.1894 16.9381 37.3707 17.0831ZM29.9506 9.24662C30.5975 10.2334 33.0419 14.0354 34.3075 17.0068C32.4971 17.4961 30.982 18.5527 29.7267 20.205C28.5642 18.675 27.1788 17.6567 25.5426 17.126C26.7929 14.1381 29.2951 10.2466 29.9506 9.24662ZM22.0793 17.0831C26.552 16.8793 29.4936 19.1123 31.4638 24.2466H24.4353L22.0793 17.0831ZM16.9587 19.65C19.0446 19.1762 20.8695 19.2062 22.5673 19.7981L24.0304 24.2467H19.4255L16.9587 19.65ZM18.8217 29.8008C17.6 29.8008 16.606 28.8068 16.606 27.5852V26.8468C16.606 25.6252 17.6 24.6312 18.8217 24.6312H41.078C42.2997 24.6312 43.2937 25.6252 43.2937 26.8468V27.5852C43.2937 28.8068 42.2997 29.8008 41.078 29.8008H18.8217ZM40.8697 59.6004H19.03L21.5458 54.1782H38.3538L40.8697 59.6004ZM38.3657 53.7937H21.534L15.9874 44.2071C14.6469 41.8903 14.6469 39.0119 15.9874 36.6951L19.7536 30.1856H40.1461L43.9124 36.6951C45.2529 39.0119 45.2529 41.8903 43.9124 44.2071L38.3657 53.7937Z" fill="black"/>
<g opacity="0.5">
<path d="M40.7063 24.4389H33.8633C34.0739 25.1402 34.7243 25.6515 35.495 25.6515H40.6434C41.1042 25.6515 41.5452 25.8379 41.8661 26.1681L43.4293 27.7771C43.4665 27.5958 43.4861 27.4081 43.4861 27.216C43.486 25.6822 42.2414 24.4389 40.7063 24.4389Z" fill="white"/>
</g>
<path d="M53.7637 20.9477L54.3075 19.9532L54.8515 20.9477L55.846 21.4917L54.8515 22.0355L54.3075 23.0301L53.7637 22.0355L52.769 21.4917L53.7637 20.9477Z" fill="#FEC54E"/>
<path d="M4.50377 49.6305L5.04775 48.636L5.59159 49.6305L6.58621 50.1745L5.59159 50.7183L5.04775 51.7129L4.50377 50.7183L3.50928 50.1745L4.50377 49.6305Z" fill="#915EFD"/>
<path d="M8.45332 26.8736C8.87815 26.8736 9.22255 26.5292 9.22255 26.1044C9.22255 25.6795 8.87815 25.3351 8.45332 25.3351C8.02848 25.3351 7.68408 25.6795 7.68408 26.1044C7.68408 26.5292 8.02848 26.8736 8.45332 26.8736Z" fill="#FE82D9"/>
<path d="M50.5031 49.4052C50.928 49.4052 51.2724 49.0608 51.2724 48.636C51.2724 48.2112 50.928 47.8668 50.5031 47.8668C50.0783 47.8668 49.7339 48.2112 49.7339 48.636C49.7339 49.0608 50.0783 49.4052 50.5031 49.4052Z" fill="#915EFD"/>
</g>
<defs>
<clipPath id="clip0_295_11023">
<rect width="60" height="60" fill="white"/>
</clipPath>
</defs>
</svg>
