<svg width="21" height="20" viewBox="0 0 21 20" fill="none" xmlns="http://www.w3.org/2000/svg">
<path d="M9.60715 0.721688C10.3807 0.275106 11.3336 0.275106 12.1071 0.721688L18.2674 4.27831C19.0409 4.72489 19.5174 5.55021 19.5174 6.44338V13.5566C19.5174 14.4498 19.0409 15.2751 18.2674 15.7217L12.1071 19.2783C11.3336 19.7249 10.3806 19.7249 9.60715 19.2783L3.44689 15.7217C2.67339 15.2751 2.19689 14.4498 2.19689 13.5566V6.44338C2.19689 5.55021 2.67339 4.72489 3.44689 4.27831L9.60715 0.721688Z" fill="#F6C54D"/>
<path d="M10.0238 1.31447C10.5395 1.01675 11.1748 1.01675 11.6905 1.31447L17.9624 4.93555C18.478 5.23327 18.7957 5.78348 18.7957 6.37893V13.6211C18.7957 14.2165 18.478 14.7667 17.9624 15.0645L11.6905 18.6855C11.1748 18.9833 10.5395 18.9833 10.0238 18.6856L3.75191 15.0645C3.23624 14.7667 2.91858 14.2165 2.91858 13.6211V6.37893C2.91858 5.78349 3.23624 5.23327 3.75191 4.93555L10.0238 1.31447Z" fill="url(#paint0_linear_135_1021)"/>
<path opacity="0.5" d="M11.3433 5.13889H10.371C9.45423 5.13889 8.99631 5.13889 8.71145 5.42375C8.42659 5.70861 8.42659 6.16652 8.42659 7.08333V9.02777H13.2877V7.08333C13.2877 6.16652 13.2877 5.70861 13.0028 5.42375C12.718 5.13889 12.2601 5.13889 11.3433 5.13889Z" fill="white"/>
<path fill-rule="evenodd" clip-rule="evenodd" d="M10.8571 14.8611C11.8885 14.8611 12.8777 14.4514 13.607 13.7221C14.3363 12.9928 14.746 12.0036 14.746 10.9722C14.746 9.94083 14.3363 8.95168 13.607 8.22237C12.8777 7.49306 11.8885 7.08334 10.8571 7.08334C9.82575 7.08334 8.83659 7.49306 8.10728 8.22237C7.37798 8.95168 6.96825 9.94083 6.96825 10.9722C6.96825 12.0036 7.37798 12.9928 8.10728 13.7221C8.83659 14.4514 9.82575 14.8611 10.8571 14.8611ZM10.8571 9.5139C10.7191 9.5139 10.6267 9.67918 10.442 10.0112L10.3944 10.0967C10.3419 10.1911 10.3156 10.2377 10.2748 10.2688C10.2335 10.2999 10.1824 10.3116 10.0803 10.3345L9.98798 10.3558C9.62923 10.437 9.44985 10.4774 9.40707 10.6145C9.3643 10.752 9.4868 10.8949 9.73131 11.1808L9.7945 11.2547C9.86402 11.3358 9.89902 11.3762 9.91457 11.4267C9.93013 11.4773 9.92478 11.5313 9.91457 11.6397L9.90485 11.7383C9.86791 12.1199 9.84943 12.311 9.96075 12.3956C10.0726 12.4801 10.2408 12.4029 10.5767 12.2483L10.6632 12.2084C10.7589 12.1647 10.8066 12.1423 10.8571 12.1423C10.9077 12.1423 10.9553 12.1647 11.0511 12.2084L11.1376 12.2483C11.4735 12.4033 11.6417 12.4801 11.7535 12.3956C11.8653 12.311 11.8464 12.1199 11.8094 11.7383L11.7997 11.6397C11.7895 11.5313 11.7842 11.4773 11.7997 11.4267C11.8153 11.3767 11.8503 11.3358 11.9198 11.2547L11.983 11.1808C12.2275 10.8949 12.35 10.752 12.3072 10.6145C12.2644 10.4774 12.0851 10.437 11.7263 10.3558L11.6339 10.3345C11.5319 10.3116 11.4808 10.3004 11.4395 10.2688C11.3987 10.2377 11.3724 10.1911 11.3199 10.0967L11.2723 10.0112C11.0876 9.67918 10.9952 9.5139 10.8571 9.5139Z" fill="white"/>
<defs>
<linearGradient id="paint0_linear_135_1021" x1="1.69019" y1="19.1666" x2="20.0236" y2="0.83312" gradientUnits="userSpaceOnUse">
<stop stop-color="#E8A312"/>
<stop offset="1" stop-color="#FFDA72"/>
</linearGradient>
</defs>
</svg>
