<svg width="29" height="28" viewBox="0 0 29 28" fill="none" xmlns="http://www.w3.org/2000/svg">
<g filter="url(#filter0_dd_135_1016)">
<g clip-path="url(#clip0_135_1016)">
<circle cx="14.8571" cy="13" r="9.84375" fill="#FFA831" stroke="#EE8F0F" stroke-width="0.3125"/>
<circle cx="14.8571" cy="13" r="8.59375" fill="url(#paint0_linear_135_1016)" stroke="#FDBD4D" stroke-width="0.3125"/>
<g filter="url(#filter1_dd_135_1016)">
<path d="M12.9421 8.38C13.5497 8.12997 14.2002 8.0009 14.8571 8C15.5121 8 16.1621 8.13 16.7721 8.38C17.3771 8.63 17.9271 9 18.3921 9.465C18.8571 9.93 19.2271 10.48 19.4771 11.085C19.7271 11.695 19.8571 12.345 19.8571 13C19.8571 14.325 19.3321 15.6 18.3921 16.535C17.9284 16.9999 17.3774 17.3686 16.7708 17.62C16.1641 17.8714 15.5138 18.0006 14.8571 18C14.2002 17.9991 13.5497 17.87 12.9421 17.62C12.336 17.3684 11.7855 16.9997 11.3221 16.535C10.8572 16.0712 10.4885 15.5202 10.2371 14.9136C9.9857 14.307 9.85658 13.6567 9.85715 13C9.85715 11.675 10.3821 10.4 11.3221 9.465C11.7871 9 12.3371 8.63 12.9421 8.38ZM14.8571 15.5L15.6371 13.79L17.3571 13L15.6371 12.22L14.8571 10.5L14.0721 12.22L12.3571 13L14.0721 13.79L14.8571 15.5Z" fill="#FDE194"/>
</g>
</g>
</g>
<defs>
<filter id="filter0_dd_135_1016" x="0.857147" y="0" width="28" height="28" filterUnits="userSpaceOnUse" color-interpolation-filters="sRGB">
<feFlood flood-opacity="0" result="BackgroundImageFix"/>
<feColorMatrix in="SourceAlpha" type="matrix" values="0 0 0 0 0 0 0 0 0 0 0 0 0 0 0 0 0 0 127 0" result="hardAlpha"/>
<feOffset dy="1"/>
<feGaussianBlur stdDeviation="2"/>
<feColorMatrix type="matrix" values="0 0 0 0 0 0 0 0 0 0 0 0 0 0 0 0 0 0 0.12 0"/>
<feBlend mode="normal" in2="BackgroundImageFix" result="effect1_dropShadow_135_1016"/>
<feColorMatrix in="SourceAlpha" type="matrix" values="0 0 0 0 0 0 0 0 0 0 0 0 0 0 0 0 0 0 127 0" result="hardAlpha"/>
<feOffset/>
<feGaussianBlur stdDeviation="0.5"/>
<feColorMatrix type="matrix" values="0 0 0 0 0 0 0 0 0 0 0 0 0 0 0 0 0 0 0.039 0"/>
<feBlend mode="normal" in2="effect1_dropShadow_135_1016" result="effect2_dropShadow_135_1016"/>
<feBlend mode="normal" in="SourceGraphic" in2="effect2_dropShadow_135_1016" result="shape"/>
</filter>
<filter id="filter1_dd_135_1016" x="8.35715" y="7" width="13" height="13" filterUnits="userSpaceOnUse" color-interpolation-filters="sRGB">
<feFlood flood-opacity="0" result="BackgroundImageFix"/>
<feColorMatrix in="SourceAlpha" type="matrix" values="0 0 0 0 0 0 0 0 0 0 0 0 0 0 0 0 0 0 127 0" result="hardAlpha"/>
<feOffset dy="0.5"/>
<feGaussianBlur stdDeviation="0.75"/>
<feColorMatrix type="matrix" values="0 0 0 0 0 0 0 0 0 0 0 0 0 0 0 0 0 0 0.12 0"/>
<feBlend mode="normal" in2="BackgroundImageFix" result="effect1_dropShadow_135_1016"/>
<feColorMatrix in="SourceAlpha" type="matrix" values="0 0 0 0 0 0 0 0 0 0 0 0 0 0 0 0 0 0 127 0" result="hardAlpha"/>
<feOffset/>
<feGaussianBlur stdDeviation="0.5"/>
<feColorMatrix type="matrix" values="0 0 0 0 0 0 0 0 0 0 0 0 0 0 0 0 0 0 0.039 0"/>
<feBlend mode="normal" in2="effect1_dropShadow_135_1016" result="effect2_dropShadow_135_1016"/>
<feBlend mode="normal" in="SourceGraphic" in2="effect2_dropShadow_135_1016" result="shape"/>
</filter>
<linearGradient id="paint0_linear_135_1016" x1="21.9665" y1="17.9219" x2="7.04465" y2="9.25" gradientUnits="userSpaceOnUse">
<stop stop-color="#FEC258"/>
<stop offset="0.493004" stop-color="#F8AA1E"/>
<stop offset="0.978599" stop-color="#FEC258"/>
</linearGradient>
<clipPath id="clip0_135_1016">
<path d="M4.85715 13C4.85715 7.47715 9.3343 3 14.8571 3C20.38 3 24.8571 7.47715 24.8571 13C24.8571 18.5228 20.38 23 14.8571 23C9.3343 23 4.85715 18.5228 4.85715 13Z" fill="white"/>
</clipPath>
</defs>
</svg>
